  0
SECTION
  2
HEADER
  9
$ACADVER
  1
AC1015
  9
$ACADMAINTVER
 70
     6
  9
$DWGCODEPAGE
  3
DOS932
  9
$INSBASE
 10
0.0
 20
0.0
 30
0.0
  9
$EXTMIN
 10
0.0
 20
0.0
 30
0.0
  9
$EXTMAX
 10
900.0
 20
600.0
 30
0.0
  9
$LIMMIN
 10
0.0
 20
0.0
  9
$LIMMAX
 10
900.0
 20
600.0
  9
$ORTHOMODE
 70
     0
  9
$REGENMODE
 70
     1
  9
$FILLMODE
 70
     1
  9
$QTEXTMODE
 70
     0
  9
$MIRRTEXT
 70
     1
  9
$LTSCALE
 40
1.0
  9
$ATTMODE
 70
     1
  9
$TEXTSIZE
 40
3.5
  9
$TRACEWID
 40
1.0
  9
$TEXTSTYLE
  7
Standard
  9
$CLAYER
  8
0
  9
$CELTYPE
  6
ByLayer
  9
$CECOLOR
 62
   256
  9
$CELTSCALE
 40
1.0
  9
$DISPSILH
 70
     0
  9
$DIMSCALE
 40
1.0
  9
$DIMASZ
 40
6.0
  9
$DIMEXO
 40
1.0
  9
$DIMDLI
 40
3.75
  9
$DIMRND
 40
0.0
  9
$DIMDLE
 40
0.0
  9
$DIMEXE
 40
1.0
  9
$DIMTP
 40
0.0
  9
$DIMTM
 40
0.0
  9
$DIMTXT
 40
3.5
  9
$DIMCEN
 40
2.5
  9
$DIMTSZ
 40
0.0
  9
$DIMTOL
 70
     0
  9
$DIMLIM
 70
     0
  9
$DIMTIH
 70
     1
  9
$DIMTOH
 70
     1
  9
$DIMSE1
 70
     0
  9
$DIMSE2
 70
     0
  9
$DIMTAD
 70
     1
  9
$DIMZIN
 70
     0
  9
$DIMBLK
  1

  9
$DIMASO
 70
     1
  9
$DIMSHO
 70
     1
  9
$DIMPOST
  1

  9
$DIMAPOST
  1

  9
$DIMALT
 70
     0
  9
$DIMALTD
 70
     3
  9
$DIMALTF
 40
0.0393700787
  9
$DIMLFAC
 40
1.0
  9
$DIMTOFL
 70
     1
  9
$DIMTVP
 40
0.0
  9
$DIMTIX
 70
     0
  9
$DIMSOXD
 70
     0
  9
$DIMSAH
 70
     0
  9
$DIMBLK1
  1

  9
$DIMBLK2
  1

  9
$DIMSTYLE
  2
ISO-25
  9
$DIMCLRD
 70
     0
  9
$DIMCLRE
 70
     0
  9
$DIMCLRT
 70
     0
  9
$DIMTFAC
 40
1.0
  9
$DIMGAP
 40
1.524
  9
$DIMJUST
 70
     0
  9
$DIMSD1
 70
     0
  9
$DIMSD2
 70
     0
  9
$DIMTOLJ
 70
     0
  9
$DIMTZIN
 70
     0
  9
$DIMALTZ
 70
     0
  9
$DIMALTTZ
 70
     0
  9
$DIMUPT
 70
     0
  9
$DIMDEC
 70
     2
  9
$DIMTDEC
 70
     2
  9
$DIMALTU
 70
     2
  9
$DIMALTTD
 70
     3
  9
$DIMTXSTY
  7
Standard
  9
$DIMAUNIT
 70
     0
  9
$DIMADEC
 70
     0
  9
$DIMALTRND
 40
0.0
  9
$DIMAZIN
 70
     0
  9
$DIMDSEP
 70
    44
  9
$DIMATFIT
 70
     3
  9
$DIMFRAC
 70
     0
  9
$DIMLDRBLK
  1

  9
$DIMLUNIT
 70
     2
  9
$DIMLWD
 70
    -2
  9
$DIMLWE
 70
    -2
  9
$DIMTMOVE
 70
     0
  9
$LUNITS
 70
     2
  9
$LUPREC
 70
     2
  9
$SKETCHINC
 40
1.0
  9
$FILLETRAD
 40
10.0
  9
$AUNITS
 70
     0
  9
$AUPREC
 70
     0
  9
$MENU
  1
.
  9
$ELEVATION
 40
0.0
  9
$PELEVATION
 40
0.0
  9
$THICKNESS
 40
0.0
  9
$LIMCHECK
 70
     0
  9
$CHAMFERA
 40
10.0
  9
$CHAMFERB
 40
10.0
  9
$CHAMFERC
 40
20.0
  9
$CHAMFERD
 40
0.0
  9
$SKPOLY
 70
     0
  9
$TDCREATE
 40
2456485.887641482
  9
$TDUCREATE
 40
2456485.512641482
  9
$TDUPDATE
 40
2456485.887641493
  9
$TDUUPDATE
 40
2456485.512641493
  9
$TDINDWG
 40
0.0000000116
  9
$TDUSRTIMER
 40
0.0000000116
  9
$USRTIMER
 70
     1
  9
$ANGBASE
 50
0.0
  9
$ANGDIR
 70
     0
  9
$PDMODE
 70
     0
  9
$PDSIZE
 40
-1.0
  9
$PLINEWID
 40
0.0
  9
$SPLFRAME
 70
     0
  9
$SPLINETYPE
 70
     6
  9
$SPLINESEGS
 70
     8
  9
$HANDSEED
  5
311
  9
$SURFTAB1
 70
     6
  9
$SURFTAB2
 70
     6
  9
$SURFTYPE
 70
     6
  9
$SURFU
 70
     6
  9
$SURFV
 70
     6
  9
$UCSBASE
  2

  9
$UCSNAME
  2

  9
$UCSORG
 10
0.0
 20
0.0
 30
0.0
  9
$UCSXDIR
 10
1.0
 20
0.0
 30
0.0
  9
$UCSYDIR
 10
0.0
 20
1.0
 30
0.0
  9
$UCSORTHOREF
  2

  9
$UCSORTHOVIEW
 70
     0
  9
$UCSORGTOP
 10
0.0
 20
0.0
 30
0.0
  9
$UCSORGBOTTOM
 10
0.0
 20
0.0
 30
0.0
  9
$UCSORGLEFT
 10
0.0
 20
0.0
 30
0.0
  9
$UCSORGRIGHT
 10
0.0
 20
0.0
 30
0.0
  9
$UCSORGFRONT
 10
0.0
 20
0.0
 30
0.0
  9
$UCSORGBACK
 10
0.0
 20
0.0
 30
0.0
  9
$PUCSBASE
  2

  9
$PUCSNAME
  2

  9
$PUCSORG
 10
0.0
 20
0.0
 30
0.0
  9
$PUCSXDIR
 10
1.0
 20
0.0
 30
0.0
  9
$PUCSYDIR
 10
0.0
 20
1.0
 30
0.0
  9
$PUCSORTHOREF
  2

  9
$PUCSORTHOVIEW
 70
     0
  9
$PUCSORGTOP
 10
0.0
 20
0.0
 30
0.0
  9
$PUCSORGBOTTOM
 10
0.0
 20
0.0
 30
0.0
  9
$PUCSORGLEFT
 10
0.0
 20
0.0
 30
0.0
  9
$PUCSORGRIGHT
 10
0.0
 20
0.0
 30
0.0
  9
$PUCSORGFRONT
 10
0.0
 20
0.0
 30
0.0
  9
$PUCSORGBACK
 10
0.0
 20
0.0
 30
0.0
  9
$USERI1
 70
     0
  9
$USERI2
 70
     0
  9
$USERI3
 70
     0
  9
$USERI4
 70
     0
  9
$USERI5
 70
     0
  9
$USERR1
 40
0.0
  9
$USERR2
 40
0.0
  9
$USERR3
 40
0.0
  9
$USERR4
 40
0.0
  9
$USERR5
 40
0.0
  9
$WORLDVIEW
 70
     1
  9
$SHADEDGE
 70
     3
  9
$SHADEDIF
 70
    70
  9
$TILEMODE
 70
     1
  9
$MAXACTVP
 70
    64
  9
$PINSBASE
 10
0.0
 20
0.0
 30
0.0
  9
$PLIMCHECK
 70
     0
  9
$PEXTMIN
 10
1.0000000000E+20
 20
1.0000000000E+20
 30
1.0000000000E+20
  9
$PEXTMAX
 10
-1.0000000000E+20
 20
-1.0000000000E+20
 30
-1.0000000000E+20
  9
$PLIMMIN
 10
0.0
 20
0.0
  9
$PLIMMAX
 10
420.0
 20
297.0
  9
$UNITMODE
 70
     0
  9
$VISRETAIN
 70
     1
  9
$PLINEGEN
 70
     0
  9
$PSLTSCALE
 70
     1
  9
$TREEDEPTH
 70
  3020
  9
$CMLSTYLE
  2
Standard
  9
$CMLJUST
 70
     0
  9
$CMLSCALE
 40
20.0
  9
$PROXYGRAPHICS
 70
     1
  9
$MEASUREMENT
 70
     1
  9
$CELWEIGHT
370
    -1
  9
$ENDCAPS
280
     0
  9
$JOINSTYLE
280
     0
  9
$LWDISPLAY
290
     1
  9
$INSUNITS
 70
     4
  9
$HYPERLINKBASE
  1

  9
$STYLESHEET
  1

  9
$XEDIT
290
     1
  9
$CEPSNTYPE
380
     0
  9
$PSTYLEMODE
290
     1
  9
$FINGERPRINTGUID
  2
{622F2972-8066-4682-801C-D7CEEC8436CA}
  9
$VERSIONGUID
  2
{FAEB1C32-E019-11D5-929B-00C0DF256EC4}
  9
$EXTNAMES
290
     1
  9
$PSVPSCALE
 40
0.0
  9
$OLESTARTUP
290
     0
  0
ENDSEC
  0
SECTION
  2
CLASSES
  0
CLASS
  1
ACDBDICTIONARYWDFLT
  2
AcDbDictionaryWithDefault
  3
ObjectDBX Classes
 90
        0
280
     0
281
     0
  0
CLASS
  1
VISUALSTYLE
  2
AcDbVisualStyle
  3
ObjectDBX Classes
 90
     4095
280
     0
281
     0
  0
CLASS
  1
DICTIONARYVAR
  2
AcDbDictionaryVar
  3
ObjectDBX Classes
 90
        0
280
     0
281
     0
  0
CLASS
  1
ACDBPLACEHOLDER
  2
AcDbPlaceHolder
  3
ObjectDBX Classes
 90
        0
280
     0
281
     0
  0
CLASS
  1
LAYOUT
  2
AcDbLayout
  3
ObjectDBX Classes
 90
        0
280
     0
281
     0
  0
ENDSEC
  0
SECTION
  2
TABLES
  0
TABLE
  2
VPORT
  5
8
330
0
100
AcDbSymbolTable
 70
     1
  0
VPORT
  5
29
330
8
100
AcDbSymbolTableRecord
100
AcDbViewportTableRecord
  2
*Active
 70
     0
 10
0.0
 20
0.0
 11
1.0
 21
1.0
 12
450.0
 22
300.0
 13
0.0
 23
0.0
 14
10.0
 24
10.0
 15
10.0
 25
10.0
 16
0.0
 26
0.0
 36
1.0
 17
0.0
 27
0.0
 37
0.0
 40
600.0
 41
1.5
 42
50.0
 43
0.0
 44
0.0
 50
0.0
 51
0.0
 71
     0
 72
  2000
 73
     1
 74
     3
 75
     0
 76
     0
 77
     0
 78
     0
281
     0
 65
     1
110
0.0
120
0.0
130
0.0
111
1.0
121
0.0
131
0.0
112
0.0
122
1.0
132
0.0
 79
     0
146
0.0
  0
ENDTAB
  0
TABLE
  2
LTYPE
  5
5
330
0
100
AcDbSymbolTable
 70
     6
  0
LTYPE
  5
14
330
5
100
AcDbSymbolTableRecord
100
AcDbLinetypeTableRecord
  2
ByBlock
 70
     0
  3

 72
    65
 73
     0
 40
0.0
  0
LTYPE
  5
15
330
5
100
AcDbSymbolTableRecord
100
AcDbLinetypeTableRecord
  2
ByLayer
 70
     0
  3

 72
    65
 73
     0
 40
0.0
  0
LTYPE
  5
16
330
5
100
AcDbSymbolTableRecord
100
AcDbLinetypeTableRecord
  2
Continuous
 70
     0
  3
Solid line
 72
    65
 73
     0
 40
0.0
  0
LTYPE
  5
3B
330
5
100
AcDbSymbolTableRecord
100
AcDbLinetypeTableRecord
  2
HIDDEN
 70
     0
  3
Hidden __ __ __ __ __ __ __ __ __ __ __ __ __ __
 72
    65
 73
     2
 40
1.905
 49
1.27
 74
     0
 49
-0.635
 74
     0
  0
LTYPE
  5
3C
330
5
100
AcDbSymbolTableRecord
100
AcDbLinetypeTableRecord
  2
PHANTOM
 70
     0
  3
Phantom ______  __  __  ______  __  __  ______
 72
    65
 73
     6
 40
12.7
 49
6.35
 74
     0
 49
-1.27
 74
     0
 49
1.27
 74
     0
 49
-1.27
 74
     0
 49
1.27
 74
     0
 49
-1.27
 74
     0
  0
LTYPE
  5
3D
330
5
100
AcDbSymbolTableRecord
100
AcDbLinetypeTableRecord
  2
CENTER
 70
     0
  3
Center ____ _ ____ _ ____ _ ____ _ ____ _ ____
 72
    65
 73
     4
 40
10.16
 49
6.35
 74
     0
 49
-1.27
 74
     0
 49
1.27
 74
     0
 49
-1.27
 74
     0
  0
LTYPE
  5
3E
330
5
100
AcDbSymbolTableRecord
100
AcDbLinetypeTableRecord
  2
CENTERX2
 70
     0
  3
Center (2x) ________  __  ________  __  _____
 72
    65
 73
     4
 40
20.32
 49
12.7
 74
     0
 49
-2.54
 74
     0
 49
2.54
 74
     0
 49
-2.54
 74
     0
  0
LTYPE
  5
3F
330
5
100
AcDbSymbolTableRecord
100
AcDbLinetypeTableRecord
  2
DOT2
 70
     0
  3
Dot (.5x) ........................................
 72
    65
 73
     2
 40
0.635
 49
0.0
 74
     0
 49
-0.635
 74
     0
  0
ENDTAB
  0
TABLE
  2
LAYER
  5
2
330
0
100
AcDbSymbolTable
 70
     1
  0
LAYER
  5
10
330
2
100
AcDbSymbolTableRecord
100
AcDbLayerTableRecord
  2
0
 70
     0
 62
     7
  6
Continuous
370
    -3
390
F
  0
ENDTAB
  0
TABLE
  2
STYLE
  5
3
330
0
100
AcDbSymbolTable
 70
     1
  0
STYLE
  5
11
330
3
100
AcDbSymbolTableRecord
100
AcDbTextStyleTableRecord
  2
Standard
 70
     0
 40
0.0
 41
1.0
 50
0.0
 71
     0
 42
2.5
  3
txt
  4
bigfont
  0
ENDTAB
  0
TABLE
  2
VIEW
  5
6
330
0
100
AcDbSymbolTable
 70
     0
  0
ENDTAB
  0
TABLE
  2
UCS
  5
7
330
0
100
AcDbSymbolTable
 70
     0
  0
ENDTAB
  0
TABLE
  2
APPID
  5
9
330
0
100
AcDbSymbolTable
 70
     1
  0
APPID
  5
12
330
9
100
AcDbSymbolTableRecord
100
AcDbRegAppTableRecord
  2
ACAD
 70
     0
  0
ENDTAB
  0
TABLE
  2
DIMSTYLE
  5
A
330
0
100
AcDbSymbolTable
 70
     1
100
AcDbDimStyleTable
  0
DIMSTYLE
105
27
330
A
100
AcDbSymbolTableRecord
100
AcDbDimStyleTableRecord
  2
ISO-25
 70
     0
 41
2.5
 42
0.625
 43
3.75
 44
1.25
 73
     0
 74
     0
 77
     1
 78
     8
140
2.5
141
2.5
143
0.0393700787
147
0.625
171
     3
172
     1
271
     2
272
     2
274
     3
278
    44
283
     0
284
     8
340
11
  0
ENDTAB
  0
TABLE
  2
BLOCK_RECORD
  5
1
330
0
100
AcDbSymbolTable
 70
     1
  0
BLOCK_RECORD
  5
1F
330
1
100
AcDbSymbolTableRecord
100
AcDbBlockTableRecord
  2
*Model_Space
340
22
  0
BLOCK_RECORD
  5
1B
330
1
100
AcDbSymbolTableRecord
100
AcDbBlockTableRecord
  2
*Paper_Space
340
1E
  0
BLOCK_RECORD
  5
23
330
1
100
AcDbSymbolTableRecord
100
AcDbBlockTableRecord
  2
*Paper_Space0
340
26
  0
ENDTAB
  0
ENDSEC
  0
SECTION
  2
BLOCKS
  0
BLOCK
  5
20
330
1F
100
AcDbEntity
  8
0
100
AcDbBlockBegin
  2
*Model_Space
 70
     0
 10
0.0
 20
0.0
 30
0.0
  3
*Model_Space
  1

  0
ENDBLK
  5
21
330
1F
100
AcDbEntity
  8
0
100
AcDbBlockEnd
  0
BLOCK
  5
1C
330
1B
100
AcDbEntity
 67
     1
  8
0
100
AcDbBlockBegin
  2
*Paper_Space
 70
     0
 10
0.0
 20
0.0
 30
0.0
  3
*Paper_Space
  1

  0
ENDBLK
  5
1D
330
1B
100
AcDbEntity
 67
     1
  8
0
100
AcDbBlockEnd
  0
BLOCK
  5
24
330
23
100
AcDbEntity
  8
0
100
AcDbBlockBegin
  2
*Paper_Space0
 70
     0
 10
0.0
 20
0.0
 30
0.0
  3
*Paper_Space0
  1

  0
ENDBLK
  5
25
330
23
100
AcDbEntity
  8
0
100
AcDbBlockEnd
  0
ENDSEC
  0
SECTION
  2
ENTITIES
  0
CIRCLE
  5
40
330
1F
100
AcDbEntity
  8
0
  6
Continuous
 62
     7
370
    15
100
AcDbCircle
 10
371.2433461224
 20
392.4621904463
 30
0.0
 40
12.50000000000006
  0
CIRCLE
  5
41
330
1F
100
AcDbEntity
  8
0
  6
Continuous
 62
     7
370
    15
100
AcDbCircle
 10
371.2433461224
 20
462.4621904463
 30
0.0
 40
1.500000000000057
  0
CIRCLE
  5
42
330
1F
100
AcDbEntity
  8
0
  6
Continuous
 62
     7
370
    15
100
AcDbCircle
 10
371.2433461224
 20
322.4621904463
 30
0.0
 40
1.5
  0
LINE
  5
43
330
1F
100
AcDbEntity
  8
0
  6
Continuous
 62
     7
370
    15
100
AcDbLine
 10
21.2433460107
 20
275.9979064436
 30
0.0
 11
23.6433461247
 21
275.9979064436
 31
0.0
  0
LINE
  5
44
330
1F
100
AcDbEntity
  8
0
  6
Continuous
 62
     7
370
    15
100
AcDbLine
 10
23.6433461247
 20
275.9979064436
 30
0.0
 11
23.6433461247
 21
277.2479052515
 31
0.0
  0
LINE
  5
45
330
1F
100
AcDbEntity
  8
0
  6
Continuous
 62
     7
370
    15
100
AcDbLine
 10
23.6433461247
 20
277.2479052515
 30
0.0
 11
26.2433458989
 21
277.2479052515
 31
0.0
  0
LINE
  5
46
330
1F
100
AcDbEntity
  8
0
  6
Continuous
 62
     7
370
    15
100
AcDbLine
 10
26.2433458989
 20
277.2479052515
 30
0.0
 11
26.2433458989
 21
280.2479038806
 31
0.0
  0
LINE
  5
47
330
1F
100
AcDbEntity
  8
0
  6
Continuous
 62
     7
370
    15
100
AcDbLine
 10
26.2433458989
 20
280.2479038806
 30
0.0
 11
23.6433461247
 21
280.2479038806
 31
0.0
  0
LINE
  5
48
330
1F
100
AcDbEntity
  8
0
  6
Continuous
 62
     7
370
    15
100
AcDbLine
 10
23.6433461247
 20
280.2479038806
 30
0.0
 11
23.6433461247
 21
281.4979026885
 31
0.0
  0
LINE
  5
49
330
1F
100
AcDbEntity
  8
0
  6
Continuous
 62
     7
370
    15
100
AcDbLine
 10
23.6433461247
 20
281.4979026885
 30
0.0
 11
21.2433460107
 21
281.4979026885
 31
0.0
  0
LINE
  5
4A
330
1F
100
AcDbEntity
  8
0
  6
Continuous
 62
     7
370
    15
100
AcDbLine
 10
21.2433460107
 20
281.4979026885
 30
0.0
 11
21.2433460107
 21
280.2479038806
 31
0.0
  0
LINE
  5
4B
330
1F
100
AcDbEntity
  8
0
  6
Continuous
 62
     7
370
    15
100
AcDbLine
 10
21.2433460107
 20
280.2479038806
 30
0.0
 11
16.2433461224
 21
280.2479038806
 31
0.0
  0
LINE
  5
4C
330
1F
100
AcDbEntity
  8
0
  6
Continuous
 62
     7
370
    15
100
AcDbLine
 10
16.2433461224
 20
297.1764798135
 30
0.0
 11
16.2433461224
 21
280.2479038806
 31
0.0
  0
LINE
  5
4D
330
1F
100
AcDbEntity
  8
0
  6
Continuous
 62
     7
370
    15
100
AcDbLine
 10
10.7433461523
 20
297.1764798135
 30
0.0
 11
16.2433461224
 21
297.1764798135
 31
0.0
  0
LINE
  5
4E
330
1F
100
AcDbEntity
  8
0
  6
Continuous
 62
     7
370
    15
100
AcDbLine
 10
10.7433461523
 20
317.1764756412
 30
0.0
 11
10.7433461523
 21
297.1764798135
 31
0.0
  0
LINE
  5
4F
330
1F
100
AcDbEntity
  8
0
  6
Continuous
 62
     7
370
    15
100
AcDbLine
 10
10.7433461523
 20
317.1764756412
 30
0.0
 11
16.2433461224
 21
317.1764756412
 31
0.0
  0
LINE
  5
50
330
1F
100
AcDbEntity
  8
0
  6
Continuous
 62
     7
370
    15
100
AcDbLine
 10
16.2433461224
 20
354.0336261363
 30
0.0
 11
16.2433461224
 21
317.1764756412
 31
0.0
  0
LINE
  5
51
330
1F
100
AcDbEntity
  8
0
  6
Continuous
 62
     7
370
    15
100
AcDbLine
 10
10.7433461523
 20
354.0336261363
 30
0.0
 11
16.2433461224
 21
354.0336261363
 31
0.0
  0
LINE
  5
52
330
1F
100
AcDbEntity
  8
0
  6
Continuous
 62
     7
370
    15
100
AcDbLine
 10
10.7433461523
 20
374.0336219639
 30
0.0
 11
10.7433461523
 21
354.0336261363
 31
0.0
  0
LINE
  5
53
330
1F
100
AcDbEntity
  8
0
  6
Continuous
 62
     7
370
    15
100
AcDbLine
 10
10.7433461523
 20
374.0336219639
 30
0.0
 11
16.2433461224
 21
374.0336219639
 31
0.0
  0
LINE
  5
54
330
1F
100
AcDbEntity
  8
0
  6
Continuous
 62
     7
370
    15
100
AcDbLine
 10
16.2433461224
 20
390.9621904463
 30
0.0
 11
16.2433461224
 21
374.0336219639
 31
0.0
  0
LINE
  5
55
330
1F
100
AcDbEntity
  8
0
  6
Continuous
 62
     7
370
    15
100
AcDbLine
 10
16.2433461224
 20
390.9621904463
 30
0.0
 11
21.2433460107
 21
390.9621904463
 31
0.0
  0
LINE
  5
56
330
1F
100
AcDbEntity
  8
0
  6
Continuous
 62
     7
370
    15
100
AcDbLine
 10
21.2433460107
 20
390.9621904463
 30
0.0
 11
21.2433460107
 21
389.7121916384
 31
0.0
  0
LINE
  5
57
330
1F
100
AcDbEntity
  8
0
  6
Continuous
 62
     7
370
    15
100
AcDbLine
 10
21.2433460107
 20
389.7121916384
 30
0.0
 11
23.6433461247
 21
389.7121916384
 31
0.0
  0
LINE
  5
58
330
1F
100
AcDbEntity
  8
0
  6
Continuous
 62
     7
370
    15
100
AcDbLine
 10
23.6433461247
 20
389.7121916384
 30
0.0
 11
23.6433461247
 21
390.9621904463
 31
0.0
  0
LINE
  5
59
330
1F
100
AcDbEntity
  8
0
  6
Continuous
 62
     7
370
    15
100
AcDbLine
 10
23.6433461247
 20
390.9621904463
 30
0.0
 11
26.2433458989
 21
390.9621904463
 31
0.0
  0
LINE
  5
5A
330
1F
100
AcDbEntity
  8
0
  6
Continuous
 62
     7
370
    15
100
AcDbLine
 10
26.2433458989
 20
390.9621904463
 30
0.0
 11
26.2433458989
 21
393.962196526
 31
0.0
  0
LINE
  5
5B
330
1F
100
AcDbEntity
  8
0
  6
Continuous
 62
     7
370
    15
100
AcDbLine
 10
26.2433458989
 20
393.962196526
 30
0.0
 11
23.6433461247
 21
393.962196526
 31
0.0
  0
LINE
  5
5C
330
1F
100
AcDbEntity
  8
0
  6
Continuous
 62
     7
370
    15
100
AcDbLine
 10
23.6433461247
 20
393.962196526
 30
0.0
 11
23.6433461247
 21
395.2121953339
 31
0.0
  0
LINE
  5
5D
330
1F
100
AcDbEntity
  8
0
  6
Continuous
 62
     7
370
    15
100
AcDbLine
 10
23.6433461247
 20
395.2121953339
 30
0.0
 11
21.2433460107
 21
395.2121953339
 31
0.0
  0
LINE
  5
5E
330
1F
100
AcDbEntity
  8
0
  6
Continuous
 62
     7
370
    15
100
AcDbLine
 10
21.2433460107
 20
395.2121953339
 30
0.0
 11
21.2433460107
 21
393.962196526
 31
0.0
  0
LINE
  5
5F
330
1F
100
AcDbEntity
  8
0
  6
Continuous
 62
     7
370
    15
100
AcDbLine
 10
21.2433460107
 20
393.962196526
 30
0.0
 11
16.2433461224
 21
393.962196526
 31
0.0
  0
LINE
  5
60
330
1F
100
AcDbEntity
  8
0
  6
Continuous
 62
     7
370
    15
100
AcDbLine
 10
16.2433461224
 20
410.8907650084
 30
0.0
 11
16.2433461224
 21
393.962196526
 31
0.0
  0
LINE
  5
61
330
1F
100
AcDbEntity
  8
0
  6
Continuous
 62
     7
370
    15
100
AcDbLine
 10
10.7433461523
 20
410.8907650084
 30
0.0
 11
16.2433461224
 21
410.8907650084
 31
0.0
  0
LINE
  5
62
330
1F
100
AcDbEntity
  8
0
  6
Continuous
 62
     7
370
    15
100
AcDbLine
 10
10.7433461523
 20
430.8907608361
 30
0.0
 11
10.7433461523
 21
410.8907650084
 31
0.0
  0
LINE
  5
63
330
1F
100
AcDbEntity
  8
0
  6
Continuous
 62
     7
370
    15
100
AcDbLine
 10
10.7433461523
 20
430.8907608361
 30
0.0
 11
16.2433461224
 21
430.8907608361
 31
0.0
  0
LINE
  5
64
330
1F
100
AcDbEntity
  8
0
  6
Continuous
 62
     7
370
    15
100
AcDbLine
 10
16.2433461224
 20
467.7479038806
 30
0.0
 11
16.2433461224
 21
430.8907608361
 31
0.0
  0
LINE
  5
65
330
1F
100
AcDbEntity
  8
0
  6
Continuous
 62
     7
370
    15
100
AcDbLine
 10
10.7433461523
 20
467.7479038806
 30
0.0
 11
16.2433461224
 21
467.7479038806
 31
0.0
  0
LINE
  5
66
330
1F
100
AcDbEntity
  8
0
  6
Continuous
 62
     7
370
    15
100
AcDbLine
 10
10.7433461523
 20
487.7479146094
 30
0.0
 11
10.7433461523
 21
467.7479038806
 31
0.0
  0
LINE
  5
67
330
1F
100
AcDbEntity
  8
0
  6
Continuous
 62
     7
370
    15
100
AcDbLine
 10
10.7433461523
 20
487.7479146094
 30
0.0
 11
16.2433461224
 21
487.7479146094
 31
0.0
  0
LINE
  5
68
330
1F
100
AcDbEntity
  8
0
  6
Continuous
 62
     7
370
    15
100
AcDbLine
 10
16.2433461224
 20
504.6764681906
 30
0.0
 11
16.2433461224
 21
487.7479146094
 31
0.0
  0
LINE
  5
69
330
1F
100
AcDbEntity
  8
0
  6
Continuous
 62
     7
370
    15
100
AcDbLine
 10
16.2433461224
 20
504.6764681906
 30
0.0
 11
21.2433460107
 21
504.6764681906
 31
0.0
  0
LINE
  5
6A
330
1F
100
AcDbEntity
  8
0
  6
Continuous
 62
     7
370
    15
100
AcDbLine
 10
21.2433460107
 20
504.6764681906
 30
0.0
 11
21.2433460107
 21
503.4264693827
 31
0.0
  0
LINE
  5
6B
330
1F
100
AcDbEntity
  8
0
  6
Continuous
 62
     7
370
    15
100
AcDbLine
 10
21.2433460107
 20
503.4264693827
 30
0.0
 11
23.6433461247
 21
503.4264693827
 31
0.0
  0
LINE
  5
6C
330
1F
100
AcDbEntity
  8
0
  6
Continuous
 62
     7
370
    15
100
AcDbLine
 10
23.6433461247
 20
503.4264693827
 30
0.0
 11
23.6433461247
 21
504.6764681906
 31
0.0
  0
LINE
  5
6D
330
1F
100
AcDbEntity
  8
0
  6
Continuous
 62
     7
370
    15
100
AcDbLine
 10
23.6433461247
 20
504.6764681906
 30
0.0
 11
26.2433458989
 21
504.6764681906
 31
0.0
  0
LINE
  5
6E
330
1F
100
AcDbEntity
  8
0
  6
Continuous
 62
     7
370
    15
100
AcDbLine
 10
26.2433458989
 20
504.6764681906
 30
0.0
 11
26.2433458989
 21
507.6764891715
 31
0.0
  0
LINE
  5
6F
330
1F
100
AcDbEntity
  8
0
  6
Continuous
 62
     7
370
    15
100
AcDbLine
 10
26.2433458989
 20
507.6764891715
 30
0.0
 11
23.6433461247
 21
507.6764891715
 31
0.0
  0
LINE
  5
70
330
1F
100
AcDbEntity
  8
0
  6
Continuous
 62
     7
370
    15
100
AcDbLine
 10
23.6433461247
 20
507.6764891715
 30
0.0
 11
23.6433461247
 21
508.9264879794
 31
0.0
  0
LINE
  5
71
330
1F
100
AcDbEntity
  8
0
  6
Continuous
 62
     7
370
    15
100
AcDbLine
 10
23.6433461247
 20
508.9264879794
 30
0.0
 11
21.2433460107
 21
508.9264879794
 31
0.0
  0
LINE
  5
72
330
1F
100
AcDbEntity
  8
0
  6
Continuous
 62
     7
370
    15
100
AcDbLine
 10
21.2433460107
 20
508.9264879794
 30
0.0
 11
21.2433460107
 21
507.6764891715
 31
0.0
  0
LINE
  5
73
330
1F
100
AcDbEntity
  8
0
  6
Continuous
 62
     7
370
    15
100
AcDbLine
 10
21.2433460107
 20
507.6764891715
 30
0.0
 11
16.2433461224
 21
507.6764891715
 31
0.0
  0
LINE
  5
74
330
1F
100
AcDbEntity
  8
0
  6
Continuous
 62
     7
370
    15
100
AcDbLine
 10
16.2433461224
 20
524.6050427527
 30
0.0
 11
16.2433461224
 21
507.6764891715
 31
0.0
  0
LINE
  5
75
330
1F
100
AcDbEntity
  8
0
  6
Continuous
 62
     7
370
    15
100
AcDbLine
 10
10.7433461523
 20
524.6050427527
 30
0.0
 11
16.2433461224
 21
524.6050427527
 31
0.0
  0
LINE
  5
76
330
1F
100
AcDbEntity
  8
0
  6
Continuous
 62
     7
370
    15
100
AcDbLine
 10
10.7433461523
 20
544.6050534815
 30
0.0
 11
10.7433461523
 21
524.6050427527
 31
0.0
  0
LINE
  5
77
330
1F
100
AcDbEntity
  8
0
  6
Continuous
 62
     7
370
    15
100
AcDbLine
 10
10.7433461523
 20
544.6050534815
 30
0.0
 11
16.2433461224
 21
544.6050534815
 31
0.0
  0
LINE
  5
78
330
1F
100
AcDbEntity
  8
0
  6
Continuous
 62
     7
370
    15
100
AcDbLine
 10
16.2433461224
 20
581.4621816249
 30
0.0
 11
16.2433461224
 21
544.6050534815
 31
0.0
  0
LINE
  5
79
330
1F
100
AcDbEntity
  8
0
  6
Continuous
 62
     7
370
    15
100
AcDbLine
 10
54.6719171977
 20
586.9622002215
 30
0.0
 11
54.6719171977
 21
581.4621816249
 31
0.0
  0
LINE
  5
7A
330
1F
100
AcDbEntity
  8
0
  6
Continuous
 62
     7
370
    15
100
AcDbLine
 10
54.6719171977
 20
586.9622002215
 30
0.0
 11
74.6719167506
 21
586.9622002215
 31
0.0
  0
LINE
  5
7B
330
1F
100
AcDbEntity
  8
0
  6
Continuous
 62
     7
370
    15
100
AcDbLine
 10
92.386201111
 20
581.4621816249
 30
0.0
 11
92.386201111
 21
576.4621863932
 31
0.0
  0
LINE
  5
7C
330
1F
100
AcDbEntity
  8
0
  6
Continuous
 62
     7
370
    15
100
AcDbLine
 10
92.386201111
 20
576.4621863932
 30
0.0
 11
91.1362023031
 21
576.4621863932
 31
0.0
  0
LINE
  5
7D
330
1F
100
AcDbEntity
  8
0
  6
Continuous
 62
     7
370
    15
100
AcDbLine
 10
91.1362023031
 20
576.4621863932
 30
0.0
 11
91.1362023031
 21
574.062175569
 31
0.0
  0
LINE
  5
7E
330
1F
100
AcDbEntity
  8
0
  6
Continuous
 62
     7
370
    15
100
AcDbLine
 10
91.1362023031
 20
574.062175569
 30
0.0
 11
92.386201111
 21
574.062175569
 31
0.0
  0
LINE
  5
7F
330
1F
100
AcDbEntity
  8
0
  6
Continuous
 62
     7
370
    15
100
AcDbLine
 10
92.386201111
 20
574.062175569
 30
0.0
 11
92.386201111
 21
571.4621911616
 31
0.0
  0
LINE
  5
80
330
1F
100
AcDbEntity
  8
0
  6
Continuous
 62
     7
370
    15
100
AcDbLine
 10
92.386201111
 20
571.4621911616
 30
0.0
 11
95.3861997401
 21
571.4621911616
 31
0.0
  0
LINE
  5
81
330
1F
100
AcDbEntity
  8
0
  6
Continuous
 62
     7
370
    15
100
AcDbLine
 10
95.3861997401
 20
571.4621911616
 30
0.0
 11
95.3861997401
 21
574.062175569
 31
0.0
  0
LINE
  5
82
330
1F
100
AcDbEntity
  8
0
  6
Continuous
 62
     7
370
    15
100
AcDbLine
 10
95.3861997401
 20
574.062175569
 30
0.0
 11
96.6362059986
 21
574.062175569
 31
0.0
  0
LINE
  5
83
330
1F
100
AcDbEntity
  8
0
  6
Continuous
 62
     7
370
    15
100
AcDbLine
 10
96.6362059986
 20
574.062175569
 30
0.0
 11
96.6362059986
 21
576.4621863932
 31
0.0
  0
LINE
  5
84
330
1F
100
AcDbEntity
  8
0
  6
Continuous
 62
     7
370
    15
100
AcDbLine
 10
96.6362059986
 20
576.4621863932
 30
0.0
 11
95.3861997401
 21
576.4621863932
 31
0.0
  0
LINE
  5
85
330
1F
100
AcDbEntity
  8
0
  6
Continuous
 62
     7
370
    15
100
AcDbLine
 10
95.3861997401
 20
576.4621863932
 30
0.0
 11
95.3861997401
 21
581.4621816249
 31
0.0
  0
LINE
  5
86
330
1F
100
AcDbEntity
  8
0
  6
Continuous
 62
     7
370
    15
100
AcDbLine
 10
113.1004915511
 20
581.4621816249
 30
0.0
 11
95.3861997401
 21
581.4621816249
 31
0.0
  0
LINE
  5
87
330
1F
100
AcDbEntity
  8
0
  6
Continuous
 62
     7
370
    15
100
AcDbLine
 10
113.1004915511
 20
586.9622002215
 30
0.0
 11
113.1004915511
 21
581.4621816249
 31
0.0
  0
LINE
  5
88
330
1F
100
AcDbEntity
  8
0
  6
Continuous
 62
     7
370
    15
100
AcDbLine
 10
113.1004915511
 20
586.9622002215
 30
0.0
 11
133.1004873788
 21
586.9622002215
 31
0.0
  0
LINE
  5
89
330
1F
100
AcDbEntity
  8
0
  6
Continuous
 62
     7
370
    15
100
AcDbLine
 10
133.1004873788
 20
586.9622002215
 30
0.0
 11
133.1004873788
 21
581.4621816249
 31
0.0
  0
LINE
  5
8A
330
1F
100
AcDbEntity
  8
0
  6
Continuous
 62
     7
370
    15
100
AcDbLine
 10
171.5290621793
 20
581.4621816249
 30
0.0
 11
133.1004873788
 21
581.4621816249
 31
0.0
  0
LINE
  5
8B
330
1F
100
AcDbEntity
  8
0
  6
Continuous
 62
     7
370
    15
100
AcDbLine
 10
171.5290621793
 20
586.9622002215
 30
0.0
 11
171.5290621793
 21
581.4621816249
 31
0.0
  0
LINE
  5
8C
330
1F
100
AcDbEntity
  8
0
  6
Continuous
 62
     7
370
    15
100
AcDbLine
 10
171.5290621793
 20
586.9622002215
 30
0.0
 11
191.5290580069
 21
586.9622002215
 31
0.0
  0
LINE
  5
8D
330
1F
100
AcDbEntity
  8
0
  6
Continuous
 62
     7
370
    15
100
AcDbLine
 10
191.5290580069
 20
586.9622002215
 30
0.0
 11
191.5290580069
 21
581.4621816249
 31
0.0
  0
LINE
  5
8E
330
1F
100
AcDbEntity
  8
0
  6
Continuous
 62
     7
370
    15
100
AcDbLine
 10
209.2433498179
 20
581.4621816249
 30
0.0
 11
191.5290580069
 21
581.4621816249
 31
0.0
  0
LINE
  5
8F
330
1F
100
AcDbEntity
  8
0
  6
Continuous
 62
     7
370
    15
100
AcDbLine
 10
209.2433498179
 20
581.4621816249
 30
0.0
 11
209.2433498179
 21
576.4621863932
 31
0.0
  0
LINE
  5
90
330
1F
100
AcDbEntity
  8
0
  6
Continuous
 62
     7
370
    15
100
AcDbLine
 10
209.2433498179
 20
576.4621863932
 30
0.0
 11
207.99335101
 21
576.4621863932
 31
0.0
  0
LINE
  5
91
330
1F
100
AcDbEntity
  8
0
  6
Continuous
 62
     7
370
    15
100
AcDbLine
 10
207.99335101
 20
576.4621863932
 30
0.0
 11
207.99335101
 21
574.062175569
 31
0.0
  0
LINE
  5
92
330
1F
100
AcDbEntity
  8
0
  6
Continuous
 62
     7
370
    15
100
AcDbLine
 10
207.99335101
 20
574.062175569
 30
0.0
 11
209.2433498179
 21
574.062175569
 31
0.0
  0
LINE
  5
93
330
1F
100
AcDbEntity
  8
0
  6
Continuous
 62
     7
370
    15
100
AcDbLine
 10
209.2433498179
 20
574.062175569
 30
0.0
 11
209.2433498179
 21
571.4621911616
 31
0.0
  0
LINE
  5
94
330
1F
100
AcDbEntity
  8
0
  6
Continuous
 62
     7
370
    15
100
AcDbLine
 10
209.2433498179
 20
571.4621911616
 30
0.0
 11
212.2433409964
 21
571.4621911616
 31
0.0
  0
LINE
  5
95
330
1F
100
AcDbEntity
  8
0
  6
Continuous
 62
     7
370
    15
100
AcDbLine
 10
212.2433409964
 20
571.4621911616
 30
0.0
 11
212.2433409964
 21
574.062175569
 31
0.0
  0
LINE
  5
96
330
1F
100
AcDbEntity
  8
0
  6
Continuous
 62
     7
370
    15
100
AcDbLine
 10
212.2433409964
 20
574.062175569
 30
0.0
 11
213.4933398044
 21
574.062175569
 31
0.0
  0
LINE
  5
97
330
1F
100
AcDbEntity
  8
0
  6
Continuous
 62
     7
370
    15
100
AcDbLine
 10
213.4933398044
 20
574.062175569
 30
0.0
 11
213.4933398044
 21
576.4621863932
 31
0.0
  0
LINE
  5
98
330
1F
100
AcDbEntity
  8
0
  6
Continuous
 62
     7
370
    15
100
AcDbLine
 10
213.4933398044
 20
576.4621863932
 30
0.0
 11
212.2433409964
 21
576.4621863932
 31
0.0
  0
LINE
  5
99
330
1F
100
AcDbEntity
  8
0
  6
Continuous
 62
     7
370
    15
100
AcDbLine
 10
212.2433409964
 20
576.4621863932
 30
0.0
 11
212.2433409964
 21
581.4621816249
 31
0.0
  0
LINE
  5
9A
330
1F
100
AcDbEntity
  8
0
  6
Continuous
 62
     7
370
    15
100
AcDbLine
 10
229.9576328074
 20
581.4621816249
 30
0.0
 11
212.2433409964
 21
581.4621816249
 31
0.0
  0
LINE
  5
9B
330
1F
100
AcDbEntity
  8
0
  6
Continuous
 62
     7
370
    15
100
AcDbLine
 10
229.9576328074
 20
586.9622002215
 30
0.0
 11
229.9576328074
 21
581.4621816249
 31
0.0
  0
LINE
  5
9C
330
1F
100
AcDbEntity
  8
0
  6
Continuous
 62
     7
370
    15
100
AcDbLine
 10
229.9576328074
 20
586.9622002215
 30
0.0
 11
249.9576286351
 21
586.9622002215
 31
0.0
  0
LINE
  5
9D
330
1F
100
AcDbEntity
  8
0
  6
Continuous
 62
     7
370
    15
100
AcDbLine
 10
249.9576286351
 20
586.9622002215
 30
0.0
 11
249.9576286351
 21
581.4621816249
 31
0.0
  0
LINE
  5
9E
330
1F
100
AcDbEntity
  8
0
  6
Continuous
 62
     7
370
    15
100
AcDbLine
 10
288.3862034356
 20
581.4621816249
 30
0.0
 11
249.9576286351
 21
581.4621816249
 31
0.0
  0
LINE
  5
9F
330
1F
100
AcDbEntity
  8
0
  6
Continuous
 62
     7
370
    15
100
AcDbLine
 10
288.3862034356
 20
586.9622002215
 30
0.0
 11
288.3862034356
 21
581.4621816249
 31
0.0
  0
LINE
  5
A0
330
1F
100
AcDbEntity
  8
0
  6
Continuous
 62
     7
370
    15
100
AcDbLine
 10
288.3862034356
 20
586.9622002215
 30
0.0
 11
308.3862141644
 21
586.9622002215
 31
0.0
  0
LINE
  5
A1
330
1F
100
AcDbEntity
  8
0
  6
Continuous
 62
     7
370
    15
100
AcDbLine
 10
308.3862141644
 20
586.9622002215
 30
0.0
 11
308.3862141644
 21
581.4621816249
 31
0.0
  0
LINE
  5
A2
330
1F
100
AcDbEntity
  8
0
  6
Continuous
 62
     7
370
    15
100
AcDbLine
 10
326.1004761731
 20
581.4621816249
 30
0.0
 11
308.3862141644
 21
581.4621816249
 31
0.0
  0
LINE
  5
A3
330
1F
100
AcDbEntity
  8
0
  6
Continuous
 62
     7
370
    15
100
AcDbLine
 10
326.1004761731
 20
581.4621816249
 30
0.0
 11
326.1004761731
 21
576.4621863932
 31
0.0
  0
LINE
  5
A4
330
1F
100
AcDbEntity
  8
0
  6
Continuous
 62
     7
370
    15
100
AcDbLine
 10
326.1004761731
 20
576.4621863932
 30
0.0
 11
324.8504773652
 21
576.4621863932
 31
0.0
  0
LINE
  5
A5
330
1F
100
AcDbEntity
  8
0
  6
Continuous
 62
     7
370
    15
100
AcDbLine
 10
324.8504773652
 20
576.4621863932
 30
0.0
 11
324.8504773652
 21
574.062175569
 31
0.0
  0
LINE
  5
A6
330
1F
100
AcDbEntity
  8
0
  6
Continuous
 62
     7
370
    15
100
AcDbLine
 10
324.8504773652
 20
574.062175569
 30
0.0
 11
326.1004761731
 21
574.062175569
 31
0.0
  0
LINE
  5
A7
330
1F
100
AcDbEntity
  8
0
  6
Continuous
 62
     7
370
    15
100
AcDbLine
 10
326.1004761731
 20
574.062175569
 30
0.0
 11
326.1004761731
 21
571.4621911616
 31
0.0
  0
LINE
  5
A8
330
1F
100
AcDbEntity
  8
0
  6
Continuous
 62
     7
370
    15
100
AcDbLine
 10
326.1004761731
 20
571.4621911616
 30
0.0
 11
329.1004971539
 21
571.4621911616
 31
0.0
  0
LINE
  5
A9
330
1F
100
AcDbEntity
  8
0
  6
Continuous
 62
     7
370
    15
100
AcDbLine
 10
329.1004971539
 20
571.4621911616
 30
0.0
 11
329.1004971539
 21
574.062175569
 31
0.0
  0
LINE
  5
AA
330
1F
100
AcDbEntity
  8
0
  6
Continuous
 62
     7
370
    15
100
AcDbLine
 10
329.1004971539
 20
574.062175569
 30
0.0
 11
330.3504959619
 21
574.062175569
 31
0.0
  0
LINE
  5
AB
330
1F
100
AcDbEntity
  8
0
  6
Continuous
 62
     7
370
    15
100
AcDbLine
 10
330.3504959619
 20
574.062175569
 30
0.0
 11
330.3504959619
 21
576.4621863932
 31
0.0
  0
LINE
  5
AC
330
1F
100
AcDbEntity
  8
0
  6
Continuous
 62
     7
370
    15
100
AcDbLine
 10
330.3504959619
 20
576.4621863932
 30
0.0
 11
329.1004971539
 21
576.4621863932
 31
0.0
  0
LINE
  5
AD
330
1F
100
AcDbEntity
  8
0
  6
Continuous
 62
     7
370
    15
100
AcDbLine
 10
329.1004971539
 20
576.4621863932
 30
0.0
 11
329.1004971539
 21
581.4621816249
 31
0.0
  0
LINE
  5
AE
330
1F
100
AcDbEntity
  8
0
  6
Continuous
 62
     7
370
    15
100
AcDbLine
 10
346.8147889649
 20
581.4621816249
 30
0.0
 11
329.1004971539
 21
581.4621816249
 31
0.0
  0
LINE
  5
AF
330
1F
100
AcDbEntity
  8
0
  6
Continuous
 62
     7
370
    15
100
AcDbLine
 10
346.8147889649
 20
586.9622002215
 30
0.0
 11
346.8147889649
 21
581.4621816249
 31
0.0
  0
LINE
  5
B0
330
1F
100
AcDbEntity
  8
0
  6
Continuous
 62
     7
370
    15
100
AcDbLine
 10
346.8147889649
 20
586.9622002215
 30
0.0
 11
366.8147698914
 21
586.9622002215
 31
0.0
  0
LINE
  5
B1
330
1F
100
AcDbEntity
  8
0
  6
Continuous
 62
     7
370
    15
100
AcDbLine
 10
366.8147698914
 20
586.9622002215
 30
0.0
 11
366.8147698914
 21
581.4621816249
 31
0.0
  0
LINE
  5
B2
330
1F
100
AcDbEntity
  8
0
  6
Continuous
 62
     7
370
    15
100
AcDbLine
 10
405.2433446919
 20
581.4621816249
 30
0.0
 11
366.8147698914
 21
581.4621816249
 31
0.0
  0
LINE
  5
B3
330
1F
100
AcDbEntity
  8
0
  6
Continuous
 62
     7
370
    15
100
AcDbLine
 10
405.2433446919
 20
544.6050534815
 30
0.0
 11
405.2433446919
 21
581.4621816249
 31
0.0
  0
LINE
  5
B4
330
1F
100
AcDbEntity
  8
0
  6
Continuous
 62
     7
370
    15
100
AcDbLine
 10
410.7433334863
 20
544.6050534815
 30
0.0
 11
405.2433446919
 21
544.6050534815
 31
0.0
  0
LINE
  5
B5
330
1F
100
AcDbEntity
  8
0
  6
Continuous
 62
     7
370
    15
100
AcDbLine
 10
410.7433334863
 20
544.6050534815
 30
0.0
 11
410.7433334863
 21
524.6050427527
 31
0.0
  0
LINE
  5
B6
330
1F
100
AcDbEntity
  8
0
  6
Continuous
 62
     7
370
    15
100
AcDbLine
 10
410.7433334863
 20
524.6050427527
 30
0.0
 11
405.2433446919
 21
524.6050427527
 31
0.0
  0
LINE
  5
B7
330
1F
100
AcDbEntity
  8
0
  6
Continuous
 62
     7
370
    15
100
AcDbLine
 10
405.2433446919
 20
507.6764891715
 30
0.0
 11
405.2433446919
 21
524.6050427527
 31
0.0
  0
LINE
  5
B8
330
1F
100
AcDbEntity
  8
0
  6
Continuous
 62
     7
370
    15
100
AcDbLine
 10
405.2433446919
 20
507.6764891715
 30
0.0
 11
400.2433494603
 21
507.6764891715
 31
0.0
  0
LINE
  5
B9
330
1F
100
AcDbEntity
  8
0
  6
Continuous
 62
     7
370
    15
100
AcDbLine
 10
400.2433494603
 20
507.6764891715
 30
0.0
 11
400.2433494603
 21
508.9264879794
 31
0.0
  0
LINE
  5
BA
330
1F
100
AcDbEntity
  8
0
  6
Continuous
 62
     7
370
    15
100
AcDbLine
 10
400.2433494603
 20
508.9264879794
 30
0.0
 11
397.8433386361
 21
508.9264879794
 31
0.0
  0
LINE
  5
BB
330
1F
100
AcDbEntity
  8
0
  6
Continuous
 62
     7
370
    15
100
AcDbLine
 10
397.8433386361
 20
508.9264879794
 30
0.0
 11
397.8433386361
 21
507.6764891715
 31
0.0
  0
LINE
  5
BC
330
1F
100
AcDbEntity
  8
0
  6
Continuous
 62
     7
370
    15
100
AcDbLine
 10
397.8433386361
 20
507.6764891715
 30
0.0
 11
395.2433542287
 21
507.6764891715
 31
0.0
  0
LINE
  5
BD
330
1F
100
AcDbEntity
  8
0
  6
Continuous
 62
     7
370
    15
100
AcDbLine
 10
395.2433542287
 20
507.6764891715
 30
0.0
 11
395.2433542287
 21
504.6764681906
 31
0.0
  0
LINE
  5
BE
330
1F
100
AcDbEntity
  8
0
  6
Continuous
 62
     7
370
    15
100
AcDbLine
 10
395.2433542287
 20
504.6764681906
 30
0.0
 11
397.8433386361
 21
504.6764681906
 31
0.0
  0
LINE
  5
BF
330
1F
100
AcDbEntity
  8
0
  6
Continuous
 62
     7
370
    15
100
AcDbLine
 10
397.8433386361
 20
504.6764681906
 30
0.0
 11
397.8433386361
 21
503.4264693827
 31
0.0
  0
LINE
  5
C0
330
1F
100
AcDbEntity
  8
0
  6
Continuous
 62
     7
370
    15
100
AcDbLine
 10
397.8433386361
 20
503.4264693827
 30
0.0
 11
400.2433494603
 21
503.4264693827
 31
0.0
  0
LINE
  5
C1
330
1F
100
AcDbEntity
  8
0
  6
Continuous
 62
     7
370
    15
100
AcDbLine
 10
400.2433494603
 20
503.4264693827
 30
0.0
 11
400.2433494603
 21
504.6764681906
 31
0.0
  0
LINE
  5
C2
330
1F
100
AcDbEntity
  8
0
  6
Continuous
 62
     7
370
    15
100
AcDbLine
 10
400.2433494603
 20
504.6764681906
 30
0.0
 11
405.2433446919
 21
504.6764681906
 31
0.0
  0
LINE
  5
C3
330
1F
100
AcDbEntity
  8
0
  6
Continuous
 62
     7
370
    15
100
AcDbLine
 10
405.2433446919
 20
487.7479146094
 30
0.0
 11
405.2433446919
 21
504.6764681906
 31
0.0
  0
LINE
  5
C4
330
1F
100
AcDbEntity
  8
0
  6
Continuous
 62
     7
370
    15
100
AcDbLine
 10
410.7433334863
 20
487.7479146094
 30
0.0
 11
405.2433446919
 21
487.7479146094
 31
0.0
  0
LINE
  5
C5
330
1F
100
AcDbEntity
  8
0
  6
Continuous
 62
     7
370
    15
100
AcDbLine
 10
410.7433334863
 20
487.7479146094
 30
0.0
 11
410.7433334863
 21
467.7479038806
 31
0.0
  0
LINE
  5
C6
330
1F
100
AcDbEntity
  8
0
  6
Continuous
 62
     7
370
    15
100
AcDbLine
 10
410.7433334863
 20
467.7479038806
 30
0.0
 11
405.2433446919
 21
467.7479038806
 31
0.0
  0
LINE
  5
C7
330
1F
100
AcDbEntity
  8
0
  6
Continuous
 62
     7
370
    15
100
AcDbLine
 10
405.2433446919
 20
430.8907608361
 30
0.0
 11
405.2433446919
 21
467.7479038806
 31
0.0
  0
LINE
  5
C8
330
1F
100
AcDbEntity
  8
0
  6
Continuous
 62
     7
370
    15
100
AcDbLine
 10
410.7433334863
 20
430.8907608361
 30
0.0
 11
405.2433446919
 21
430.8907608361
 31
0.0
  0
LINE
  5
C9
330
1F
100
AcDbEntity
  8
0
  6
Continuous
 62
     7
370
    15
100
AcDbLine
 10
410.7433334863
 20
430.8907608361
 30
0.0
 11
410.7433334863
 21
410.8907650084
 31
0.0
  0
LINE
  5
CA
330
1F
100
AcDbEntity
  8
0
  6
Continuous
 62
     7
370
    15
100
AcDbLine
 10
410.7433334863
 20
410.8907650084
 30
0.0
 11
405.2433446919
 21
410.8907650084
 31
0.0
  0
LINE
  5
CB
330
1F
100
AcDbEntity
  8
0
  6
Continuous
 62
     7
370
    15
100
AcDbLine
 10
405.2433446919
 20
393.962196526
 30
0.0
 11
405.2433446919
 21
410.8907650084
 31
0.0
  0
LINE
  5
CC
330
1F
100
AcDbEntity
  8
0
  6
Continuous
 62
     7
370
    15
100
AcDbLine
 10
405.2433446919
 20
393.962196526
 30
0.0
 11
400.2433494603
 21
393.962196526
 31
0.0
  0
LINE
  5
CD
330
1F
100
AcDbEntity
  8
0
  6
Continuous
 62
     7
370
    15
100
AcDbLine
 10
400.2433494603
 20
393.962196526
 30
0.0
 11
400.2433494603
 21
395.2121953339
 31
0.0
  0
LINE
  5
CE
330
1F
100
AcDbEntity
  8
0
  6
Continuous
 62
     7
370
    15
100
AcDbLine
 10
400.2433494603
 20
395.2121953339
 30
0.0
 11
397.8433386361
 21
395.2121953339
 31
0.0
  0
LINE
  5
CF
330
1F
100
AcDbEntity
  8
0
  6
Continuous
 62
     7
370
    15
100
AcDbLine
 10
397.8433386361
 20
395.2121953339
 30
0.0
 11
397.8433386361
 21
393.962196526
 31
0.0
  0
LINE
  5
D0
330
1F
100
AcDbEntity
  8
0
  6
Continuous
 62
     7
370
    15
100
AcDbLine
 10
397.8433386361
 20
393.962196526
 30
0.0
 11
395.2433542287
 21
393.962196526
 31
0.0
  0
LINE
  5
D1
330
1F
100
AcDbEntity
  8
0
  6
Continuous
 62
     7
370
    15
100
AcDbLine
 10
395.2433542287
 20
393.962196526
 30
0.0
 11
395.2433542287
 21
390.9621904463
 31
0.0
  0
LINE
  5
D2
330
1F
100
AcDbEntity
  8
0
  6
Continuous
 62
     7
370
    15
100
AcDbLine
 10
395.2433542287
 20
390.9621904463
 30
0.0
 11
397.8433386361
 21
390.9621904463
 31
0.0
  0
LINE
  5
D3
330
1F
100
AcDbEntity
  8
0
  6
Continuous
 62
     7
370
    15
100
AcDbLine
 10
397.8433386361
 20
390.9621904463
 30
0.0
 11
397.8433386361
 21
389.7121916384
 31
0.0
  0
LINE
  5
D4
330
1F
100
AcDbEntity
  8
0
  6
Continuous
 62
     7
370
    15
100
AcDbLine
 10
397.8433386361
 20
389.7121916384
 30
0.0
 11
400.2433494603
 21
389.7121916384
 31
0.0
  0
LINE
  5
D5
330
1F
100
AcDbEntity
  8
0
  6
Continuous
 62
     7
370
    15
100
AcDbLine
 10
400.2433494603
 20
389.7121916384
 30
0.0
 11
400.2433494603
 21
390.9621904463
 31
0.0
  0
LINE
  5
D6
330
1F
100
AcDbEntity
  8
0
  6
Continuous
 62
     7
370
    15
100
AcDbLine
 10
400.2433494603
 20
390.9621904463
 30
0.0
 11
405.2433446919
 21
390.9621904463
 31
0.0
  0
LINE
  5
D7
330
1F
100
AcDbEntity
  8
0
  6
Continuous
 62
     7
370
    15
100
AcDbLine
 10
405.2433446919
 20
374.0336219639
 30
0.0
 11
405.2433446919
 21
390.9621904463
 31
0.0
  0
LINE
  5
D8
330
1F
100
AcDbEntity
  8
0
  6
Continuous
 62
     7
370
    15
100
AcDbLine
 10
410.7433334863
 20
374.0336219639
 30
0.0
 11
405.2433446919
 21
374.0336219639
 31
0.0
  0
LINE
  5
D9
330
1F
100
AcDbEntity
  8
0
  6
Continuous
 62
     7
370
    15
100
AcDbLine
 10
410.7433334863
 20
374.0336219639
 30
0.0
 11
410.7433334863
 21
354.0336261363
 31
0.0
  0
LINE
  5
DA
330
1F
100
AcDbEntity
  8
0
  6
Continuous
 62
     7
370
    15
100
AcDbLine
 10
410.7433334863
 20
354.0336261363
 30
0.0
 11
405.2433446919
 21
354.0336261363
 31
0.0
  0
LINE
  5
DB
330
1F
100
AcDbEntity
  8
0
  6
Continuous
 62
     7
370
    15
100
AcDbLine
 10
405.2433446919
 20
317.1764756412
 30
0.0
 11
405.2433446919
 21
354.0336261363
 31
0.0
  0
LINE
  5
DC
330
1F
100
AcDbEntity
  8
0
  6
Continuous
 62
     7
370
    15
100
AcDbLine
 10
410.7433334863
 20
317.1764756412
 30
0.0
 11
405.2433446919
 21
317.1764756412
 31
0.0
  0
LINE
  5
DD
330
1F
100
AcDbEntity
  8
0
  6
Continuous
 62
     7
370
    15
100
AcDbLine
 10
410.7433334863
 20
317.1764756412
 30
0.0
 11
410.7433334863
 21
297.1764798135
 31
0.0
  0
LINE
  5
DE
330
1F
100
AcDbEntity
  8
0
  6
Continuous
 62
     7
370
    15
100
AcDbLine
 10
410.7433334863
 20
297.1764798135
 30
0.0
 11
405.2433446919
 21
297.1764798135
 31
0.0
  0
LINE
  5
DF
330
1F
100
AcDbEntity
  8
0
  6
Continuous
 62
     7
370
    15
100
AcDbLine
 10
405.2433446919
 20
280.2479038806
 30
0.0
 11
405.2433446919
 21
297.1764798135
 31
0.0
  0
LINE
  5
E0
330
1F
100
AcDbEntity
  8
0
  6
Continuous
 62
     7
370
    15
100
AcDbLine
 10
405.2433446919
 20
280.2479038806
 30
0.0
 11
400.2433494603
 21
280.2479038806
 31
0.0
  0
LINE
  5
E1
330
1F
100
AcDbEntity
  8
0
  6
Continuous
 62
     7
370
    15
100
AcDbLine
 10
400.2433494603
 20
280.2479038806
 30
0.0
 11
400.2433494603
 21
281.4979026885
 31
0.0
  0
LINE
  5
E2
330
1F
100
AcDbEntity
  8
0
  6
Continuous
 62
     7
370
    15
100
AcDbLine
 10
400.2433494603
 20
281.4979026885
 30
0.0
 11
397.8433386361
 21
281.4979026885
 31
0.0
  0
LINE
  5
E3
330
1F
100
AcDbEntity
  8
0
  6
Continuous
 62
     7
370
    15
100
AcDbLine
 10
397.8433386361
 20
281.4979026885
 30
0.0
 11
397.8433386361
 21
280.2479038806
 31
0.0
  0
LINE
  5
E4
330
1F
100
AcDbEntity
  8
0
  6
Continuous
 62
     7
370
    15
100
AcDbLine
 10
397.8433386361
 20
280.2479038806
 30
0.0
 11
395.2433542287
 21
280.2479038806
 31
0.0
  0
LINE
  5
E5
330
1F
100
AcDbEntity
  8
0
  6
Continuous
 62
     7
370
    15
100
AcDbLine
 10
395.2433542287
 20
280.2479038806
 30
0.0
 11
395.2433542287
 21
277.2479052515
 31
0.0
  0
LINE
  5
E6
330
1F
100
AcDbEntity
  8
0
  6
Continuous
 62
     7
370
    15
100
AcDbLine
 10
395.2433542287
 20
277.2479052515
 30
0.0
 11
397.8433386361
 21
277.2479052515
 31
0.0
  0
LINE
  5
E7
330
1F
100
AcDbEntity
  8
0
  6
Continuous
 62
     7
370
    15
100
AcDbLine
 10
397.8433386361
 20
277.2479052515
 30
0.0
 11
397.8433386361
 21
275.9979064436
 31
0.0
  0
LINE
  5
E8
330
1F
100
AcDbEntity
  8
0
  6
Continuous
 62
     7
370
    15
100
AcDbLine
 10
397.8433386361
 20
275.9979064436
 30
0.0
 11
400.2433494603
 21
275.9979064436
 31
0.0
  0
LINE
  5
E9
330
1F
100
AcDbEntity
  8
0
  6
Continuous
 62
     7
370
    15
100
AcDbLine
 10
400.2433494603
 20
275.9979064436
 30
0.0
 11
400.2433494603
 21
277.2479052515
 31
0.0
  0
LINE
  5
EA
330
1F
100
AcDbEntity
  8
0
  6
Continuous
 62
     7
370
    15
100
AcDbLine
 10
400.2433494603
 20
277.2479052515
 30
0.0
 11
405.2433446919
 21
277.2479052515
 31
0.0
  0
LINE
  5
EB
330
1F
100
AcDbEntity
  8
0
  6
Continuous
 62
     7
370
    15
100
AcDbLine
 10
405.2433446919
 20
260.3193330438
 30
0.0
 11
405.2433446919
 21
277.2479052515
 31
0.0
  0
LINE
  5
EC
330
1F
100
AcDbEntity
  8
0
  6
Continuous
 62
     7
370
    15
100
AcDbLine
 10
410.7433334863
 20
260.3193330438
 30
0.0
 11
405.2433446919
 21
260.3193330438
 31
0.0
  0
LINE
  5
ED
330
1F
100
AcDbEntity
  8
0
  6
Continuous
 62
     7
370
    15
100
AcDbLine
 10
410.7433334863
 20
260.3193330438
 30
0.0
 11
410.7433334863
 21
240.3193334908
 31
0.0
  0
LINE
  5
EE
330
1F
100
AcDbEntity
  8
0
  6
Continuous
 62
     7
370
    15
100
AcDbLine
 10
410.7433334863
 20
240.3193334908
 30
0.0
 11
405.2433446919
 21
240.3193334908
 31
0.0
  0
LINE
  5
EF
330
1F
100
AcDbEntity
  8
0
  6
Continuous
 62
     7
370
    15
100
AcDbLine
 10
405.2433446919
 20
203.4621904463
 30
0.0
 11
405.2433446919
 21
240.3193334908
 31
0.0
  0
LINE
  5
F0
330
1F
100
AcDbEntity
  8
0
  6
Continuous
 62
     7
370
    15
100
AcDbLine
 10
366.8147698914
 20
203.4621904463
 30
0.0
 11
405.2433446919
 21
203.4621904463
 31
0.0
  0
LINE
  5
F1
330
1F
100
AcDbEntity
  8
0
  6
Continuous
 62
     7
370
    15
100
AcDbLine
 10
366.8147698914
 20
197.9621904761
 30
0.0
 11
366.8147698914
 21
203.4621904463
 31
0.0
  0
LINE
  5
F2
330
1F
100
AcDbEntity
  8
0
  6
Continuous
 62
     7
370
    15
100
AcDbLine
 10
346.8147889649
 20
197.9621904761
 30
0.0
 11
366.8147698914
 21
197.9621904761
 31
0.0
  0
LINE
  5
F3
330
1F
100
AcDbEntity
  8
0
  6
Continuous
 62
     7
370
    15
100
AcDbLine
 10
346.8147889649
 20
197.9621904761
 30
0.0
 11
346.8147889649
 21
203.4621904463
 31
0.0
  0
LINE
  5
F4
330
1F
100
AcDbEntity
  8
0
  6
Continuous
 62
     7
370
    15
100
AcDbLine
 10
329.1004971539
 20
203.4621904463
 30
0.0
 11
346.8147889649
 21
203.4621904463
 31
0.0
  0
LINE
  5
F5
330
1F
100
AcDbEntity
  8
0
  6
Continuous
 62
     7
370
    15
100
AcDbLine
 10
329.1004971539
 20
203.4621904463
 30
0.0
 11
329.1004971539
 21
208.4621903346
 31
0.0
  0
LINE
  5
F6
330
1F
100
AcDbEntity
  8
0
  6
Continuous
 62
     7
370
    15
100
AcDbLine
 10
329.1004971539
 20
208.4621903346
 30
0.0
 11
330.3504959619
 21
208.4621903346
 31
0.0
  0
LINE
  5
F7
330
1F
100
AcDbEntity
  8
0
  6
Continuous
 62
     7
370
    15
100
AcDbLine
 10
330.3504959619
 20
208.4621903346
 30
0.0
 11
330.3504959619
 21
210.8621904486
 31
0.0
  0
LINE
  5
F8
330
1F
100
AcDbEntity
  8
0
  6
Continuous
 62
     7
370
    15
100
AcDbLine
 10
330.3504959619
 20
210.8621904486
 30
0.0
 11
329.1004971539
 21
210.8621904486
 31
0.0
  0
LINE
  5
F9
330
1F
100
AcDbEntity
  8
0
  6
Continuous
 62
     7
370
    15
100
AcDbLine
 10
329.1004971539
 20
210.8621904486
 30
0.0
 11
329.1004971539
 21
213.4621902228
 31
0.0
  0
LINE
  5
FA
330
1F
100
AcDbEntity
  8
0
  6
Continuous
 62
     7
370
    15
100
AcDbLine
 10
329.1004971539
 20
213.4621902228
 30
0.0
 11
326.1004761731
 21
213.4621902228
 31
0.0
  0
LINE
  5
FB
330
1F
100
AcDbEntity
  8
0
  6
Continuous
 62
     7
370
    15
100
AcDbLine
 10
326.1004761731
 20
213.4621902228
 30
0.0
 11
326.1004761731
 21
210.8621904486
 31
0.0
  0
LINE
  5
FC
330
1F
100
AcDbEntity
  8
0
  6
Continuous
 62
     7
370
    15
100
AcDbLine
 10
326.1004761731
 20
210.8621904486
 30
0.0
 11
324.8504773652
 21
210.8621904486
 31
0.0
  0
LINE
  5
FD
330
1F
100
AcDbEntity
  8
0
  6
Continuous
 62
     7
370
    15
100
AcDbLine
 10
324.8504773652
 20
210.8621904486
 30
0.0
 11
324.8504773652
 21
208.4621903346
 31
0.0
  0
LINE
  5
FE
330
1F
100
AcDbEntity
  8
0
  6
Continuous
 62
     7
370
    15
100
AcDbLine
 10
324.8504773652
 20
208.4621903346
 30
0.0
 11
326.1004761731
 21
208.4621903346
 31
0.0
  0
LINE
  5
FF
330
1F
100
AcDbEntity
  8
0
  6
Continuous
 62
     7
370
    15
100
AcDbLine
 10
326.1004761731
 20
208.4621903346
 30
0.0
 11
326.1004761731
 21
203.4621904463
 31
0.0
  0
LINE
  5
100
330
1F
100
AcDbEntity
  8
0
  6
Continuous
 62
     7
370
    15
100
AcDbLine
 10
308.3862141644
 20
203.4621904463
 30
0.0
 11
326.1004761731
 21
203.4621904463
 31
0.0
  0
LINE
  5
101
330
1F
100
AcDbEntity
  8
0
  6
Continuous
 62
     7
370
    15
100
AcDbLine
 10
308.3862141644
 20
197.9621904761
 30
0.0
 11
308.3862141644
 21
203.4621904463
 31
0.0
  0
LINE
  5
102
330
1F
100
AcDbEntity
  8
0
  6
Continuous
 62
     7
370
    15
100
AcDbLine
 10
288.3862034356
 20
197.9621904761
 30
0.0
 11
308.3862141644
 21
197.9621904761
 31
0.0
  0
LINE
  5
103
330
1F
100
AcDbEntity
  8
0
  6
Continuous
 62
     7
370
    15
100
AcDbLine
 10
288.3862034356
 20
197.9621904761
 30
0.0
 11
288.3862034356
 21
203.4621904463
 31
0.0
  0
LINE
  5
104
330
1F
100
AcDbEntity
  8
0
  6
Continuous
 62
     7
370
    15
100
AcDbLine
 10
249.9576286351
 20
203.4621904463
 30
0.0
 11
288.3862034356
 21
203.4621904463
 31
0.0
  0
LINE
  5
105
330
1F
100
AcDbEntity
  8
0
  6
Continuous
 62
     7
370
    15
100
AcDbLine
 10
249.9576286351
 20
197.9621904761
 30
0.0
 11
249.9576286351
 21
203.4621904463
 31
0.0
  0
LINE
  5
106
330
1F
100
AcDbEntity
  8
0
  6
Continuous
 62
     7
370
    15
100
AcDbLine
 10
229.9576328074
 20
197.9621904761
 30
0.0
 11
249.9576286351
 21
197.9621904761
 31
0.0
  0
LINE
  5
107
330
1F
100
AcDbEntity
  8
0
  6
Continuous
 62
     7
370
    15
100
AcDbLine
 10
229.9576328074
 20
197.9621904761
 30
0.0
 11
229.9576328074
 21
203.4621904463
 31
0.0
  0
LINE
  5
108
330
1F
100
AcDbEntity
  8
0
  6
Continuous
 62
     7
370
    15
100
AcDbLine
 10
212.2433409964
 20
203.4621904463
 30
0.0
 11
229.9576328074
 21
203.4621904463
 31
0.0
  0
LINE
  5
109
330
1F
100
AcDbEntity
  8
0
  6
Continuous
 62
     7
370
    15
100
AcDbLine
 10
212.2433409964
 20
203.4621904463
 30
0.0
 11
212.2433409964
 21
208.4621903346
 31
0.0
  0
LINE
  5
10A
330
1F
100
AcDbEntity
  8
0
  6
Continuous
 62
     7
370
    15
100
AcDbLine
 10
212.2433409964
 20
208.4621903346
 30
0.0
 11
213.4933398044
 21
208.4621903346
 31
0.0
  0
LINE
  5
10B
330
1F
100
AcDbEntity
  8
0
  6
Continuous
 62
     7
370
    15
100
AcDbLine
 10
213.4933398044
 20
208.4621903346
 30
0.0
 11
213.4933398044
 21
210.8621904486
 31
0.0
  0
LINE
  5
10C
330
1F
100
AcDbEntity
  8
0
  6
Continuous
 62
     7
370
    15
100
AcDbLine
 10
213.4933398044
 20
210.8621904486
 30
0.0
 11
212.2433409964
 21
210.8621904486
 31
0.0
  0
LINE
  5
10D
330
1F
100
AcDbEntity
  8
0
  6
Continuous
 62
     7
370
    15
100
AcDbLine
 10
212.2433409964
 20
210.8621904486
 30
0.0
 11
212.2433409964
 21
213.4621902228
 31
0.0
  0
LINE
  5
10E
330
1F
100
AcDbEntity
  8
0
  6
Continuous
 62
     7
370
    15
100
AcDbLine
 10
212.2433409964
 20
213.4621902228
 30
0.0
 11
209.2433498179
 21
213.4621902228
 31
0.0
  0
LINE
  5
10F
330
1F
100
AcDbEntity
  8
0
  6
Continuous
 62
     7
370
    15
100
AcDbLine
 10
209.2433498179
 20
213.4621902228
 30
0.0
 11
209.2433498179
 21
210.8621904486
 31
0.0
  0
LINE
  5
110
330
1F
100
AcDbEntity
  8
0
  6
Continuous
 62
     7
370
    15
100
AcDbLine
 10
209.2433498179
 20
210.8621904486
 30
0.0
 11
207.99335101
 21
210.8621904486
 31
0.0
  0
LINE
  5
111
330
1F
100
AcDbEntity
  8
0
  6
Continuous
 62
     7
370
    15
100
AcDbLine
 10
207.99335101
 20
210.8621904486
 30
0.0
 11
207.99335101
 21
208.4621903346
 31
0.0
  0
LINE
  5
112
330
1F
100
AcDbEntity
  8
0
  6
Continuous
 62
     7
370
    15
100
AcDbLine
 10
207.99335101
 20
208.4621903346
 30
0.0
 11
209.2433498179
 21
208.4621903346
 31
0.0
  0
LINE
  5
113
330
1F
100
AcDbEntity
  8
0
  6
Continuous
 62
     7
370
    15
100
AcDbLine
 10
209.2433498179
 20
208.4621903346
 30
0.0
 11
209.2433498179
 21
203.4621904463
 31
0.0
  0
LINE
  5
114
330
1F
100
AcDbEntity
  8
0
  6
Continuous
 62
     7
370
    15
100
AcDbLine
 10
191.5290580069
 20
203.4621904463
 30
0.0
 11
209.2433498179
 21
203.4621904463
 31
0.0
  0
LINE
  5
115
330
1F
100
AcDbEntity
  8
0
  6
Continuous
 62
     7
370
    15
100
AcDbLine
 10
191.5290580069
 20
197.9621904761
 30
0.0
 11
191.5290580069
 21
203.4621904463
 31
0.0
  0
LINE
  5
116
330
1F
100
AcDbEntity
  8
0
  6
Continuous
 62
     7
370
    15
100
AcDbLine
 10
171.5290621793
 20
197.9621904761
 30
0.0
 11
191.5290580069
 21
197.9621904761
 31
0.0
  0
LINE
  5
117
330
1F
100
AcDbEntity
  8
0
  6
Continuous
 62
     7
370
    15
100
AcDbLine
 10
171.5290621793
 20
197.9621904761
 30
0.0
 11
171.5290621793
 21
203.4621904463
 31
0.0
  0
LINE
  5
118
330
1F
100
AcDbEntity
  8
0
  6
Continuous
 62
     7
370
    15
100
AcDbLine
 10
133.1004873788
 20
203.4621904463
 30
0.0
 11
171.5290621793
 21
203.4621904463
 31
0.0
  0
LINE
  5
119
330
1F
100
AcDbEntity
  8
0
  6
Continuous
 62
     7
370
    15
100
AcDbLine
 10
133.1004873788
 20
197.9621904761
 30
0.0
 11
133.1004873788
 21
203.4621904463
 31
0.0
  0
LINE
  5
11A
330
1F
100
AcDbEntity
  8
0
  6
Continuous
 62
     7
370
    15
100
AcDbLine
 10
113.1004915511
 20
197.9621904761
 30
0.0
 11
133.1004873788
 21
197.9621904761
 31
0.0
  0
LINE
  5
11B
330
1F
100
AcDbEntity
  8
0
  6
Continuous
 62
     7
370
    15
100
AcDbLine
 10
113.1004915511
 20
197.9621904761
 30
0.0
 11
113.1004915511
 21
203.4621904463
 31
0.0
  0
LINE
  5
11C
330
1F
100
AcDbEntity
  8
0
  6
Continuous
 62
     7
370
    15
100
AcDbLine
 10
95.3861997401
 20
203.4621904463
 30
0.0
 11
113.1004915511
 21
203.4621904463
 31
0.0
  0
LINE
  5
11D
330
1F
100
AcDbEntity
  8
0
  6
Continuous
 62
     7
370
    15
100
AcDbLine
 10
95.3861997401
 20
203.4621904463
 30
0.0
 11
95.3861997401
 21
208.4621903346
 31
0.0
  0
LINE
  5
11E
330
1F
100
AcDbEntity
  8
0
  6
Continuous
 62
     7
370
    15
100
AcDbLine
 10
95.3861997401
 20
208.4621903346
 30
0.0
 11
96.6362059986
 21
208.4621903346
 31
0.0
  0
LINE
  5
11F
330
1F
100
AcDbEntity
  8
0
  6
Continuous
 62
     7
370
    15
100
AcDbLine
 10
96.6362059986
 20
208.4621903346
 30
0.0
 11
96.6362059986
 21
210.8621904486
 31
0.0
  0
LINE
  5
120
330
1F
100
AcDbEntity
  8
0
  6
Continuous
 62
     7
370
    15
100
AcDbLine
 10
96.6362059986
 20
210.8621904486
 30
0.0
 11
95.3861997401
 21
210.8621904486
 31
0.0
  0
LINE
  5
121
330
1F
100
AcDbEntity
  8
0
  6
Continuous
 62
     7
370
    15
100
AcDbLine
 10
95.3861997401
 20
210.8621904486
 30
0.0
 11
95.3861997401
 21
213.4621902228
 31
0.0
  0
LINE
  5
122
330
1F
100
AcDbEntity
  8
0
  6
Continuous
 62
     7
370
    15
100
AcDbLine
 10
95.3861997401
 20
213.4621902228
 30
0.0
 11
92.386201111
 21
213.4621902228
 31
0.0
  0
LINE
  5
123
330
1F
100
AcDbEntity
  8
0
  6
Continuous
 62
     7
370
    15
100
AcDbLine
 10
92.386201111
 20
213.4621902228
 30
0.0
 11
92.386201111
 21
210.8621904486
 31
0.0
  0
LINE
  5
124
330
1F
100
AcDbEntity
  8
0
  6
Continuous
 62
     7
370
    15
100
AcDbLine
 10
92.386201111
 20
210.8621904486
 30
0.0
 11
91.1362023031
 21
210.8621904486
 31
0.0
  0
LINE
  5
125
330
1F
100
AcDbEntity
  8
0
  6
Continuous
 62
     7
370
    15
100
AcDbLine
 10
91.1362023031
 20
210.8621904486
 30
0.0
 11
91.1362023031
 21
208.4621903346
 31
0.0
  0
LINE
  5
126
330
1F
100
AcDbEntity
  8
0
  6
Continuous
 62
     7
370
    15
100
AcDbLine
 10
91.1362023031
 20
208.4621903346
 30
0.0
 11
92.386201111
 21
208.4621903346
 31
0.0
  0
LINE
  5
127
330
1F
100
AcDbEntity
  8
0
  6
Continuous
 62
     7
370
    15
100
AcDbLine
 10
92.386201111
 20
208.4621903346
 30
0.0
 11
92.386201111
 21
203.4621904463
 31
0.0
  0
LINE
  5
128
330
1F
100
AcDbEntity
  8
0
  6
Continuous
 62
     7
370
    15
100
AcDbLine
 10
74.6719167506
 20
203.4621904463
 30
0.0
 11
92.386201111
 21
203.4621904463
 31
0.0
  0
LINE
  5
129
330
1F
100
AcDbEntity
  8
0
  6
Continuous
 62
     7
370
    15
100
AcDbLine
 10
74.6719167506
 20
197.9621904761
 30
0.0
 11
74.6719167506
 21
203.4621904463
 31
0.0
  0
LINE
  5
12A
330
1F
100
AcDbEntity
  8
0
  6
Continuous
 62
     7
370
    15
100
AcDbLine
 10
54.6719171977
 20
197.9621904761
 30
0.0
 11
74.6719167506
 21
197.9621904761
 31
0.0
  0
LINE
  5
12B
330
1F
100
AcDbEntity
  8
0
  6
Continuous
 62
     7
370
    15
100
AcDbLine
 10
54.6719171977
 20
197.9621904761
 30
0.0
 11
54.6719171977
 21
203.4621904463
 31
0.0
  0
LINE
  5
12C
330
1F
100
AcDbEntity
  8
0
  6
Continuous
 62
     7
370
    15
100
AcDbLine
 10
16.2433461224
 20
203.4621904463
 30
0.0
 11
54.6719171977
 21
203.4621904463
 31
0.0
  0
LINE
  5
12D
330
1F
100
AcDbEntity
  8
0
  6
Continuous
 62
     7
370
    15
100
AcDbLine
 10
16.2433461224
 20
240.3193334908
 30
0.0
 11
16.2433461224
 21
203.4621904463
 31
0.0
  0
LINE
  5
12E
330
1F
100
AcDbEntity
  8
0
  6
Continuous
 62
     7
370
    15
100
AcDbLine
 10
10.7433461523
 20
240.3193334908
 30
0.0
 11
16.2433461224
 21
240.3193334908
 31
0.0
  0
LINE
  5
12F
330
1F
100
AcDbEntity
  8
0
  6
Continuous
 62
     7
370
    15
100
AcDbLine
 10
10.7433461523
 20
260.3193330438
 30
0.0
 11
10.7433461523
 21
240.3193334908
 31
0.0
  0
LINE
  5
130
330
1F
100
AcDbEntity
  8
0
  6
Continuous
 62
     7
370
    15
100
AcDbLine
 10
10.7433461523
 20
260.3193330438
 30
0.0
 11
16.2433461224
 21
260.3193330438
 31
0.0
  0
LINE
  5
131
330
1F
100
AcDbEntity
  8
0
  6
Continuous
 62
     7
370
    15
100
AcDbLine
 10
16.2433461224
 20
277.2479052515
 30
0.0
 11
16.2433461224
 21
260.3193330438
 31
0.0
  0
LINE
  5
132
330
1F
100
AcDbEntity
  8
0
  6
Continuous
 62
     7
370
    15
100
AcDbLine
 10
16.2433461224
 20
277.2479052515
 30
0.0
 11
21.2433460107
 21
277.2479052515
 31
0.0
  0
LINE
  5
133
330
1F
100
AcDbEntity
  8
0
  6
Continuous
 62
     7
370
    15
100
AcDbLine
 10
21.2433460107
 20
277.2479052515
 30
0.0
 11
21.2433460107
 21
275.9979064436
 31
0.0
  0
LINE
  5
134
330
1F
100
AcDbEntity
  8
0
  6
Continuous
 62
     7
370
    15
100
AcDbLine
 10
383.2433597123
 20
413.9621923537
 30
0.0
 11
383.2433597123
 21
419.4621960492
 31
0.0
  0
LINE
  5
135
330
1F
100
AcDbEntity
  8
0
  6
Continuous
 62
     7
370
    15
100
AcDbLine
 10
383.2433597123
 20
419.4621960492
 30
0.0
 11
359.2433408772
 21
419.4621960492
 31
0.0
  0
LINE
  5
136
330
1F
100
AcDbEntity
  8
0
  6
Continuous
 62
     7
370
    15
100
AcDbLine
 10
359.2433408772
 20
419.4621960492
 30
0.0
 11
359.2433408772
 21
413.9621923537
 31
0.0
  0
LINE
  5
137
330
1F
100
AcDbEntity
  8
0
  6
Continuous
 62
     7
370
    15
100
AcDbLine
 10
359.2433408772
 20
413.9621923537
 30
0.0
 11
383.2433597123
 21
413.9621923537
 31
0.0
  0
LINE
  5
138
330
1F
100
AcDbEntity
  8
0
  6
Continuous
 62
     7
370
    15
100
AcDbLine
 10
383.2433597123
 20
365.4621909232
 30
0.0
 11
383.2433597123
 21
370.9621946187
 31
0.0
  0
LINE
  5
139
330
1F
100
AcDbEntity
  8
0
  6
Continuous
 62
     7
370
    15
100
AcDbLine
 10
383.2433597123
 20
370.9621946187
 30
0.0
 11
359.2433408772
 21
370.9621946187
 31
0.0
  0
LINE
  5
13A
330
1F
100
AcDbEntity
  8
0
  6
Continuous
 62
     7
370
    15
100
AcDbLine
 10
359.2433408772
 20
370.9621946187
 30
0.0
 11
359.2433408772
 21
365.4621909232
 31
0.0
  0
LINE
  5
13B
330
1F
100
AcDbEntity
  8
0
  6
Continuous
 62
     7
370
    15
100
AcDbLine
 10
359.2433408772
 20
365.4621909232
 30
0.0
 11
383.2433597123
 21
365.4621909232
 31
0.0
  0
CIRCLE
  5
13C
330
1F
100
AcDbEntity
  8
0
  6
Continuous
 62
     7
370
    15
100
AcDbCircle
 10
267.6433461224
 20
284.6621904463
 30
0.0
 40
1.650000000000034
  0
CIRCLE
  5
13D
330
1F
100
AcDbEntity
  8
0
  6
Continuous
 62
     7
370
    15
100
AcDbCircle
 10
350.2433461224
 20
284.5621904463
 30
0.0
 40
1.649999999999977
  0
CIRCLE
  5
13E
330
1F
100
AcDbEntity
  8
0
  6
Continuous
 62
     7
370
    15
100
AcDbCircle
 10
343.7433461224
 20
235.9621904463
 30
0.0
 40
1.649999999999977
  0
CIRCLE
  5
13F
330
1F
100
AcDbEntity
  8
0
  6
Continuous
 62
     7
370
    15
100
AcDbCircle
 10
268.6433461224
 20
235.9621904463
 30
0.0
 40
1.649999999999977
  0
CIRCLE
  5
140
330
1F
100
AcDbEntity
  8
0
  6
Continuous
 62
     7
370
    15
100
AcDbCircle
 10
375.2433461224
 20
233.4621904463
 30
0.0
 40
12.50000000000006
  0
CIRCLE
  5
141
330
1F
100
AcDbEntity
  8
0
  6
Continuous
 62
     7
370
    15
100
AcDbCircle
 10
375.2433461224
 20
551.4621904463
 30
0.0
 40
12.50000000000006
  0
CIRCLE
  5
142
330
1F
100
AcDbEntity
  8
0
  6
Continuous
 62
     7
370
    15
100
AcDbCircle
 10
46.2433461224
 20
551.4621904463
 30
0.0
 40
12.50000000000004
  0
CIRCLE
  5
143
330
1F
100
AcDbEntity
  8
0
  6
Continuous
 62
     7
370
    15
100
AcDbCircle
 10
46.2433461224
 20
233.4621904463
 30
0.0
 40
12.50000000000001
  0
LINE
  5
144
330
1F
100
AcDbEntity
  8
0
  6
Continuous
 62
     7
370
    15
100
AcDbLine
 10
222.7433399236
 20
492.4621949763
 30
0.0
 11
222.7433399236
 21
496.4622030825
 31
0.0
  0
LINE
  5
145
330
1F
100
AcDbEntity
  8
0
  6
Continuous
 62
     7
370
    15
100
AcDbLine
 10
222.7433399236
 20
496.4622030825
 30
0.0
 11
220.7433507716
 21
496.4622030825
 31
0.0
  0
LINE
  5
146
330
1F
100
AcDbEntity
  8
0
  6
Continuous
 62
     7
370
    15
100
AcDbLine
 10
220.7433507716
 20
496.4622030825
 30
0.0
 11
220.7433507716
 21
492.4621949763
 31
0.0
  0
LINE
  5
147
330
1F
100
AcDbEntity
  8
0
  6
Continuous
 62
     7
370
    15
100
AcDbLine
 10
220.7433507716
 20
492.4621949763
 30
0.0
 11
222.7433399236
 21
492.4621949763
 31
0.0
  0
LINE
  5
148
330
1F
100
AcDbEntity
  8
0
  6
Continuous
 62
     7
370
    15
100
AcDbLine
 10
198.7433508908
 20
292.4621919961
 30
0.0
 11
198.7433508908
 21
288.4621913404
 31
0.0
  0
LINE
  5
149
330
1F
100
AcDbEntity
  8
0
  6
Continuous
 62
     7
370
    15
100
AcDbLine
 10
198.7433508908
 20
288.4621913404
 30
0.0
 11
200.7433400428
 21
288.4621913404
 31
0.0
  0
LINE
  5
14A
330
1F
100
AcDbEntity
  8
0
  6
Continuous
 62
     7
370
    15
100
AcDbLine
 10
200.7433400428
 20
288.4621913404
 30
0.0
 11
200.7433400428
 21
292.4621919961
 31
0.0
  0
LINE
  5
14B
330
1F
100
AcDbEntity
  8
0
  6
Continuous
 62
     7
370
    15
100
AcDbLine
 10
200.7433400428
 20
292.4621919961
 30
0.0
 11
198.7433508908
 21
292.4621919961
 31
0.0
  0
LINE
  5
14C
330
1F
100
AcDbEntity
  8
0
  6
Continuous
 62
     7
370
    15
100
AcDbLine
 10
222.7433399236
 20
394.4621900887
 30
0.0
 11
220.7433507716
 21
394.4621900887
 31
0.0
  0
LINE
  5
14D
330
1F
100
AcDbEntity
  8
0
  6
Continuous
 62
     7
370
    15
100
AcDbLine
 10
220.7433507716
 20
394.4621900887
 30
0.0
 11
220.7433507716
 21
390.4621968836
 31
0.0
  0
LINE
  5
14E
330
1F
100
AcDbEntity
  8
0
  6
Continuous
 62
     7
370
    15
100
AcDbLine
 10
220.7433507716
 20
390.4621968836
 30
0.0
 11
222.7433399236
 21
390.4621968836
 31
0.0
  0
LINE
  5
14F
330
1F
100
AcDbEntity
  8
0
  6
Continuous
 62
     7
370
    15
100
AcDbLine
 10
222.7433399236
 20
390.4621968836
 30
0.0
 11
222.7433399236
 21
394.4621900887
 31
0.0
  0
LINE
  5
150
330
1F
100
AcDbEntity
  8
0
  6
Continuous
 62
     7
370
    15
100
AcDbLine
 10
222.7433399236
 20
292.4621919961
 30
0.0
 11
220.7433507716
 21
292.4621919961
 31
0.0
  0
LINE
  5
151
330
1F
100
AcDbEntity
  8
0
  6
Continuous
 62
     7
370
    15
100
AcDbLine
 10
220.7433507716
 20
292.4621919961
 30
0.0
 11
220.7433507716
 21
288.4621913404
 31
0.0
  0
LINE
  5
152
330
1F
100
AcDbEntity
  8
0
  6
Continuous
 62
     7
370
    15
100
AcDbLine
 10
220.7433507716
 20
288.4621913404
 30
0.0
 11
222.7433399236
 21
288.4621913404
 31
0.0
  0
LINE
  5
153
330
1F
100
AcDbEntity
  8
0
  6
Continuous
 62
     7
370
    15
100
AcDbLine
 10
222.7433399236
 20
288.4621913404
 30
0.0
 11
222.7433399236
 21
292.4621919961
 31
0.0
  0
LINE
  5
154
330
1F
100
AcDbEntity
  8
0
  6
Continuous
 62
     7
370
    15
100
AcDbLine
 10
198.7433508908
 20
394.4621900887
 30
0.0
 11
198.7433508908
 21
390.4621968836
 31
0.0
  0
LINE
  5
155
330
1F
100
AcDbEntity
  8
0
  6
Continuous
 62
     7
370
    15
100
AcDbLine
 10
198.7433508908
 20
390.4621968836
 30
0.0
 11
200.7433400428
 21
390.4621968836
 31
0.0
  0
LINE
  5
156
330
1F
100
AcDbEntity
  8
0
  6
Continuous
 62
     7
370
    15
100
AcDbLine
 10
200.7433400428
 20
390.4621968836
 30
0.0
 11
200.7433400428
 21
394.4621900887
 31
0.0
  0
LINE
  5
157
330
1F
100
AcDbEntity
  8
0
  6
Continuous
 62
     7
370
    15
100
AcDbLine
 10
200.7433400428
 20
394.4621900887
 30
0.0
 11
198.7433508908
 21
394.4621900887
 31
0.0
  0
LINE
  5
158
330
1F
100
AcDbEntity
  8
0
  6
Continuous
 62
     7
370
    15
100
AcDbLine
 10
198.7433508908
 20
496.4622030825
 30
0.0
 11
198.7433508908
 21
492.4621949763
 31
0.0
  0
LINE
  5
159
330
1F
100
AcDbEntity
  8
0
  6
Continuous
 62
     7
370
    15
100
AcDbLine
 10
198.7433508908
 20
492.4621949763
 30
0.0
 11
200.7433400428
 21
492.4621949763
 31
0.0
  0
LINE
  5
15A
330
1F
100
AcDbEntity
  8
0
  6
Continuous
 62
     7
370
    15
100
AcDbLine
 10
200.7433400428
 20
492.4621949763
 30
0.0
 11
200.7433400428
 21
496.4622030825
 31
0.0
  0
LINE
  5
15B
330
1F
100
AcDbEntity
  8
0
  6
Continuous
 62
     7
370
    15
100
AcDbLine
 10
200.7433400428
 20
496.4622030825
 30
0.0
 11
198.7433508908
 21
496.4622030825
 31
0.0
  0
LINE
  5
15C
330
1F
100
AcDbEntity
  8
0
  6
Continuous
 62
     7
370
    15
100
AcDbLine
 10
339.6004811799
 20
496.4622030825
 30
0.0
 11
337.6004771268
 21
496.4622030825
 31
0.0
  0
LINE
  5
15D
330
1F
100
AcDbEntity
  8
0
  6
Continuous
 62
     7
370
    15
100
AcDbLine
 10
337.6004771268
 20
496.4622030825
 30
0.0
 11
337.6004771268
 21
492.4621949763
 31
0.0
  0
LINE
  5
15E
330
1F
100
AcDbEntity
  8
0
  6
Continuous
 62
     7
370
    15
100
AcDbLine
 10
337.6004771268
 20
492.4621949763
 30
0.0
 11
339.6004811799
 21
492.4621949763
 31
0.0
  0
LINE
  5
15F
330
1F
100
AcDbEntity
  8
0
  6
Continuous
 62
     7
370
    15
100
AcDbLine
 10
339.6004811799
 20
492.4621949763
 30
0.0
 11
339.6004811799
 21
496.4622030825
 31
0.0
  0
LINE
  5
160
330
1F
100
AcDbEntity
  8
0
  6
Continuous
 62
     7
370
    15
100
AcDbLine
 10
339.6004811799
 20
394.4621900887
 30
0.0
 11
337.6004771268
 21
394.4621900887
 31
0.0
  0
LINE
  5
161
330
1F
100
AcDbEntity
  8
0
  6
Continuous
 62
     7
370
    15
100
AcDbLine
 10
337.6004771268
 20
394.4621900887
 30
0.0
 11
337.6004771268
 21
390.4621968836
 31
0.0
  0
LINE
  5
162
330
1F
100
AcDbEntity
  8
0
  6
Continuous
 62
     7
370
    15
100
AcDbLine
 10
337.6004771268
 20
390.4621968836
 30
0.0
 11
339.6004811799
 21
390.4621968836
 31
0.0
  0
LINE
  5
163
330
1F
100
AcDbEntity
  8
0
  6
Continuous
 62
     7
370
    15
100
AcDbLine
 10
339.6004811799
 20
390.4621968836
 30
0.0
 11
339.6004811799
 21
394.4621900887
 31
0.0
  0
LINE
  5
164
330
1F
100
AcDbEntity
  8
0
  6
Continuous
 62
     7
370
    15
100
AcDbLine
 10
339.6004811799
 20
292.4621919961
 30
0.0
 11
337.6004771268
 21
292.4621919961
 31
0.0
  0
LINE
  5
165
330
1F
100
AcDbEntity
  8
0
  6
Continuous
 62
     7
370
    15
100
AcDbLine
 10
337.6004771268
 20
292.4621919961
 30
0.0
 11
337.6004771268
 21
288.4621913404
 31
0.0
  0
LINE
  5
166
330
1F
100
AcDbEntity
  8
0
  6
Continuous
 62
     7
370
    15
100
AcDbLine
 10
337.6004771268
 20
288.4621913404
 30
0.0
 11
339.6004811799
 21
288.4621913404
 31
0.0
  0
LINE
  5
167
330
1F
100
AcDbEntity
  8
0
  6
Continuous
 62
     7
370
    15
100
AcDbLine
 10
339.6004811799
 20
288.4621913404
 30
0.0
 11
339.6004811799
 21
292.4621919961
 31
0.0
  0
LINE
  5
168
330
1F
100
AcDbEntity
  8
0
  6
Continuous
 62
     7
370
    15
100
AcDbLine
 10
315.6004921472
 20
292.4621919961
 30
0.0
 11
315.6004921472
 21
288.4621913404
 31
0.0
  0
LINE
  5
169
330
1F
100
AcDbEntity
  8
0
  6
Continuous
 62
     7
370
    15
100
AcDbLine
 10
315.6004921472
 20
288.4621913404
 30
0.0
 11
317.6004962003
 21
288.4621913404
 31
0.0
  0
LINE
  5
16A
330
1F
100
AcDbEntity
  8
0
  6
Continuous
 62
     7
370
    15
100
AcDbLine
 10
317.6004962003
 20
288.4621913404
 30
0.0
 11
317.6004962003
 21
292.4621919961
 31
0.0
  0
LINE
  5
16B
330
1F
100
AcDbEntity
  8
0
  6
Continuous
 62
     7
370
    15
100
AcDbLine
 10
317.6004962003
 20
292.4621919961
 30
0.0
 11
315.6004921472
 21
292.4621919961
 31
0.0
  0
LINE
  5
16C
330
1F
100
AcDbEntity
  8
0
  6
Continuous
 62
     7
370
    15
100
AcDbLine
 10
315.6004921472
 20
394.4621900887
 30
0.0
 11
315.6004921472
 21
390.4621968836
 31
0.0
  0
LINE
  5
16D
330
1F
100
AcDbEntity
  8
0
  6
Continuous
 62
     7
370
    15
100
AcDbLine
 10
315.6004921472
 20
390.4621968836
 30
0.0
 11
317.6004962003
 21
390.4621968836
 31
0.0
  0
LINE
  5
16E
330
1F
100
AcDbEntity
  8
0
  6
Continuous
 62
     7
370
    15
100
AcDbLine
 10
317.6004962003
 20
390.4621968836
 30
0.0
 11
317.6004962003
 21
394.4621900887
 31
0.0
  0
LINE
  5
16F
330
1F
100
AcDbEntity
  8
0
  6
Continuous
 62
     7
370
    15
100
AcDbLine
 10
317.6004962003
 20
394.4621900887
 30
0.0
 11
315.6004921472
 21
394.4621900887
 31
0.0
  0
LINE
  5
170
330
1F
100
AcDbEntity
  8
0
  6
Continuous
 62
     7
370
    15
100
AcDbLine
 10
317.6004962003
 20
496.4622030825
 30
0.0
 11
315.6004921472
 21
496.4622030825
 31
0.0
  0
LINE
  5
171
330
1F
100
AcDbEntity
  8
0
  6
Continuous
 62
     7
370
    15
100
AcDbLine
 10
315.6004921472
 20
496.4622030825
 30
0.0
 11
315.6004921472
 21
492.4621949763
 31
0.0
  0
LINE
  5
172
330
1F
100
AcDbEntity
  8
0
  6
Continuous
 62
     7
370
    15
100
AcDbLine
 10
315.6004921472
 20
492.4621949763
 30
0.0
 11
317.6004962003
 21
492.4621949763
 31
0.0
  0
LINE
  5
173
330
1F
100
AcDbEntity
  8
0
  6
Continuous
 62
     7
370
    15
100
AcDbLine
 10
317.6004962003
 20
492.4621949763
 30
0.0
 11
317.6004962003
 21
496.4622030825
 31
0.0
  0
LINE
  5
174
330
1F
100
AcDbEntity
  8
0
  6
Continuous
 62
     7
370
    15
100
AcDbLine
 10
105.8862061178
 20
496.4622030825
 30
0.0
 11
103.8862020647
 21
496.4622030825
 31
0.0
  0
LINE
  5
175
330
1F
100
AcDbEntity
  8
0
  6
Continuous
 62
     7
370
    15
100
AcDbLine
 10
103.8862020647
 20
496.4622030825
 30
0.0
 11
103.8862020647
 21
492.4621949763
 31
0.0
  0
LINE
  5
176
330
1F
100
AcDbEntity
  8
0
  6
Continuous
 62
     7
370
    15
100
AcDbLine
 10
103.8862020647
 20
492.4621949763
 30
0.0
 11
105.8862061178
 21
492.4621949763
 31
0.0
  0
LINE
  5
177
330
1F
100
AcDbEntity
  8
0
  6
Continuous
 62
     7
370
    15
100
AcDbLine
 10
105.8862061178
 20
492.4621949763
 30
0.0
 11
105.8862061178
 21
496.4622030825
 31
0.0
  0
LINE
  5
178
330
1F
100
AcDbEntity
  8
0
  6
Continuous
 62
     7
370
    15
100
AcDbLine
 10
105.8862061178
 20
394.4621900887
 30
0.0
 11
103.8862020647
 21
394.4621900887
 31
0.0
  0
LINE
  5
179
330
1F
100
AcDbEntity
  8
0
  6
Continuous
 62
     7
370
    15
100
AcDbLine
 10
103.8862020647
 20
394.4621900887
 30
0.0
 11
103.8862020647
 21
390.4621968836
 31
0.0
  0
LINE
  5
17A
330
1F
100
AcDbEntity
  8
0
  6
Continuous
 62
     7
370
    15
100
AcDbLine
 10
103.8862020647
 20
390.4621968836
 30
0.0
 11
105.8862061178
 21
390.4621968836
 31
0.0
  0
LINE
  5
17B
330
1F
100
AcDbEntity
  8
0
  6
Continuous
 62
     7
370
    15
100
AcDbLine
 10
105.8862061178
 20
390.4621968836
 30
0.0
 11
105.8862061178
 21
394.4621900887
 31
0.0
  0
LINE
  5
17C
330
1F
100
AcDbEntity
  8
0
  6
Continuous
 62
     7
370
    15
100
AcDbLine
 10
105.8862061178
 20
292.4621919961
 30
0.0
 11
103.8862020647
 21
292.4621919961
 31
0.0
  0
LINE
  5
17D
330
1F
100
AcDbEntity
  8
0
  6
Continuous
 62
     7
370
    15
100
AcDbLine
 10
103.8862020647
 20
292.4621919961
 30
0.0
 11
103.8862020647
 21
288.4621913404
 31
0.0
  0
LINE
  5
17E
330
1F
100
AcDbEntity
  8
0
  6
Continuous
 62
     7
370
    15
100
AcDbLine
 10
103.8862020647
 20
288.4621913404
 30
0.0
 11
105.8862061178
 21
288.4621913404
 31
0.0
  0
LINE
  5
17F
330
1F
100
AcDbEntity
  8
0
  6
Continuous
 62
     7
370
    15
100
AcDbLine
 10
105.8862061178
 20
288.4621913404
 30
0.0
 11
105.8862061178
 21
292.4621919961
 31
0.0
  0
LINE
  5
180
330
1F
100
AcDbEntity
  8
0
  6
Continuous
 62
     7
370
    15
100
AcDbLine
 10
81.8862021839
 20
292.4621919961
 30
0.0
 11
81.8862021839
 21
288.4621913404
 31
0.0
  0
LINE
  5
181
330
1F
100
AcDbEntity
  8
0
  6
Continuous
 62
     7
370
    15
100
AcDbLine
 10
81.8862021839
 20
288.4621913404
 30
0.0
 11
83.886206237
 21
288.4621913404
 31
0.0
  0
LINE
  5
182
330
1F
100
AcDbEntity
  8
0
  6
Continuous
 62
     7
370
    15
100
AcDbLine
 10
83.886206237
 20
288.4621913404
 30
0.0
 11
83.886206237
 21
292.4621919961
 31
0.0
  0
LINE
  5
183
330
1F
100
AcDbEntity
  8
0
  6
Continuous
 62
     7
370
    15
100
AcDbLine
 10
83.886206237
 20
292.4621919961
 30
0.0
 11
81.8862021839
 21
292.4621919961
 31
0.0
  0
LINE
  5
184
330
1F
100
AcDbEntity
  8
0
  6
Continuous
 62
     7
370
    15
100
AcDbLine
 10
81.8862021839
 20
394.4621900887
 30
0.0
 11
81.8862021839
 21
390.4621968836
 31
0.0
  0
LINE
  5
185
330
1F
100
AcDbEntity
  8
0
  6
Continuous
 62
     7
370
    15
100
AcDbLine
 10
81.8862021839
 20
390.4621968836
 30
0.0
 11
83.886206237
 21
390.4621968836
 31
0.0
  0
LINE
  5
186
330
1F
100
AcDbEntity
  8
0
  6
Continuous
 62
     7
370
    15
100
AcDbLine
 10
83.886206237
 20
390.4621968836
 30
0.0
 11
83.886206237
 21
394.4621900887
 31
0.0
  0
LINE
  5
187
330
1F
100
AcDbEntity
  8
0
  6
Continuous
 62
     7
370
    15
100
AcDbLine
 10
83.886206237
 20
394.4621900887
 30
0.0
 11
81.8862021839
 21
394.4621900887
 31
0.0
  0
LINE
  5
188
330
1F
100
AcDbEntity
  8
0
  6
Continuous
 62
     7
370
    15
100
AcDbLine
 10
83.886206237
 20
496.4622030825
 30
0.0
 11
81.8862021839
 21
496.4622030825
 31
0.0
  0
LINE
  5
189
330
1F
100
AcDbEntity
  8
0
  6
Continuous
 62
     7
370
    15
100
AcDbLine
 10
81.8862021839
 20
496.4622030825
 30
0.0
 11
81.8862021839
 21
492.4621949763
 31
0.0
  0
LINE
  5
18A
330
1F
100
AcDbEntity
  8
0
  6
Continuous
 62
     7
370
    15
100
AcDbLine
 10
81.8862021839
 20
492.4621949763
 30
0.0
 11
83.886206237
 21
492.4621949763
 31
0.0
  0
LINE
  5
18B
330
1F
100
AcDbEntity
  8
0
  6
Continuous
 62
     7
370
    15
100
AcDbLine
 10
83.886206237
 20
492.4621949763
 30
0.0
 11
83.886206237
 21
496.4622030825
 31
0.0
  0
CIRCLE
  5
18C
330
1F
100
AcDbEntity
  8
0
  6
Continuous
 62
     7
370
    15
100
AcDbCircle
 10
371.2433461224
 20
361.9621904463
 30
0.0
 40
1.5
  0
CIRCLE
  5
18D
330
1F
100
AcDbEntity
  8
0
  6
Continuous
 62
     7
370
    15
100
AcDbCircle
 10
371.2433461224
 20
422.9621904463
 30
0.0
 40
1.5
  0
LINE
  5
18E
330
1F
100
AcDbEntity
  8
0
  6
Continuous
 62
     7
370
    15
100
AcDbLine
 10
150.3147707259
 20
210.4621906624
 30
0.0
 11
150.3147707259
 21
208.4621903346
 31
0.0
  0
LINE
  5
18F
330
1F
100
AcDbEntity
  8
0
  6
Continuous
 62
     7
370
    15
100
AcDbLine
 10
150.3147707259
 20
208.4621903346
 30
0.0
 11
154.3147788321
 21
208.4621903346
 31
0.0
  0
LINE
  5
190
330
1F
100
AcDbEntity
  8
0
  6
Continuous
 62
     7
370
    15
100
AcDbLine
 10
154.3147788321
 20
208.4621903346
 30
0.0
 11
154.3147788321
 21
210.4621906624
 31
0.0
  0
LINE
  5
191
330
1F
100
AcDbEntity
  8
0
  6
Continuous
 62
     7
370
    15
100
AcDbLine
 10
154.3147788321
 20
210.4621906624
 30
0.0
 11
150.3147707259
 21
210.4621906624
 31
0.0
  0
LINE
  5
192
330
1F
100
AcDbEntity
  8
0
  6
Continuous
 62
     7
370
    15
100
AcDbLine
 10
150.3147707259
 20
223.4621899993
 30
0.0
 11
154.3147788321
 21
223.4621899993
 31
0.0
  0
LINE
  5
193
330
1F
100
AcDbEntity
  8
0
  6
Continuous
 62
     7
370
    15
100
AcDbLine
 10
154.3147788321
 20
223.4621899993
 30
0.0
 11
154.3147788321
 21
225.4621903271
 31
0.0
  0
LINE
  5
194
330
1F
100
AcDbEntity
  8
0
  6
Continuous
 62
     7
370
    15
100
AcDbLine
 10
154.3147788321
 20
225.4621903271
 30
0.0
 11
150.3147707259
 21
225.4621903271
 31
0.0
  0
LINE
  5
195
330
1F
100
AcDbEntity
  8
0
  6
Continuous
 62
     7
370
    15
100
AcDbLine
 10
150.3147707259
 20
225.4621903271
 30
0.0
 11
150.3147707259
 21
223.4621899993
 31
0.0
  0
LINE
  5
196
330
1F
100
AcDbEntity
  8
0
  6
Continuous
 62
     7
370
    15
100
AcDbLine
 10
267.1719268834
 20
223.4621899993
 30
0.0
 11
271.1719051873
 21
223.4621899993
 31
0.0
  0
LINE
  5
197
330
1F
100
AcDbEntity
  8
0
  6
Continuous
 62
     7
370
    15
100
AcDbLine
 10
271.1719051873
 20
223.4621899993
 30
0.0
 11
271.1719051873
 21
225.4621903271
 31
0.0
  0
LINE
  5
198
330
1F
100
AcDbEntity
  8
0
  6
Continuous
 62
     7
370
    15
100
AcDbLine
 10
271.1719051873
 20
225.4621903271
 30
0.0
 11
267.1719268834
 21
225.4621903271
 31
0.0
  0
LINE
  5
199
330
1F
100
AcDbEntity
  8
0
  6
Continuous
 62
     7
370
    15
100
AcDbLine
 10
267.1719268834
 20
225.4621903271
 30
0.0
 11
267.1719268834
 21
223.4621899993
 31
0.0
  0
LINE
  5
19A
330
1F
100
AcDbEntity
  8
0
  6
Continuous
 62
     7
370
    15
100
AcDbLine
 10
267.1719268834
 20
208.4621903346
 30
0.0
 11
271.1719051873
 21
208.4621903346
 31
0.0
  0
LINE
  5
19B
330
1F
100
AcDbEntity
  8
0
  6
Continuous
 62
     7
370
    15
100
AcDbLine
 10
271.1719051873
 20
208.4621903346
 30
0.0
 11
271.1719051873
 21
210.4621906624
 31
0.0
  0
LINE
  5
19C
330
1F
100
AcDbEntity
  8
0
  6
Continuous
 62
     7
370
    15
100
AcDbLine
 10
271.1719051873
 20
210.4621906624
 30
0.0
 11
267.1719268834
 21
210.4621906624
 31
0.0
  0
LINE
  5
19D
330
1F
100
AcDbEntity
  8
0
  6
Continuous
 62
     7
370
    15
100
AcDbLine
 10
267.1719268834
 20
210.4621906624
 30
0.0
 11
267.1719268834
 21
208.4621903346
 31
0.0
  0
LINE
  5
19E
330
1F
100
AcDbEntity
  8
0
  6
Continuous
 62
     7
370
    15
100
AcDbLine
 10
271.1719051873
 20
574.4621823401
 30
0.0
 11
271.1719051873
 21
576.4621863932
 31
0.0
  0
LINE
  5
19F
330
1F
100
AcDbEntity
  8
0
  6
Continuous
 62
     7
370
    15
100
AcDbLine
 10
271.1719051873
 20
576.4621863932
 30
0.0
 11
267.1719268834
 21
576.4621863932
 31
0.0
  0
LINE
  5
1A0
330
1F
100
AcDbEntity
  8
0
  6
Continuous
 62
     7
370
    15
100
AcDbLine
 10
267.1719268834
 20
576.4621863932
 30
0.0
 11
267.1719268834
 21
574.4621823401
 31
0.0
  0
LINE
  5
1A1
330
1F
100
AcDbEntity
  8
0
  6
Continuous
 62
     7
370
    15
100
AcDbLine
 10
267.1719268834
 20
574.4621823401
 30
0.0
 11
271.1719051873
 21
574.4621823401
 31
0.0
  0
LINE
  5
1A2
330
1F
100
AcDbEntity
  8
0
  6
Continuous
 62
     7
370
    15
100
AcDbLine
 10
271.1719051873
 20
559.4621966452
 30
0.0
 11
271.1719051873
 21
561.4622006983
 31
0.0
  0
LINE
  5
1A3
330
1F
100
AcDbEntity
  8
0
  6
Continuous
 62
     7
370
    15
100
AcDbLine
 10
271.1719051873
 20
561.4622006983
 30
0.0
 11
267.1719268834
 21
561.4622006983
 31
0.0
  0
LINE
  5
1A4
330
1F
100
AcDbEntity
  8
0
  6
Continuous
 62
     7
370
    15
100
AcDbLine
 10
267.1719268834
 20
561.4622006983
 30
0.0
 11
267.1719268834
 21
559.4621966452
 31
0.0
  0
LINE
  5
1A5
330
1F
100
AcDbEntity
  8
0
  6
Continuous
 62
     7
370
    15
100
AcDbLine
 10
267.1719268834
 20
559.4621966452
 30
0.0
 11
271.1719051873
 21
559.4621966452
 31
0.0
  0
LINE
  5
1A6
330
1F
100
AcDbEntity
  8
0
  6
Continuous
 62
     7
370
    15
100
AcDbLine
 10
154.3147788321
 20
561.4622006983
 30
0.0
 11
150.3147707259
 21
561.4622006983
 31
0.0
  0
LINE
  5
1A7
330
1F
100
AcDbEntity
  8
0
  6
Continuous
 62
     7
370
    15
100
AcDbLine
 10
150.3147707259
 20
561.4622006983
 30
0.0
 11
150.3147707259
 21
559.4621966452
 31
0.0
  0
LINE
  5
1A8
330
1F
100
AcDbEntity
  8
0
  6
Continuous
 62
     7
370
    15
100
AcDbLine
 10
150.3147707259
 20
559.4621966452
 30
0.0
 11
154.3147788321
 21
559.4621966452
 31
0.0
  0
LINE
  5
1A9
330
1F
100
AcDbEntity
  8
0
  6
Continuous
 62
     7
370
    15
100
AcDbLine
 10
154.3147788321
 20
559.4621966452
 30
0.0
 11
154.3147788321
 21
561.4622006983
 31
0.0
  0
LINE
  5
1AA
330
1F
100
AcDbEntity
  8
0
  6
Continuous
 62
     7
370
    15
100
AcDbLine
 10
154.3147788321
 20
576.4621863932
 30
0.0
 11
150.3147707259
 21
576.4621863932
 31
0.0
  0
LINE
  5
1AB
330
1F
100
AcDbEntity
  8
0
  6
Continuous
 62
     7
370
    15
100
AcDbLine
 10
150.3147707259
 20
576.4621863932
 30
0.0
 11
150.3147707259
 21
574.4621823401
 31
0.0
  0
LINE
  5
1AC
330
1F
100
AcDbEntity
  8
0
  6
Continuous
 62
     7
370
    15
100
AcDbLine
 10
150.3147707259
 20
574.4621823401
 30
0.0
 11
154.3147788321
 21
574.4621823401
 31
0.0
  0
LINE
  5
1AD
330
1F
100
AcDbEntity
  8
0
  6
Continuous
 62
     7
370
    15
100
AcDbLine
 10
154.3147788321
 20
574.4621823401
 30
0.0
 11
154.3147788321
 21
576.4621863932
 31
0.0
  0
LINE
  5
1AE
330
1F
100
AcDbEntity
  8
0
  6
Continuous
 62
     7
370
    15
100
AcDbLine
 10
74.6719167506
 20
586.9622002215
 30
0.0
 11
74.6719167506
 21
581.4621816249
 31
0.0
  0
LINE
  5
1AF
330
1F
100
AcDbEntity
  8
0
  6
Continuous
 62
     7
370
    15
100
AcDbLine
 10
92.386201111
 20
581.4621816249
 30
0.0
 11
74.6719167506
 21
581.4621816249
 31
0.0
  0
LINE
  5
1B0
330
1F
100
AcDbEntity
  8
0
  6
Continuous
 62
     7
370
    15
100
AcDbLine
 10
54.6719171977
 20
581.4621816249
 30
0.0
 11
16.2433461224
 21
581.4621816249
 31
0.0
  0
ARC
  5
1B1
330
1F
100
AcDbEntity
  8
0
  6
Continuous
 62
     7
370
    15
100
AcDbCircle
 10
431.1292481623
 20
173.2274894161
 30
0.0
 40
5.0
100
AcDbArc
 50
180.0
 51
270.0
  0
ARC
  5
1B2
330
1F
100
AcDbEntity
  8
0
  6
Continuous
 62
     7
370
    15
100
AcDbCircle
 10
431.1292481623
 20
581.2274894161
 30
0.0
 40
5.0
100
AcDbArc
 50
90.0
 51
180.0
  0
ARC
  5
1B3
330
1F
100
AcDbEntity
  8
0
  6
Continuous
 62
     7
370
    15
100
AcDbCircle
 10
821.1292481623
 20
581.2274894161
 30
0.0
 40
5.0
100
AcDbArc
 50
0.0
 51
90.0
  0
ARC
  5
1B4
330
1F
100
AcDbEntity
  8
0
  6
Continuous
 62
     7
370
    15
100
AcDbCircle
 10
821.1292481623
 20
173.2274894161
 30
0.0
 40
5.0
100
AcDbArc
 50
270.0
 51
0.0
  0
ARC
  5
1B5
330
1F
100
AcDbEntity
  8
0
  6
Continuous
 62
     7
370
    15
100
AcDbCircle
 10
671.3349186678
 20
178.2274894161
 30
0.0
 40
10.00000000000003
100
AcDbArc
 50
215.0
 51
270.0
  0
LINE
  5
1B6
330
1F
100
AcDbEntity
  8
0
  6
Continuous
 62
     7
370
    15
100
AcDbLine
 10
663.1433928213
 20
172.4917249126
 30
0.0
 11
655.1109516821
 21
183.9632534725
 31
0.0
  0
ARC
  5
1B7
330
1F
100
AcDbEntity
  8
0
  6
Continuous
 62
     7
370
    15
100
AcDbCircle
 10
646.9194268926
 20
178.2274894161
 30
0.0
 40
9.999999999999988
100
AcDbArc
 50
35.0
 51
90.0
  0
LINE
  5
1B8
330
1F
100
AcDbEntity
  8
0
  6
Continuous
 62
     7
370
    15
100
AcDbLine
 10
646.919425746
 20
188.227488969
 30
0.0
 11
605.339076539
 21
188.227488969
 31
0.0
  0
ARC
  5
1B9
330
1F
100
AcDbEntity
  8
0
  6
Continuous
 62
     7
370
    15
100
AcDbCircle
 10
605.339069432
 20
178.2274894161
 30
0.0
 40
10.0
100
AcDbArc
 50
90.0
 51
145.0
  0
LINE
  5
1BA
330
1F
100
AcDbEntity
  8
0
  6
Continuous
 62
     7
370
    15
100
AcDbLine
 10
597.1475506029
 20
183.9632534725
 30
0.0
 11
589.1150945625
 21
172.4917249126
 31
0.0
  0
ARC
  5
1BB
330
1F
100
AcDbEntity
  8
0
  6
Continuous
 62
     7
370
    15
100
AcDbCircle
 10
580.9235776568
 20
178.2274894161
 30
0.0
 40
10.00000000000011
100
AcDbArc
 50
270.0
 51
325.0
  0
LINE
  5
1BC
330
1F
100
AcDbEntity
  8
0
  6
Continuous
 62
     7
370
    15
100
AcDbLine
 10
760.6292629442
 20
452.5290386123
 30
0.0
 11
760.6292629442
 21
472.5290493411
 31
0.0
  0
LINE
  5
1BD
330
1F
100
AcDbEntity
  8
0
  6
Continuous
 62
     7
370
    15
100
AcDbLine
 10
766.1292517386
 20
452.5290386123
 30
0.0
 11
760.6292629442
 21
452.5290386123
 31
0.0
  0
LINE
  5
1BE
330
1F
100
AcDbEntity
  8
0
  6
Continuous
 62
     7
370
    15
100
AcDbLine
 10
766.1292517386
 20
472.5290493411
 30
0.0
 11
766.1292517386
 21
452.5290386123
 31
0.0
  0
LINE
  5
1BF
330
1F
100
AcDbEntity
  8
0
  6
Continuous
 62
     7
370
    15
100
AcDbLine
 10
760.6292629442
 20
472.5290493411
 30
0.0
 11
766.1292517386
 21
472.5290493411
 31
0.0
  0
LINE
  5
1C0
330
1F
100
AcDbEntity
  8
0
  6
Continuous
 62
     7
370
    15
100
AcDbLine
 10
775.8792603216
 20
428.0290560169
 30
0.0
 11
775.8792603216
 21
433.5290448112
 31
0.0
  0
LINE
  5
1C1
330
1F
100
AcDbEntity
  8
0
  6
Continuous
 62
     7
370
    15
100
AcDbLine
 10
795.8792412481
 20
428.0290560169
 30
0.0
 11
775.8792603216
 21
428.0290560169
 31
0.0
  0
LINE
  5
1C2
330
1F
100
AcDbEntity
  8
0
  6
Continuous
 62
     7
370
    15
100
AcDbLine
 10
795.8792412481
 20
433.5290448112
 30
0.0
 11
795.8792412481
 21
428.0290560169
 31
0.0
  0
LINE
  5
1C3
330
1F
100
AcDbEntity
  8
0
  6
Continuous
 62
     7
370
    15
100
AcDbLine
 10
775.8792603216
 20
433.5290448112
 30
0.0
 11
795.8792412481
 21
433.5290448112
 31
0.0
  0
LINE
  5
1C4
330
1F
100
AcDbEntity
  8
0
  6
Continuous
 62
     7
370
    15
100
AcDbLine
 10
491.6292467914
 20
452.5290386123
 30
0.0
 11
486.1292468212
 21
452.5290386123
 31
0.0
  0
LINE
  5
1C5
330
1F
100
AcDbEntity
  8
0
  6
Continuous
 62
     7
370
    15
100
AcDbLine
 10
491.6292467914
 20
472.5290493411
 30
0.0
 11
491.6292467914
 21
452.5290386123
 31
0.0
  0
LINE
  5
1C6
330
1F
100
AcDbEntity
  8
0
  6
Continuous
 62
     7
370
    15
100
AcDbLine
 10
486.1292468212
 20
472.5290493411
 30
0.0
 11
491.6292467914
 21
472.5290493411
 31
0.0
  0
LINE
  5
1C7
330
1F
100
AcDbEntity
  8
0
  6
Continuous
 62
     7
370
    15
100
AcDbLine
 10
486.1292468212
 20
452.5290386123
 30
0.0
 11
486.1292468212
 21
472.5290493411
 31
0.0
  0
LINE
  5
1C8
330
1F
100
AcDbEntity
  8
0
  6
Continuous
 62
     7
370
    15
100
AcDbLine
 10
476.379249414
 20
433.5290448112
 30
0.0
 11
476.379249414
 21
428.0290560169
 31
0.0
  0
LINE
  5
1C9
330
1F
100
AcDbEntity
  8
0
  6
Continuous
 62
     7
370
    15
100
AcDbLine
 10
456.3792479984
 20
433.5290448112
 30
0.0
 11
476.379249414
 21
433.5290448112
 31
0.0
  0
LINE
  5
1CA
330
1F
100
AcDbEntity
  8
0
  6
Continuous
 62
     7
370
    15
100
AcDbLine
 10
456.3792479984
 20
428.0290560169
 30
0.0
 11
456.3792479984
 21
433.5290448112
 31
0.0
  0
LINE
  5
1CB
330
1F
100
AcDbEntity
  8
0
  6
Continuous
 62
     7
370
    15
100
AcDbLine
 10
476.379249414
 20
428.0290560169
 30
0.0
 11
456.3792479984
 21
428.0290560169
 31
0.0
  0
LINE
  5
1CC
330
1F
100
AcDbEntity
  8
0
  6
Continuous
 62
     7
370
    15
100
AcDbLine
 10
758.2721078596
 20
580.7274834556
 30
0.0
 11
758.2721078596
 21
575.2274946613
 31
0.0
  0
LINE
  5
1CD
330
1F
100
AcDbEntity
  8
0
  6
Continuous
 62
     7
370
    15
100
AcDbLine
 10
758.2721078596
 20
575.2274946613
 30
0.0
 11
778.2721185885
 21
575.2274946613
 31
0.0
  0
LINE
  5
1CE
330
1F
100
AcDbEntity
  8
0
  6
Continuous
 62
     7
370
    15
100
AcDbLine
 10
778.2721185885
 20
575.2274946613
 30
0.0
 11
778.2721185885
 21
580.7274834556
 31
0.0
  0
LINE
  5
1CF
330
1F
100
AcDbEntity
  8
0
  6
Continuous
 62
     7
370
    15
100
AcDbLine
 10
778.2721185885
 20
580.7274834556
 30
0.0
 11
758.2721078596
 21
580.7274834556
 31
0.0
  0
LINE
  5
1D0
330
1F
100
AcDbEntity
  8
0
  6
Continuous
 62
     7
370
    15
100
AcDbLine
 10
701.4149689875
 20
580.7274834556
 30
0.0
 11
701.4149689875
 21
575.2274946613
 31
0.0
  0
LINE
  5
1D1
330
1F
100
AcDbEntity
  8
0
  6
Continuous
 62
     7
370
    15
100
AcDbLine
 10
701.4149689875
 20
575.2274946613
 30
0.0
 11
721.414949914
 21
575.2274946613
 31
0.0
  0
LINE
  5
1D2
330
1F
100
AcDbEntity
  8
0
  6
Continuous
 62
     7
370
    15
100
AcDbLine
 10
721.414949914
 20
575.2274946613
 30
0.0
 11
721.414949914
 21
580.7274834556
 31
0.0
  0
LINE
  5
1D3
330
1F
100
AcDbEntity
  8
0
  6
Continuous
 62
     7
370
    15
100
AcDbLine
 10
721.414949914
 20
580.7274834556
 30
0.0
 11
701.4149689875
 21
580.7274834556
 31
0.0
  0
LINE
  5
1D4
330
1F
100
AcDbEntity
  8
0
  6
Continuous
 62
     7
370
    15
100
AcDbLine
 10
644.5578152142
 20
580.7274834556
 30
0.0
 11
644.5578152142
 21
575.2274946613
 31
0.0
  0
LINE
  5
1D5
330
1F
100
AcDbEntity
  8
0
  6
Continuous
 62
     7
370
    15
100
AcDbLine
 10
644.5578152142
 20
575.2274946613
 30
0.0
 11
664.557825943
 21
575.2274946613
 31
0.0
  0
LINE
  5
1D6
330
1F
100
AcDbEntity
  8
0
  6
Continuous
 62
     7
370
    15
100
AcDbLine
 10
664.557825943
 20
575.2274946613
 30
0.0
 11
664.557825943
 21
580.7274834556
 31
0.0
  0
LINE
  5
1D7
330
1F
100
AcDbEntity
  8
0
  6
Continuous
 62
     7
370
    15
100
AcDbLine
 10
664.557825943
 20
580.7274834556
 30
0.0
 11
644.5578152142
 21
580.7274834556
 31
0.0
  0
LINE
  5
1D8
330
1F
100
AcDbEntity
  8
0
  6
Continuous
 62
     7
370
    15
100
AcDbLine
 10
587.700676342
 20
580.7274834556
 30
0.0
 11
587.700676342
 21
575.2274946613
 31
0.0
  0
LINE
  5
1D9
330
1F
100
AcDbEntity
  8
0
  6
Continuous
 62
     7
370
    15
100
AcDbLine
 10
587.700676342
 20
575.2274946613
 30
0.0
 11
607.7006721697
 21
575.2274946613
 31
0.0
  0
LINE
  5
1DA
330
1F
100
AcDbEntity
  8
0
  6
Continuous
 62
     7
370
    15
100
AcDbLine
 10
607.7006721697
 20
575.2274946613
 30
0.0
 11
607.7006721697
 21
580.7274834556
 31
0.0
  0
LINE
  5
1DB
330
1F
100
AcDbEntity
  8
0
  6
Continuous
 62
     7
370
    15
100
AcDbLine
 10
607.7006721697
 20
580.7274834556
 30
0.0
 11
587.700676342
 21
580.7274834556
 31
0.0
  0
LINE
  5
1DC
330
1F
100
AcDbEntity
  8
0
  6
Continuous
 62
     7
370
    15
100
AcDbLine
 10
530.8435374699
 20
580.7274834556
 30
0.0
 11
530.8435374699
 21
575.2274946613
 31
0.0
  0
LINE
  5
1DD
330
1F
100
AcDbEntity
  8
0
  6
Continuous
 62
     7
370
    15
100
AcDbLine
 10
530.8435374699
 20
575.2274946613
 30
0.0
 11
550.8435332975
 21
575.2274946613
 31
0.0
  0
LINE
  5
1DE
330
1F
100
AcDbEntity
  8
0
  6
Continuous
 62
     7
370
    15
100
AcDbLine
 10
550.8435332975
 20
575.2274946613
 30
0.0
 11
550.8435332975
 21
580.7274834556
 31
0.0
  0
LINE
  5
1DF
330
1F
100
AcDbEntity
  8
0
  6
Continuous
 62
     7
370
    15
100
AcDbLine
 10
550.8435332975
 20
580.7274834556
 30
0.0
 11
530.8435374699
 21
580.7274834556
 31
0.0
  0
LINE
  5
1E0
330
1F
100
AcDbEntity
  8
0
  6
Continuous
 62
     7
370
    15
100
AcDbLine
 10
473.9863911471
 20
580.7274834556
 30
0.0
 11
473.9863911471
 21
575.2274946613
 31
0.0
  0
LINE
  5
1E1
330
1F
100
AcDbEntity
  8
0
  6
Continuous
 62
     7
370
    15
100
AcDbLine
 10
473.9863911471
 20
575.2274946613
 30
0.0
 11
493.9863944254
 21
575.2274946613
 31
0.0
  0
LINE
  5
1E2
330
1F
100
AcDbEntity
  8
0
  6
Continuous
 62
     7
370
    15
100
AcDbLine
 10
493.9863944254
 20
575.2274946613
 30
0.0
 11
493.9863944254
 21
580.7274834556
 31
0.0
  0
LINE
  5
1E3
330
1F
100
AcDbEntity
  8
0
  6
Continuous
 62
     7
370
    15
100
AcDbLine
 10
493.9863944254
 20
580.7274834556
 30
0.0
 11
473.9863911471
 21
580.7274834556
 31
0.0
  0
LINE
  5
1E4
330
1F
100
AcDbEntity
  8
0
  6
Continuous
 62
     7
370
    15
100
AcDbLine
 10
758.2721078596
 20
264.2274902505
 30
0.0
 11
758.2721078596
 21
258.727486555
 31
0.0
  0
LINE
  5
1E5
330
1F
100
AcDbEntity
  8
0
  6
Continuous
 62
     7
370
    15
100
AcDbLine
 10
758.2721078596
 20
258.727486555
 30
0.0
 11
778.2721185885
 21
258.727486555
 31
0.0
  0
LINE
  5
1E6
330
1F
100
AcDbEntity
  8
0
  6
Continuous
 62
     7
370
    15
100
AcDbLine
 10
778.2721185885
 20
258.727486555
 30
0.0
 11
778.2721185885
 21
264.2274902505
 31
0.0
  0
LINE
  5
1E7
330
1F
100
AcDbEntity
  8
0
  6
Continuous
 62
     7
370
    15
100
AcDbLine
 10
778.2721185885
 20
264.2274902505
 30
0.0
 11
758.2721078596
 21
264.2274902505
 31
0.0
  0
LINE
  5
1E8
330
1F
100
AcDbEntity
  8
0
  6
Continuous
 62
     7
370
    15
100
AcDbLine
 10
701.4149689875
 20
264.2274902505
 30
0.0
 11
701.4149689875
 21
258.727486555
 31
0.0
  0
LINE
  5
1E9
330
1F
100
AcDbEntity
  8
0
  6
Continuous
 62
     7
370
    15
100
AcDbLine
 10
701.4149689875
 20
258.727486555
 30
0.0
 11
721.414949914
 21
258.727486555
 31
0.0
  0
LINE
  5
1EA
330
1F
100
AcDbEntity
  8
0
  6
Continuous
 62
     7
370
    15
100
AcDbLine
 10
721.414949914
 20
258.727486555
 30
0.0
 11
721.414949914
 21
264.2274902505
 31
0.0
  0
LINE
  5
1EB
330
1F
100
AcDbEntity
  8
0
  6
Continuous
 62
     7
370
    15
100
AcDbLine
 10
721.414949914
 20
264.2274902505
 30
0.0
 11
701.4149689875
 21
264.2274902505
 31
0.0
  0
LINE
  5
1EC
330
1F
100
AcDbEntity
  8
0
  6
Continuous
 62
     7
370
    15
100
AcDbLine
 10
644.5578152142
 20
264.2274902505
 30
0.0
 11
644.5578152142
 21
258.727486555
 31
0.0
  0
LINE
  5
1ED
330
1F
100
AcDbEntity
  8
0
  6
Continuous
 62
     7
370
    15
100
AcDbLine
 10
644.5578152142
 20
258.727486555
 30
0.0
 11
664.557825943
 21
258.727486555
 31
0.0
  0
LINE
  5
1EE
330
1F
100
AcDbEntity
  8
0
  6
Continuous
 62
     7
370
    15
100
AcDbLine
 10
664.557825943
 20
258.727486555
 30
0.0
 11
664.557825943
 21
264.2274902505
 31
0.0
  0
LINE
  5
1EF
330
1F
100
AcDbEntity
  8
0
  6
Continuous
 62
     7
370
    15
100
AcDbLine
 10
664.557825943
 20
264.2274902505
 30
0.0
 11
644.5578152142
 21
264.2274902505
 31
0.0
  0
LINE
  5
1F0
330
1F
100
AcDbEntity
  8
0
  6
Continuous
 62
     7
370
    15
100
AcDbLine
 10
587.700676342
 20
264.2274902505
 30
0.0
 11
587.700676342
 21
258.727486555
 31
0.0
  0
LINE
  5
1F1
330
1F
100
AcDbEntity
  8
0
  6
Continuous
 62
     7
370
    15
100
AcDbLine
 10
587.700676342
 20
258.727486555
 30
0.0
 11
607.7006721697
 21
258.727486555
 31
0.0
  0
LINE
  5
1F2
330
1F
100
AcDbEntity
  8
0
  6
Continuous
 62
     7
370
    15
100
AcDbLine
 10
607.7006721697
 20
258.727486555
 30
0.0
 11
607.7006721697
 21
264.2274902505
 31
0.0
  0
LINE
  5
1F3
330
1F
100
AcDbEntity
  8
0
  6
Continuous
 62
     7
370
    15
100
AcDbLine
 10
607.7006721697
 20
264.2274902505
 30
0.0
 11
587.700676342
 21
264.2274902505
 31
0.0
  0
LINE
  5
1F4
330
1F
100
AcDbEntity
  8
0
  6
Continuous
 62
     7
370
    15
100
AcDbLine
 10
530.8435374699
 20
264.2274902505
 30
0.0
 11
530.8435374699
 21
258.727486555
 31
0.0
  0
LINE
  5
1F5
330
1F
100
AcDbEntity
  8
0
  6
Continuous
 62
     7
370
    15
100
AcDbLine
 10
530.8435374699
 20
258.727486555
 30
0.0
 11
550.8435332975
 21
258.727486555
 31
0.0
  0
LINE
  5
1F6
330
1F
100
AcDbEntity
  8
0
  6
Continuous
 62
     7
370
    15
100
AcDbLine
 10
550.8435332975
 20
258.727486555
 30
0.0
 11
550.8435332975
 21
264.2274902505
 31
0.0
  0
LINE
  5
1F7
330
1F
100
AcDbEntity
  8
0
  6
Continuous
 62
     7
370
    15
100
AcDbLine
 10
550.8435332975
 20
264.2274902505
 30
0.0
 11
530.8435374699
 21
264.2274902505
 31
0.0
  0
LINE
  5
1F8
330
1F
100
AcDbEntity
  8
0
  6
Continuous
 62
     7
370
    15
100
AcDbLine
 10
473.9863911471
 20
264.2274902505
 30
0.0
 11
473.9863911471
 21
258.727486555
 31
0.0
  0
LINE
  5
1F9
330
1F
100
AcDbEntity
  8
0
  6
Continuous
 62
     7
370
    15
100
AcDbLine
 10
473.9863911471
 20
258.727486555
 30
0.0
 11
493.9863944254
 21
258.727486555
 31
0.0
  0
LINE
  5
1FA
330
1F
100
AcDbEntity
  8
0
  6
Continuous
 62
     7
370
    15
100
AcDbLine
 10
493.9863944254
 20
258.727486555
 30
0.0
 11
493.9863944254
 21
264.2274902505
 31
0.0
  0
LINE
  5
1FB
330
1F
100
AcDbEntity
  8
0
  6
Continuous
 62
     7
370
    15
100
AcDbLine
 10
493.9863944254
 20
264.2274902505
 30
0.0
 11
473.9863911471
 21
264.2274902505
 31
0.0
  0
LINE
  5
1FC
330
1F
100
AcDbEntity
  8
0
  6
Continuous
 62
     7
370
    15
100
AcDbLine
 10
815.1292467318
 20
543.656046812
 30
0.0
 11
815.1292467318
 21
523.6560658855
 31
0.0
  0
LINE
  5
1FD
330
1F
100
AcDbEntity
  8
0
  6
Continuous
 62
     7
370
    15
100
AcDbLine
 10
815.1292467318
 20
523.6560658855
 30
0.0
 11
820.6292355261
 21
523.6560658855
 31
0.0
  0
LINE
  5
1FE
330
1F
100
AcDbEntity
  8
0
  6
Continuous
 62
     7
370
    15
100
AcDbLine
 10
820.6292355261
 20
523.6560658855
 30
0.0
 11
820.6292355261
 21
543.656046812
 31
0.0
  0
LINE
  5
1FF
330
1F
100
AcDbEntity
  8
0
  6
Continuous
 62
     7
370
    15
100
AcDbLine
 10
820.6292355261
 20
543.656046812
 30
0.0
 11
815.1292467318
 21
543.656046812
 31
0.0
  0
LINE
  5
200
330
1F
100
AcDbEntity
  8
0
  6
Continuous
 62
     7
370
    15
100
AcDbLine
 10
815.1292467318
 20
481.0846404476
 30
0.0
 11
815.1292467318
 21
461.0846297187
 31
0.0
  0
LINE
  5
201
330
1F
100
AcDbEntity
  8
0
  6
Continuous
 62
     7
370
    15
100
AcDbLine
 10
815.1292467318
 20
461.0846297187
 30
0.0
 11
820.6292355261
 21
461.0846297187
 31
0.0
  0
LINE
  5
202
330
1F
100
AcDbEntity
  8
0
  6
Continuous
 62
     7
370
    15
100
AcDbLine
 10
820.6292355261
 20
461.0846297187
 30
0.0
 11
820.6292355261
 21
481.0846404476
 31
0.0
  0
LINE
  5
203
330
1F
100
AcDbEntity
  8
0
  6
Continuous
 62
     7
370
    15
100
AcDbLine
 10
820.6292355261
 20
481.0846404476
 30
0.0
 11
815.1292467318
 21
481.0846404476
 31
0.0
  0
LINE
  5
204
330
1F
100
AcDbEntity
  8
0
  6
Continuous
 62
     7
370
    15
100
AcDbLine
 10
815.1292467318
 20
418.5132042808
 30
0.0
 11
815.1292467318
 21
398.5132084531
 31
0.0
  0
LINE
  5
205
330
1F
100
AcDbEntity
  8
0
  6
Continuous
 62
     7
370
    15
100
AcDbLine
 10
815.1292467318
 20
398.5132084531
 30
0.0
 11
820.6292355261
 21
398.5132084531
 31
0.0
  0
LINE
  5
206
330
1F
100
AcDbEntity
  8
0
  6
Continuous
 62
     7
370
    15
100
AcDbLine
 10
820.6292355261
 20
398.5132084531
 30
0.0
 11
820.6292355261
 21
418.5132042808
 31
0.0
  0
LINE
  5
207
330
1F
100
AcDbEntity
  8
0
  6
Continuous
 62
     7
370
    15
100
AcDbLine
 10
820.6292355261
 20
418.5132042808
 30
0.0
 11
815.1292467318
 21
418.5132042808
 31
0.0
  0
LINE
  5
208
330
1F
100
AcDbEntity
  8
0
  6
Continuous
 62
     7
370
    15
100
AcDbLine
 10
815.1292467318
 20
355.941768114
 30
0.0
 11
815.1292467318
 21
335.9417722864
 31
0.0
  0
LINE
  5
209
330
1F
100
AcDbEntity
  8
0
  6
Continuous
 62
     7
370
    15
100
AcDbLine
 10
815.1292467318
 20
335.9417722864
 30
0.0
 11
820.6292355261
 21
335.9417722864
 31
0.0
  0
LINE
  5
20A
330
1F
100
AcDbEntity
  8
0
  6
Continuous
 62
     7
370
    15
100
AcDbLine
 10
820.6292355261
 20
335.9417722864
 30
0.0
 11
820.6292355261
 21
355.941768114
 31
0.0
  0
LINE
  5
20B
330
1F
100
AcDbEntity
  8
0
  6
Continuous
 62
     7
370
    15
100
AcDbLine
 10
820.6292355261
 20
355.941768114
 30
0.0
 11
815.1292467318
 21
355.941768114
 31
0.0
  0
LINE
  5
20C
330
1F
100
AcDbEntity
  8
0
  6
Continuous
 62
     7
370
    15
100
AcDbLine
 10
815.1292467318
 20
293.3703468484
 30
0.0
 11
815.1292467318
 21
273.3703435702
 31
0.0
  0
LINE
  5
20D
330
1F
100
AcDbEntity
  8
0
  6
Continuous
 62
     7
370
    15
100
AcDbLine
 10
815.1292467318
 20
273.3703435702
 30
0.0
 11
820.6292355261
 21
273.3703435702
 31
0.0
  0
LINE
  5
20E
330
1F
100
AcDbEntity
  8
0
  6
Continuous
 62
     7
370
    15
100
AcDbLine
 10
820.6292355261
 20
273.3703435702
 30
0.0
 11
820.6292355261
 21
293.3703468484
 31
0.0
  0
LINE
  5
20F
330
1F
100
AcDbEntity
  8
0
  6
Continuous
 62
     7
370
    15
100
AcDbLine
 10
820.6292355261
 20
293.3703468484
 30
0.0
 11
815.1292467318
 21
293.3703468484
 31
0.0
  0
LINE
  5
210
330
1F
100
AcDbEntity
  8
0
  6
Continuous
 62
     7
370
    15
100
AcDbLine
 10
815.1292467318
 20
230.7989181322
 30
0.0
 11
815.1292467318
 21
210.7989185793
 31
0.0
  0
LINE
  5
211
330
1F
100
AcDbEntity
  8
0
  6
Continuous
 62
     7
370
    15
100
AcDbLine
 10
815.1292467318
 20
210.7989185793
 30
0.0
 11
820.6292355261
 21
210.7989185793
 31
0.0
  0
LINE
  5
212
330
1F
100
AcDbEntity
  8
0
  6
Continuous
 62
     7
370
    15
100
AcDbLine
 10
820.6292355261
 20
210.7989185793
 30
0.0
 11
820.6292355261
 21
230.7989181322
 31
0.0
  0
LINE
  5
213
330
1F
100
AcDbEntity
  8
0
  6
Continuous
 62
     7
370
    15
100
AcDbLine
 10
820.6292355261
 20
230.7989181322
 30
0.0
 11
815.1292467318
 21
230.7989181322
 31
0.0
  0
LINE
  5
214
330
1F
100
AcDbEntity
  8
0
  6
Continuous
 62
     7
370
    15
100
AcDbLine
 10
431.6292481325
 20
543.656046812
 30
0.0
 11
431.6292481325
 21
523.6560658855
 31
0.0
  0
LINE
  5
215
330
1F
100
AcDbEntity
  8
0
  6
Continuous
 62
     7
370
    15
100
AcDbLine
 10
431.6292481325
 20
523.6560658855
 30
0.0
 11
437.1292481027
 21
523.6560658855
 31
0.0
  0
LINE
  5
216
330
1F
100
AcDbEntity
  8
0
  6
Continuous
 62
     7
370
    15
100
AcDbLine
 10
437.1292481027
 20
523.6560658855
 30
0.0
 11
437.1292481027
 21
543.656046812
 31
0.0
  0
LINE
  5
217
330
1F
100
AcDbEntity
  8
0
  6
Continuous
 62
     7
370
    15
100
AcDbLine
 10
437.1292481027
 20
543.656046812
 30
0.0
 11
431.6292481325
 21
543.656046812
 31
0.0
  0
LINE
  5
218
330
1F
100
AcDbEntity
  8
0
  6
Continuous
 62
     7
370
    15
100
AcDbLine
 10
431.6292481325
 20
481.0846404476
 30
0.0
 11
431.6292481325
 21
461.0846297187
 31
0.0
  0
LINE
  5
219
330
1F
100
AcDbEntity
  8
0
  6
Continuous
 62
     7
370
    15
100
AcDbLine
 10
431.6292481325
 20
461.0846297187
 30
0.0
 11
437.1292481027
 21
461.0846297187
 31
0.0
  0
LINE
  5
21A
330
1F
100
AcDbEntity
  8
0
  6
Continuous
 62
     7
370
    15
100
AcDbLine
 10
437.1292481027
 20
461.0846297187
 30
0.0
 11
437.1292481027
 21
481.0846404476
 31
0.0
  0
LINE
  5
21B
330
1F
100
AcDbEntity
  8
0
  6
Continuous
 62
     7
370
    15
100
AcDbLine
 10
437.1292481027
 20
481.0846404476
 30
0.0
 11
431.6292481325
 21
481.0846404476
 31
0.0
  0
LINE
  5
21C
330
1F
100
AcDbEntity
  8
0
  6
Continuous
 62
     7
370
    15
100
AcDbLine
 10
431.6292481325
 20
418.5132042808
 30
0.0
 11
431.6292481325
 21
398.5132084531
 31
0.0
  0
LINE
  5
21D
330
1F
100
AcDbEntity
  8
0
  6
Continuous
 62
     7
370
    15
100
AcDbLine
 10
431.6292481325
 20
398.5132084531
 30
0.0
 11
437.1292481027
 21
398.5132084531
 31
0.0
  0
LINE
  5
21E
330
1F
100
AcDbEntity
  8
0
  6
Continuous
 62
     7
370
    15
100
AcDbLine
 10
437.1292481027
 20
398.5132084531
 30
0.0
 11
437.1292481027
 21
418.5132042808
 31
0.0
  0
LINE
  5
21F
330
1F
100
AcDbEntity
  8
0
  6
Continuous
 62
     7
370
    15
100
AcDbLine
 10
437.1292481027
 20
418.5132042808
 30
0.0
 11
431.6292481325
 21
418.5132042808
 31
0.0
  0
LINE
  5
220
330
1F
100
AcDbEntity
  8
0
  6
Continuous
 62
     7
370
    15
100
AcDbLine
 10
431.6292481325
 20
355.941768114
 30
0.0
 11
431.6292481325
 21
335.9417722864
 31
0.0
  0
LINE
  5
221
330
1F
100
AcDbEntity
  8
0
  6
Continuous
 62
     7
370
    15
100
AcDbLine
 10
431.6292481325
 20
335.9417722864
 30
0.0
 11
437.1292481027
 21
335.9417722864
 31
0.0
  0
LINE
  5
222
330
1F
100
AcDbEntity
  8
0
  6
Continuous
 62
     7
370
    15
100
AcDbLine
 10
437.1292481027
 20
335.9417722864
 30
0.0
 11
437.1292481027
 21
355.941768114
 31
0.0
  0
LINE
  5
223
330
1F
100
AcDbEntity
  8
0
  6
Continuous
 62
     7
370
    15
100
AcDbLine
 10
437.1292481027
 20
355.941768114
 30
0.0
 11
431.6292481325
 21
355.941768114
 31
0.0
  0
LINE
  5
224
330
1F
100
AcDbEntity
  8
0
  6
Continuous
 62
     7
370
    15
100
AcDbLine
 10
431.6292481325
 20
293.3703468484
 30
0.0
 11
431.6292481325
 21
273.3703435702
 31
0.0
  0
LINE
  5
225
330
1F
100
AcDbEntity
  8
0
  6
Continuous
 62
     7
370
    15
100
AcDbLine
 10
431.6292481325
 20
273.3703435702
 30
0.0
 11
437.1292481027
 21
273.3703435702
 31
0.0
  0
LINE
  5
226
330
1F
100
AcDbEntity
  8
0
  6
Continuous
 62
     7
370
    15
100
AcDbLine
 10
437.1292481027
 20
273.3703435702
 30
0.0
 11
437.1292481027
 21
293.3703468484
 31
0.0
  0
LINE
  5
227
330
1F
100
AcDbEntity
  8
0
  6
Continuous
 62
     7
370
    15
100
AcDbLine
 10
437.1292481027
 20
293.3703468484
 30
0.0
 11
431.6292481325
 21
293.3703468484
 31
0.0
  0
LINE
  5
228
330
1F
100
AcDbEntity
  8
0
  6
Continuous
 62
     7
370
    15
100
AcDbLine
 10
431.6292481325
 20
230.7989181322
 30
0.0
 11
431.6292481325
 21
210.7989185793
 31
0.0
  0
LINE
  5
229
330
1F
100
AcDbEntity
  8
0
  6
Continuous
 62
     7
370
    15
100
AcDbLine
 10
431.6292481325
 20
210.7989185793
 30
0.0
 11
437.1292481027
 21
210.7989185793
 31
0.0
  0
LINE
  5
22A
330
1F
100
AcDbEntity
  8
0
  6
Continuous
 62
     7
370
    15
100
AcDbLine
 10
437.1292481027
 20
210.7989185793
 30
0.0
 11
437.1292481027
 21
230.7989181322
 31
0.0
  0
LINE
  5
22B
330
1F
100
AcDbEntity
  8
0
  6
Continuous
 62
     7
370
    15
100
AcDbLine
 10
437.1292481027
 20
230.7989181322
 30
0.0
 11
431.6292481325
 21
230.7989181322
 31
0.0
  0
CIRCLE
  5
22C
330
1F
100
AcDbEntity
  8
0
  6
Continuous
 62
     7
370
    15
100
AcDbCircle
 10
434.3792481623
 20
564.9417751303
 30
0.0
 40
1.500000000000057
  0
CIRCLE
  5
22D
330
1F
100
AcDbEntity
  8
0
  6
Continuous
 62
     7
370
    15
100
AcDbCircle
 10
512.414962448
 20
577.9774894161
 30
0.0
 40
1.499999999999886
  0
CIRCLE
  5
22E
330
1F
100
AcDbEntity
  8
0
  6
Continuous
 62
     7
370
    15
100
AcDbCircle
 10
626.1292481623
 20
577.9774894161
 30
0.0
 40
1.499999999999886
  0
CIRCLE
  5
22F
330
1F
100
AcDbEntity
  8
0
  6
Continuous
 62
     7
370
    15
100
AcDbCircle
 10
626.1292481623
 20
261.4774894161
 30
0.0
 40
1.5
  0
CIRCLE
  5
230
330
1F
100
AcDbEntity
  8
0
  6
Continuous
 62
     7
370
    15
100
AcDbCircle
 10
512.414962448
 20
261.4774894161
 30
0.0
 40
1.5
  0
CIRCLE
  5
231
330
1F
100
AcDbEntity
  8
0
  6
Continuous
 62
     7
370
    15
100
AcDbCircle
 10
434.3792481623
 20
377.2274894161
 30
0.0
 40
1.5
  0
CIRCLE
  5
232
330
1F
100
AcDbEntity
  8
0
  6
Continuous
 62
     7
370
    15
100
AcDbCircle
 10
434.3792481623
 20
189.5132037018
 30
0.0
 40
1.499999999999943
  0
CIRCLE
  5
233
330
1F
100
AcDbEntity
  8
0
  6
Continuous
 62
     7
370
    15
100
AcDbCircle
 10
817.8792481623
 20
189.5132037018
 30
0.0
 40
1.5
  0
CIRCLE
  5
234
330
1F
100
AcDbEntity
  8
0
  6
Continuous
 62
     7
370
    15
100
AcDbCircle
 10
817.8792481623
 20
377.2274894161
 30
0.0
 40
1.5
  0
CIRCLE
  5
235
330
1F
100
AcDbEntity
  8
0
  6
Continuous
 62
     7
370
    15
100
AcDbCircle
 10
739.8435338766
 20
261.4774894161
 30
0.0
 40
1.500000000000114
  0
CIRCLE
  5
236
330
1F
100
AcDbEntity
  8
0
  6
Continuous
 62
     7
370
    15
100
AcDbCircle
 10
739.8435338766
 20
577.9774894161
 30
0.0
 40
1.500000000000114
  0
CIRCLE
  5
237
330
1F
100
AcDbEntity
  8
0
  6
Continuous
 62
     7
370
    15
100
AcDbCircle
 10
817.8792481623
 20
564.9417751303
 30
0.0
 40
1.5
  0
CIRCLE
  5
238
330
1F
100
AcDbEntity
  8
0
  6
Continuous
 62
     7
370
    15
100
AcDbCircle
 10
796.0292481623
 20
561.2274894161
 30
0.0
 40
1.5
  0
CIRCLE
  5
239
330
1F
100
AcDbEntity
  8
0
  6
Continuous
 62
     7
370
    15
100
AcDbCircle
 10
787.3689941244
 20
566.2274894161
 30
0.0
 40
1.5
  0
CIRCLE
  5
23A
330
1F
100
AcDbEntity
  8
0
  6
Continuous
 62
     7
370
    15
100
AcDbCircle
 10
796.0292481623
 20
551.2274894161
 30
0.0
 40
1.5
  0
CIRCLE
  5
23B
330
1F
100
AcDbEntity
  8
0
  6
Continuous
 62
     7
370
    15
100
AcDbCircle
 10
804.6895022001
 20
566.2274894161
 30
0.0
 40
1.500000000000114
  0
CIRCLE
  5
23C
330
1F
100
AcDbEntity
  8
0
  6
Continuous
 62
     7
370
    15
100
AcDbCircle
 10
796.0292481623
 20
501.2274894161
 30
0.0
 40
1.5
  0
CIRCLE
  5
23D
330
1F
100
AcDbEntity
  8
0
  6
Continuous
 62
     7
370
    15
100
AcDbCircle
 10
787.3689941244
 20
496.2274894161
 30
0.0
 40
1.5
  0
CIRCLE
  5
23E
330
1F
100
AcDbEntity
  8
0
  6
Continuous
 62
     7
370
    15
100
AcDbCircle
 10
796.0292481623
 20
511.2274894161
 30
0.0
 40
1.5
  0
CIRCLE
  5
23F
330
1F
100
AcDbEntity
  8
0
  6
Continuous
 62
     7
370
    15
100
AcDbCircle
 10
804.6895022001
 20
496.2274894161
 30
0.0
 40
1.5
  0
CIRCLE
  5
240
330
1F
100
AcDbEntity
  8
0
  6
Continuous
 62
     7
370
    15
100
AcDbCircle
 10
456.2292481623
 20
501.2274894161
 30
0.0
 40
1.5
  0
CIRCLE
  5
241
330
1F
100
AcDbEntity
  8
0
  6
Continuous
 62
     7
370
    15
100
AcDbCircle
 10
456.2292481623
 20
511.2274894161
 30
0.0
 40
1.500000000000057
  0
CIRCLE
  5
242
330
1F
100
AcDbEntity
  8
0
  6
Continuous
 62
     7
370
    15
100
AcDbCircle
 10
447.5689941244
 20
496.2274894161
 30
0.0
 40
1.500000000000057
  0
CIRCLE
  5
243
330
1F
100
AcDbEntity
  8
0
  6
Continuous
 62
     7
370
    15
100
AcDbCircle
 10
464.8895022001
 20
496.2274894161
 30
0.0
 40
1.5
  0
CIRCLE
  5
244
330
1F
100
AcDbEntity
  8
0
  6
Continuous
 62
     7
370
    15
100
AcDbCircle
 10
456.2292481623
 20
561.2274894161
 30
0.0
 40
1.5
  0
CIRCLE
  5
245
330
1F
100
AcDbEntity
  8
0
  6
Continuous
 62
     7
370
    15
100
AcDbCircle
 10
447.5689941244
 20
566.2274894161
 30
0.0
 40
1.5
  0
CIRCLE
  5
246
330
1F
100
AcDbEntity
  8
0
  6
Continuous
 62
     7
370
    15
100
AcDbCircle
 10
464.8895022001
 20
566.2274894161
 30
0.0
 40
1.5
  0
CIRCLE
  5
247
330
1F
100
AcDbEntity
  8
0
  6
Continuous
 62
     7
370
    15
100
AcDbCircle
 10
456.2292481623
 20
551.2274894161
 30
0.0
 40
1.5
  0
LINE
  5
248
330
1F
100
AcDbEntity
  8
0
  6
Continuous
 62
     7
370
    15
100
AcDbLine
 10
647.6292425594
 20
234.2274890584
 30
0.0
 11
647.6292425594
 21
214.2274895055
 31
0.0
  0
LINE
  5
249
330
1F
100
AcDbEntity
  8
0
  6
Continuous
 62
     7
370
    15
100
AcDbLine
 10
647.6292425594
 20
214.2274895055
 30
0.0
 11
653.1292462549
 21
214.2274895055
 31
0.0
  0
LINE
  5
24A
330
1F
100
AcDbEntity
  8
0
  6
Continuous
 62
     7
370
    15
100
AcDbLine
 10
653.1292462549
 20
214.2274895055
 30
0.0
 11
653.1292462549
 21
234.2274890584
 31
0.0
  0
LINE
  5
24B
330
1F
100
AcDbEntity
  8
0
  6
Continuous
 62
     7
370
    15
100
AcDbLine
 10
653.1292462549
 20
234.2274890584
 30
0.0
 11
647.6292425594
 21
234.2274890584
 31
0.0
  0
LINE
  5
24C
330
1F
100
AcDbEntity
  8
0
  6
Continuous
 62
     7
370
    15
100
AcDbLine
 10
599.1292411289
 20
234.2274890584
 30
0.0
 11
599.1292411289
 21
214.2274895055
 31
0.0
  0
LINE
  5
24D
330
1F
100
AcDbEntity
  8
0
  6
Continuous
 62
     7
370
    15
100
AcDbLine
 10
599.1292411289
 20
214.2274895055
 30
0.0
 11
604.6292448244
 21
214.2274895055
 31
0.0
  0
LINE
  5
24E
330
1F
100
AcDbEntity
  8
0
  6
Continuous
 62
     7
370
    15
100
AcDbLine
 10
604.6292448244
 20
214.2274895055
 30
0.0
 11
604.6292448244
 21
234.2274890584
 31
0.0
  0
LINE
  5
24F
330
1F
100
AcDbEntity
  8
0
  6
Continuous
 62
     7
370
    15
100
AcDbLine
 10
604.6292448244
 20
234.2274890584
 30
0.0
 11
599.1292411289
 21
234.2274890584
 31
0.0
  0
LINE
  5
250
330
1F
100
AcDbEntity
  8
0
  6
Continuous
 62
     7
370
    15
100
AcDbLine
 10
734.0292597017
 20
362.2274951381
 30
0.0
 11
734.0292597017
 21
393.2274834556
 31
0.0
  0
LINE
  5
251
330
1F
100
AcDbEntity
  8
0
  6
Continuous
 62
     7
370
    15
100
AcDbLine
 10
739.7292518816
 20
362.2274951381
 30
0.0
 11
734.0292597017
 21
362.2274951381
 31
0.0
  0
LINE
  5
252
330
1F
100
AcDbEntity
  8
0
  6
Continuous
 62
     7
370
    15
100
AcDbLine
 10
739.7292518816
 20
393.2274834556
 30
0.0
 11
739.7292518816
 21
362.2274951381
 31
0.0
  0
LINE
  5
253
330
1F
100
AcDbEntity
  8
0
  6
Continuous
 62
     7
370
    15
100
AcDbLine
 10
734.0292597017
 20
393.2274834556
 30
0.0
 11
739.7292518816
 21
393.2274834556
 31
0.0
  0
LINE
  5
254
330
1F
100
AcDbEntity
  8
0
  6
Continuous
 62
     7
370
    15
100
AcDbLine
 10
734.0292597017
 20
291.2274928135
 30
0.0
 11
734.0292597017
 21
322.2274885816
 31
0.0
  0
LINE
  5
255
330
1F
100
AcDbEntity
  8
0
  6
Continuous
 62
     7
370
    15
100
AcDbLine
 10
739.7292518816
 20
291.2274928135
 30
0.0
 11
734.0292597017
 21
291.2274928135
 31
0.0
  0
LINE
  5
256
330
1F
100
AcDbEntity
  8
0
  6
Continuous
 62
     7
370
    15
100
AcDbLine
 10
739.7292518816
 20
322.2274885816
 30
0.0
 11
739.7292518816
 21
291.2274928135
 31
0.0
  0
LINE
  5
257
330
1F
100
AcDbEntity
  8
0
  6
Continuous
 62
     7
370
    15
100
AcDbLine
 10
734.0292597017
 20
322.2274885816
 30
0.0
 11
739.7292518816
 21
322.2274885816
 31
0.0
  0
LINE
  5
258
330
1F
100
AcDbEntity
  8
0
  6
Continuous
 62
     7
370
    15
100
AcDbLine
 10
718.2292604647
 20
291.2274928135
 30
0.0
 11
712.5292384825
 21
291.2274928135
 31
0.0
  0
LINE
  5
259
330
1F
100
AcDbEntity
  8
0
  6
Continuous
 62
     7
370
    15
100
AcDbLine
 10
718.2292604647
 20
322.2274885816
 30
0.0
 11
718.2292604647
 21
291.2274928135
 31
0.0
  0
LINE
  5
25A
330
1F
100
AcDbEntity
  8
0
  6
Continuous
 62
     7
370
    15
100
AcDbLine
 10
712.5292384825
 20
322.2274885816
 30
0.0
 11
718.2292604647
 21
322.2274885816
 31
0.0
  0
LINE
  5
25B
330
1F
100
AcDbEntity
  8
0
  6
Continuous
 62
     7
370
    15
100
AcDbLine
 10
712.5292384825
 20
291.2274928135
 30
0.0
 11
712.5292384825
 21
322.2274885816
 31
0.0
  0
LINE
  5
25C
330
1F
100
AcDbEntity
  8
0
  6
Continuous
 62
     7
370
    15
100
AcDbLine
 10
718.2292604647
 20
362.2274951381
 30
0.0
 11
712.5292384825
 21
362.2274951381
 31
0.0
  0
LINE
  5
25D
330
1F
100
AcDbEntity
  8
0
  6
Continuous
 62
     7
370
    15
100
AcDbLine
 10
718.2292604647
 20
393.2274834556
 30
0.0
 11
718.2292604647
 21
362.2274951381
 31
0.0
  0
LINE
  5
25E
330
1F
100
AcDbEntity
  8
0
  6
Continuous
 62
     7
370
    15
100
AcDbLine
 10
712.5292384825
 20
393.2274834556
 30
0.0
 11
718.2292604647
 21
393.2274834556
 31
0.0
  0
LINE
  5
25F
330
1F
100
AcDbEntity
  8
0
  6
Continuous
 62
     7
370
    15
100
AcDbLine
 10
712.5292384825
 20
362.2274951381
 30
0.0
 11
712.5292384825
 21
393.2274834556
 31
0.0
  0
LINE
  5
260
330
1F
100
AcDbEntity
  8
0
  6
Continuous
 62
     7
370
    15
100
AcDbLine
 10
534.0292492709
 20
362.2274951381
 30
0.0
 11
534.0292492709
 21
393.2274834556
 31
0.0
  0
LINE
  5
261
330
1F
100
AcDbEntity
  8
0
  6
Continuous
 62
     7
370
    15
100
AcDbLine
 10
539.7292489014
 20
362.2274951381
 30
0.0
 11
534.0292492709
 21
362.2274951381
 31
0.0
  0
LINE
  5
262
330
1F
100
AcDbEntity
  8
0
  6
Continuous
 62
     7
370
    15
100
AcDbLine
 10
539.7292489014
 20
393.2274834556
 30
0.0
 11
539.7292489014
 21
362.2274951381
 31
0.0
  0
LINE
  5
263
330
1F
100
AcDbEntity
  8
0
  6
Continuous
 62
     7
370
    15
100
AcDbLine
 10
534.0292492709
 20
393.2274834556
 30
0.0
 11
539.7292489014
 21
393.2274834556
 31
0.0
  0
LINE
  5
264
330
1F
100
AcDbEntity
  8
0
  6
Continuous
 62
     7
370
    15
100
AcDbLine
 10
534.0292492709
 20
291.2274928135
 30
0.0
 11
534.0292492709
 21
322.2274885816
 31
0.0
  0
LINE
  5
265
330
1F
100
AcDbEntity
  8
0
  6
Continuous
 62
     7
370
    15
100
AcDbLine
 10
539.7292489014
 20
291.2274928135
 30
0.0
 11
534.0292492709
 21
291.2274928135
 31
0.0
  0
LINE
  5
266
330
1F
100
AcDbEntity
  8
0
  6
Continuous
 62
     7
370
    15
100
AcDbLine
 10
539.7292489014
 20
322.2274885816
 30
0.0
 11
539.7292489014
 21
291.2274928135
 31
0.0
  0
LINE
  5
267
330
1F
100
AcDbEntity
  8
0
  6
Continuous
 62
     7
370
    15
100
AcDbLine
 10
534.0292492709
 20
322.2274885816
 30
0.0
 11
539.7292489014
 21
322.2274885816
 31
0.0
  0
LINE
  5
268
330
1F
100
AcDbEntity
  8
0
  6
Continuous
 62
     7
370
    15
100
AcDbLine
 10
518.2292500339
 20
291.2274928135
 30
0.0
 11
512.5292504034
 21
291.2274928135
 31
0.0
  0
LINE
  5
269
330
1F
100
AcDbEntity
  8
0
  6
Continuous
 62
     7
370
    15
100
AcDbLine
 10
518.2292500339
 20
322.2274885816
 30
0.0
 11
518.2292500339
 21
291.2274928135
 31
0.0
  0
LINE
  5
26A
330
1F
100
AcDbEntity
  8
0
  6
Continuous
 62
     7
370
    15
100
AcDbLine
 10
512.5292504034
 20
322.2274885816
 30
0.0
 11
518.2292500339
 21
322.2274885816
 31
0.0
  0
LINE
  5
26B
330
1F
100
AcDbEntity
  8
0
  6
Continuous
 62
     7
370
    15
100
AcDbLine
 10
512.5292504034
 20
291.2274928135
 30
0.0
 11
512.5292504034
 21
322.2274885816
 31
0.0
  0
LINE
  5
26C
330
1F
100
AcDbEntity
  8
0
  6
Continuous
 62
     7
370
    15
100
AcDbLine
 10
518.2292500339
 20
362.2274951381
 30
0.0
 11
512.5292504034
 21
362.2274951381
 31
0.0
  0
LINE
  5
26D
330
1F
100
AcDbEntity
  8
0
  6
Continuous
 62
     7
370
    15
100
AcDbLine
 10
518.2292500339
 20
393.2274834556
 30
0.0
 11
518.2292500339
 21
362.2274951381
 31
0.0
  0
LINE
  5
26E
330
1F
100
AcDbEntity
  8
0
  6
Continuous
 62
     7
370
    15
100
AcDbLine
 10
512.5292504034
 20
393.2274834556
 30
0.0
 11
518.2292500339
 21
393.2274834556
 31
0.0
  0
LINE
  5
26F
330
1F
100
AcDbEntity
  8
0
  6
Continuous
 62
     7
370
    15
100
AcDbLine
 10
512.5292504034
 20
362.2274951381
 30
0.0
 11
512.5292504034
 21
393.2274834556
 31
0.0
  0
LINE
  5
270
330
1F
100
AcDbEntity
  8
0
  6
Continuous
 62
     7
370
    15
100
AcDbLine
 10
742.1292627058
 20
506.2274889392
 30
0.0
 11
742.1292627058
 21
504.2274848861
 31
0.0
  0
LINE
  5
271
330
1F
100
AcDbEntity
  8
0
  6
Continuous
 62
     7
370
    15
100
AcDbLine
 10
742.1292627058
 20
504.2274848861
 30
0.0
 11
746.1292410097
 21
504.2274848861
 31
0.0
  0
LINE
  5
272
330
1F
100
AcDbEntity
  8
0
  6
Continuous
 62
     7
370
    15
100
AcDbLine
 10
746.1292410097
 20
504.2274848861
 30
0.0
 11
746.1292410097
 21
506.2274889392
 31
0.0
  0
LINE
  5
273
330
1F
100
AcDbEntity
  8
0
  6
Continuous
 62
     7
370
    15
100
AcDbLine
 10
746.1292410097
 20
506.2274889392
 30
0.0
 11
742.1292627058
 21
506.2274889392
 31
0.0
  0
LINE
  5
274
330
1F
100
AcDbEntity
  8
0
  6
Continuous
 62
     7
370
    15
100
AcDbLine
 10
742.1292627058
 20
494.2274944229
 30
0.0
 11
742.1292627058
 21
492.2274903697
 31
0.0
  0
LINE
  5
275
330
1F
100
AcDbEntity
  8
0
  6
Continuous
 62
     7
370
    15
100
AcDbLine
 10
742.1292627058
 20
492.2274903697
 30
0.0
 11
746.1292410097
 21
492.2274903697
 31
0.0
  0
LINE
  5
276
330
1F
100
AcDbEntity
  8
0
  6
Continuous
 62
     7
370
    15
100
AcDbLine
 10
746.1292410097
 20
492.2274903697
 30
0.0
 11
746.1292410097
 21
494.2274944229
 31
0.0
  0
LINE
  5
277
330
1F
100
AcDbEntity
  8
0
  6
Continuous
 62
     7
370
    15
100
AcDbLine
 10
746.1292410097
 20
494.2274944229
 30
0.0
 11
742.1292627058
 21
494.2274944229
 31
0.0
  0
LINE
  5
278
330
1F
100
AcDbEntity
  8
0
  6
Continuous
 62
     7
370
    15
100
AcDbLine
 10
506.1292463741
 20
492.2274903697
 30
0.0
 11
510.1292470298
 21
492.2274903697
 31
0.0
  0
LINE
  5
279
330
1F
100
AcDbEntity
  8
0
  6
Continuous
 62
     7
370
    15
100
AcDbLine
 10
510.1292470298
 20
492.2274903697
 30
0.0
 11
510.1292470298
 21
494.2274944229
 31
0.0
  0
LINE
  5
27A
330
1F
100
AcDbEntity
  8
0
  6
Continuous
 62
     7
370
    15
100
AcDbLine
 10
510.1292470298
 20
494.2274944229
 30
0.0
 11
506.1292463741
 21
494.2274944229
 31
0.0
  0
LINE
  5
27B
330
1F
100
AcDbEntity
  8
0
  6
Continuous
 62
     7
370
    15
100
AcDbLine
 10
506.1292463741
 20
494.2274944229
 30
0.0
 11
506.1292463741
 21
492.2274903697
 31
0.0
  0
LINE
  5
27C
330
1F
100
AcDbEntity
  8
0
  6
Continuous
 62
     7
370
    15
100
AcDbLine
 10
506.1292463741
 20
504.2274848861
 30
0.0
 11
510.1292470298
 21
504.2274848861
 31
0.0
  0
LINE
  5
27D
330
1F
100
AcDbEntity
  8
0
  6
Continuous
 62
     7
370
    15
100
AcDbLine
 10
510.1292470298
 20
504.2274848861
 30
0.0
 11
510.1292470298
 21
506.2274889392
 31
0.0
  0
LINE
  5
27E
330
1F
100
AcDbEntity
  8
0
  6
Continuous
 62
     7
370
    15
100
AcDbLine
 10
510.1292470298
 20
506.2274889392
 30
0.0
 11
506.1292463741
 21
506.2274889392
 31
0.0
  0
LINE
  5
27F
330
1F
100
AcDbEntity
  8
0
  6
Continuous
 62
     7
370
    15
100
AcDbLine
 10
506.1292463741
 20
506.2274889392
 30
0.0
 11
506.1292463741
 21
504.2274848861
 31
0.0
  0
LINE
  5
280
330
1F
100
AcDbEntity
  8
0
  6
Continuous
 62
     7
370
    15
100
AcDbLine
 10
743.8792550764
 20
423.5290543479
 30
0.0
 11
743.8792550764
 21
419.5290462417
 31
0.0
  0
LINE
  5
281
330
1F
100
AcDbEntity
  8
0
  6
Continuous
 62
     7
370
    15
100
AcDbLine
 10
743.8792550764
 20
419.5290462417
 30
0.0
 11
745.8792591295
 21
419.5290462417
 31
0.0
  0
LINE
  5
282
330
1F
100
AcDbEntity
  8
0
  6
Continuous
 62
     7
370
    15
100
AcDbLine
 10
745.8792591295
 20
419.5290462417
 30
0.0
 11
745.8792591295
 21
423.5290543479
 31
0.0
  0
LINE
  5
283
330
1F
100
AcDbEntity
  8
0
  6
Continuous
 62
     7
370
    15
100
AcDbLine
 10
745.8792591295
 20
423.5290543479
 30
0.0
 11
743.8792550764
 21
423.5290543479
 31
0.0
  0
LINE
  5
284
330
1F
100
AcDbEntity
  8
0
  6
Continuous
 62
     7
370
    15
100
AcDbLine
 10
726.8792355261
 20
423.5290543479
 30
0.0
 11
726.8792355261
 21
419.5290462417
 31
0.0
  0
LINE
  5
285
330
1F
100
AcDbEntity
  8
0
  6
Continuous
 62
     7
370
    15
100
AcDbLine
 10
726.8792355261
 20
419.5290462417
 30
0.0
 11
728.8792395792
 21
419.5290462417
 31
0.0
  0
LINE
  5
286
330
1F
100
AcDbEntity
  8
0
  6
Continuous
 62
     7
370
    15
100
AcDbLine
 10
728.8792395792
 20
419.5290462417
 30
0.0
 11
728.8792395792
 21
423.5290543479
 31
0.0
  0
LINE
  5
287
330
1F
100
AcDbEntity
  8
0
  6
Continuous
 62
     7
370
    15
100
AcDbLine
 10
728.8792395792
 20
423.5290543479
 30
0.0
 11
726.8792355261
 21
423.5290543479
 31
0.0
  0
LINE
  5
288
330
1F
100
AcDbEntity
  8
0
  6
Continuous
 62
     7
370
    15
100
AcDbLine
 10
803.1292522154
 20
390.5132071418
 30
0.0
 11
803.1292522154
 21
386.5131990356
 31
0.0
  0
LINE
  5
289
330
1F
100
AcDbEntity
  8
0
  6
Continuous
 62
     7
370
    15
100
AcDbLine
 10
803.1292522154
 20
386.5131990356
 30
0.0
 11
805.1292562685
 21
386.5131990356
 31
0.0
  0
LINE
  5
28A
330
1F
100
AcDbEntity
  8
0
  6
Continuous
 62
     7
370
    15
100
AcDbLine
 10
805.1292562685
 20
386.5131990356
 30
0.0
 11
805.1292562685
 21
390.5132071418
 31
0.0
  0
LINE
  5
28B
330
1F
100
AcDbEntity
  8
0
  6
Continuous
 62
     7
370
    15
100
AcDbLine
 10
805.1292562685
 20
390.5132071418
 30
0.0
 11
803.1292522154
 21
390.5132071418
 31
0.0
  0
LINE
  5
28C
330
1F
100
AcDbEntity
  8
0
  6
Continuous
 62
     7
370
    15
100
AcDbLine
 10
786.1292624674
 20
390.5132071418
 30
0.0
 11
786.1292624674
 21
386.5131990356
 31
0.0
  0
LINE
  5
28D
330
1F
100
AcDbEntity
  8
0
  6
Continuous
 62
     7
370
    15
100
AcDbLine
 10
786.1292624674
 20
386.5131990356
 30
0.0
 11
788.1292367182
 21
386.5131990356
 31
0.0
  0
LINE
  5
28E
330
1F
100
AcDbEntity
  8
0
  6
Continuous
 62
     7
370
    15
100
AcDbLine
 10
788.1292367182
 20
386.5131990356
 30
0.0
 11
788.1292367182
 21
390.5132071418
 31
0.0
  0
LINE
  5
28F
330
1F
100
AcDbEntity
  8
0
  6
Continuous
 62
     7
370
    15
100
AcDbLine
 10
788.1292367182
 20
390.5132071418
 30
0.0
 11
786.1292624674
 21
390.5132071418
 31
0.0
  0
LINE
  5
290
330
1F
100
AcDbEntity
  8
0
  6
Continuous
 62
     7
370
    15
100
AcDbLine
 10
803.1292522154
 20
310.51320893
 30
0.0
 11
803.1292522154
 21
306.5132008237
 31
0.0
  0
LINE
  5
291
330
1F
100
AcDbEntity
  8
0
  6
Continuous
 62
     7
370
    15
100
AcDbLine
 10
803.1292522154
 20
306.5132008237
 30
0.0
 11
805.1292562685
 21
306.5132008237
 31
0.0
  0
LINE
  5
292
330
1F
100
AcDbEntity
  8
0
  6
Continuous
 62
     7
370
    15
100
AcDbLine
 10
805.1292562685
 20
306.5132008237
 30
0.0
 11
805.1292562685
 21
310.51320893
 31
0.0
  0
LINE
  5
293
330
1F
100
AcDbEntity
  8
0
  6
Continuous
 62
     7
370
    15
100
AcDbLine
 10
805.1292562685
 20
310.51320893
 30
0.0
 11
803.1292522154
 21
310.51320893
 31
0.0
  0
LINE
  5
294
330
1F
100
AcDbEntity
  8
0
  6
Continuous
 62
     7
370
    15
100
AcDbLine
 10
786.1292624674
 20
306.5132008237
 30
0.0
 11
788.1292367182
 21
306.5132008237
 31
0.0
  0
LINE
  5
295
330
1F
100
AcDbEntity
  8
0
  6
Continuous
 62
     7
370
    15
100
AcDbLine
 10
788.1292367182
 20
306.5132008237
 30
0.0
 11
788.1292367182
 21
310.51320893
 31
0.0
  0
LINE
  5
296
330
1F
100
AcDbEntity
  8
0
  6
Continuous
 62
     7
370
    15
100
AcDbLine
 10
788.1292367182
 20
310.51320893
 30
0.0
 11
786.1292624674
 21
310.51320893
 31
0.0
  0
LINE
  5
297
330
1F
100
AcDbEntity
  8
0
  6
Continuous
 62
     7
370
    15
100
AcDbLine
 10
786.1292624674
 20
310.51320893
 30
0.0
 11
786.1292624674
 21
306.5132008237
 31
0.0
  0
LINE
  5
298
330
1F
100
AcDbEntity
  8
0
  6
Continuous
 62
     7
370
    15
100
AcDbLine
 10
466.1292472682
 20
306.5132008237
 30
0.0
 11
466.1292472682
 21
310.51320893
 31
0.0
  0
LINE
  5
299
330
1F
100
AcDbEntity
  8
0
  6
Continuous
 62
     7
370
    15
100
AcDbLine
 10
466.1292472682
 20
310.51320893
 30
0.0
 11
464.1292469404
 21
310.51320893
 31
0.0
  0
LINE
  5
29A
330
1F
100
AcDbEntity
  8
0
  6
Continuous
 62
     7
370
    15
100
AcDbLine
 10
464.1292469404
 20
310.51320893
 30
0.0
 11
464.1292469404
 21
306.5132008237
 31
0.0
  0
LINE
  5
29B
330
1F
100
AcDbEntity
  8
0
  6
Continuous
 62
     7
370
    15
100
AcDbLine
 10
464.1292469404
 20
306.5132008237
 30
0.0
 11
466.1292472682
 21
306.5132008237
 31
0.0
  0
LINE
  5
29C
330
1F
100
AcDbEntity
  8
0
  6
Continuous
 62
     7
370
    15
100
AcDbLine
 10
449.129248207
 20
306.5132008237
 30
0.0
 11
449.129248207
 21
310.51320893
 31
0.0
  0
LINE
  5
29D
330
1F
100
AcDbEntity
  8
0
  6
Continuous
 62
     7
370
    15
100
AcDbLine
 10
449.129248207
 20
310.51320893
 30
0.0
 11
447.1292478792
 21
310.51320893
 31
0.0
  0
LINE
  5
29E
330
1F
100
AcDbEntity
  8
0
  6
Continuous
 62
     7
370
    15
100
AcDbLine
 10
447.1292478792
 20
310.51320893
 30
0.0
 11
447.1292478792
 21
306.5132008237
 31
0.0
  0
LINE
  5
29F
330
1F
100
AcDbEntity
  8
0
  6
Continuous
 62
     7
370
    15
100
AcDbLine
 10
447.1292478792
 20
306.5132008237
 30
0.0
 11
449.129248207
 21
306.5132008237
 31
0.0
  0
LINE
  5
2A0
330
1F
100
AcDbEntity
  8
0
  6
Continuous
 62
     7
370
    15
100
AcDbLine
 10
464.1292469404
 20
386.5131990356
 30
0.0
 11
466.1292472682
 21
386.5131990356
 31
0.0
  0
LINE
  5
2A1
330
1F
100
AcDbEntity
  8
0
  6
Continuous
 62
     7
370
    15
100
AcDbLine
 10
466.1292472682
 20
386.5131990356
 30
0.0
 11
466.1292472682
 21
390.5132071418
 31
0.0
  0
LINE
  5
2A2
330
1F
100
AcDbEntity
  8
0
  6
Continuous
 62
     7
370
    15
100
AcDbLine
 10
466.1292472682
 20
390.5132071418
 30
0.0
 11
464.1292469404
 21
390.5132071418
 31
0.0
  0
LINE
  5
2A3
330
1F
100
AcDbEntity
  8
0
  6
Continuous
 62
     7
370
    15
100
AcDbLine
 10
464.1292469404
 20
390.5132071418
 30
0.0
 11
464.1292469404
 21
386.5131990356
 31
0.0
  0
LINE
  5
2A4
330
1F
100
AcDbEntity
  8
0
  6
Continuous
 62
     7
370
    15
100
AcDbLine
 10
447.1292478792
 20
386.5131990356
 30
0.0
 11
449.129248207
 21
386.5131990356
 31
0.0
  0
LINE
  5
2A5
330
1F
100
AcDbEntity
  8
0
  6
Continuous
 62
     7
370
    15
100
AcDbLine
 10
449.129248207
 20
386.5131990356
 30
0.0
 11
449.129248207
 21
390.5132071418
 31
0.0
  0
LINE
  5
2A6
330
1F
100
AcDbEntity
  8
0
  6
Continuous
 62
     7
370
    15
100
AcDbLine
 10
449.129248207
 20
390.5132071418
 30
0.0
 11
447.1292478792
 21
390.5132071418
 31
0.0
  0
LINE
  5
2A7
330
1F
100
AcDbEntity
  8
0
  6
Continuous
 62
     7
370
    15
100
AcDbLine
 10
447.1292478792
 20
390.5132071418
 30
0.0
 11
447.1292478792
 21
386.5131990356
 31
0.0
  0
LINE
  5
2A8
330
1F
100
AcDbEntity
  8
0
  6
Continuous
 62
     7
370
    15
100
AcDbLine
 10
523.3792478047
 20
419.5290462417
 30
0.0
 11
525.3792518578
 21
419.5290462417
 31
0.0
  0
LINE
  5
2A9
330
1F
100
AcDbEntity
  8
0
  6
Continuous
 62
     7
370
    15
100
AcDbLine
 10
525.3792518578
 20
419.5290462417
 30
0.0
 11
525.3792518578
 21
423.5290543479
 31
0.0
  0
LINE
  5
2AA
330
1F
100
AcDbEntity
  8
0
  6
Continuous
 62
     7
370
    15
100
AcDbLine
 10
525.3792518578
 20
423.5290543479
 30
0.0
 11
523.3792478047
 21
423.5290543479
 31
0.0
  0
LINE
  5
2AB
330
1F
100
AcDbEntity
  8
0
  6
Continuous
 62
     7
370
    15
100
AcDbLine
 10
523.3792478047
 20
423.5290543479
 30
0.0
 11
523.3792478047
 21
419.5290462417
 31
0.0
  0
LINE
  5
2AC
330
1F
100
AcDbEntity
  8
0
  6
Continuous
 62
     7
370
    15
100
AcDbLine
 10
506.3792506061
 20
419.5290462417
 30
0.0
 11
508.3792472086
 21
419.5290462417
 31
0.0
  0
LINE
  5
2AD
330
1F
100
AcDbEntity
  8
0
  6
Continuous
 62
     7
370
    15
100
AcDbLine
 10
508.3792472086
 20
419.5290462417
 30
0.0
 11
508.3792472086
 21
423.5290543479
 31
0.0
  0
LINE
  5
2AE
330
1F
100
AcDbEntity
  8
0
  6
Continuous
 62
     7
370
    15
100
AcDbLine
 10
508.3792472086
 20
423.5290543479
 30
0.0
 11
506.3792506061
 21
423.5290543479
 31
0.0
  0
LINE
  5
2AF
330
1F
100
AcDbEntity
  8
0
  6
Continuous
 62
     7
370
    15
100
AcDbLine
 10
506.3792506061
 20
423.5290543479
 30
0.0
 11
506.3792506061
 21
419.5290462417
 31
0.0
  0
CIRCLE
  5
2B0
330
1F
100
AcDbEntity
  8
0
  6
Continuous
 62
     7
370
    15
100
AcDbCircle
 10
626.1292481623
 20
506.2274894161
 30
0.0
 40
10.0
  0
CIRCLE
  5
2B1
330
1F
100
AcDbEntity
  8
0
  6
Continuous
 62
     7
370
    15
100
AcDbCircle
 10
546.1292481623
 20
566.2274894161
 30
0.0
 40
2.500000000000114
  0
CIRCLE
  5
2B2
330
1F
100
AcDbEntity
  8
0
  6
Continuous
 62
     7
370
    15
100
AcDbCircle
 10
505.1292481623
 20
550.2587699934
 30
0.0
 40
2.499999999999943
  0
CIRCLE
  5
2B3
330
1F
100
AcDbEntity
  8
0
  6
Continuous
 62
     7
370
    15
100
AcDbCircle
 10
746.1292481623
 20
566.2274894161
 30
0.0
 40
2.500000000000114
  0
CIRCLE
  5
2B4
330
1F
100
AcDbEntity
  8
0
  6
Continuous
 62
     7
370
    15
100
AcDbCircle
 10
705.1292481623
 20
550.2587699934
 30
0.0
 40
2.499999999999886
  0
LINE
  5
2B5
330
1F
100
AcDbEntity
  8
0
  6
Continuous
 62
     7
370
    15
100
AcDbLine
 10
769.6292364798
 20
546.2274805946
 30
0.0
 11
769.6292364798
 21
553.4296290321
 31
0.0
  0
LINE
  5
2B6
330
1F
100
AcDbEntity
  8
0
  6
Continuous
 62
     7
370
    15
100
AcDbLine
 10
775.1292550764
 20
546.2274805946
 30
0.0
 11
769.6292364798
 21
546.2274805946
 31
0.0
  0
LINE
  5
2B7
330
1F
100
AcDbEntity
  8
0
  6
Continuous
 62
     7
370
    15
100
AcDbLine
 10
775.1292550764
 20
553.4296290321
 30
0.0
 11
775.1292550764
 21
546.2274805946
 31
0.0
  0
LINE
  5
2B8
330
1F
100
AcDbEntity
  8
0
  6
Continuous
 62
     7
370
    15
100
AcDbLine
 10
769.6292364798
 20
553.4296290321
 30
0.0
 11
775.1292550764
 21
553.4296290321
 31
0.0
  0
LINE
  5
2B9
330
1F
100
AcDbEntity
  8
0
  6
Continuous
 62
     7
370
    15
100
AcDbLine
 10
769.6292364798
 20
526.0253505153
 30
0.0
 11
769.6292364798
 21
533.2274989528
 31
0.0
  0
LINE
  5
2BA
330
1F
100
AcDbEntity
  8
0
  6
Continuous
 62
     7
370
    15
100
AcDbLine
 10
775.1292550764
 20
526.0253505153
 30
0.0
 11
769.6292364798
 21
526.0253505153
 31
0.0
  0
LINE
  5
2BB
330
1F
100
AcDbEntity
  8
0
  6
Continuous
 62
     7
370
    15
100
AcDbLine
 10
775.1292550764
 20
533.2274989528
 30
0.0
 11
775.1292550764
 21
526.0253505153
 31
0.0
  0
LINE
  5
2BC
330
1F
100
AcDbEntity
  8
0
  6
Continuous
 62
     7
370
    15
100
AcDbLine
 10
769.6292364798
 20
533.2274989528
 30
0.0
 11
775.1292550764
 21
533.2274989528
 31
0.0
  0
LINE
  5
2BD
330
1F
100
AcDbEntity
  8
0
  6
Continuous
 62
     7
370
    15
100
AcDbLine
 10
733.129259368
 20
546.2274805946
 30
0.0
 11
733.129259368
 21
553.4296290321
 31
0.0
  0
LINE
  5
2BE
330
1F
100
AcDbEntity
  8
0
  6
Continuous
 62
     7
370
    15
100
AcDbLine
 10
738.6292481623
 20
546.2274805946
 30
0.0
 11
733.129259368
 21
546.2274805946
 31
0.0
  0
LINE
  5
2BF
330
1F
100
AcDbEntity
  8
0
  6
Continuous
 62
     7
370
    15
100
AcDbLine
 10
738.6292481623
 20
553.4296290321
 30
0.0
 11
738.6292481623
 21
546.2274805946
 31
0.0
  0
LINE
  5
2C0
330
1F
100
AcDbEntity
  8
0
  6
Continuous
 62
     7
370
    15
100
AcDbLine
 10
733.129259368
 20
553.4296290321
 30
0.0
 11
738.6292481623
 21
553.4296290321
 31
0.0
  0
LINE
  5
2C1
330
1F
100
AcDbEntity
  8
0
  6
Continuous
 62
     7
370
    15
100
AcDbLine
 10
733.129259368
 20
526.0253505153
 30
0.0
 11
733.129259368
 21
533.2274989528
 31
0.0
  0
LINE
  5
2C2
330
1F
100
AcDbEntity
  8
0
  6
Continuous
 62
     7
370
    15
100
AcDbLine
 10
738.6292481623
 20
526.0253505153
 30
0.0
 11
733.129259368
 21
526.0253505153
 31
0.0
  0
LINE
  5
2C3
330
1F
100
AcDbEntity
  8
0
  6
Continuous
 62
     7
370
    15
100
AcDbLine
 10
738.6292481623
 20
533.2274989528
 30
0.0
 11
738.6292481623
 21
526.0253505153
 31
0.0
  0
LINE
  5
2C4
330
1F
100
AcDbEntity
  8
0
  6
Continuous
 62
     7
370
    15
100
AcDbLine
 10
733.129259368
 20
533.2274989528
 30
0.0
 11
738.6292481623
 21
533.2274989528
 31
0.0
  0
CIRCLE
  5
2C5
330
1F
100
AcDbEntity
  8
0
  6
Continuous
 62
     7
370
    15
100
AcDbCircle
 10
772.3792481623
 20
539.7274894161
 30
0.0
 40
1.5
  0
CIRCLE
  5
2C6
330
1F
100
AcDbEntity
  8
0
  6
Continuous
 62
     7
370
    15
100
AcDbCircle
 10
735.8792481623
 20
539.7274894161
 30
0.0
 40
1.5
  0
CIRCLE
  5
2C7
330
1F
100
AcDbEntity
  8
0
  6
Continuous
 62
     7
370
    15
100
AcDbCircle
 10
516.3792481623
 20
539.7274894161
 30
0.0
 40
1.5
  0
CIRCLE
  5
2C8
330
1F
100
AcDbEntity
  8
0
  6
Continuous
 62
     7
370
    15
100
AcDbCircle
 10
479.8792481623
 20
539.7274894161
 30
0.0
 40
1.5
  0
LINE
  5
2C9
330
1F
100
AcDbEntity
  8
0
  6
Continuous
 62
     7
370
    15
100
AcDbLine
 10
519.1292503677
 20
526.0253505153
 30
0.0
 11
513.6292466722
 21
526.0253505153
 31
0.0
  0
LINE
  5
2CA
330
1F
100
AcDbEntity
  8
0
  6
Continuous
 62
     7
370
    15
100
AcDbLine
 10
519.1292503677
 20
533.2274989528
 30
0.0
 11
519.1292503677
 21
526.0253505153
 31
0.0
  0
LINE
  5
2CB
330
1F
100
AcDbEntity
  8
0
  6
Continuous
 62
     7
370
    15
100
AcDbLine
 10
513.6292466722
 20
533.2274989528
 30
0.0
 11
519.1292503677
 21
533.2274989528
 31
0.0
  0
LINE
  5
2CC
330
1F
100
AcDbEntity
  8
0
  6
Continuous
 62
     7
370
    15
100
AcDbLine
 10
513.6292466722
 20
526.0253505153
 30
0.0
 11
513.6292466722
 21
533.2274989528
 31
0.0
  0
LINE
  5
2CD
330
1F
100
AcDbEntity
  8
0
  6
Continuous
 62
     7
370
    15
100
AcDbLine
 10
519.1292503677
 20
546.2274805946
 30
0.0
 11
513.6292466722
 21
546.2274805946
 31
0.0
  0
LINE
  5
2CE
330
1F
100
AcDbEntity
  8
0
  6
Continuous
 62
     7
370
    15
100
AcDbLine
 10
519.1292503677
 20
553.4296290321
 30
0.0
 11
519.1292503677
 21
546.2274805946
 31
0.0
  0
LINE
  5
2CF
330
1F
100
AcDbEntity
  8
0
  6
Continuous
 62
     7
370
    15
100
AcDbLine
 10
513.6292466722
 20
553.4296290321
 30
0.0
 11
519.1292503677
 21
553.4296290321
 31
0.0
  0
LINE
  5
2D0
330
1F
100
AcDbEntity
  8
0
  6
Continuous
 62
     7
370
    15
100
AcDbLine
 10
513.6292466722
 20
546.2274805946
 30
0.0
 11
513.6292466722
 21
553.4296290321
 31
0.0
  0
LINE
  5
2D1
330
1F
100
AcDbEntity
  8
0
  6
Continuous
 62
     7
370
    15
100
AcDbLine
 10
482.6292471788
 20
526.0253505153
 30
0.0
 11
477.1292472086
 21
526.0253505153
 31
0.0
  0
LINE
  5
2D2
330
1F
100
AcDbEntity
  8
0
  6
Continuous
 62
     7
370
    15
100
AcDbLine
 10
482.6292471788
 20
533.2274989528
 30
0.0
 11
482.6292471788
 21
526.0253505153
 31
0.0
  0
LINE
  5
2D3
330
1F
100
AcDbEntity
  8
0
  6
Continuous
 62
     7
370
    15
100
AcDbLine
 10
477.1292472086
 20
533.2274989528
 30
0.0
 11
482.6292471788
 21
533.2274989528
 31
0.0
  0
LINE
  5
2D4
330
1F
100
AcDbEntity
  8
0
  6
Continuous
 62
     7
370
    15
100
AcDbLine
 10
477.1292472086
 20
526.0253505153
 30
0.0
 11
477.1292472086
 21
533.2274989528
 31
0.0
  0
LINE
  5
2D5
330
1F
100
AcDbEntity
  8
0
  6
Continuous
 62
     7
370
    15
100
AcDbLine
 10
482.6292471788
 20
546.2274805946
 30
0.0
 11
477.1292472086
 21
546.2274805946
 31
0.0
  0
LINE
  5
2D6
330
1F
100
AcDbEntity
  8
0
  6
Continuous
 62
     7
370
    15
100
AcDbLine
 10
482.6292471788
 20
553.4296290321
 30
0.0
 11
482.6292471788
 21
546.2274805946
 31
0.0
  0
LINE
  5
2D7
330
1F
100
AcDbEntity
  8
0
  6
Continuous
 62
     7
370
    15
100
AcDbLine
 10
477.1292472086
 20
553.4296290321
 30
0.0
 11
482.6292471788
 21
553.4296290321
 31
0.0
  0
LINE
  5
2D8
330
1F
100
AcDbEntity
  8
0
  6
Continuous
 62
     7
370
    15
100
AcDbLine
 10
477.1292472086
 20
546.2274805946
 30
0.0
 11
477.1292472086
 21
553.4296290321
 31
0.0
  0
CIRCLE
  5
2D9
330
1F
100
AcDbEntity
  8
0
  6
Continuous
 62
     7
370
    15
100
AcDbCircle
 10
801.8792481623
 20
430.7790451088
 30
0.0
 40
1.500000000000114
  0
CIRCLE
  5
2DA
330
1F
100
AcDbEntity
  8
0
  6
Continuous
 62
     7
370
    15
100
AcDbCircle
 10
769.8792481623
 20
430.7790451088
 30
0.0
 40
1.5
  0
CIRCLE
  5
2DB
330
1F
100
AcDbEntity
  8
0
  6
Continuous
 62
     7
370
    15
100
AcDbCircle
 10
482.3792481623
 20
430.7790451088
 30
0.0
 40
1.500000000000057
  0
CIRCLE
  5
2DC
330
1F
100
AcDbEntity
  8
0
  6
Continuous
 62
     7
370
    15
100
AcDbCircle
 10
450.3792481623
 20
430.7790451088
 30
0.0
 40
1.500000000000057
  0
LINE
  5
2DD
330
1F
100
AcDbEntity
  8
0
  6
Continuous
 62
     7
370
    15
100
AcDbLine
 10
633.62924399
 20
472.2274796409
 30
0.0
 11
633.62924399
 21
476.2274877471
 31
0.0
  0
LINE
  5
2DE
330
1F
100
AcDbEntity
  8
0
  6
Continuous
 62
     7
370
    15
100
AcDbLine
 10
635.6292480431
 20
472.2274796409
 30
0.0
 11
633.62924399
 21
472.2274796409
 31
0.0
  0
LINE
  5
2DF
330
1F
100
AcDbEntity
  8
0
  6
Continuous
 62
     7
370
    15
100
AcDbLine
 10
635.6292480431
 20
476.2274877471
 30
0.0
 11
635.6292480431
 21
472.2274796409
 31
0.0
  0
LINE
  5
2E0
330
1F
100
AcDbEntity
  8
0
  6
Continuous
 62
     7
370
    15
100
AcDbLine
 10
633.62924399
 20
476.2274877471
 30
0.0
 11
635.6292480431
 21
476.2274877471
 31
0.0
  0
LINE
  5
2E1
330
1F
100
AcDbEntity
  8
0
  6
Continuous
 62
     7
370
    15
100
AcDbLine
 10
675.6292545996
 20
455.2274898929
 30
0.0
 11
675.6292545996
 21
457.227493946
 31
0.0
  0
LINE
  5
2E2
330
1F
100
AcDbEntity
  8
0
  6
Continuous
 62
     7
370
    15
100
AcDbLine
 10
679.6292627058
 20
455.2274898929
 30
0.0
 11
675.6292545996
 21
455.2274898929
 31
0.0
  0
LINE
  5
2E3
330
1F
100
AcDbEntity
  8
0
  6
Continuous
 62
     7
370
    15
100
AcDbLine
 10
679.6292627058
 20
457.227493946
 30
0.0
 11
679.6292627058
 21
455.2274898929
 31
0.0
  0
LINE
  5
2E4
330
1F
100
AcDbEntity
  8
0
  6
Continuous
 62
     7
370
    15
100
AcDbLine
 10
675.6292545996
 20
457.227493946
 30
0.0
 11
679.6292627058
 21
457.227493946
 31
0.0
  0
LINE
  5
2E5
330
1F
100
AcDbEntity
  8
0
  6
Continuous
 62
     7
370
    15
100
AcDbLine
 10
675.6292545996
 20
438.2275001449
 30
0.0
 11
675.6292545996
 21
440.227504198
 31
0.0
  0
LINE
  5
2E6
330
1F
100
AcDbEntity
  8
0
  6
Continuous
 62
     7
370
    15
100
AcDbLine
 10
679.6292627058
 20
438.2275001449
 30
0.0
 11
675.6292545996
 21
438.2275001449
 31
0.0
  0
LINE
  5
2E7
330
1F
100
AcDbEntity
  8
0
  6
Continuous
 62
     7
370
    15
100
AcDbLine
 10
679.6292627058
 20
440.227504198
 30
0.0
 11
679.6292627058
 21
438.2275001449
 31
0.0
  0
LINE
  5
2E8
330
1F
100
AcDbEntity
  8
0
  6
Continuous
 62
     7
370
    15
100
AcDbLine
 10
675.6292545996
 20
440.227504198
 30
0.0
 11
679.6292627058
 21
440.227504198
 31
0.0
  0
LINE
  5
2E9
330
1F
100
AcDbEntity
  8
0
  6
Continuous
 62
     7
370
    15
100
AcDbLine
 10
576.6292476854
 20
438.2275001449
 30
0.0
 11
572.6292544804
 21
438.2275001449
 31
0.0
  0
LINE
  5
2EA
330
1F
100
AcDbEntity
  8
0
  6
Continuous
 62
     7
370
    15
100
AcDbLine
 10
576.6292476854
 20
440.227504198
 30
0.0
 11
576.6292476854
 21
438.2275001449
 31
0.0
  0
LINE
  5
2EB
330
1F
100
AcDbEntity
  8
0
  6
Continuous
 62
     7
370
    15
100
AcDbLine
 10
572.6292544804
 20
440.227504198
 30
0.0
 11
576.6292476854
 21
440.227504198
 31
0.0
  0
LINE
  5
2EC
330
1F
100
AcDbEntity
  8
0
  6
Continuous
 62
     7
370
    15
100
AcDbLine
 10
572.6292544804
 20
438.2275001449
 30
0.0
 11
572.6292544804
 21
440.227504198
 31
0.0
  0
LINE
  5
2ED
330
1F
100
AcDbEntity
  8
0
  6
Continuous
 62
     7
370
    15
100
AcDbLine
 10
576.6292476854
 20
455.2274898929
 30
0.0
 11
572.6292544804
 21
455.2274898929
 31
0.0
  0
LINE
  5
2EE
330
1F
100
AcDbEntity
  8
0
  6
Continuous
 62
     7
370
    15
100
AcDbLine
 10
576.6292476854
 20
457.227493946
 30
0.0
 11
576.6292476854
 21
455.2274898929
 31
0.0
  0
LINE
  5
2EF
330
1F
100
AcDbEntity
  8
0
  6
Continuous
 62
     7
370
    15
100
AcDbLine
 10
572.6292544804
 20
457.227493946
 30
0.0
 11
576.6292476854
 21
457.227493946
 31
0.0
  0
LINE
  5
2F0
330
1F
100
AcDbEntity
  8
0
  6
Continuous
 62
     7
370
    15
100
AcDbLine
 10
572.6292544804
 20
455.2274898929
 30
0.0
 11
572.6292544804
 21
457.227493946
 31
0.0
  0
LINE
  5
2F1
330
1F
100
AcDbEntity
  8
0
  6
Continuous
 62
     7
370
    15
100
AcDbLine
 10
618.6292433939
 20
472.2274796409
 30
0.0
 11
616.629254242
 21
472.2274796409
 31
0.0
  0
LINE
  5
2F2
330
1F
100
AcDbEntity
  8
0
  6
Continuous
 62
     7
370
    15
100
AcDbLine
 10
618.6292433939
 20
476.2274877471
 30
0.0
 11
618.6292433939
 21
472.2274796409
 31
0.0
  0
LINE
  5
2F3
330
1F
100
AcDbEntity
  8
0
  6
Continuous
 62
     7
370
    15
100
AcDbLine
 10
616.629254242
 20
476.2274877471
 30
0.0
 11
618.6292433939
 21
476.2274877471
 31
0.0
  0
LINE
  5
2F4
330
1F
100
AcDbEntity
  8
0
  6
Continuous
 62
     7
370
    15
100
AcDbLine
 10
616.629254242
 20
472.2274796409
 30
0.0
 11
616.629254242
 21
476.2274877471
 31
0.0
  0
LINE
  5
2F5
330
1F
100
AcDbEntity
  8
0
  6
Continuous
 62
     7
370
    15
100
AcDbLine
 10
724.1292560301
 20
539.2274813098
 30
0.0
 11
724.1292560301
 21
543.2274894161
 31
0.0
  0
LINE
  5
2F6
330
1F
100
AcDbEntity
  8
0
  6
Continuous
 62
     7
370
    15
100
AcDbLine
 10
726.1292600832
 20
539.2274813098
 30
0.0
 11
724.1292560301
 21
539.2274813098
 31
0.0
  0
LINE
  5
2F7
330
1F
100
AcDbEntity
  8
0
  6
Continuous
 62
     7
370
    15
100
AcDbLine
 10
726.1292600832
 20
543.2274894161
 30
0.0
 11
726.1292600832
 21
539.2274813098
 31
0.0
  0
LINE
  5
2F8
330
1F
100
AcDbEntity
  8
0
  6
Continuous
 62
     7
370
    15
100
AcDbLine
 10
724.1292560301
 20
543.2274894161
 30
0.0
 11
726.1292600832
 21
543.2274894161
 31
0.0
  0
LINE
  5
2F9
330
1F
100
AcDbEntity
  8
0
  6
Continuous
 62
     7
370
    15
100
AcDbLine
 10
712.1292615137
 20
539.2274813098
 30
0.0
 11
712.1292615137
 21
543.2274894161
 31
0.0
  0
LINE
  5
2FA
330
1F
100
AcDbEntity
  8
0
  6
Continuous
 62
     7
370
    15
100
AcDbLine
 10
714.1292357645
 20
539.2274813098
 30
0.0
 11
712.1292615137
 21
539.2274813098
 31
0.0
  0
LINE
  5
2FB
330
1F
100
AcDbEntity
  8
0
  6
Continuous
 62
     7
370
    15
100
AcDbLine
 10
714.1292357645
 20
543.2274894161
 30
0.0
 11
714.1292357645
 21
539.2274813098
 31
0.0
  0
LINE
  5
2FC
330
1F
100
AcDbEntity
  8
0
  6
Continuous
 62
     7
370
    15
100
AcDbLine
 10
712.1292615137
 20
543.2274894161
 30
0.0
 11
714.1292357645
 21
543.2274894161
 31
0.0
  0
LINE
  5
2FD
330
1F
100
AcDbEntity
  8
0
  6
Continuous
 62
     7
370
    15
100
AcDbLine
 10
540.1292482219
 20
539.2274813098
 30
0.0
 11
538.1292516193
 21
539.2274813098
 31
0.0
  0
LINE
  5
2FE
330
1F
100
AcDbEntity
  8
0
  6
Continuous
 62
     7
370
    15
100
AcDbLine
 10
540.1292482219
 20
543.2274894161
 30
0.0
 11
540.1292482219
 21
539.2274813098
 31
0.0
  0
LINE
  5
2FF
330
1F
100
AcDbEntity
  8
0
  6
Continuous
 62
     7
370
    15
100
AcDbLine
 10
538.1292516193
 20
543.2274894161
 30
0.0
 11
540.1292482219
 21
543.2274894161
 31
0.0
  0
LINE
  5
300
330
1F
100
AcDbEntity
  8
0
  6
Continuous
 62
     7
370
    15
100
AcDbLine
 10
538.1292516193
 20
539.2274813098
 30
0.0
 11
538.1292516193
 21
543.2274894161
 31
0.0
  0
LINE
  5
301
330
1F
100
AcDbEntity
  8
0
  6
Continuous
 62
     7
370
    15
100
AcDbLine
 10
528.1292462549
 20
539.2274813098
 30
0.0
 11
526.1292496524
 21
539.2274813098
 31
0.0
  0
LINE
  5
302
330
1F
100
AcDbEntity
  8
0
  6
Continuous
 62
     7
370
    15
100
AcDbLine
 10
528.1292462549
 20
543.2274894161
 30
0.0
 11
528.1292462549
 21
539.2274813098
 31
0.0
  0
LINE
  5
303
330
1F
100
AcDbEntity
  8
0
  6
Continuous
 62
     7
370
    15
100
AcDbLine
 10
526.1292496524
 20
543.2274894161
 30
0.0
 11
528.1292462549
 21
543.2274894161
 31
0.0
  0
LINE
  5
304
330
1F
100
AcDbEntity
  8
0
  6
Continuous
 62
     7
370
    15
100
AcDbLine
 10
526.1292496524
 20
539.2274813098
 30
0.0
 11
526.1292496524
 21
543.2274894161
 31
0.0
  0
CIRCLE
  5
305
330
1F
100
AcDbEntity
  8
0
  6
Continuous
 62
     7
370
    15
100
AcDbCircle
 10
661.1292481623
 20
506.2274894161
 30
0.0
 40
10.0
  0
CIRCLE
  5
306
330
1F
100
AcDbEntity
  8
0
  6
Continuous
 62
     7
370
    15
100
AcDbCircle
 10
591.1292481623
 20
506.2274894161
 30
0.0
 40
10.0
  0
LINE
  5
307
330
1F
100
AcDbEntity
  8
0
  6
Continuous
 62
     7
370
    15
100
AcDbLine
 10
821.1292588911
 20
586.2275020522
 30
0.0
 11
431.1292480505
 21
586.2275020522
 31
0.0
  0
LINE
  5
308
330
1F
100
AcDbEntity
  8
0
  6
Continuous
 62
     7
370
    15
100
AcDbLine
 10
826.1292541227
 20
173.2274893043
 30
0.0
 11
826.1292541227
 21
581.2274770183
 31
0.0
  0
LINE
  5
309
330
1F
100
AcDbEntity
  8
0
  6
Continuous
 62
     7
370
    15
100
AcDbLine
 10
431.1292480505
 20
168.2274894161
 30
0.0
 11
580.9235835276
 21
168.2274894161
 31
0.0
  0
LINE
  5
30A
330
1F
100
AcDbEntity
  8
0
  6
Continuous
 62
     7
370
    15
100
AcDbLine
 10
426.1292481623
 20
581.2274770183
 30
0.0
 11
426.1292481623
 21
173.2274893043
 31
0.0
  0
LINE
  5
30B
330
1F
100
AcDbEntity
  8
0
  6
Continuous
 62
     7
370
    15
100
AcDbLine
 10
671.3349187574
 20
168.2274894161
 30
0.0
 11
821.1292588911
 21
168.2274894161
 31
0.0
  0
ENDSEC
  0
SECTION
  2
OBJECTS
  0
DICTIONARY
  5
C
330
0
100
AcDbDictionary
281
     1
  3
ACAD_GROUP
350
D
  3
ACAD_LAYOUT
350
1A
  3
ACAD_MLEADERSTYLE
350
30D
  3
ACAD_MLINESTYLE
350
17
  3
ACAD_PLOTSETTINGS
350
19
  3
ACAD_PLOTSTYLENAME
350
E
  3
ACAD_TABLESTYLE
350
30C
  3
ACAD_VISUALSTYLE
350
2A
  3
AcDbVariableDictionary
350
30E
  0
DICTIONARY
  5
D
102
{ACAD_REACTORS
330
C
102
}
330
C
100
AcDbDictionary
281
     1
  0
DICTIONARY
  5
1A
102
{ACAD_REACTORS
330
C
102
}
330
C
100
AcDbDictionary
281
     1
  3
Layout1
350
1E
  3
Layout2
350
26
  3
Model
350
22
  0
DICTIONARY
  5
30D
102
{ACAD_REACTORS
330
C
102
}
330
C
100
AcDbDictionary
281
     1
  0
DICTIONARY
  5
17
102
{ACAD_REACTORS
330
C
102
}
330
C
100
AcDbDictionary
281
     1
  3
Standard
350
18
  0
DICTIONARY
  5
19
102
{ACAD_REACTORS
330
C
102
}
330
C
100
AcDbDictionary
281
     1
  0
ACDBDICTIONARYWDFLT
  5
E
102
{ACAD_REACTORS
330
C
102
}
330
C
100
AcDbDictionary
281
     1
  3
Normal
350
F
100
AcDbDictionaryWithDefault
340
F
  0
DICTIONARY
  5
30C
102
{ACAD_REACTORS
330
C
102
}
330
C
100
AcDbDictionary
281
     1
  0
DICTIONARY
  5
2A
102
{ACAD_REACTORS
330
C
102
}
330
C
100
AcDbDictionary
281
     1
  3
2dWireframe
350
2F
  3
3D Hidden
350
31
  3
3dWireframe
350
30
  3
Basic
350
32
  3
Brighten
350
36
  3
ColorChange
350
3A
  3
Conceptual
350
34
  3
Dim
350
35
  3
Facepattern
350
39
  3
Flat
350
2B
  3
FlatWithEdges
350
2C
  3
Gouraud
350
2D
  3
GouraudWithEdges
350
2E
  3
Linepattern
350
38
  3
Realistic
350
33
  3
Thicken
350
37
  0
DICTIONARY
  5
30E
102
{ACAD_REACTORS
330
C
102
}
330
C
100
AcDbDictionary
281
     1
  3
PSOLHEIGHT
350
310
  3
PSOLWIDTH
350
30F
  0
LAYOUT
  5
1E
102
{ACAD_REACTORS
330
1A
102
}
330
1A
100
AcDbPlotSettings
  1

  2
none_device
  4

  6

 40
0.0
 41
0.0
 42
0.0
 43
0.0
 44
0.0
 45
0.0
 46
0.0
 47
0.0
 48
0.0
 49
0.0
140
0.0
141
0.0
142
1.0
143
1.0
 70
   688
 72
     0
 73
     0
 74
     5
  7

 75
    16
147
1.0
148
0.0
149
0.0
100
AcDbLayout
  1
Layout1
 70
     1
 71
     1
 10
0.0
 20
0.0
 11
420.0
 21
297.0
 12
0.0
 22
0.0
 32
0.0
 14
1.0000000000E+20
 24
1.0000000000E+20
 34
1.0000000000E+20
 15
-1.0000000000E+20
 25
-1.0000000000E+20
 35
-1.0000000000E+20
146
0.0
 13
0.0
 23
0.0
 33
0.0
 16
1.0
 26
0.0
 36
0.0
 17
0.0
 27
1.0
 37
0.0
 76
     0
330
1B
  0
LAYOUT
  5
26
102
{ACAD_REACTORS
330
1A
102
}
330
1A
100
AcDbPlotSettings
  1

  2
none_device
  4

  6

 40
0.0
 41
0.0
 42
0.0
 43
0.0
 44
0.0
 45
0.0
 46
0.0
 47
0.0
 48
0.0
 49
0.0
140
0.0
141
0.0
142
1.0
143
1.0
 70
   688
 72
     0
 73
     0
 74
     5
  7

 75
    16
147
1.0
148
0.0
149
0.0
100
AcDbLayout
  1
Layout2
 70
     1
 71
     2
 10
0.0
 20
0.0
 11
0.0
 21
0.0
 12
0.0
 22
0.0
 32
0.0
 14
0.0
 24
0.0
 34
0.0
 15
0.0
 25
0.0
 35
0.0
146
0.0
 13
0.0
 23
0.0
 33
0.0
 16
1.0
 26
0.0
 36
0.0
 17
0.0
 27
1.0
 37
0.0
 76
     0
330
23
  0
LAYOUT
  5
22
102
{ACAD_REACTORS
330
1A
102
}
330
1A
100
AcDbPlotSettings
  1

  2
none_device
  4

  6

 40
0.0
 41
0.0
 42
0.0
 43
0.0
 44
0.0
 45
0.0
 46
0.0
 47
0.0
 48
0.0
 49
0.0
140
0.0
141
0.0
142
1.0
143
1.0
 70
  1712
 72
     0
 73
     0
 74
     0
  7

 75
     0
147
1.0
148
0.0
149
0.0
100
AcDbLayout
  1
Model
 70
     1
 71
     0
 10
0.0
 20
0.0
 11
900.0
 21
600.0
 12
0.0
 22
0.0
 32
0.0
 14
0.0
 24
0.0
 34
0.0
 15
900.0
 25
600.0
 35
0.0
146
0.0
 13
0.0
 23
0.0
 33
0.0
 16
1.0
 26
0.0
 36
0.0
 17
0.0
 27
1.0
 37
0.0
 76
     0
330
1F
331
29
  0
MLINESTYLE
  5
18
102
{ACAD_REACTORS
330
17
102
}
330
17
100
AcDbMlineStyle
  2
Standard
 70
     0
  3

 62
   256
 51
90.0
 52
90.0
 71
     2
 49
0.5
 62
   256
  6
BYLAYER
 49
-0.5
 62
   256
  6
BYLAYER
  0
ACDBPLACEHOLDER
  5
F
102
{ACAD_REACTORS
330
E
102
}
330
E
  0
VISUALSTYLE
  5
2F
102
{ACAD_REACTORS
330
2A
102
}
330
2A
100
AcDbVisualStyle
  2
2dWireframe
 70
     4
 71
     0
 72
     2
 73
     0
 90
        0
 40
-0.6
 41
-30.0
 62
     5
 63
     7
 74
     1
 91
        4
 64
     7
 65
   257
 75
     1
175
     1
 42
1.0
 92
        0
 66
   257
 43
1.0
 76
     1
 77
     6
 78
     2
 67
     7
 79
     5
170
     0
171
     0
290
     0
174
     0
 93
        1
 44
0.0
173
     0
291
     0
 45
0.0
1001
ACAD
1000
AcDbSavedByObjectVersion
1070
     0
  0
VISUALSTYLE
  5
31
102
{ACAD_REACTORS
330
2A
102
}
330
2A
100
AcDbVisualStyle
  2
3D Hidden
 70
     6
 71
     1
 72
     2
 73
     2
 90
        0
 40
-0.6
 41
-30.0
 62
     5
 63
     7
 74
     2
 91
        2
 64
     7
 65
   257
 75
     2
175
     1
 42
40.0
 92
        0
 66
   257
 43
1.0
 76
     1
 77
     6
 78
     2
 67
     7
 79
     3
170
     0
171
     0
290
     0
174
     0
 93
        1
 44
0.0
173
     0
291
     0
 45
0.0
1001
ACAD
1000
AcDbSavedByObjectVersion
1070
     0
  0
VISUALSTYLE
  5
30
102
{ACAD_REACTORS
330
2A
102
}
330
2A
100
AcDbVisualStyle
  2
3dWireframe
 70
     5
 71
     0
 72
     2
 73
     0
 90
        0
 40
-0.6
 41
-30.0
 62
     5
 63
     7
 74
     1
 91
        4
 64
     7
 65
   257
 75
     1
175
     1
 42
1.0
 92
        0
 66
   257
 43
1.0
 76
     1
 77
     6
 78
     2
 67
     7
 79
     5
170
     0
171
     0
290
     0
174
     0
 93
        1
 44
0.0
173
     0
291
     0
 45
0.0
1001
ACAD
1000
AcDbSavedByObjectVersion
1070
     0
  0
VISUALSTYLE
  5
32
102
{ACAD_REACTORS
330
2A
102
}
330
2A
100
AcDbVisualStyle
  2
Basic
 70
     7
 71
     1
 72
     0
 73
     1
 90
        0
 40
-0.6
 41
-30.0
 62
     5
 63
     7
 74
     0
 91
        4
 64
     7
 65
   257
 75
     1
175
     1
 42
1.0
 92
        8
 66
     7
 43
1.0
 76
     1
 77
     6
 78
     2
 67
     7
 79
     5
170
     0
171
     0
290
     0
174
     0
 93
        1
 44
0.0
173
     0
291
     1
 45
0.0
1001
ACAD
1000
AcDbSavedByObjectVersion
1070
     0
  0
VISUALSTYLE
  5
36
102
{ACAD_REACTORS
330
2A
102
}
330
2A
100
AcDbVisualStyle
  2
Brighten
 70
    12
 71
     2
 72
     2
 73
     0
 90
        0
 40
-0.6
 41
-30.0
 62
     5
 63
     7
 74
     1
 91
        4
 64
     7
 65
   257
 75
     1
175
     1
 42
1.0
 92
        8
 66
     7
 43
1.0
 76
     1
 77
     6
 78
     2
 67
     7
 79
     5
170
     0
171
     0
290
     0
174
     0
 93
        1
 44
50.0
173
     0
291
     1
 45
0.0
1001
ACAD
1000
AcDbSavedByObjectVersion
1070
     0
  0
VISUALSTYLE
  5
3A
102
{ACAD_REACTORS
330
2A
102
}
330
2A
100
AcDbVisualStyle
  2
ColorChange
 70
    16
 71
     2
 72
     2
 73
     3
 90
        0
 40
-0.6
 41
-30.0
 62
     5
 63
     8
 74
     1
 91
        4
 64
     7
 65
   257
 75
     1
175
     1
 42
1.0
 92
        8
 66
     8
 43
1.0
 76
     1
 77
     6
 78
     2
 67
     7
 79
     5
170
     0
171
     0
290
     0
174
     0
 93
        1
 44
0.0
173
     0
291
     1
 45
0.0
1001
ACAD
1000
AcDbSavedByObjectVersion
1070
     0
  0
VISUALSTYLE
  5
34
102
{ACAD_REACTORS
330
2A
102
}
330
2A
100
AcDbVisualStyle
  2
Conceptual
 70
     9
 71
     3
 72
     2
 73
     0
 90
        0
 40
-0.6
 41
-30.0
 62
     5
 63
     7
 74
     2
 91
        2
 64
     7
 65
   257
 75
     1
175
     1
 42
40.0
 92
        8
 66
     7
 43
1.0
 76
     1
 77
     6
 78
     2
 67
     7
 79
     3
170
     0
171
     0
290
     0
174
     0
 93
        1
 44
0.0
173
     0
291
     0
 45
0.0
1001
ACAD
1000
AcDbSavedByObjectVersion
1070
     0
  0
VISUALSTYLE
  5
35
102
{ACAD_REACTORS
330
2A
102
}
330
2A
100
AcDbVisualStyle
  2
Dim
 70
    11
 71
     2
 72
     2
 73
     0
 90
        0
 40
-0.6
 41
-30.0
 62
     5
 63
     7
 74
     1
 91
        4
 64
     7
 65
   257
 75
     1
175
     1
 42
1.0
 92
        8
 66
     7
 43
1.0
 76
     1
 77
     6
 78
     2
 67
     7
 79
     5
170
     0
171
     0
290
     0
174
     0
 93
        1
 44
-50.0
173
     0
291
     1
 45
0.0
1001
ACAD
1000
AcDbSavedByObjectVersion
1070
     0
  0
VISUALSTYLE
  5
39
102
{ACAD_REACTORS
330
2A
102
}
330
2A
100
AcDbVisualStyle
  2
Facepattern
 70
    15
 71
     2
 72
     2
 73
     0
 90
        0
 40
-0.6
 41
-30.0
 62
     5
 63
     7
 74
     1
 91
        4
 64
     7
 65
   257
 75
     1
175
     1
 42
1.0
 92
        8
 66
     7
 43
1.0
 76
     1
 77
     6
 78
     2
 67
     7
 79
     5
170
     0
171
     0
290
     0
174
     0
 93
        1
 44
0.0
173
     0
291
     1
 45
0.0
1001
ACAD
1000
AcDbSavedByObjectVersion
1070
     0
  0
VISUALSTYLE
  5
2B
102
{ACAD_REACTORS
330
2A
102
}
330
2A
100
AcDbVisualStyle
  2
Flat
 70
     0
 71
     2
 72
     1
 73
     1
 90
        2
 40
-0.6
 41
30.0
 62
     5
 63
     7
 74
     0
 91
        4
 64
     7
 65
   257
 75
     1
175
     1
 42
1.0
 92
        8
 66
     7
 43
1.0
 76
     1
 77
     6
 78
     2
 67
     7
 79
     5
170
     0
171
     0
290
     0
174
     0
 93
       13
 44
0.0
173
     0
291
     1
 45
0.0
1001
ACAD
1000
AcDbSavedByObjectVersion
1070
     0
  0
VISUALSTYLE
  5
2C
102
{ACAD_REACTORS
330
2A
102
}
330
2A
100
AcDbVisualStyle
  2
FlatWithEdges
 70
     1
 71
     2
 72
     1
 73
     1
 90
        2
 40
-0.6
 41
30.0
 62
     5
 63
     7
 74
     1
 91
        4
 64
     7
 65
   257
 75
     1
175
     1
 42
1.0
 92
        0
 66
   257
 43
1.0
 76
     1
 77
     6
 78
     2
 67
     7
 79
     5
170
     0
171
     0
290
     0
174
     0
 93
       13
 44
0.0
173
     0
291
     1
 45
0.0
1001
ACAD
1000
AcDbSavedByObjectVersion
1070
     0
  0
VISUALSTYLE
  5
2D
102
{ACAD_REACTORS
330
2A
102
}
330
2A
100
AcDbVisualStyle
  2
Gouraud
 70
     2
 71
     2
 72
     2
 73
     1
 90
        2
 40
-0.6
 41
30.0
 62
     5
 63
     7
 74
     0
 91
        4
 64
     7
 65
   257
 75
     1
175
     1
 42
1.0
 92
        0
 66
     7
 43
1.0
 76
     1
 77
     6
 78
     2
 67
     7
 79
     5
170
     0
171
     0
290
     0
174
     0
 93
       13
 44
0.0
173
     0
291
     1
 45
0.0
1001
ACAD
1000
AcDbSavedByObjectVersion
1070
     0
  0
VISUALSTYLE
  5
2E
102
{ACAD_REACTORS
330
2A
102
}
330
2A
100
AcDbVisualStyle
  2
GouraudWithEdges
 70
     3
 71
     2
 72
     2
 73
     1
 90
        2
 40
-0.6
 41
30.0
 62
     5
 63
     7
 74
     1
 91
        4
 64
     7
 65
   257
 75
     1
175
     1
 42
1.0
 92
        0
 66
   257
 43
1.0
 76
     1
 77
     6
 78
     2
 67
     7
 79
     5
170
     0
171
     0
290
     0
174
     0
 93
       13
 44
0.0
173
     0
291
     1
 45
0.0
1001
ACAD
1000
AcDbSavedByObjectVersion
1070
     0
  0
VISUALSTYLE
  5
38
102
{ACAD_REACTORS
330
2A
102
}
330
2A
100
AcDbVisualStyle
  2
Linepattern
 70
    14
 71
     2
 72
     2
 73
     0
 90
        0
 40
-0.6
 41
-30.0
 62
     5
 63
     7
 74
     1
 91
        4
 64
     7
 65
   257
 75
     7
175
     7
 42
1.0
 92
        8
 66
     7
 43
1.0
 76
     1
 77
     6
 78
     2
 67
     7
 79
     5
170
     0
171
     0
290
     0
174
     0
 93
        1
 44
0.0
173
     0
291
     1
 45
0.0
1001
ACAD
1000
AcDbSavedByObjectVersion
1070
     0
  0
VISUALSTYLE
  5
33
102
{ACAD_REACTORS
330
2A
102
}
330
2A
100
AcDbVisualStyle
  2
Realistic
 70
     8
 71
     2
 72
     2
 73
     0
 90
        0
 40
-0.6
 41
-30.0
 62
     5
 63
     7
 74
     1
 91
        0
 64
     7
 65
   257
 75
     1
175
     1
 42
1.0
 92
        8
 66
     8
 43
1.0
 76
     1
 77
     6
 78
     2
 67
     7
 79
     5
170
     0
171
     0
290
     0
174
     0
 93
       13
 44
0.0
173
     0
291
     0
 45
0.0
1001
ACAD
1000
AcDbSavedByObjectVersion
1070
     0
  0
VISUALSTYLE
  5
37
102
{ACAD_REACTORS
330
2A
102
}
330
2A
100
AcDbVisualStyle
  2
Thicken
 70
    13
 71
     2
 72
     2
 73
     0
 90
        0
 40
-0.6
 41
-30.0
 62
     5
 63
     7
 74
     1
 91
        4
 64
     7
 65
   257
 75
     1
175
     1
 42
1.0
 92
       12
 66
     7
 43
1.0
 76
     1
 77
     6
 78
     2
 67
     7
 79
     5
170
     0
171
     0
290
     0
174
     0
 93
        1
 44
0.0
173
     0
291
     1
 45
0.0
1001
ACAD
1000
AcDbSavedByObjectVersion
1070
     0
  0
DICTIONARYVAR
  5
310
102
{ACAD_REACTORS
330
30E
102
}
330
30E
100
DictionaryVariables
280
     0
  1
80.000000
  0
DICTIONARYVAR
  5
30F
102
{ACAD_REACTORS
330
30E
102
}
330
30E
100
DictionaryVariables
280
     0
  1
5.000000
  0
ENDSEC
  0
EOF
