  0
SECTION
  2
HEADER
  9
$ACADVER
  1
AC1015
  9
$ACADMAINTVER
 70
     6
  9
$DWGCODEPAGE
  3
DOS932
  9
$INSBASE
 10
0.0
 20
0.0
 30
0.0
  9
$EXTMIN
 10
0.0
 20
0.0
 30
0.0
  9
$EXTMAX
 10
900.0
 20
600.0
 30
0.0
  9
$LIMMIN
 10
0.0
 20
0.0
  9
$LIMMAX
 10
900.0
 20
600.0
  9
$ORTHOMODE
 70
     0
  9
$REGENMODE
 70
     1
  9
$FILLMODE
 70
     1
  9
$QTEXTMODE
 70
     0
  9
$MIRRTEXT
 70
     1
  9
$LTSCALE
 40
1.0
  9
$ATTMODE
 70
     1
  9
$TEXTSIZE
 40
3.5
  9
$TRACEWID
 40
1.0
  9
$TEXTSTYLE
  7
Standard
  9
$CLAYER
  8
0
  9
$CELTYPE
  6
ByLayer
  9
$CECOLOR
 62
   256
  9
$CELTSCALE
 40
1.0
  9
$DISPSILH
 70
     0
  9
$DIMSCALE
 40
1.0
  9
$DIMASZ
 40
6.0
  9
$DIMEXO
 40
1.0
  9
$DIMDLI
 40
3.75
  9
$DIMRND
 40
0.0
  9
$DIMDLE
 40
0.0
  9
$DIMEXE
 40
1.0
  9
$DIMTP
 40
0.0
  9
$DIMTM
 40
0.0
  9
$DIMTXT
 40
3.5
  9
$DIMCEN
 40
2.5
  9
$DIMTSZ
 40
0.0
  9
$DIMTOL
 70
     0
  9
$DIMLIM
 70
     0
  9
$DIMTIH
 70
     1
  9
$DIMTOH
 70
     1
  9
$DIMSE1
 70
     0
  9
$DIMSE2
 70
     0
  9
$DIMTAD
 70
     1
  9
$DIMZIN
 70
     0
  9
$DIMBLK
  1

  9
$DIMASO
 70
     1
  9
$DIMSHO
 70
     1
  9
$DIMPOST
  1

  9
$DIMAPOST
  1

  9
$DIMALT
 70
     0
  9
$DIMALTD
 70
     3
  9
$DIMALTF
 40
0.0393700787
  9
$DIMLFAC
 40
1.0
  9
$DIMTOFL
 70
     1
  9
$DIMTVP
 40
0.0
  9
$DIMTIX
 70
     0
  9
$DIMSOXD
 70
     0
  9
$DIMSAH
 70
     0
  9
$DIMBLK1
  1

  9
$DIMBLK2
  1

  9
$DIMSTYLE
  2
ISO-25
  9
$DIMCLRD
 70
     0
  9
$DIMCLRE
 70
     0
  9
$DIMCLRT
 70
     0
  9
$DIMTFAC
 40
1.0
  9
$DIMGAP
 40
1.524
  9
$DIMJUST
 70
     0
  9
$DIMSD1
 70
     0
  9
$DIMSD2
 70
     0
  9
$DIMTOLJ
 70
     0
  9
$DIMTZIN
 70
     0
  9
$DIMALTZ
 70
     0
  9
$DIMALTTZ
 70
     0
  9
$DIMUPT
 70
     0
  9
$DIMDEC
 70
     2
  9
$DIMTDEC
 70
     2
  9
$DIMALTU
 70
     2
  9
$DIMALTTD
 70
     3
  9
$DIMTXSTY
  7
Standard
  9
$DIMAUNIT
 70
     0
  9
$DIMADEC
 70
     0
  9
$DIMALTRND
 40
0.0
  9
$DIMAZIN
 70
     0
  9
$DIMDSEP
 70
    44
  9
$DIMATFIT
 70
     3
  9
$DIMFRAC
 70
     0
  9
$DIMLDRBLK
  1

  9
$DIMLUNIT
 70
     2
  9
$DIMLWD
 70
    -2
  9
$DIMLWE
 70
    -2
  9
$DIMTMOVE
 70
     0
  9
$LUNITS
 70
     2
  9
$LUPREC
 70
     2
  9
$SKETCHINC
 40
1.0
  9
$FILLETRAD
 40
10.0
  9
$AUNITS
 70
     0
  9
$AUPREC
 70
     0
  9
$MENU
  1
.
  9
$ELEVATION
 40
0.0
  9
$PELEVATION
 40
0.0
  9
$THICKNESS
 40
0.0
  9
$LIMCHECK
 70
     0
  9
$CHAMFERA
 40
10.0
  9
$CHAMFERB
 40
10.0
  9
$CHAMFERC
 40
20.0
  9
$CHAMFERD
 40
0.0
  9
$SKPOLY
 70
     0
  9
$TDCREATE
 40
2456453.887423738
  9
$TDUCREATE
 40
2456453.512423738
  9
$TDUPDATE
 40
2456453.88742375
  9
$TDUUPDATE
 40
2456453.51242375
  9
$TDINDWG
 40
0.0000000116
  9
$TDUSRTIMER
 40
0.0000000116
  9
$USRTIMER
 70
     1
  9
$ANGBASE
 50
0.0
  9
$ANGDIR
 70
     0
  9
$PDMODE
 70
     0
  9
$PDSIZE
 40
-1.0
  9
$PLINEWID
 40
0.0
  9
$SPLFRAME
 70
     0
  9
$SPLINETYPE
 70
     6
  9
$SPLINESEGS
 70
     8
  9
$HANDSEED
  5
311
  9
$SURFTAB1
 70
     6
  9
$SURFTAB2
 70
     6
  9
$SURFTYPE
 70
     6
  9
$SURFU
 70
     6
  9
$SURFV
 70
     6
  9
$UCSBASE
  2

  9
$UCSNAME
  2

  9
$UCSORG
 10
0.0
 20
0.0
 30
0.0
  9
$UCSXDIR
 10
1.0
 20
0.0
 30
0.0
  9
$UCSYDIR
 10
0.0
 20
1.0
 30
0.0
  9
$UCSORTHOREF
  2

  9
$UCSORTHOVIEW
 70
     0
  9
$UCSORGTOP
 10
0.0
 20
0.0
 30
0.0
  9
$UCSORGBOTTOM
 10
0.0
 20
0.0
 30
0.0
  9
$UCSORGLEFT
 10
0.0
 20
0.0
 30
0.0
  9
$UCSORGRIGHT
 10
0.0
 20
0.0
 30
0.0
  9
$UCSORGFRONT
 10
0.0
 20
0.0
 30
0.0
  9
$UCSORGBACK
 10
0.0
 20
0.0
 30
0.0
  9
$PUCSBASE
  2

  9
$PUCSNAME
  2

  9
$PUCSORG
 10
0.0
 20
0.0
 30
0.0
  9
$PUCSXDIR
 10
1.0
 20
0.0
 30
0.0
  9
$PUCSYDIR
 10
0.0
 20
1.0
 30
0.0
  9
$PUCSORTHOREF
  2

  9
$PUCSORTHOVIEW
 70
     0
  9
$PUCSORGTOP
 10
0.0
 20
0.0
 30
0.0
  9
$PUCSORGBOTTOM
 10
0.0
 20
0.0
 30
0.0
  9
$PUCSORGLEFT
 10
0.0
 20
0.0
 30
0.0
  9
$PUCSORGRIGHT
 10
0.0
 20
0.0
 30
0.0
  9
$PUCSORGFRONT
 10
0.0
 20
0.0
 30
0.0
  9
$PUCSORGBACK
 10
0.0
 20
0.0
 30
0.0
  9
$USERI1
 70
     0
  9
$USERI2
 70
     0
  9
$USERI3
 70
     0
  9
$USERI4
 70
     0
  9
$USERI5
 70
     0
  9
$USERR1
 40
0.0
  9
$USERR2
 40
0.0
  9
$USERR3
 40
0.0
  9
$USERR4
 40
0.0
  9
$USERR5
 40
0.0
  9
$WORLDVIEW
 70
     1
  9
$SHADEDGE
 70
     3
  9
$SHADEDIF
 70
    70
  9
$TILEMODE
 70
     1
  9
$MAXACTVP
 70
    64
  9
$PINSBASE
 10
0.0
 20
0.0
 30
0.0
  9
$PLIMCHECK
 70
     0
  9
$PEXTMIN
 10
1.0000000000E+20
 20
1.0000000000E+20
 30
1.0000000000E+20
  9
$PEXTMAX
 10
-1.0000000000E+20
 20
-1.0000000000E+20
 30
-1.0000000000E+20
  9
$PLIMMIN
 10
0.0
 20
0.0
  9
$PLIMMAX
 10
420.0
 20
297.0
  9
$UNITMODE
 70
     0
  9
$VISRETAIN
 70
     1
  9
$PLINEGEN
 70
     0
  9
$PSLTSCALE
 70
     1
  9
$TREEDEPTH
 70
  3020
  9
$CMLSTYLE
  2
Standard
  9
$CMLJUST
 70
     0
  9
$CMLSCALE
 40
20.0
  9
$PROXYGRAPHICS
 70
     1
  9
$MEASUREMENT
 70
     1
  9
$CELWEIGHT
370
    -1
  9
$ENDCAPS
280
     0
  9
$JOINSTYLE
280
     0
  9
$LWDISPLAY
290
     1
  9
$INSUNITS
 70
     4
  9
$HYPERLINKBASE
  1

  9
$STYLESHEET
  1

  9
$XEDIT
290
     1
  9
$CEPSNTYPE
380
     0
  9
$PSTYLEMODE
290
     1
  9
$FINGERPRINTGUID
  2
{293BFB2B-7194-45CC-A590-43B4C860EE43}
  9
$VERSIONGUID
  2
{FAEB1C32-E019-11D5-929B-00C0DF256EC4}
  9
$EXTNAMES
290
     1
  9
$PSVPSCALE
 40
0.0
  9
$OLESTARTUP
290
     0
  0
ENDSEC
  0
SECTION
  2
CLASSES
  0
CLASS
  1
ACDBDICTIONARYWDFLT
  2
AcDbDictionaryWithDefault
  3
ObjectDBX Classes
 90
        0
280
     0
281
     0
  0
CLASS
  1
VISUALSTYLE
  2
AcDbVisualStyle
  3
ObjectDBX Classes
 90
     4095
280
     0
281
     0
  0
CLASS
  1
DICTIONARYVAR
  2
AcDbDictionaryVar
  3
ObjectDBX Classes
 90
        0
280
     0
281
     0
  0
CLASS
  1
ACDBPLACEHOLDER
  2
AcDbPlaceHolder
  3
ObjectDBX Classes
 90
        0
280
     0
281
     0
  0
CLASS
  1
LAYOUT
  2
AcDbLayout
  3
ObjectDBX Classes
 90
        0
280
     0
281
     0
  0
ENDSEC
  0
SECTION
  2
TABLES
  0
TABLE
  2
VPORT
  5
8
330
0
100
AcDbSymbolTable
 70
     1
  0
VPORT
  5
29
330
8
100
AcDbSymbolTableRecord
100
AcDbViewportTableRecord
  2
*Active
 70
     0
 10
0.0
 20
0.0
 11
1.0
 21
1.0
 12
450.0
 22
300.0
 13
0.0
 23
0.0
 14
10.0
 24
10.0
 15
10.0
 25
10.0
 16
0.0
 26
0.0
 36
1.0
 17
0.0
 27
0.0
 37
0.0
 40
600.0
 41
1.5
 42
50.0
 43
0.0
 44
0.0
 50
0.0
 51
0.0
 71
     0
 72
  2000
 73
     1
 74
     3
 75
     0
 76
     0
 77
     0
 78
     0
281
     0
 65
     1
110
0.0
120
0.0
130
0.0
111
1.0
121
0.0
131
0.0
112
0.0
122
1.0
132
0.0
 79
     0
146
0.0
  0
ENDTAB
  0
TABLE
  2
LTYPE
  5
5
330
0
100
AcDbSymbolTable
 70
     6
  0
LTYPE
  5
14
330
5
100
AcDbSymbolTableRecord
100
AcDbLinetypeTableRecord
  2
ByBlock
 70
     0
  3

 72
    65
 73
     0
 40
0.0
  0
LTYPE
  5
15
330
5
100
AcDbSymbolTableRecord
100
AcDbLinetypeTableRecord
  2
ByLayer
 70
     0
  3

 72
    65
 73
     0
 40
0.0
  0
LTYPE
  5
16
330
5
100
AcDbSymbolTableRecord
100
AcDbLinetypeTableRecord
  2
Continuous
 70
     0
  3
Solid line
 72
    65
 73
     0
 40
0.0
  0
LTYPE
  5
3B
330
5
100
AcDbSymbolTableRecord
100
AcDbLinetypeTableRecord
  2
HIDDEN
 70
     0
  3
Hidden __ __ __ __ __ __ __ __ __ __ __ __ __ __
 72
    65
 73
     2
 40
1.905
 49
1.27
 74
     0
 49
-0.635
 74
     0
  0
LTYPE
  5
3C
330
5
100
AcDbSymbolTableRecord
100
AcDbLinetypeTableRecord
  2
PHANTOM
 70
     0
  3
Phantom ______  __  __  ______  __  __  ______
 72
    65
 73
     6
 40
12.7
 49
6.35
 74
     0
 49
-1.27
 74
     0
 49
1.27
 74
     0
 49
-1.27
 74
     0
 49
1.27
 74
     0
 49
-1.27
 74
     0
  0
LTYPE
  5
3D
330
5
100
AcDbSymbolTableRecord
100
AcDbLinetypeTableRecord
  2
CENTER
 70
     0
  3
Center ____ _ ____ _ ____ _ ____ _ ____ _ ____
 72
    65
 73
     4
 40
10.16
 49
6.35
 74
     0
 49
-1.27
 74
     0
 49
1.27
 74
     0
 49
-1.27
 74
     0
  0
LTYPE
  5
3E
330
5
100
AcDbSymbolTableRecord
100
AcDbLinetypeTableRecord
  2
CENTERX2
 70
     0
  3
Center (2x) ________  __  ________  __  _____
 72
    65
 73
     4
 40
20.32
 49
12.7
 74
     0
 49
-2.54
 74
     0
 49
2.54
 74
     0
 49
-2.54
 74
     0
  0
LTYPE
  5
3F
330
5
100
AcDbSymbolTableRecord
100
AcDbLinetypeTableRecord
  2
DOT2
 70
     0
  3
Dot (.5x) ........................................
 72
    65
 73
     2
 40
0.635
 49
0.0
 74
     0
 49
-0.635
 74
     0
  0
ENDTAB
  0
TABLE
  2
LAYER
  5
2
330
0
100
AcDbSymbolTable
 70
     1
  0
LAYER
  5
10
330
2
100
AcDbSymbolTableRecord
100
AcDbLayerTableRecord
  2
0
 70
     0
 62
     7
  6
Continuous
370
    -3
390
F
  0
ENDTAB
  0
TABLE
  2
STYLE
  5
3
330
0
100
AcDbSymbolTable
 70
     1
  0
STYLE
  5
11
330
3
100
AcDbSymbolTableRecord
100
AcDbTextStyleTableRecord
  2
Standard
 70
     0
 40
0.0
 41
1.0
 50
0.0
 71
     0
 42
2.5
  3
txt
  4
bigfont
  0
ENDTAB
  0
TABLE
  2
VIEW
  5
6
330
0
100
AcDbSymbolTable
 70
     0
  0
ENDTAB
  0
TABLE
  2
UCS
  5
7
330
0
100
AcDbSymbolTable
 70
     0
  0
ENDTAB
  0
TABLE
  2
APPID
  5
9
330
0
100
AcDbSymbolTable
 70
     1
  0
APPID
  5
12
330
9
100
AcDbSymbolTableRecord
100
AcDbRegAppTableRecord
  2
ACAD
 70
     0
  0
ENDTAB
  0
TABLE
  2
DIMSTYLE
  5
A
330
0
100
AcDbSymbolTable
 70
     1
100
AcDbDimStyleTable
  0
DIMSTYLE
105
27
330
A
100
AcDbSymbolTableRecord
100
AcDbDimStyleTableRecord
  2
ISO-25
 70
     0
 41
2.5
 42
0.625
 43
3.75
 44
1.25
 73
     0
 74
     0
 77
     1
 78
     8
140
2.5
141
2.5
143
0.0393700787
147
0.625
171
     3
172
     1
271
     2
272
     2
274
     3
278
    44
283
     0
284
     8
340
11
  0
ENDTAB
  0
TABLE
  2
BLOCK_RECORD
  5
1
330
0
100
AcDbSymbolTable
 70
     1
  0
BLOCK_RECORD
  5
1F
330
1
100
AcDbSymbolTableRecord
100
AcDbBlockTableRecord
  2
*Model_Space
340
22
  0
BLOCK_RECORD
  5
1B
330
1
100
AcDbSymbolTableRecord
100
AcDbBlockTableRecord
  2
*Paper_Space
340
1E
  0
BLOCK_RECORD
  5
23
330
1
100
AcDbSymbolTableRecord
100
AcDbBlockTableRecord
  2
*Paper_Space0
340
26
  0
ENDTAB
  0
ENDSEC
  0
SECTION
  2
BLOCKS
  0
BLOCK
  5
20
330
1F
100
AcDbEntity
  8
0
100
AcDbBlockBegin
  2
*Model_Space
 70
     0
 10
0.0
 20
0.0
 30
0.0
  3
*Model_Space
  1

  0
ENDBLK
  5
21
330
1F
100
AcDbEntity
  8
0
100
AcDbBlockEnd
  0
BLOCK
  5
1C
330
1B
100
AcDbEntity
 67
     1
  8
0
100
AcDbBlockBegin
  2
*Paper_Space
 70
     0
 10
0.0
 20
0.0
 30
0.0
  3
*Paper_Space
  1

  0
ENDBLK
  5
1D
330
1B
100
AcDbEntity
 67
     1
  8
0
100
AcDbBlockEnd
  0
BLOCK
  5
24
330
23
100
AcDbEntity
  8
0
100
AcDbBlockBegin
  2
*Paper_Space0
 70
     0
 10
0.0
 20
0.0
 30
0.0
  3
*Paper_Space0
  1

  0
ENDBLK
  5
25
330
23
100
AcDbEntity
  8
0
100
AcDbBlockEnd
  0
ENDSEC
  0
SECTION
  2
ENTITIES
  0
ARC
  5
40
330
1F
100
AcDbEntity
  8
0
  6
Continuous
 62
     7
370
    15
100
AcDbCircle
 10
25.5569824858
 20
167.3754110365
 30
0.0
 40
5.000000000000028
100
AcDbArc
 50
180.0
 51
270.0
  0
ARC
  5
41
330
1F
100
AcDbEntity
  8
0
  6
Continuous
 62
     7
370
    15
100
AcDbCircle
 10
25.5569824858
 20
575.3754110365
 30
0.0
 40
5.000000000000004
100
AcDbArc
 50
90.0
 51
180.0
  0
ARC
  5
42
330
1F
100
AcDbEntity
  8
0
  6
Continuous
 62
     7
370
    15
100
AcDbCircle
 10
415.5569824858
 20
575.3754110365
 30
0.0
 40
5.0
100
AcDbArc
 50
0.0
 51
90.0
  0
ARC
  5
43
330
1F
100
AcDbEntity
  8
0
  6
Continuous
 62
     7
370
    15
100
AcDbCircle
 10
415.5569824858
 20
167.3754110365
 30
0.0
 40
5.000000000000028
100
AcDbArc
 50
270.0
 51
0.0
  0
ARC
  5
44
330
1F
100
AcDbEntity
  8
0
  6
Continuous
 62
     7
370
    15
100
AcDbCircle
 10
265.7626529913
 20
172.3754110365
 30
0.0
 40
10.00000000000007
100
AcDbArc
 50
215.0
 51
270.0
  0
LINE
  5
45
330
1F
100
AcDbEntity
  8
0
  6
Continuous
 62
     7
370
    15
100
AcDbLine
 10
257.5711271448
 20
166.639646533
 30
0.0
 11
249.5386860056
 21
178.1111750929
 31
0.0
  0
ARC
  5
46
330
1F
100
AcDbEntity
  8
0
  6
Continuous
 62
     7
370
    15
100
AcDbCircle
 10
241.3471612161
 20
172.3754110365
 30
0.0
 40
9.999999999999988
100
AcDbArc
 50
35.0
 51
90.0
  0
LINE
  5
47
330
1F
100
AcDbEntity
  8
0
  6
Continuous
 62
     7
370
    15
100
AcDbLine
 10
241.3471600695
 20
182.3754105894
 30
0.0
 11
199.7668108626
 21
182.3754105894
 31
0.0
  0
ARC
  5
48
330
1F
100
AcDbEntity
  8
0
  6
Continuous
 62
     7
370
    15
100
AcDbCircle
 10
199.7668037555
 20
172.3754110365
 30
0.0
 40
9.99999999999998
100
AcDbArc
 50
90.0
 51
145.0
  0
LINE
  5
49
330
1F
100
AcDbEntity
  8
0
  6
Continuous
 62
     7
370
    15
100
AcDbLine
 10
191.5752849264
 20
178.1111750929
 30
0.0
 11
183.5428288861
 21
166.639646533
 31
0.0
  0
ARC
  5
4A
330
1F
100
AcDbEntity
  8
0
  6
Continuous
 62
     7
370
    15
100
AcDbCircle
 10
175.3513119803
 20
172.3754110365
 30
0.0
 40
10.00000000000003
100
AcDbArc
 50
270.0
 51
325.0
  0
LINE
  5
4B
330
1F
100
AcDbEntity
  8
0
  6
Continuous
 62
     7
370
    15
100
AcDbLine
 10
355.0569972678
 20
446.6769602327
 30
0.0
 11
355.0569972678
 21
466.6769709615
 31
0.0
  0
LINE
  5
4C
330
1F
100
AcDbEntity
  8
0
  6
Continuous
 62
     7
370
    15
100
AcDbLine
 10
360.5569860621
 20
446.6769602327
 30
0.0
 11
355.0569972678
 21
446.6769602327
 31
0.0
  0
LINE
  5
4D
330
1F
100
AcDbEntity
  8
0
  6
Continuous
 62
     7
370
    15
100
AcDbLine
 10
360.5569860621
 20
466.6769709615
 30
0.0
 11
360.5569860621
 21
446.6769602327
 31
0.0
  0
LINE
  5
4E
330
1F
100
AcDbEntity
  8
0
  6
Continuous
 62
     7
370
    15
100
AcDbLine
 10
355.0569972678
 20
466.6769709615
 30
0.0
 11
360.5569860621
 21
466.6769709615
 31
0.0
  0
LINE
  5
4F
330
1F
100
AcDbEntity
  8
0
  6
Continuous
 62
     7
370
    15
100
AcDbLine
 10
370.3069946452
 20
422.1769776373
 30
0.0
 11
370.3069946452
 21
427.6769664316
 31
0.0
  0
LINE
  5
50
330
1F
100
AcDbEntity
  8
0
  6
Continuous
 62
     7
370
    15
100
AcDbLine
 10
390.3069755717
 20
422.1769776373
 30
0.0
 11
370.3069946452
 21
422.1769776373
 31
0.0
  0
LINE
  5
51
330
1F
100
AcDbEntity
  8
0
  6
Continuous
 62
     7
370
    15
100
AcDbLine
 10
390.3069755717
 20
427.6769664316
 30
0.0
 11
390.3069755717
 21
422.1769776373
 31
0.0
  0
LINE
  5
52
330
1F
100
AcDbEntity
  8
0
  6
Continuous
 62
     7
370
    15
100
AcDbLine
 10
370.3069946452
 20
427.6769664316
 30
0.0
 11
390.3069755717
 21
427.6769664316
 31
0.0
  0
LINE
  5
53
330
1F
100
AcDbEntity
  8
0
  6
Continuous
 62
     7
370
    15
100
AcDbLine
 10
86.0569811149
 20
446.6769602327
 30
0.0
 11
80.5569811447
 21
446.6769602327
 31
0.0
  0
LINE
  5
54
330
1F
100
AcDbEntity
  8
0
  6
Continuous
 62
     7
370
    15
100
AcDbLine
 10
86.0569811149
 20
466.6769709615
 30
0.0
 11
86.0569811149
 21
446.6769602327
 31
0.0
  0
LINE
  5
55
330
1F
100
AcDbEntity
  8
0
  6
Continuous
 62
     7
370
    15
100
AcDbLine
 10
80.5569811447
 20
466.6769709615
 30
0.0
 11
86.0569811149
 21
466.6769709615
 31
0.0
  0
LINE
  5
56
330
1F
100
AcDbEntity
  8
0
  6
Continuous
 62
     7
370
    15
100
AcDbLine
 10
80.5569811447
 20
446.6769602327
 30
0.0
 11
80.5569811447
 21
466.6769709615
 31
0.0
  0
LINE
  5
57
330
1F
100
AcDbEntity
  8
0
  6
Continuous
 62
     7
370
    15
100
AcDbLine
 10
70.8069837375
 20
427.6769664316
 30
0.0
 11
70.8069837375
 21
422.1769776373
 31
0.0
  0
LINE
  5
58
330
1F
100
AcDbEntity
  8
0
  6
Continuous
 62
     7
370
    15
100
AcDbLine
 10
50.8069823219
 20
427.6769664316
 30
0.0
 11
70.8069837375
 21
427.6769664316
 31
0.0
  0
LINE
  5
59
330
1F
100
AcDbEntity
  8
0
  6
Continuous
 62
     7
370
    15
100
AcDbLine
 10
50.8069823219
 20
422.1769776373
 30
0.0
 11
50.8069823219
 21
427.6769664316
 31
0.0
  0
LINE
  5
5A
330
1F
100
AcDbEntity
  8
0
  6
Continuous
 62
     7
370
    15
100
AcDbLine
 10
70.8069837375
 20
422.1769776373
 30
0.0
 11
50.8069823219
 21
422.1769776373
 31
0.0
  0
LINE
  5
5B
330
1F
100
AcDbEntity
  8
0
  6
Continuous
 62
     7
370
    15
100
AcDbLine
 10
352.6998421831
 20
574.875405076
 30
0.0
 11
352.6998421831
 21
569.3754162817
 31
0.0
  0
LINE
  5
5C
330
1F
100
AcDbEntity
  8
0
  6
Continuous
 62
     7
370
    15
100
AcDbLine
 10
352.6998421831
 20
569.3754162817
 30
0.0
 11
372.699852912
 21
569.3754162817
 31
0.0
  0
LINE
  5
5D
330
1F
100
AcDbEntity
  8
0
  6
Continuous
 62
     7
370
    15
100
AcDbLine
 10
372.699852912
 20
569.3754162817
 30
0.0
 11
372.699852912
 21
574.875405076
 31
0.0
  0
LINE
  5
5E
330
1F
100
AcDbEntity
  8
0
  6
Continuous
 62
     7
370
    15
100
AcDbLine
 10
372.699852912
 20
574.875405076
 30
0.0
 11
352.6998421831
 21
574.875405076
 31
0.0
  0
LINE
  5
5F
330
1F
100
AcDbEntity
  8
0
  6
Continuous
 62
     7
370
    15
100
AcDbLine
 10
295.842703311
 20
574.875405076
 30
0.0
 11
295.842703311
 21
569.3754162817
 31
0.0
  0
LINE
  5
60
330
1F
100
AcDbEntity
  8
0
  6
Continuous
 62
     7
370
    15
100
AcDbLine
 10
295.842703311
 20
569.3754162817
 30
0.0
 11
315.8426842375
 21
569.3754162817
 31
0.0
  0
LINE
  5
61
330
1F
100
AcDbEntity
  8
0
  6
Continuous
 62
     7
370
    15
100
AcDbLine
 10
315.8426842375
 20
569.3754162817
 30
0.0
 11
315.8426842375
 21
574.875405076
 31
0.0
  0
LINE
  5
62
330
1F
100
AcDbEntity
  8
0
  6
Continuous
 62
     7
370
    15
100
AcDbLine
 10
315.8426842375
 20
574.875405076
 30
0.0
 11
295.842703311
 21
574.875405076
 31
0.0
  0
LINE
  5
63
330
1F
100
AcDbEntity
  8
0
  6
Continuous
 62
     7
370
    15
100
AcDbLine
 10
238.9855495377
 20
574.875405076
 30
0.0
 11
238.9855495377
 21
569.3754162817
 31
0.0
  0
LINE
  5
64
330
1F
100
AcDbEntity
  8
0
  6
Continuous
 62
     7
370
    15
100
AcDbLine
 10
238.9855495377
 20
569.3754162817
 30
0.0
 11
258.9855602665
 21
569.3754162817
 31
0.0
  0
LINE
  5
65
330
1F
100
AcDbEntity
  8
0
  6
Continuous
 62
     7
370
    15
100
AcDbLine
 10
258.9855602665
 20
569.3754162817
 30
0.0
 11
258.9855602665
 21
574.875405076
 31
0.0
  0
LINE
  5
66
330
1F
100
AcDbEntity
  8
0
  6
Continuous
 62
     7
370
    15
100
AcDbLine
 10
258.9855602665
 20
574.875405076
 30
0.0
 11
238.9855495377
 21
574.875405076
 31
0.0
  0
LINE
  5
67
330
1F
100
AcDbEntity
  8
0
  6
Continuous
 62
     7
370
    15
100
AcDbLine
 10
182.1284106655
 20
574.875405076
 30
0.0
 11
182.1284106655
 21
569.3754162817
 31
0.0
  0
LINE
  5
68
330
1F
100
AcDbEntity
  8
0
  6
Continuous
 62
     7
370
    15
100
AcDbLine
 10
182.1284106655
 20
569.3754162817
 30
0.0
 11
202.1284064932
 21
569.3754162817
 31
0.0
  0
LINE
  5
69
330
1F
100
AcDbEntity
  8
0
  6
Continuous
 62
     7
370
    15
100
AcDbLine
 10
202.1284064932
 20
569.3754162817
 30
0.0
 11
202.1284064932
 21
574.875405076
 31
0.0
  0
LINE
  5
6A
330
1F
100
AcDbEntity
  8
0
  6
Continuous
 62
     7
370
    15
100
AcDbLine
 10
202.1284064932
 20
574.875405076
 30
0.0
 11
182.1284106655
 21
574.875405076
 31
0.0
  0
LINE
  5
6B
330
1F
100
AcDbEntity
  8
0
  6
Continuous
 62
     7
370
    15
100
AcDbLine
 10
125.2712717934
 20
574.875405076
 30
0.0
 11
125.2712717934
 21
569.3754162817
 31
0.0
  0
LINE
  5
6C
330
1F
100
AcDbEntity
  8
0
  6
Continuous
 62
     7
370
    15
100
AcDbLine
 10
125.2712717934
 20
569.3754162817
 30
0.0
 11
145.2712676211
 21
569.3754162817
 31
0.0
  0
LINE
  5
6D
330
1F
100
AcDbEntity
  8
0
  6
Continuous
 62
     7
370
    15
100
AcDbLine
 10
145.2712676211
 20
569.3754162817
 30
0.0
 11
145.2712676211
 21
574.875405076
 31
0.0
  0
LINE
  5
6E
330
1F
100
AcDbEntity
  8
0
  6
Continuous
 62
     7
370
    15
100
AcDbLine
 10
145.2712676211
 20
574.875405076
 30
0.0
 11
125.2712717934
 21
574.875405076
 31
0.0
  0
LINE
  5
6F
330
1F
100
AcDbEntity
  8
0
  6
Continuous
 62
     7
370
    15
100
AcDbLine
 10
68.4141254707
 20
574.875405076
 30
0.0
 11
68.4141254707
 21
569.3754162817
 31
0.0
  0
LINE
  5
70
330
1F
100
AcDbEntity
  8
0
  6
Continuous
 62
     7
370
    15
100
AcDbLine
 10
68.4141254707
 20
569.3754162817
 30
0.0
 11
88.4141287489
 21
569.3754162817
 31
0.0
  0
LINE
  5
71
330
1F
100
AcDbEntity
  8
0
  6
Continuous
 62
     7
370
    15
100
AcDbLine
 10
88.4141287489
 20
569.3754162817
 30
0.0
 11
88.4141287489
 21
574.875405076
 31
0.0
  0
LINE
  5
72
330
1F
100
AcDbEntity
  8
0
  6
Continuous
 62
     7
370
    15
100
AcDbLine
 10
88.4141287489
 20
574.875405076
 30
0.0
 11
68.4141254707
 21
574.875405076
 31
0.0
  0
LINE
  5
73
330
1F
100
AcDbEntity
  8
0
  6
Continuous
 62
     7
370
    15
100
AcDbLine
 10
352.6998421831
 20
258.3754118709
 30
0.0
 11
352.6998421831
 21
252.8754081754
 31
0.0
  0
LINE
  5
74
330
1F
100
AcDbEntity
  8
0
  6
Continuous
 62
     7
370
    15
100
AcDbLine
 10
352.6998421831
 20
252.8754081754
 30
0.0
 11
372.699852912
 21
252.8754081754
 31
0.0
  0
LINE
  5
75
330
1F
100
AcDbEntity
  8
0
  6
Continuous
 62
     7
370
    15
100
AcDbLine
 10
372.699852912
 20
252.8754081754
 30
0.0
 11
372.699852912
 21
258.3754118709
 31
0.0
  0
LINE
  5
76
330
1F
100
AcDbEntity
  8
0
  6
Continuous
 62
     7
370
    15
100
AcDbLine
 10
372.699852912
 20
258.3754118709
 30
0.0
 11
352.6998421831
 21
258.3754118709
 31
0.0
  0
LINE
  5
77
330
1F
100
AcDbEntity
  8
0
  6
Continuous
 62
     7
370
    15
100
AcDbLine
 10
295.842703311
 20
258.3754118709
 30
0.0
 11
295.842703311
 21
252.8754081754
 31
0.0
  0
LINE
  5
78
330
1F
100
AcDbEntity
  8
0
  6
Continuous
 62
     7
370
    15
100
AcDbLine
 10
295.842703311
 20
252.8754081754
 30
0.0
 11
315.8426842375
 21
252.8754081754
 31
0.0
  0
LINE
  5
79
330
1F
100
AcDbEntity
  8
0
  6
Continuous
 62
     7
370
    15
100
AcDbLine
 10
315.8426842375
 20
252.8754081754
 30
0.0
 11
315.8426842375
 21
258.3754118709
 31
0.0
  0
LINE
  5
7A
330
1F
100
AcDbEntity
  8
0
  6
Continuous
 62
     7
370
    15
100
AcDbLine
 10
315.8426842375
 20
258.3754118709
 30
0.0
 11
295.842703311
 21
258.3754118709
 31
0.0
  0
LINE
  5
7B
330
1F
100
AcDbEntity
  8
0
  6
Continuous
 62
     7
370
    15
100
AcDbLine
 10
238.9855495377
 20
258.3754118709
 30
0.0
 11
238.9855495377
 21
252.8754081754
 31
0.0
  0
LINE
  5
7C
330
1F
100
AcDbEntity
  8
0
  6
Continuous
 62
     7
370
    15
100
AcDbLine
 10
238.9855495377
 20
252.8754081754
 30
0.0
 11
258.9855602665
 21
252.8754081754
 31
0.0
  0
LINE
  5
7D
330
1F
100
AcDbEntity
  8
0
  6
Continuous
 62
     7
370
    15
100
AcDbLine
 10
258.9855602665
 20
252.8754081754
 30
0.0
 11
258.9855602665
 21
258.3754118709
 31
0.0
  0
LINE
  5
7E
330
1F
100
AcDbEntity
  8
0
  6
Continuous
 62
     7
370
    15
100
AcDbLine
 10
258.9855602665
 20
258.3754118709
 30
0.0
 11
238.9855495377
 21
258.3754118709
 31
0.0
  0
LINE
  5
7F
330
1F
100
AcDbEntity
  8
0
  6
Continuous
 62
     7
370
    15
100
AcDbLine
 10
182.1284106655
 20
258.3754118709
 30
0.0
 11
182.1284106655
 21
252.8754081754
 31
0.0
  0
LINE
  5
80
330
1F
100
AcDbEntity
  8
0
  6
Continuous
 62
     7
370
    15
100
AcDbLine
 10
182.1284106655
 20
252.8754081754
 30
0.0
 11
202.1284064932
 21
252.8754081754
 31
0.0
  0
LINE
  5
81
330
1F
100
AcDbEntity
  8
0
  6
Continuous
 62
     7
370
    15
100
AcDbLine
 10
202.1284064932
 20
252.8754081754
 30
0.0
 11
202.1284064932
 21
258.3754118709
 31
0.0
  0
LINE
  5
82
330
1F
100
AcDbEntity
  8
0
  6
Continuous
 62
     7
370
    15
100
AcDbLine
 10
202.1284064932
 20
258.3754118709
 30
0.0
 11
182.1284106655
 21
258.3754118709
 31
0.0
  0
LINE
  5
83
330
1F
100
AcDbEntity
  8
0
  6
Continuous
 62
     7
370
    15
100
AcDbLine
 10
125.2712717934
 20
258.3754118709
 30
0.0
 11
125.2712717934
 21
252.8754081754
 31
0.0
  0
LINE
  5
84
330
1F
100
AcDbEntity
  8
0
  6
Continuous
 62
     7
370
    15
100
AcDbLine
 10
125.2712717934
 20
252.8754081754
 30
0.0
 11
145.2712676211
 21
252.8754081754
 31
0.0
  0
LINE
  5
85
330
1F
100
AcDbEntity
  8
0
  6
Continuous
 62
     7
370
    15
100
AcDbLine
 10
145.2712676211
 20
252.8754081754
 30
0.0
 11
145.2712676211
 21
258.3754118709
 31
0.0
  0
LINE
  5
86
330
1F
100
AcDbEntity
  8
0
  6
Continuous
 62
     7
370
    15
100
AcDbLine
 10
145.2712676211
 20
258.3754118709
 30
0.0
 11
125.2712717934
 21
258.3754118709
 31
0.0
  0
LINE
  5
87
330
1F
100
AcDbEntity
  8
0
  6
Continuous
 62
     7
370
    15
100
AcDbLine
 10
68.4141254707
 20
258.3754118709
 30
0.0
 11
68.4141254707
 21
252.8754081754
 31
0.0
  0
LINE
  5
88
330
1F
100
AcDbEntity
  8
0
  6
Continuous
 62
     7
370
    15
100
AcDbLine
 10
68.4141254707
 20
252.8754081754
 30
0.0
 11
88.4141287489
 21
252.8754081754
 31
0.0
  0
LINE
  5
89
330
1F
100
AcDbEntity
  8
0
  6
Continuous
 62
     7
370
    15
100
AcDbLine
 10
88.4141287489
 20
252.8754081754
 30
0.0
 11
88.4141287489
 21
258.3754118709
 31
0.0
  0
LINE
  5
8A
330
1F
100
AcDbEntity
  8
0
  6
Continuous
 62
     7
370
    15
100
AcDbLine
 10
88.4141287489
 20
258.3754118709
 30
0.0
 11
68.4141254707
 21
258.3754118709
 31
0.0
  0
LINE
  5
8B
330
1F
100
AcDbEntity
  8
0
  6
Continuous
 62
     7
370
    15
100
AcDbLine
 10
409.5569810553
 20
537.8039684324
 30
0.0
 11
409.5569810553
 21
517.8039875059
 31
0.0
  0
LINE
  5
8C
330
1F
100
AcDbEntity
  8
0
  6
Continuous
 62
     7
370
    15
100
AcDbLine
 10
409.5569810553
 20
517.8039875059
 30
0.0
 11
415.0569698496
 21
517.8039875059
 31
0.0
  0
LINE
  5
8D
330
1F
100
AcDbEntity
  8
0
  6
Continuous
 62
     7
370
    15
100
AcDbLine
 10
415.0569698496
 20
517.8039875059
 30
0.0
 11
415.0569698496
 21
537.8039684324
 31
0.0
  0
LINE
  5
8E
330
1F
100
AcDbEntity
  8
0
  6
Continuous
 62
     7
370
    15
100
AcDbLine
 10
415.0569698496
 20
537.8039684324
 30
0.0
 11
409.5569810553
 21
537.8039684324
 31
0.0
  0
LINE
  5
8F
330
1F
100
AcDbEntity
  8
0
  6
Continuous
 62
     7
370
    15
100
AcDbLine
 10
409.5569810553
 20
475.232562068
 30
0.0
 11
409.5569810553
 21
455.2325513391
 31
0.0
  0
LINE
  5
90
330
1F
100
AcDbEntity
  8
0
  6
Continuous
 62
     7
370
    15
100
AcDbLine
 10
409.5569810553
 20
455.2325513391
 30
0.0
 11
415.0569698496
 21
455.2325513391
 31
0.0
  0
LINE
  5
91
330
1F
100
AcDbEntity
  8
0
  6
Continuous
 62
     7
370
    15
100
AcDbLine
 10
415.0569698496
 20
455.2325513391
 30
0.0
 11
415.0569698496
 21
475.232562068
 31
0.0
  0
LINE
  5
92
330
1F
100
AcDbEntity
  8
0
  6
Continuous
 62
     7
370
    15
100
AcDbLine
 10
415.0569698496
 20
475.232562068
 30
0.0
 11
409.5569810553
 21
475.232562068
 31
0.0
  0
LINE
  5
93
330
1F
100
AcDbEntity
  8
0
  6
Continuous
 62
     7
370
    15
100
AcDbLine
 10
409.5569810553
 20
412.6611259012
 30
0.0
 11
409.5569810553
 21
392.6611300735
 31
0.0
  0
LINE
  5
94
330
1F
100
AcDbEntity
  8
0
  6
Continuous
 62
     7
370
    15
100
AcDbLine
 10
409.5569810553
 20
392.6611300735
 30
0.0
 11
415.0569698496
 21
392.6611300735
 31
0.0
  0
LINE
  5
95
330
1F
100
AcDbEntity
  8
0
  6
Continuous
 62
     7
370
    15
100
AcDbLine
 10
415.0569698496
 20
392.6611300735
 30
0.0
 11
415.0569698496
 21
412.6611259012
 31
0.0
  0
LINE
  5
96
330
1F
100
AcDbEntity
  8
0
  6
Continuous
 62
     7
370
    15
100
AcDbLine
 10
415.0569698496
 20
412.6611259012
 30
0.0
 11
409.5569810553
 21
412.6611259012
 31
0.0
  0
LINE
  5
97
330
1F
100
AcDbEntity
  8
0
  6
Continuous
 62
     7
370
    15
100
AcDbLine
 10
409.5569810553
 20
350.0896897344
 30
0.0
 11
409.5569810553
 21
330.0896939068
 31
0.0
  0
LINE
  5
98
330
1F
100
AcDbEntity
  8
0
  6
Continuous
 62
     7
370
    15
100
AcDbLine
 10
409.5569810553
 20
330.0896939068
 30
0.0
 11
415.0569698496
 21
330.0896939068
 31
0.0
  0
LINE
  5
99
330
1F
100
AcDbEntity
  8
0
  6
Continuous
 62
     7
370
    15
100
AcDbLine
 10
415.0569698496
 20
330.0896939068
 30
0.0
 11
415.0569698496
 21
350.0896897344
 31
0.0
  0
LINE
  5
9A
330
1F
100
AcDbEntity
  8
0
  6
Continuous
 62
     7
370
    15
100
AcDbLine
 10
415.0569698496
 20
350.0896897344
 30
0.0
 11
409.5569810553
 21
350.0896897344
 31
0.0
  0
LINE
  5
9B
330
1F
100
AcDbEntity
  8
0
  6
Continuous
 62
     7
370
    15
100
AcDbLine
 10
409.5569810553
 20
287.5182684688
 30
0.0
 11
409.5569810553
 21
267.5182651906
 31
0.0
  0
LINE
  5
9C
330
1F
100
AcDbEntity
  8
0
  6
Continuous
 62
     7
370
    15
100
AcDbLine
 10
409.5569810553
 20
267.5182651906
 30
0.0
 11
415.0569698496
 21
267.5182651906
 31
0.0
  0
LINE
  5
9D
330
1F
100
AcDbEntity
  8
0
  6
Continuous
 62
     7
370
    15
100
AcDbLine
 10
415.0569698496
 20
267.5182651906
 30
0.0
 11
415.0569698496
 21
287.5182684688
 31
0.0
  0
LINE
  5
9E
330
1F
100
AcDbEntity
  8
0
  6
Continuous
 62
     7
370
    15
100
AcDbLine
 10
415.0569698496
 20
287.5182684688
 30
0.0
 11
409.5569810553
 21
287.5182684688
 31
0.0
  0
LINE
  5
9F
330
1F
100
AcDbEntity
  8
0
  6
Continuous
 62
     7
370
    15
100
AcDbLine
 10
409.5569810553
 20
224.9468397526
 30
0.0
 11
409.5569810553
 21
204.9468401997
 31
0.0
  0
LINE
  5
A0
330
1F
100
AcDbEntity
  8
0
  6
Continuous
 62
     7
370
    15
100
AcDbLine
 10
409.5569810553
 20
204.9468401997
 30
0.0
 11
415.0569698496
 21
204.9468401997
 31
0.0
  0
LINE
  5
A1
330
1F
100
AcDbEntity
  8
0
  6
Continuous
 62
     7
370
    15
100
AcDbLine
 10
415.0569698496
 20
204.9468401997
 30
0.0
 11
415.0569698496
 21
224.9468397526
 31
0.0
  0
LINE
  5
A2
330
1F
100
AcDbEntity
  8
0
  6
Continuous
 62
     7
370
    15
100
AcDbLine
 10
415.0569698496
 20
224.9468397526
 30
0.0
 11
409.5569810553
 21
224.9468397526
 31
0.0
  0
LINE
  5
A3
330
1F
100
AcDbEntity
  8
0
  6
Continuous
 62
     7
370
    15
100
AcDbLine
 10
26.056982456
 20
537.8039684324
 30
0.0
 11
26.056982456
 21
517.8039875059
 31
0.0
  0
LINE
  5
A4
330
1F
100
AcDbEntity
  8
0
  6
Continuous
 62
     7
370
    15
100
AcDbLine
 10
26.056982456
 20
517.8039875059
 30
0.0
 11
31.5569824262
 21
517.8039875059
 31
0.0
  0
LINE
  5
A5
330
1F
100
AcDbEntity
  8
0
  6
Continuous
 62
     7
370
    15
100
AcDbLine
 10
31.5569824262
 20
517.8039875059
 30
0.0
 11
31.5569824262
 21
537.8039684324
 31
0.0
  0
LINE
  5
A6
330
1F
100
AcDbEntity
  8
0
  6
Continuous
 62
     7
370
    15
100
AcDbLine
 10
31.5569824262
 20
537.8039684324
 30
0.0
 11
26.056982456
 21
537.8039684324
 31
0.0
  0
LINE
  5
A7
330
1F
100
AcDbEntity
  8
0
  6
Continuous
 62
     7
370
    15
100
AcDbLine
 10
26.056982456
 20
475.232562068
 30
0.0
 11
26.056982456
 21
455.2325513391
 31
0.0
  0
LINE
  5
A8
330
1F
100
AcDbEntity
  8
0
  6
Continuous
 62
     7
370
    15
100
AcDbLine
 10
26.056982456
 20
455.2325513391
 30
0.0
 11
31.5569824262
 21
455.2325513391
 31
0.0
  0
LINE
  5
A9
330
1F
100
AcDbEntity
  8
0
  6
Continuous
 62
     7
370
    15
100
AcDbLine
 10
31.5569824262
 20
455.2325513391
 30
0.0
 11
31.5569824262
 21
475.232562068
 31
0.0
  0
LINE
  5
AA
330
1F
100
AcDbEntity
  8
0
  6
Continuous
 62
     7
370
    15
100
AcDbLine
 10
31.5569824262
 20
475.232562068
 30
0.0
 11
26.056982456
 21
475.232562068
 31
0.0
  0
LINE
  5
AB
330
1F
100
AcDbEntity
  8
0
  6
Continuous
 62
     7
370
    15
100
AcDbLine
 10
26.056982456
 20
412.6611259012
 30
0.0
 11
26.056982456
 21
392.6611300735
 31
0.0
  0
LINE
  5
AC
330
1F
100
AcDbEntity
  8
0
  6
Continuous
 62
     7
370
    15
100
AcDbLine
 10
26.056982456
 20
392.6611300735
 30
0.0
 11
31.5569824262
 21
392.6611300735
 31
0.0
  0
LINE
  5
AD
330
1F
100
AcDbEntity
  8
0
  6
Continuous
 62
     7
370
    15
100
AcDbLine
 10
31.5569824262
 20
392.6611300735
 30
0.0
 11
31.5569824262
 21
412.6611259012
 31
0.0
  0
LINE
  5
AE
330
1F
100
AcDbEntity
  8
0
  6
Continuous
 62
     7
370
    15
100
AcDbLine
 10
31.5569824262
 20
412.6611259012
 30
0.0
 11
26.056982456
 21
412.6611259012
 31
0.0
  0
LINE
  5
AF
330
1F
100
AcDbEntity
  8
0
  6
Continuous
 62
     7
370
    15
100
AcDbLine
 10
26.056982456
 20
350.0896897344
 30
0.0
 11
26.056982456
 21
330.0896939068
 31
0.0
  0
LINE
  5
B0
330
1F
100
AcDbEntity
  8
0
  6
Continuous
 62
     7
370
    15
100
AcDbLine
 10
26.056982456
 20
330.0896939068
 30
0.0
 11
31.5569824262
 21
330.0896939068
 31
0.0
  0
LINE
  5
B1
330
1F
100
AcDbEntity
  8
0
  6
Continuous
 62
     7
370
    15
100
AcDbLine
 10
31.5569824262
 20
330.0896939068
 30
0.0
 11
31.5569824262
 21
350.0896897344
 31
0.0
  0
LINE
  5
B2
330
1F
100
AcDbEntity
  8
0
  6
Continuous
 62
     7
370
    15
100
AcDbLine
 10
31.5569824262
 20
350.0896897344
 30
0.0
 11
26.056982456
 21
350.0896897344
 31
0.0
  0
LINE
  5
B3
330
1F
100
AcDbEntity
  8
0
  6
Continuous
 62
     7
370
    15
100
AcDbLine
 10
26.056982456
 20
287.5182684688
 30
0.0
 11
26.056982456
 21
267.5182651906
 31
0.0
  0
LINE
  5
B4
330
1F
100
AcDbEntity
  8
0
  6
Continuous
 62
     7
370
    15
100
AcDbLine
 10
26.056982456
 20
267.5182651906
 30
0.0
 11
31.5569824262
 21
267.5182651906
 31
0.0
  0
LINE
  5
B5
330
1F
100
AcDbEntity
  8
0
  6
Continuous
 62
     7
370
    15
100
AcDbLine
 10
31.5569824262
 20
267.5182651906
 30
0.0
 11
31.5569824262
 21
287.5182684688
 31
0.0
  0
LINE
  5
B6
330
1F
100
AcDbEntity
  8
0
  6
Continuous
 62
     7
370
    15
100
AcDbLine
 10
31.5569824262
 20
287.5182684688
 30
0.0
 11
26.056982456
 21
287.5182684688
 31
0.0
  0
LINE
  5
B7
330
1F
100
AcDbEntity
  8
0
  6
Continuous
 62
     7
370
    15
100
AcDbLine
 10
26.056982456
 20
224.9468397526
 30
0.0
 11
26.056982456
 21
204.9468401997
 31
0.0
  0
LINE
  5
B8
330
1F
100
AcDbEntity
  8
0
  6
Continuous
 62
     7
370
    15
100
AcDbLine
 10
26.056982456
 20
204.9468401997
 30
0.0
 11
31.5569824262
 21
204.9468401997
 31
0.0
  0
LINE
  5
B9
330
1F
100
AcDbEntity
  8
0
  6
Continuous
 62
     7
370
    15
100
AcDbLine
 10
31.5569824262
 20
204.9468401997
 30
0.0
 11
31.5569824262
 21
224.9468397526
 31
0.0
  0
LINE
  5
BA
330
1F
100
AcDbEntity
  8
0
  6
Continuous
 62
     7
370
    15
100
AcDbLine
 10
31.5569824262
 20
224.9468397526
 30
0.0
 11
26.056982456
 21
224.9468397526
 31
0.0
  0
CIRCLE
  5
BB
330
1F
100
AcDbEntity
  8
0
  6
Continuous
 62
     7
370
    15
100
AcDbCircle
 10
28.8069824858
 20
559.0896967508
 30
0.0
 40
1.5
  0
CIRCLE
  5
BC
330
1F
100
AcDbEntity
  8
0
  6
Continuous
 62
     7
370
    15
100
AcDbCircle
 10
106.8426967715
 20
572.1254110365
 30
0.0
 40
1.5
  0
CIRCLE
  5
BD
330
1F
100
AcDbEntity
  8
0
  6
Continuous
 62
     7
370
    15
100
AcDbCircle
 10
220.5569824858
 20
572.1254110365
 30
0.0
 40
1.5
  0
CIRCLE
  5
BE
330
1F
100
AcDbEntity
  8
0
  6
Continuous
 62
     7
370
    15
100
AcDbCircle
 10
220.5569824858
 20
255.6254110365
 30
0.0
 40
1.5
  0
CIRCLE
  5
BF
330
1F
100
AcDbEntity
  8
0
  6
Continuous
 62
     7
370
    15
100
AcDbCircle
 10
106.8426967715
 20
255.6254110365
 30
0.0
 40
1.500000000000014
  0
CIRCLE
  5
C0
330
1F
100
AcDbEntity
  8
0
  6
Continuous
 62
     7
370
    15
100
AcDbCircle
 10
28.8069824858
 20
371.3754110365
 30
0.0
 40
1.5
  0
CIRCLE
  5
C1
330
1F
100
AcDbEntity
  8
0
  6
Continuous
 62
     7
370
    15
100
AcDbCircle
 10
28.8069824858
 20
183.6611253222
 30
0.0
 40
1.5
  0
CIRCLE
  5
C2
330
1F
100
AcDbEntity
  8
0
  6
Continuous
 62
     7
370
    15
100
AcDbCircle
 10
412.3069824858
 20
183.6611253222
 30
0.0
 40
1.499999999999943
  0
CIRCLE
  5
C3
330
1F
100
AcDbEntity
  8
0
  6
Continuous
 62
     7
370
    15
100
AcDbCircle
 10
412.3069824858
 20
371.3754110365
 30
0.0
 40
1.499999999999943
  0
CIRCLE
  5
C4
330
1F
100
AcDbEntity
  8
0
  6
Continuous
 62
     7
370
    15
100
AcDbCircle
 10
334.2712682001
 20
255.6254110365
 30
0.0
 40
1.500000000000057
  0
CIRCLE
  5
C5
330
1F
100
AcDbEntity
  8
0
  6
Continuous
 62
     7
370
    15
100
AcDbCircle
 10
334.2712682001
 20
572.1254110365
 30
0.0
 40
1.499999999999943
  0
CIRCLE
  5
C6
330
1F
100
AcDbEntity
  8
0
  6
Continuous
 62
     7
370
    15
100
AcDbCircle
 10
412.3069824858
 20
559.0896967508
 30
0.0
 40
1.499999999999943
  0
CIRCLE
  5
C7
330
1F
100
AcDbEntity
  8
0
  6
Continuous
 62
     7
370
    15
100
AcDbCircle
 10
390.4569824858
 20
555.3754110365
 30
0.0
 40
1.499999999999943
  0
CIRCLE
  5
C8
330
1F
100
AcDbEntity
  8
0
  6
Continuous
 62
     7
370
    15
100
AcDbCircle
 10
381.796728448
 20
560.3754110365
 30
0.0
 40
1.499999999999943
  0
CIRCLE
  5
C9
330
1F
100
AcDbEntity
  8
0
  6
Continuous
 62
     7
370
    15
100
AcDbCircle
 10
390.4569824858
 20
545.3754110365
 30
0.0
 40
1.499999999999943
  0
CIRCLE
  5
CA
330
1F
100
AcDbEntity
  8
0
  6
Continuous
 62
     7
370
    15
100
AcDbCircle
 10
399.1172365237
 20
560.3754110365
 30
0.0
 40
1.499999999999943
  0
CIRCLE
  5
CB
330
1F
100
AcDbEntity
  8
0
  6
Continuous
 62
     7
370
    15
100
AcDbCircle
 10
390.4569824858
 20
495.3754110365
 30
0.0
 40
1.499999999999943
  0
CIRCLE
  5
CC
330
1F
100
AcDbEntity
  8
0
  6
Continuous
 62
     7
370
    15
100
AcDbCircle
 10
381.796728448
 20
490.3754110365
 30
0.0
 40
1.499999999999943
  0
CIRCLE
  5
CD
330
1F
100
AcDbEntity
  8
0
  6
Continuous
 62
     7
370
    15
100
AcDbCircle
 10
390.4569824858
 20
505.3754110365
 30
0.0
 40
1.499999999999943
  0
CIRCLE
  5
CE
330
1F
100
AcDbEntity
  8
0
  6
Continuous
 62
     7
370
    15
100
AcDbCircle
 10
399.1172365237
 20
490.3754110365
 30
0.0
 40
1.500000000000057
  0
CIRCLE
  5
CF
330
1F
100
AcDbEntity
  8
0
  6
Continuous
 62
     7
370
    15
100
AcDbCircle
 10
50.6569824858
 20
495.3754110365
 30
0.0
 40
1.5
  0
CIRCLE
  5
D0
330
1F
100
AcDbEntity
  8
0
  6
Continuous
 62
     7
370
    15
100
AcDbCircle
 10
50.6569824858
 20
505.3754110365
 30
0.0
 40
1.500000000000028
  0
CIRCLE
  5
D1
330
1F
100
AcDbEntity
  8
0
  6
Continuous
 62
     7
370
    15
100
AcDbCircle
 10
41.996728448
 20
490.3754110365
 30
0.0
 40
1.5
  0
CIRCLE
  5
D2
330
1F
100
AcDbEntity
  8
0
  6
Continuous
 62
     7
370
    15
100
AcDbCircle
 10
59.3172365237
 20
490.3754110365
 30
0.0
 40
1.500000000000007
  0
CIRCLE
  5
D3
330
1F
100
AcDbEntity
  8
0
  6
Continuous
 62
     7
370
    15
100
AcDbCircle
 10
50.6569824858
 20
555.3754110365
 30
0.0
 40
1.5
  0
CIRCLE
  5
D4
330
1F
100
AcDbEntity
  8
0
  6
Continuous
 62
     7
370
    15
100
AcDbCircle
 10
41.996728448
 20
560.3754110365
 30
0.0
 40
1.5
  0
CIRCLE
  5
D5
330
1F
100
AcDbEntity
  8
0
  6
Continuous
 62
     7
370
    15
100
AcDbCircle
 10
59.3172365237
 20
560.3754110365
 30
0.0
 40
1.499999999999972
  0
CIRCLE
  5
D6
330
1F
100
AcDbEntity
  8
0
  6
Continuous
 62
     7
370
    15
100
AcDbCircle
 10
50.6569824858
 20
545.3754110365
 30
0.0
 40
1.5
  0
LINE
  5
D7
330
1F
100
AcDbEntity
  8
0
  6
Continuous
 62
     7
370
    15
100
AcDbLine
 10
242.056976883
 20
228.3754106788
 30
0.0
 11
242.056976883
 21
208.3754111259
 31
0.0
  0
LINE
  5
D8
330
1F
100
AcDbEntity
  8
0
  6
Continuous
 62
     7
370
    15
100
AcDbLine
 10
242.056976883
 20
208.3754111259
 30
0.0
 11
247.5569805785
 21
208.3754111259
 31
0.0
  0
LINE
  5
D9
330
1F
100
AcDbEntity
  8
0
  6
Continuous
 62
     7
370
    15
100
AcDbLine
 10
247.5569805785
 20
208.3754111259
 30
0.0
 11
247.5569805785
 21
228.3754106788
 31
0.0
  0
LINE
  5
DA
330
1F
100
AcDbEntity
  8
0
  6
Continuous
 62
     7
370
    15
100
AcDbLine
 10
247.5569805785
 20
228.3754106788
 30
0.0
 11
242.056976883
 21
228.3754106788
 31
0.0
  0
LINE
  5
DB
330
1F
100
AcDbEntity
  8
0
  6
Continuous
 62
     7
370
    15
100
AcDbLine
 10
193.5569754525
 20
228.3754106788
 30
0.0
 11
193.5569754525
 21
208.3754111259
 31
0.0
  0
LINE
  5
DC
330
1F
100
AcDbEntity
  8
0
  6
Continuous
 62
     7
370
    15
100
AcDbLine
 10
193.5569754525
 20
208.3754111259
 30
0.0
 11
199.0569791479
 21
208.3754111259
 31
0.0
  0
LINE
  5
DD
330
1F
100
AcDbEntity
  8
0
  6
Continuous
 62
     7
370
    15
100
AcDbLine
 10
199.0569791479
 20
208.3754111259
 30
0.0
 11
199.0569791479
 21
228.3754106788
 31
0.0
  0
LINE
  5
DE
330
1F
100
AcDbEntity
  8
0
  6
Continuous
 62
     7
370
    15
100
AcDbLine
 10
199.0569791479
 20
228.3754106788
 30
0.0
 11
193.5569754525
 21
228.3754106788
 31
0.0
  0
LINE
  5
DF
330
1F
100
AcDbEntity
  8
0
  6
Continuous
 62
     7
370
    15
100
AcDbLine
 10
328.4569940253
 20
356.3754167585
 30
0.0
 11
328.4569940253
 21
387.375405076
 31
0.0
  0
LINE
  5
E0
330
1F
100
AcDbEntity
  8
0
  6
Continuous
 62
     7
370
    15
100
AcDbLine
 10
334.1569862051
 20
356.3754167585
 30
0.0
 11
328.4569940253
 21
356.3754167585
 31
0.0
  0
LINE
  5
E1
330
1F
100
AcDbEntity
  8
0
  6
Continuous
 62
     7
370
    15
100
AcDbLine
 10
334.1569862051
 20
387.375405076
 30
0.0
 11
334.1569862051
 21
356.3754167585
 31
0.0
  0
LINE
  5
E2
330
1F
100
AcDbEntity
  8
0
  6
Continuous
 62
     7
370
    15
100
AcDbLine
 10
328.4569940253
 20
387.375405076
 30
0.0
 11
334.1569862051
 21
387.375405076
 31
0.0
  0
LINE
  5
E3
330
1F
100
AcDbEntity
  8
0
  6
Continuous
 62
     7
370
    15
100
AcDbLine
 10
328.4569940253
 20
285.3754144339
 30
0.0
 11
328.4569940253
 21
316.375410202
 31
0.0
  0
LINE
  5
E4
330
1F
100
AcDbEntity
  8
0
  6
Continuous
 62
     7
370
    15
100
AcDbLine
 10
334.1569862051
 20
285.3754144339
 30
0.0
 11
328.4569940253
 21
285.3754144339
 31
0.0
  0
LINE
  5
E5
330
1F
100
AcDbEntity
  8
0
  6
Continuous
 62
     7
370
    15
100
AcDbLine
 10
334.1569862051
 20
316.375410202
 30
0.0
 11
334.1569862051
 21
285.3754144339
 31
0.0
  0
LINE
  5
E6
330
1F
100
AcDbEntity
  8
0
  6
Continuous
 62
     7
370
    15
100
AcDbLine
 10
328.4569940253
 20
316.375410202
 30
0.0
 11
334.1569862051
 21
316.375410202
 31
0.0
  0
LINE
  5
E7
330
1F
100
AcDbEntity
  8
0
  6
Continuous
 62
     7
370
    15
100
AcDbLine
 10
312.6569947882
 20
285.3754144339
 30
0.0
 11
306.956972806
 21
285.3754144339
 31
0.0
  0
LINE
  5
E8
330
1F
100
AcDbEntity
  8
0
  6
Continuous
 62
     7
370
    15
100
AcDbLine
 10
312.6569947882
 20
316.375410202
 30
0.0
 11
312.6569947882
 21
285.3754144339
 31
0.0
  0
LINE
  5
E9
330
1F
100
AcDbEntity
  8
0
  6
Continuous
 62
     7
370
    15
100
AcDbLine
 10
306.956972806
 20
316.375410202
 30
0.0
 11
312.6569947882
 21
316.375410202
 31
0.0
  0
LINE
  5
EA
330
1F
100
AcDbEntity
  8
0
  6
Continuous
 62
     7
370
    15
100
AcDbLine
 10
306.956972806
 20
285.3754144339
 30
0.0
 11
306.956972806
 21
316.375410202
 31
0.0
  0
LINE
  5
EB
330
1F
100
AcDbEntity
  8
0
  6
Continuous
 62
     7
370
    15
100
AcDbLine
 10
312.6569947882
 20
356.3754167585
 30
0.0
 11
306.956972806
 21
356.3754167585
 31
0.0
  0
LINE
  5
EC
330
1F
100
AcDbEntity
  8
0
  6
Continuous
 62
     7
370
    15
100
AcDbLine
 10
312.6569947882
 20
387.375405076
 30
0.0
 11
312.6569947882
 21
356.3754167585
 31
0.0
  0
LINE
  5
ED
330
1F
100
AcDbEntity
  8
0
  6
Continuous
 62
     7
370
    15
100
AcDbLine
 10
306.956972806
 20
387.375405076
 30
0.0
 11
312.6569947882
 21
387.375405076
 31
0.0
  0
LINE
  5
EE
330
1F
100
AcDbEntity
  8
0
  6
Continuous
 62
     7
370
    15
100
AcDbLine
 10
306.956972806
 20
356.3754167585
 30
0.0
 11
306.956972806
 21
387.375405076
 31
0.0
  0
LINE
  5
EF
330
1F
100
AcDbEntity
  8
0
  6
Continuous
 62
     7
370
    15
100
AcDbLine
 10
128.4569835945
 20
356.3754167585
 30
0.0
 11
128.4569835945
 21
387.375405076
 31
0.0
  0
LINE
  5
F0
330
1F
100
AcDbEntity
  8
0
  6
Continuous
 62
     7
370
    15
100
AcDbLine
 10
134.1569832249
 20
356.3754167585
 30
0.0
 11
128.4569835945
 21
356.3754167585
 31
0.0
  0
LINE
  5
F1
330
1F
100
AcDbEntity
  8
0
  6
Continuous
 62
     7
370
    15
100
AcDbLine
 10
134.1569832249
 20
387.375405076
 30
0.0
 11
134.1569832249
 21
356.3754167585
 31
0.0
  0
LINE
  5
F2
330
1F
100
AcDbEntity
  8
0
  6
Continuous
 62
     7
370
    15
100
AcDbLine
 10
128.4569835945
 20
387.375405076
 30
0.0
 11
134.1569832249
 21
387.375405076
 31
0.0
  0
LINE
  5
F3
330
1F
100
AcDbEntity
  8
0
  6
Continuous
 62
     7
370
    15
100
AcDbLine
 10
128.4569835945
 20
285.3754144339
 30
0.0
 11
128.4569835945
 21
316.375410202
 31
0.0
  0
LINE
  5
F4
330
1F
100
AcDbEntity
  8
0
  6
Continuous
 62
     7
370
    15
100
AcDbLine
 10
134.1569832249
 20
285.3754144339
 30
0.0
 11
128.4569835945
 21
285.3754144339
 31
0.0
  0
LINE
  5
F5
330
1F
100
AcDbEntity
  8
0
  6
Continuous
 62
     7
370
    15
100
AcDbLine
 10
134.1569832249
 20
316.375410202
 30
0.0
 11
134.1569832249
 21
285.3754144339
 31
0.0
  0
LINE
  5
F6
330
1F
100
AcDbEntity
  8
0
  6
Continuous
 62
     7
370
    15
100
AcDbLine
 10
128.4569835945
 20
316.375410202
 30
0.0
 11
134.1569832249
 21
316.375410202
 31
0.0
  0
LINE
  5
F7
330
1F
100
AcDbEntity
  8
0
  6
Continuous
 62
     7
370
    15
100
AcDbLine
 10
112.6569843574
 20
285.3754144339
 30
0.0
 11
106.9569847269
 21
285.3754144339
 31
0.0
  0
LINE
  5
F8
330
1F
100
AcDbEntity
  8
0
  6
Continuous
 62
     7
370
    15
100
AcDbLine
 10
112.6569843574
 20
316.375410202
 30
0.0
 11
112.6569843574
 21
285.3754144339
 31
0.0
  0
LINE
  5
F9
330
1F
100
AcDbEntity
  8
0
  6
Continuous
 62
     7
370
    15
100
AcDbLine
 10
106.9569847269
 20
316.375410202
 30
0.0
 11
112.6569843574
 21
316.375410202
 31
0.0
  0
LINE
  5
FA
330
1F
100
AcDbEntity
  8
0
  6
Continuous
 62
     7
370
    15
100
AcDbLine
 10
106.9569847269
 20
285.3754144339
 30
0.0
 11
106.9569847269
 21
316.375410202
 31
0.0
  0
LINE
  5
FB
330
1F
100
AcDbEntity
  8
0
  6
Continuous
 62
     7
370
    15
100
AcDbLine
 10
112.6569843574
 20
356.3754167585
 30
0.0
 11
106.9569847269
 21
356.3754167585
 31
0.0
  0
LINE
  5
FC
330
1F
100
AcDbEntity
  8
0
  6
Continuous
 62
     7
370
    15
100
AcDbLine
 10
112.6569843574
 20
387.375405076
 30
0.0
 11
112.6569843574
 21
356.3754167585
 31
0.0
  0
LINE
  5
FD
330
1F
100
AcDbEntity
  8
0
  6
Continuous
 62
     7
370
    15
100
AcDbLine
 10
106.9569847269
 20
387.375405076
 30
0.0
 11
112.6569843574
 21
387.375405076
 31
0.0
  0
LINE
  5
FE
330
1F
100
AcDbEntity
  8
0
  6
Continuous
 62
     7
370
    15
100
AcDbLine
 10
106.9569847269
 20
356.3754167585
 30
0.0
 11
106.9569847269
 21
387.375405076
 31
0.0
  0
LINE
  5
FF
330
1F
100
AcDbEntity
  8
0
  6
Continuous
 62
     7
370
    15
100
AcDbLine
 10
336.5569970293
 20
500.3754105596
 30
0.0
 11
336.5569970293
 21
498.3754065065
 31
0.0
  0
LINE
  5
100
330
1F
100
AcDbEntity
  8
0
  6
Continuous
 62
     7
370
    15
100
AcDbLine
 10
336.5569970293
 20
498.3754065065
 30
0.0
 11
340.5569753332
 21
498.3754065065
 31
0.0
  0
LINE
  5
101
330
1F
100
AcDbEntity
  8
0
  6
Continuous
 62
     7
370
    15
100
AcDbLine
 10
340.5569753332
 20
498.3754065065
 30
0.0
 11
340.5569753332
 21
500.3754105596
 31
0.0
  0
LINE
  5
102
330
1F
100
AcDbEntity
  8
0
  6
Continuous
 62
     7
370
    15
100
AcDbLine
 10
340.5569753332
 20
500.3754105596
 30
0.0
 11
336.5569970293
 21
500.3754105596
 31
0.0
  0
LINE
  5
103
330
1F
100
AcDbEntity
  8
0
  6
Continuous
 62
     7
370
    15
100
AcDbLine
 10
336.5569970293
 20
488.3754160433
 30
0.0
 11
336.5569970293
 21
486.3754119901
 31
0.0
  0
LINE
  5
104
330
1F
100
AcDbEntity
  8
0
  6
Continuous
 62
     7
370
    15
100
AcDbLine
 10
336.5569970293
 20
486.3754119901
 30
0.0
 11
340.5569753332
 21
486.3754119901
 31
0.0
  0
LINE
  5
105
330
1F
100
AcDbEntity
  8
0
  6
Continuous
 62
     7
370
    15
100
AcDbLine
 10
340.5569753332
 20
486.3754119901
 30
0.0
 11
340.5569753332
 21
488.3754160433
 31
0.0
  0
LINE
  5
106
330
1F
100
AcDbEntity
  8
0
  6
Continuous
 62
     7
370
    15
100
AcDbLine
 10
340.5569753332
 20
488.3754160433
 30
0.0
 11
336.5569970293
 21
488.3754160433
 31
0.0
  0
LINE
  5
107
330
1F
100
AcDbEntity
  8
0
  6
Continuous
 62
     7
370
    15
100
AcDbLine
 10
100.5569806977
 20
486.3754119901
 30
0.0
 11
104.5569813533
 21
486.3754119901
 31
0.0
  0
LINE
  5
108
330
1F
100
AcDbEntity
  8
0
  6
Continuous
 62
     7
370
    15
100
AcDbLine
 10
104.5569813533
 20
486.3754119901
 30
0.0
 11
104.5569813533
 21
488.3754160433
 31
0.0
  0
LINE
  5
109
330
1F
100
AcDbEntity
  8
0
  6
Continuous
 62
     7
370
    15
100
AcDbLine
 10
104.5569813533
 20
488.3754160433
 30
0.0
 11
100.5569806977
 21
488.3754160433
 31
0.0
  0
LINE
  5
10A
330
1F
100
AcDbEntity
  8
0
  6
Continuous
 62
     7
370
    15
100
AcDbLine
 10
100.5569806977
 20
488.3754160433
 30
0.0
 11
100.5569806977
 21
486.3754119901
 31
0.0
  0
LINE
  5
10B
330
1F
100
AcDbEntity
  8
0
  6
Continuous
 62
     7
370
    15
100
AcDbLine
 10
100.5569806977
 20
498.3754065065
 30
0.0
 11
104.5569813533
 21
498.3754065065
 31
0.0
  0
LINE
  5
10C
330
1F
100
AcDbEntity
  8
0
  6
Continuous
 62
     7
370
    15
100
AcDbLine
 10
104.5569813533
 20
498.3754065065
 30
0.0
 11
104.5569813533
 21
500.3754105596
 31
0.0
  0
LINE
  5
10D
330
1F
100
AcDbEntity
  8
0
  6
Continuous
 62
     7
370
    15
100
AcDbLine
 10
104.5569813533
 20
500.3754105596
 30
0.0
 11
100.5569806977
 21
500.3754105596
 31
0.0
  0
LINE
  5
10E
330
1F
100
AcDbEntity
  8
0
  6
Continuous
 62
     7
370
    15
100
AcDbLine
 10
100.5569806977
 20
500.3754105596
 30
0.0
 11
100.5569806977
 21
498.3754065065
 31
0.0
  0
LINE
  5
10F
330
1F
100
AcDbEntity
  8
0
  6
Continuous
 62
     7
370
    15
100
AcDbLine
 10
338.3069893999
 20
417.6769759683
 30
0.0
 11
338.3069893999
 21
413.6769678621
 31
0.0
  0
LINE
  5
110
330
1F
100
AcDbEntity
  8
0
  6
Continuous
 62
     7
370
    15
100
AcDbLine
 10
338.3069893999
 20
413.6769678621
 30
0.0
 11
340.3069934531
 21
413.6769678621
 31
0.0
  0
LINE
  5
111
330
1F
100
AcDbEntity
  8
0
  6
Continuous
 62
     7
370
    15
100
AcDbLine
 10
340.3069934531
 20
413.6769678621
 30
0.0
 11
340.3069934531
 21
417.6769759683
 31
0.0
  0
LINE
  5
112
330
1F
100
AcDbEntity
  8
0
  6
Continuous
 62
     7
370
    15
100
AcDbLine
 10
340.3069934531
 20
417.6769759683
 30
0.0
 11
338.3069893999
 21
417.6769759683
 31
0.0
  0
LINE
  5
113
330
1F
100
AcDbEntity
  8
0
  6
Continuous
 62
     7
370
    15
100
AcDbLine
 10
321.3069698496
 20
417.6769759683
 30
0.0
 11
321.3069698496
 21
413.6769678621
 31
0.0
  0
LINE
  5
114
330
1F
100
AcDbEntity
  8
0
  6
Continuous
 62
     7
370
    15
100
AcDbLine
 10
321.3069698496
 20
413.6769678621
 30
0.0
 11
323.3069739027
 21
413.6769678621
 31
0.0
  0
LINE
  5
115
330
1F
100
AcDbEntity
  8
0
  6
Continuous
 62
     7
370
    15
100
AcDbLine
 10
323.3069739027
 20
413.6769678621
 30
0.0
 11
323.3069739027
 21
417.6769759683
 31
0.0
  0
LINE
  5
116
330
1F
100
AcDbEntity
  8
0
  6
Continuous
 62
     7
370
    15
100
AcDbLine
 10
323.3069739027
 20
417.6769759683
 30
0.0
 11
321.3069698496
 21
417.6769759683
 31
0.0
  0
LINE
  5
117
330
1F
100
AcDbEntity
  8
0
  6
Continuous
 62
     7
370
    15
100
AcDbLine
 10
397.5569865389
 20
384.6611287622
 30
0.0
 11
397.5569865389
 21
380.661120656
 31
0.0
  0
LINE
  5
118
330
1F
100
AcDbEntity
  8
0
  6
Continuous
 62
     7
370
    15
100
AcDbLine
 10
397.5569865389
 20
380.661120656
 30
0.0
 11
399.556990592
 21
380.661120656
 31
0.0
  0
LINE
  5
119
330
1F
100
AcDbEntity
  8
0
  6
Continuous
 62
     7
370
    15
100
AcDbLine
 10
399.556990592
 20
380.661120656
 30
0.0
 11
399.556990592
 21
384.6611287622
 31
0.0
  0
LINE
  5
11A
330
1F
100
AcDbEntity
  8
0
  6
Continuous
 62
     7
370
    15
100
AcDbLine
 10
399.556990592
 20
384.6611287622
 30
0.0
 11
397.5569865389
 21
384.6611287622
 31
0.0
  0
LINE
  5
11B
330
1F
100
AcDbEntity
  8
0
  6
Continuous
 62
     7
370
    15
100
AcDbLine
 10
380.5569967909
 20
384.6611287622
 30
0.0
 11
380.5569967909
 21
380.661120656
 31
0.0
  0
LINE
  5
11C
330
1F
100
AcDbEntity
  8
0
  6
Continuous
 62
     7
370
    15
100
AcDbLine
 10
380.5569967909
 20
380.661120656
 30
0.0
 11
382.5569710417
 21
380.661120656
 31
0.0
  0
LINE
  5
11D
330
1F
100
AcDbEntity
  8
0
  6
Continuous
 62
     7
370
    15
100
AcDbLine
 10
382.5569710417
 20
380.661120656
 30
0.0
 11
382.5569710417
 21
384.6611287622
 31
0.0
  0
LINE
  5
11E
330
1F
100
AcDbEntity
  8
0
  6
Continuous
 62
     7
370
    15
100
AcDbLine
 10
382.5569710417
 20
384.6611287622
 30
0.0
 11
380.5569967909
 21
384.6611287622
 31
0.0
  0
LINE
  5
11F
330
1F
100
AcDbEntity
  8
0
  6
Continuous
 62
     7
370
    15
100
AcDbLine
 10
397.5569865389
 20
304.6611305504
 30
0.0
 11
397.5569865389
 21
300.6611224441
 31
0.0
  0
LINE
  5
120
330
1F
100
AcDbEntity
  8
0
  6
Continuous
 62
     7
370
    15
100
AcDbLine
 10
397.5569865389
 20
300.6611224441
 30
0.0
 11
399.556990592
 21
300.6611224441
 31
0.0
  0
LINE
  5
121
330
1F
100
AcDbEntity
  8
0
  6
Continuous
 62
     7
370
    15
100
AcDbLine
 10
399.556990592
 20
300.6611224441
 30
0.0
 11
399.556990592
 21
304.6611305504
 31
0.0
  0
LINE
  5
122
330
1F
100
AcDbEntity
  8
0
  6
Continuous
 62
     7
370
    15
100
AcDbLine
 10
399.556990592
 20
304.6611305504
 30
0.0
 11
397.5569865389
 21
304.6611305504
 31
0.0
  0
LINE
  5
123
330
1F
100
AcDbEntity
  8
0
  6
Continuous
 62
     7
370
    15
100
AcDbLine
 10
380.5569967909
 20
300.6611224441
 30
0.0
 11
382.5569710417
 21
300.6611224441
 31
0.0
  0
LINE
  5
124
330
1F
100
AcDbEntity
  8
0
  6
Continuous
 62
     7
370
    15
100
AcDbLine
 10
382.5569710417
 20
300.6611224441
 30
0.0
 11
382.5569710417
 21
304.6611305504
 31
0.0
  0
LINE
  5
125
330
1F
100
AcDbEntity
  8
0
  6
Continuous
 62
     7
370
    15
100
AcDbLine
 10
382.5569710417
 20
304.6611305504
 30
0.0
 11
380.5569967909
 21
304.6611305504
 31
0.0
  0
LINE
  5
126
330
1F
100
AcDbEntity
  8
0
  6
Continuous
 62
     7
370
    15
100
AcDbLine
 10
380.5569967909
 20
304.6611305504
 30
0.0
 11
380.5569967909
 21
300.6611224441
 31
0.0
  0
LINE
  5
127
330
1F
100
AcDbEntity
  8
0
  6
Continuous
 62
     7
370
    15
100
AcDbLine
 10
60.5569815917
 20
300.6611224441
 30
0.0
 11
60.5569815917
 21
304.6611305504
 31
0.0
  0
LINE
  5
128
330
1F
100
AcDbEntity
  8
0
  6
Continuous
 62
     7
370
    15
100
AcDbLine
 10
60.5569815917
 20
304.6611305504
 30
0.0
 11
58.5569812639
 21
304.6611305504
 31
0.0
  0
LINE
  5
129
330
1F
100
AcDbEntity
  8
0
  6
Continuous
 62
     7
370
    15
100
AcDbLine
 10
58.5569812639
 20
304.6611305504
 30
0.0
 11
58.5569812639
 21
300.6611224441
 31
0.0
  0
LINE
  5
12A
330
1F
100
AcDbEntity
  8
0
  6
Continuous
 62
     7
370
    15
100
AcDbLine
 10
58.5569812639
 20
300.6611224441
 30
0.0
 11
60.5569815917
 21
300.6611224441
 31
0.0
  0
LINE
  5
12B
330
1F
100
AcDbEntity
  8
0
  6
Continuous
 62
     7
370
    15
100
AcDbLine
 10
43.5569825305
 20
300.6611224441
 30
0.0
 11
43.5569825305
 21
304.6611305504
 31
0.0
  0
LINE
  5
12C
330
1F
100
AcDbEntity
  8
0
  6
Continuous
 62
     7
370
    15
100
AcDbLine
 10
43.5569825305
 20
304.6611305504
 30
0.0
 11
41.5569822027
 21
304.6611305504
 31
0.0
  0
LINE
  5
12D
330
1F
100
AcDbEntity
  8
0
  6
Continuous
 62
     7
370
    15
100
AcDbLine
 10
41.5569822027
 20
304.6611305504
 30
0.0
 11
41.5569822027
 21
300.6611224441
 31
0.0
  0
LINE
  5
12E
330
1F
100
AcDbEntity
  8
0
  6
Continuous
 62
     7
370
    15
100
AcDbLine
 10
41.5569822027
 20
300.6611224441
 30
0.0
 11
43.5569825305
 21
300.6611224441
 31
0.0
  0
LINE
  5
12F
330
1F
100
AcDbEntity
  8
0
  6
Continuous
 62
     7
370
    15
100
AcDbLine
 10
58.5569812639
 20
380.661120656
 30
0.0
 11
60.5569815917
 21
380.661120656
 31
0.0
  0
LINE
  5
130
330
1F
100
AcDbEntity
  8
0
  6
Continuous
 62
     7
370
    15
100
AcDbLine
 10
60.5569815917
 20
380.661120656
 30
0.0
 11
60.5569815917
 21
384.6611287622
 31
0.0
  0
LINE
  5
131
330
1F
100
AcDbEntity
  8
0
  6
Continuous
 62
     7
370
    15
100
AcDbLine
 10
60.5569815917
 20
384.6611287622
 30
0.0
 11
58.5569812639
 21
384.6611287622
 31
0.0
  0
LINE
  5
132
330
1F
100
AcDbEntity
  8
0
  6
Continuous
 62
     7
370
    15
100
AcDbLine
 10
58.5569812639
 20
384.6611287622
 30
0.0
 11
58.5569812639
 21
380.661120656
 31
0.0
  0
LINE
  5
133
330
1F
100
AcDbEntity
  8
0
  6
Continuous
 62
     7
370
    15
100
AcDbLine
 10
41.5569822027
 20
380.661120656
 30
0.0
 11
43.5569825305
 21
380.661120656
 31
0.0
  0
LINE
  5
134
330
1F
100
AcDbEntity
  8
0
  6
Continuous
 62
     7
370
    15
100
AcDbLine
 10
43.5569825305
 20
380.661120656
 30
0.0
 11
43.5569825305
 21
384.6611287622
 31
0.0
  0
LINE
  5
135
330
1F
100
AcDbEntity
  8
0
  6
Continuous
 62
     7
370
    15
100
AcDbLine
 10
43.5569825305
 20
384.6611287622
 30
0.0
 11
41.5569822027
 21
384.6611287622
 31
0.0
  0
LINE
  5
136
330
1F
100
AcDbEntity
  8
0
  6
Continuous
 62
     7
370
    15
100
AcDbLine
 10
41.5569822027
 20
384.6611287622
 30
0.0
 11
41.5569822027
 21
380.661120656
 31
0.0
  0
LINE
  5
137
330
1F
100
AcDbEntity
  8
0
  6
Continuous
 62
     7
370
    15
100
AcDbLine
 10
117.8069821282
 20
413.6769678621
 30
0.0
 11
119.8069861813
 21
413.6769678621
 31
0.0
  0
LINE
  5
138
330
1F
100
AcDbEntity
  8
0
  6
Continuous
 62
     7
370
    15
100
AcDbLine
 10
119.8069861813
 20
413.6769678621
 30
0.0
 11
119.8069861813
 21
417.6769759683
 31
0.0
  0
LINE
  5
139
330
1F
100
AcDbEntity
  8
0
  6
Continuous
 62
     7
370
    15
100
AcDbLine
 10
119.8069861813
 20
417.6769759683
 30
0.0
 11
117.8069821282
 21
417.6769759683
 31
0.0
  0
LINE
  5
13A
330
1F
100
AcDbEntity
  8
0
  6
Continuous
 62
     7
370
    15
100
AcDbLine
 10
117.8069821282
 20
417.6769759683
 30
0.0
 11
117.8069821282
 21
413.6769678621
 31
0.0
  0
LINE
  5
13B
330
1F
100
AcDbEntity
  8
0
  6
Continuous
 62
     7
370
    15
100
AcDbLine
 10
100.8069849296
 20
413.6769678621
 30
0.0
 11
102.8069815321
 21
413.6769678621
 31
0.0
  0
LINE
  5
13C
330
1F
100
AcDbEntity
  8
0
  6
Continuous
 62
     7
370
    15
100
AcDbLine
 10
102.8069815321
 20
413.6769678621
 30
0.0
 11
102.8069815321
 21
417.6769759683
 31
0.0
  0
LINE
  5
13D
330
1F
100
AcDbEntity
  8
0
  6
Continuous
 62
     7
370
    15
100
AcDbLine
 10
102.8069815321
 20
417.6769759683
 30
0.0
 11
100.8069849296
 21
417.6769759683
 31
0.0
  0
LINE
  5
13E
330
1F
100
AcDbEntity
  8
0
  6
Continuous
 62
     7
370
    15
100
AcDbLine
 10
100.8069849296
 20
417.6769759683
 30
0.0
 11
100.8069849296
 21
413.6769678621
 31
0.0
  0
CIRCLE
  5
13F
330
1F
100
AcDbEntity
  8
0
  6
Continuous
 62
     7
370
    15
100
AcDbCircle
 10
220.5569824858
 20
500.3754110365
 30
0.0
 40
10.00000000000003
  0
CIRCLE
  5
140
330
1F
100
AcDbEntity
  8
0
  6
Continuous
 62
     7
370
    15
100
AcDbCircle
 10
140.5569824858
 20
560.3754110365
 30
0.0
 40
2.5
  0
CIRCLE
  5
141
330
1F
100
AcDbEntity
  8
0
  6
Continuous
 62
     7
370
    15
100
AcDbCircle
 10
99.5569824858
 20
544.4066916138
 30
0.0
 40
2.500000000000014
  0
CIRCLE
  5
142
330
1F
100
AcDbEntity
  8
0
  6
Continuous
 62
     7
370
    15
100
AcDbCircle
 10
340.5569824858
 20
560.3754110365
 30
0.0
 40
2.500000000000057
  0
CIRCLE
  5
143
330
1F
100
AcDbEntity
  8
0
  6
Continuous
 62
     7
370
    15
100
AcDbCircle
 10
299.5569824858
 20
544.4066916138
 30
0.0
 40
2.500000000000057
  0
LINE
  5
144
330
1F
100
AcDbEntity
  8
0
  6
Continuous
 62
     7
370
    15
100
AcDbLine
 10
364.0569708033
 20
540.375402215
 30
0.0
 11
364.0569708033
 21
547.5775506525
 31
0.0
  0
LINE
  5
145
330
1F
100
AcDbEntity
  8
0
  6
Continuous
 62
     7
370
    15
100
AcDbLine
 10
369.5569893999
 20
540.375402215
 30
0.0
 11
364.0569708033
 21
540.375402215
 31
0.0
  0
LINE
  5
146
330
1F
100
AcDbEntity
  8
0
  6
Continuous
 62
     7
370
    15
100
AcDbLine
 10
369.5569893999
 20
547.5775506525
 30
0.0
 11
369.5569893999
 21
540.375402215
 31
0.0
  0
LINE
  5
147
330
1F
100
AcDbEntity
  8
0
  6
Continuous
 62
     7
370
    15
100
AcDbLine
 10
364.0569708033
 20
547.5775506525
 30
0.0
 11
369.5569893999
 21
547.5775506525
 31
0.0
  0
LINE
  5
148
330
1F
100
AcDbEntity
  8
0
  6
Continuous
 62
     7
370
    15
100
AcDbLine
 10
364.0569708033
 20
520.1732721357
 30
0.0
 11
364.0569708033
 21
527.3754205732
 31
0.0
  0
LINE
  5
149
330
1F
100
AcDbEntity
  8
0
  6
Continuous
 62
     7
370
    15
100
AcDbLine
 10
369.5569893999
 20
520.1732721357
 30
0.0
 11
364.0569708033
 21
520.1732721357
 31
0.0
  0
LINE
  5
14A
330
1F
100
AcDbEntity
  8
0
  6
Continuous
 62
     7
370
    15
100
AcDbLine
 10
369.5569893999
 20
527.3754205732
 30
0.0
 11
369.5569893999
 21
520.1732721357
 31
0.0
  0
LINE
  5
14B
330
1F
100
AcDbEntity
  8
0
  6
Continuous
 62
     7
370
    15
100
AcDbLine
 10
364.0569708033
 20
527.3754205732
 30
0.0
 11
369.5569893999
 21
527.3754205732
 31
0.0
  0
LINE
  5
14C
330
1F
100
AcDbEntity
  8
0
  6
Continuous
 62
     7
370
    15
100
AcDbLine
 10
327.5569936915
 20
540.375402215
 30
0.0
 11
327.5569936915
 21
547.5775506525
 31
0.0
  0
LINE
  5
14D
330
1F
100
AcDbEntity
  8
0
  6
Continuous
 62
     7
370
    15
100
AcDbLine
 10
333.0569824858
 20
540.375402215
 30
0.0
 11
327.5569936915
 21
540.375402215
 31
0.0
  0
LINE
  5
14E
330
1F
100
AcDbEntity
  8
0
  6
Continuous
 62
     7
370
    15
100
AcDbLine
 10
333.0569824858
 20
547.5775506525
 30
0.0
 11
333.0569824858
 21
540.375402215
 31
0.0
  0
LINE
  5
14F
330
1F
100
AcDbEntity
  8
0
  6
Continuous
 62
     7
370
    15
100
AcDbLine
 10
327.5569936915
 20
547.5775506525
 30
0.0
 11
333.0569824858
 21
547.5775506525
 31
0.0
  0
LINE
  5
150
330
1F
100
AcDbEntity
  8
0
  6
Continuous
 62
     7
370
    15
100
AcDbLine
 10
327.5569936915
 20
520.1732721357
 30
0.0
 11
327.5569936915
 21
527.3754205732
 31
0.0
  0
LINE
  5
151
330
1F
100
AcDbEntity
  8
0
  6
Continuous
 62
     7
370
    15
100
AcDbLine
 10
333.0569824858
 20
520.1732721357
 30
0.0
 11
327.5569936915
 21
520.1732721357
 31
0.0
  0
LINE
  5
152
330
1F
100
AcDbEntity
  8
0
  6
Continuous
 62
     7
370
    15
100
AcDbLine
 10
333.0569824858
 20
527.3754205732
 30
0.0
 11
333.0569824858
 21
520.1732721357
 31
0.0
  0
LINE
  5
153
330
1F
100
AcDbEntity
  8
0
  6
Continuous
 62
     7
370
    15
100
AcDbLine
 10
327.5569936915
 20
527.3754205732
 30
0.0
 11
333.0569824858
 21
527.3754205732
 31
0.0
  0
CIRCLE
  5
154
330
1F
100
AcDbEntity
  8
0
  6
Continuous
 62
     7
370
    15
100
AcDbCircle
 10
366.8069824858
 20
533.8754110365
 30
0.0
 40
1.500000000000057
  0
CIRCLE
  5
155
330
1F
100
AcDbEntity
  8
0
  6
Continuous
 62
     7
370
    15
100
AcDbCircle
 10
330.3069824858
 20
533.8754110365
 30
0.0
 40
1.500000000000057
  0
CIRCLE
  5
156
330
1F
100
AcDbEntity
  8
0
  6
Continuous
 62
     7
370
    15
100
AcDbCircle
 10
110.8069824858
 20
533.8754110365
 30
0.0
 40
1.500000000000028
  0
CIRCLE
  5
157
330
1F
100
AcDbEntity
  8
0
  6
Continuous
 62
     7
370
    15
100
AcDbCircle
 10
74.3069824858
 20
533.8754110365
 30
0.0
 40
1.500000000000028
  0
LINE
  5
158
330
1F
100
AcDbEntity
  8
0
  6
Continuous
 62
     7
370
    15
100
AcDbLine
 10
113.5569846912
 20
520.1732721357
 30
0.0
 11
108.0569809957
 21
520.1732721357
 31
0.0
  0
LINE
  5
159
330
1F
100
AcDbEntity
  8
0
  6
Continuous
 62
     7
370
    15
100
AcDbLine
 10
113.5569846912
 20
527.3754205732
 30
0.0
 11
113.5569846912
 21
520.1732721357
 31
0.0
  0
LINE
  5
15A
330
1F
100
AcDbEntity
  8
0
  6
Continuous
 62
     7
370
    15
100
AcDbLine
 10
108.0569809957
 20
527.3754205732
 30
0.0
 11
113.5569846912
 21
527.3754205732
 31
0.0
  0
LINE
  5
15B
330
1F
100
AcDbEntity
  8
0
  6
Continuous
 62
     7
370
    15
100
AcDbLine
 10
108.0569809957
 20
520.1732721357
 30
0.0
 11
108.0569809957
 21
527.3754205732
 31
0.0
  0
LINE
  5
15C
330
1F
100
AcDbEntity
  8
0
  6
Continuous
 62
     7
370
    15
100
AcDbLine
 10
113.5569846912
 20
540.375402215
 30
0.0
 11
108.0569809957
 21
540.375402215
 31
0.0
  0
LINE
  5
15D
330
1F
100
AcDbEntity
  8
0
  6
Continuous
 62
     7
370
    15
100
AcDbLine
 10
113.5569846912
 20
547.5775506525
 30
0.0
 11
113.5569846912
 21
540.375402215
 31
0.0
  0
LINE
  5
15E
330
1F
100
AcDbEntity
  8
0
  6
Continuous
 62
     7
370
    15
100
AcDbLine
 10
108.0569809957
 20
547.5775506525
 30
0.0
 11
113.5569846912
 21
547.5775506525
 31
0.0
  0
LINE
  5
15F
330
1F
100
AcDbEntity
  8
0
  6
Continuous
 62
     7
370
    15
100
AcDbLine
 10
108.0569809957
 20
540.375402215
 30
0.0
 11
108.0569809957
 21
547.5775506525
 31
0.0
  0
LINE
  5
160
330
1F
100
AcDbEntity
  8
0
  6
Continuous
 62
     7
370
    15
100
AcDbLine
 10
77.0569815023
 20
520.1732721357
 30
0.0
 11
71.5569815321
 21
520.1732721357
 31
0.0
  0
LINE
  5
161
330
1F
100
AcDbEntity
  8
0
  6
Continuous
 62
     7
370
    15
100
AcDbLine
 10
77.0569815023
 20
527.3754205732
 30
0.0
 11
77.0569815023
 21
520.1732721357
 31
0.0
  0
LINE
  5
162
330
1F
100
AcDbEntity
  8
0
  6
Continuous
 62
     7
370
    15
100
AcDbLine
 10
71.5569815321
 20
527.3754205732
 30
0.0
 11
77.0569815023
 21
527.3754205732
 31
0.0
  0
LINE
  5
163
330
1F
100
AcDbEntity
  8
0
  6
Continuous
 62
     7
370
    15
100
AcDbLine
 10
71.5569815321
 20
520.1732721357
 30
0.0
 11
71.5569815321
 21
527.3754205732
 31
0.0
  0
LINE
  5
164
330
1F
100
AcDbEntity
  8
0
  6
Continuous
 62
     7
370
    15
100
AcDbLine
 10
77.0569815023
 20
540.375402215
 30
0.0
 11
71.5569815321
 21
540.375402215
 31
0.0
  0
LINE
  5
165
330
1F
100
AcDbEntity
  8
0
  6
Continuous
 62
     7
370
    15
100
AcDbLine
 10
77.0569815023
 20
547.5775506525
 30
0.0
 11
77.0569815023
 21
540.375402215
 31
0.0
  0
LINE
  5
166
330
1F
100
AcDbEntity
  8
0
  6
Continuous
 62
     7
370
    15
100
AcDbLine
 10
71.5569815321
 20
547.5775506525
 30
0.0
 11
77.0569815023
 21
547.5775506525
 31
0.0
  0
LINE
  5
167
330
1F
100
AcDbEntity
  8
0
  6
Continuous
 62
     7
370
    15
100
AcDbLine
 10
71.5569815321
 20
540.375402215
 30
0.0
 11
71.5569815321
 21
547.5775506525
 31
0.0
  0
CIRCLE
  5
168
330
1F
100
AcDbEntity
  8
0
  6
Continuous
 62
     7
370
    15
100
AcDbCircle
 10
396.3069824858
 20
424.9269667292
 30
0.0
 40
1.499999999999943
  0
CIRCLE
  5
169
330
1F
100
AcDbEntity
  8
0
  6
Continuous
 62
     7
370
    15
100
AcDbCircle
 10
364.3069824858
 20
424.9269667292
 30
0.0
 40
1.500000000000057
  0
CIRCLE
  5
16A
330
1F
100
AcDbEntity
  8
0
  6
Continuous
 62
     7
370
    15
100
AcDbCircle
 10
76.8069824858
 20
424.9269667292
 30
0.0
 40
1.500000000000028
  0
CIRCLE
  5
16B
330
1F
100
AcDbEntity
  8
0
  6
Continuous
 62
     7
370
    15
100
AcDbCircle
 10
44.8069824858
 20
424.9269667292
 30
0.0
 40
1.500000000000028
  0
LINE
  5
16C
330
1F
100
AcDbEntity
  8
0
  6
Continuous
 62
     7
370
    15
100
AcDbLine
 10
228.0569783135
 20
466.3754012613
 30
0.0
 11
228.0569783135
 21
470.3754093675
 31
0.0
  0
LINE
  5
16D
330
1F
100
AcDbEntity
  8
0
  6
Continuous
 62
     7
370
    15
100
AcDbLine
 10
230.0569823666
 20
466.3754012613
 30
0.0
 11
228.0569783135
 21
466.3754012613
 31
0.0
  0
LINE
  5
16E
330
1F
100
AcDbEntity
  8
0
  6
Continuous
 62
     7
370
    15
100
AcDbLine
 10
230.0569823666
 20
470.3754093675
 30
0.0
 11
230.0569823666
 21
466.3754012613
 31
0.0
  0
LINE
  5
16F
330
1F
100
AcDbEntity
  8
0
  6
Continuous
 62
     7
370
    15
100
AcDbLine
 10
228.0569783135
 20
470.3754093675
 30
0.0
 11
230.0569823666
 21
470.3754093675
 31
0.0
  0
LINE
  5
170
330
1F
100
AcDbEntity
  8
0
  6
Continuous
 62
     7
370
    15
100
AcDbLine
 10
270.0569889231
 20
449.3754115133
 30
0.0
 11
270.0569889231
 21
451.3754155664
 31
0.0
  0
LINE
  5
171
330
1F
100
AcDbEntity
  8
0
  6
Continuous
 62
     7
370
    15
100
AcDbLine
 10
274.0569970293
 20
449.3754115133
 30
0.0
 11
270.0569889231
 21
449.3754115133
 31
0.0
  0
LINE
  5
172
330
1F
100
AcDbEntity
  8
0
  6
Continuous
 62
     7
370
    15
100
AcDbLine
 10
274.0569970293
 20
451.3754155664
 30
0.0
 11
274.0569970293
 21
449.3754115133
 31
0.0
  0
LINE
  5
173
330
1F
100
AcDbEntity
  8
0
  6
Continuous
 62
     7
370
    15
100
AcDbLine
 10
270.0569889231
 20
451.3754155664
 30
0.0
 11
274.0569970293
 21
451.3754155664
 31
0.0
  0
LINE
  5
174
330
1F
100
AcDbEntity
  8
0
  6
Continuous
 62
     7
370
    15
100
AcDbLine
 10
270.0569889231
 20
432.3754217653
 30
0.0
 11
270.0569889231
 21
434.3754258184
 31
0.0
  0
LINE
  5
175
330
1F
100
AcDbEntity
  8
0
  6
Continuous
 62
     7
370
    15
100
AcDbLine
 10
274.0569970293
 20
432.3754217653
 30
0.0
 11
270.0569889231
 21
432.3754217653
 31
0.0
  0
LINE
  5
176
330
1F
100
AcDbEntity
  8
0
  6
Continuous
 62
     7
370
    15
100
AcDbLine
 10
274.0569970293
 20
434.3754258184
 30
0.0
 11
274.0569970293
 21
432.3754217653
 31
0.0
  0
LINE
  5
177
330
1F
100
AcDbEntity
  8
0
  6
Continuous
 62
     7
370
    15
100
AcDbLine
 10
270.0569889231
 20
434.3754258184
 30
0.0
 11
274.0569970293
 21
434.3754258184
 31
0.0
  0
LINE
  5
178
330
1F
100
AcDbEntity
  8
0
  6
Continuous
 62
     7
370
    15
100
AcDbLine
 10
171.056982009
 20
432.3754217653
 30
0.0
 11
167.0569888039
 21
432.3754217653
 31
0.0
  0
LINE
  5
179
330
1F
100
AcDbEntity
  8
0
  6
Continuous
 62
     7
370
    15
100
AcDbLine
 10
171.056982009
 20
434.3754258184
 30
0.0
 11
171.056982009
 21
432.3754217653
 31
0.0
  0
LINE
  5
17A
330
1F
100
AcDbEntity
  8
0
  6
Continuous
 62
     7
370
    15
100
AcDbLine
 10
167.0569888039
 20
434.3754258184
 30
0.0
 11
171.056982009
 21
434.3754258184
 31
0.0
  0
LINE
  5
17B
330
1F
100
AcDbEntity
  8
0
  6
Continuous
 62
     7
370
    15
100
AcDbLine
 10
167.0569888039
 20
432.3754217653
 30
0.0
 11
167.0569888039
 21
434.3754258184
 31
0.0
  0
LINE
  5
17C
330
1F
100
AcDbEntity
  8
0
  6
Continuous
 62
     7
370
    15
100
AcDbLine
 10
171.056982009
 20
449.3754115133
 30
0.0
 11
167.0569888039
 21
449.3754115133
 31
0.0
  0
LINE
  5
17D
330
1F
100
AcDbEntity
  8
0
  6
Continuous
 62
     7
370
    15
100
AcDbLine
 10
171.056982009
 20
451.3754155664
 30
0.0
 11
171.056982009
 21
449.3754115133
 31
0.0
  0
LINE
  5
17E
330
1F
100
AcDbEntity
  8
0
  6
Continuous
 62
     7
370
    15
100
AcDbLine
 10
167.0569888039
 20
451.3754155664
 30
0.0
 11
171.056982009
 21
451.3754155664
 31
0.0
  0
LINE
  5
17F
330
1F
100
AcDbEntity
  8
0
  6
Continuous
 62
     7
370
    15
100
AcDbLine
 10
167.0569888039
 20
449.3754115133
 30
0.0
 11
167.0569888039
 21
451.3754155664
 31
0.0
  0
LINE
  5
180
330
1F
100
AcDbEntity
  8
0
  6
Continuous
 62
     7
370
    15
100
AcDbLine
 10
213.0569777174
 20
466.3754012613
 30
0.0
 11
211.0569885655
 21
466.3754012613
 31
0.0
  0
LINE
  5
181
330
1F
100
AcDbEntity
  8
0
  6
Continuous
 62
     7
370
    15
100
AcDbLine
 10
213.0569777174
 20
470.3754093675
 30
0.0
 11
213.0569777174
 21
466.3754012613
 31
0.0
  0
LINE
  5
182
330
1F
100
AcDbEntity
  8
0
  6
Continuous
 62
     7
370
    15
100
AcDbLine
 10
211.0569885655
 20
470.3754093675
 30
0.0
 11
213.0569777174
 21
470.3754093675
 31
0.0
  0
LINE
  5
183
330
1F
100
AcDbEntity
  8
0
  6
Continuous
 62
     7
370
    15
100
AcDbLine
 10
211.0569885655
 20
466.3754012613
 30
0.0
 11
211.0569885655
 21
470.3754093675
 31
0.0
  0
LINE
  5
184
330
1F
100
AcDbEntity
  8
0
  6
Continuous
 62
     7
370
    15
100
AcDbLine
 10
318.5569903536
 20
533.3754029302
 30
0.0
 11
318.5569903536
 21
537.3754110365
 31
0.0
  0
LINE
  5
185
330
1F
100
AcDbEntity
  8
0
  6
Continuous
 62
     7
370
    15
100
AcDbLine
 10
320.5569944067
 20
533.3754029302
 30
0.0
 11
318.5569903536
 21
533.3754029302
 31
0.0
  0
LINE
  5
186
330
1F
100
AcDbEntity
  8
0
  6
Continuous
 62
     7
370
    15
100
AcDbLine
 10
320.5569944067
 20
537.3754110365
 30
0.0
 11
320.5569944067
 21
533.3754029302
 31
0.0
  0
LINE
  5
187
330
1F
100
AcDbEntity
  8
0
  6
Continuous
 62
     7
370
    15
100
AcDbLine
 10
318.5569903536
 20
537.3754110365
 30
0.0
 11
320.5569944067
 21
537.3754110365
 31
0.0
  0
LINE
  5
188
330
1F
100
AcDbEntity
  8
0
  6
Continuous
 62
     7
370
    15
100
AcDbLine
 10
306.5569958372
 20
533.3754029302
 30
0.0
 11
306.5569958372
 21
537.3754110365
 31
0.0
  0
LINE
  5
189
330
1F
100
AcDbEntity
  8
0
  6
Continuous
 62
     7
370
    15
100
AcDbLine
 10
308.556970088
 20
533.3754029302
 30
0.0
 11
306.5569958372
 21
533.3754029302
 31
0.0
  0
LINE
  5
18A
330
1F
100
AcDbEntity
  8
0
  6
Continuous
 62
     7
370
    15
100
AcDbLine
 10
308.556970088
 20
537.3754110365
 30
0.0
 11
308.556970088
 21
533.3754029302
 31
0.0
  0
LINE
  5
18B
330
1F
100
AcDbEntity
  8
0
  6
Continuous
 62
     7
370
    15
100
AcDbLine
 10
306.5569958372
 20
537.3754110365
 30
0.0
 11
308.556970088
 21
537.3754110365
 31
0.0
  0
LINE
  5
18C
330
1F
100
AcDbEntity
  8
0
  6
Continuous
 62
     7
370
    15
100
AcDbLine
 10
134.5569825454
 20
533.3754029302
 30
0.0
 11
132.5569859429
 21
533.3754029302
 31
0.0
  0
LINE
  5
18D
330
1F
100
AcDbEntity
  8
0
  6
Continuous
 62
     7
370
    15
100
AcDbLine
 10
134.5569825454
 20
537.3754110365
 30
0.0
 11
134.5569825454
 21
533.3754029302
 31
0.0
  0
LINE
  5
18E
330
1F
100
AcDbEntity
  8
0
  6
Continuous
 62
     7
370
    15
100
AcDbLine
 10
132.5569859429
 20
537.3754110365
 30
0.0
 11
134.5569825454
 21
537.3754110365
 31
0.0
  0
LINE
  5
18F
330
1F
100
AcDbEntity
  8
0
  6
Continuous
 62
     7
370
    15
100
AcDbLine
 10
132.5569859429
 20
533.3754029302
 30
0.0
 11
132.5569859429
 21
537.3754110365
 31
0.0
  0
LINE
  5
190
330
1F
100
AcDbEntity
  8
0
  6
Continuous
 62
     7
370
    15
100
AcDbLine
 10
122.5569805785
 20
533.3754029302
 30
0.0
 11
120.5569839759
 21
533.3754029302
 31
0.0
  0
LINE
  5
191
330
1F
100
AcDbEntity
  8
0
  6
Continuous
 62
     7
370
    15
100
AcDbLine
 10
122.5569805785
 20
537.3754110365
 30
0.0
 11
122.5569805785
 21
533.3754029302
 31
0.0
  0
LINE
  5
192
330
1F
100
AcDbEntity
  8
0
  6
Continuous
 62
     7
370
    15
100
AcDbLine
 10
120.5569839759
 20
537.3754110365
 30
0.0
 11
122.5569805785
 21
537.3754110365
 31
0.0
  0
LINE
  5
193
330
1F
100
AcDbEntity
  8
0
  6
Continuous
 62
     7
370
    15
100
AcDbLine
 10
120.5569839759
 20
533.3754029302
 30
0.0
 11
120.5569839759
 21
537.3754110365
 31
0.0
  0
CIRCLE
  5
194
330
1F
100
AcDbEntity
  8
0
  6
Continuous
 62
     7
370
    15
100
AcDbCircle
 10
255.5569824858
 20
500.3754110365
 30
0.0
 40
10.00000000000003
  0
CIRCLE
  5
195
330
1F
100
AcDbEntity
  8
0
  6
Continuous
 62
     7
370
    15
100
AcDbCircle
 10
185.5569824858
 20
500.3754110365
 30
0.0
 40
10.0
  0
LINE
  5
196
330
1F
100
AcDbEntity
  8
0
  6
Continuous
 62
     7
370
    15
100
AcDbLine
 10
415.5569932146
 20
580.3754236726
 30
0.0
 11
25.556982374
 21
580.3754236726
 31
0.0
  0
LINE
  5
197
330
1F
100
AcDbEntity
  8
0
  6
Continuous
 62
     7
370
    15
100
AcDbLine
 10
420.5569884463
 20
167.3754109247
 30
0.0
 11
420.5569884463
 21
575.3753986387
 31
0.0
  0
LINE
  5
198
330
1F
100
AcDbEntity
  8
0
  6
Continuous
 62
     7
370
    15
100
AcDbLine
 10
25.556982374
 20
162.3754110365
 30
0.0
 11
175.3513178511
 21
162.3754110365
 31
0.0
  0
LINE
  5
199
330
1F
100
AcDbEntity
  8
0
  6
Continuous
 62
     7
370
    15
100
AcDbLine
 10
20.5569824858
 20
575.3753986387
 30
0.0
 11
20.5569824858
 21
167.3754109247
 31
0.0
  0
LINE
  5
19A
330
1F
100
AcDbEntity
  8
0
  6
Continuous
 62
     7
370
    15
100
AcDbLine
 10
265.762653081
 20
162.3754110365
 30
0.0
 11
415.5569932146
 21
162.3754110365
 31
0.0
  0
CIRCLE
  5
19B
330
1F
100
AcDbEntity
  8
0
  6
Continuous
 62
     7
370
    15
100
AcDbCircle
 10
797.719421305
 20
375.1177073683
 30
0.0
 40
12.50000000000011
  0
CIRCLE
  5
19C
330
1F
100
AcDbEntity
  8
0
  6
Continuous
 62
     7
370
    15
100
AcDbCircle
 10
797.719421305
 20
445.1177073683
 30
0.0
 40
1.500000000000114
  0
CIRCLE
  5
19D
330
1F
100
AcDbEntity
  8
0
  6
Continuous
 62
     7
370
    15
100
AcDbCircle
 10
797.719421305
 20
305.1177073683
 30
0.0
 40
1.499999999999886
  0
LINE
  5
19E
330
1F
100
AcDbEntity
  8
0
  6
Continuous
 62
     7
370
    15
100
AcDbLine
 10
447.7194211932
 20
258.6534233655
 30
0.0
 11
450.1194213072
 21
258.6534233655
 31
0.0
  0
LINE
  5
19F
330
1F
100
AcDbEntity
  8
0
  6
Continuous
 62
     7
370
    15
100
AcDbLine
 10
450.1194213072
 20
258.6534233655
 30
0.0
 11
450.1194213072
 21
259.9034221734
 31
0.0
  0
LINE
  5
1A0
330
1F
100
AcDbEntity
  8
0
  6
Continuous
 62
     7
370
    15
100
AcDbLine
 10
450.1194213072
 20
259.9034221734
 30
0.0
 11
452.7194210815
 21
259.9034221734
 31
0.0
  0
LINE
  5
1A1
330
1F
100
AcDbEntity
  8
0
  6
Continuous
 62
     7
370
    15
100
AcDbLine
 10
452.7194210815
 20
259.9034221734
 30
0.0
 11
452.7194210815
 21
262.9034208025
 31
0.0
  0
LINE
  5
1A2
330
1F
100
AcDbEntity
  8
0
  6
Continuous
 62
     7
370
    15
100
AcDbLine
 10
452.7194210815
 20
262.9034208025
 30
0.0
 11
450.1194213072
 21
262.9034208025
 31
0.0
  0
LINE
  5
1A3
330
1F
100
AcDbEntity
  8
0
  6
Continuous
 62
     7
370
    15
100
AcDbLine
 10
450.1194213072
 20
262.9034208025
 30
0.0
 11
450.1194213072
 21
264.1534196104
 31
0.0
  0
LINE
  5
1A4
330
1F
100
AcDbEntity
  8
0
  6
Continuous
 62
     7
370
    15
100
AcDbLine
 10
450.1194213072
 20
264.1534196104
 30
0.0
 11
447.7194211932
 21
264.1534196104
 31
0.0
  0
LINE
  5
1A5
330
1F
100
AcDbEntity
  8
0
  6
Continuous
 62
     7
370
    15
100
AcDbLine
 10
447.7194211932
 20
264.1534196104
 30
0.0
 11
447.7194211932
 21
262.9034208025
 31
0.0
  0
LINE
  5
1A6
330
1F
100
AcDbEntity
  8
0
  6
Continuous
 62
     7
370
    15
100
AcDbLine
 10
447.7194211932
 20
262.9034208025
 30
0.0
 11
442.719421305
 21
262.9034208025
 31
0.0
  0
LINE
  5
1A7
330
1F
100
AcDbEntity
  8
0
  6
Continuous
 62
     7
370
    15
100
AcDbLine
 10
442.719421305
 20
279.8319967355
 30
0.0
 11
442.719421305
 21
262.9034208025
 31
0.0
  0
LINE
  5
1A8
330
1F
100
AcDbEntity
  8
0
  6
Continuous
 62
     7
370
    15
100
AcDbLine
 10
437.2194213348
 20
279.8319967355
 30
0.0
 11
442.719421305
 21
279.8319967355
 31
0.0
  0
LINE
  5
1A9
330
1F
100
AcDbEntity
  8
0
  6
Continuous
 62
     7
370
    15
100
AcDbLine
 10
437.2194213348
 20
299.8319925632
 30
0.0
 11
437.2194213348
 21
279.8319967355
 31
0.0
  0
LINE
  5
1AA
330
1F
100
AcDbEntity
  8
0
  6
Continuous
 62
     7
370
    15
100
AcDbLine
 10
437.2194213348
 20
299.8319925632
 30
0.0
 11
442.719421305
 21
299.8319925632
 31
0.0
  0
LINE
  5
1AB
330
1F
100
AcDbEntity
  8
0
  6
Continuous
 62
     7
370
    15
100
AcDbLine
 10
442.719421305
 20
336.6891430582
 30
0.0
 11
442.719421305
 21
299.8319925632
 31
0.0
  0
LINE
  5
1AC
330
1F
100
AcDbEntity
  8
0
  6
Continuous
 62
     7
370
    15
100
AcDbLine
 10
437.2194213348
 20
336.6891430582
 30
0.0
 11
442.719421305
 21
336.6891430582
 31
0.0
  0
LINE
  5
1AD
330
1F
100
AcDbEntity
  8
0
  6
Continuous
 62
     7
370
    15
100
AcDbLine
 10
437.2194213348
 20
356.6891388859
 30
0.0
 11
437.2194213348
 21
336.6891430582
 31
0.0
  0
LINE
  5
1AE
330
1F
100
AcDbEntity
  8
0
  6
Continuous
 62
     7
370
    15
100
AcDbLine
 10
437.2194213348
 20
356.6891388859
 30
0.0
 11
442.719421305
 21
356.6891388859
 31
0.0
  0
LINE
  5
1AF
330
1F
100
AcDbEntity
  8
0
  6
Continuous
 62
     7
370
    15
100
AcDbLine
 10
442.719421305
 20
373.6177073683
 30
0.0
 11
442.719421305
 21
356.6891388859
 31
0.0
  0
LINE
  5
1B0
330
1F
100
AcDbEntity
  8
0
  6
Continuous
 62
     7
370
    15
100
AcDbLine
 10
442.719421305
 20
373.6177073683
 30
0.0
 11
447.7194211932
 21
373.6177073683
 31
0.0
  0
LINE
  5
1B1
330
1F
100
AcDbEntity
  8
0
  6
Continuous
 62
     7
370
    15
100
AcDbLine
 10
447.7194211932
 20
373.6177073683
 30
0.0
 11
447.7194211932
 21
372.3677085604
 31
0.0
  0
LINE
  5
1B2
330
1F
100
AcDbEntity
  8
0
  6
Continuous
 62
     7
370
    15
100
AcDbLine
 10
447.7194211932
 20
372.3677085604
 30
0.0
 11
450.1194213072
 21
372.3677085604
 31
0.0
  0
LINE
  5
1B3
330
1F
100
AcDbEntity
  8
0
  6
Continuous
 62
     7
370
    15
100
AcDbLine
 10
450.1194213072
 20
372.3677085604
 30
0.0
 11
450.1194213072
 21
373.6177073683
 31
0.0
  0
LINE
  5
1B4
330
1F
100
AcDbEntity
  8
0
  6
Continuous
 62
     7
370
    15
100
AcDbLine
 10
450.1194213072
 20
373.6177073683
 30
0.0
 11
452.7194210815
 21
373.6177073683
 31
0.0
  0
LINE
  5
1B5
330
1F
100
AcDbEntity
  8
0
  6
Continuous
 62
     7
370
    15
100
AcDbLine
 10
452.7194210815
 20
373.6177073683
 30
0.0
 11
452.7194210815
 21
376.617713448
 31
0.0
  0
LINE
  5
1B6
330
1F
100
AcDbEntity
  8
0
  6
Continuous
 62
     7
370
    15
100
AcDbLine
 10
452.7194210815
 20
376.617713448
 30
0.0
 11
450.1194213072
 21
376.617713448
 31
0.0
  0
LINE
  5
1B7
330
1F
100
AcDbEntity
  8
0
  6
Continuous
 62
     7
370
    15
100
AcDbLine
 10
450.1194213072
 20
376.617713448
 30
0.0
 11
450.1194213072
 21
377.8677122559
 31
0.0
  0
LINE
  5
1B8
330
1F
100
AcDbEntity
  8
0
  6
Continuous
 62
     7
370
    15
100
AcDbLine
 10
450.1194213072
 20
377.8677122559
 30
0.0
 11
447.7194211932
 21
377.8677122559
 31
0.0
  0
LINE
  5
1B9
330
1F
100
AcDbEntity
  8
0
  6
Continuous
 62
     7
370
    15
100
AcDbLine
 10
447.7194211932
 20
377.8677122559
 30
0.0
 11
447.7194211932
 21
376.617713448
 31
0.0
  0
LINE
  5
1BA
330
1F
100
AcDbEntity
  8
0
  6
Continuous
 62
     7
370
    15
100
AcDbLine
 10
447.7194211932
 20
376.617713448
 30
0.0
 11
442.719421305
 21
376.617713448
 31
0.0
  0
LINE
  5
1BB
330
1F
100
AcDbEntity
  8
0
  6
Continuous
 62
     7
370
    15
100
AcDbLine
 10
442.719421305
 20
393.5462819304
 30
0.0
 11
442.719421305
 21
376.617713448
 31
0.0
  0
LINE
  5
1BC
330
1F
100
AcDbEntity
  8
0
  6
Continuous
 62
     7
370
    15
100
AcDbLine
 10
437.2194213348
 20
393.5462819304
 30
0.0
 11
442.719421305
 21
393.5462819304
 31
0.0
  0
LINE
  5
1BD
330
1F
100
AcDbEntity
  8
0
  6
Continuous
 62
     7
370
    15
100
AcDbLine
 10
437.2194213348
 20
413.546277758
 30
0.0
 11
437.2194213348
 21
393.5462819304
 31
0.0
  0
LINE
  5
1BE
330
1F
100
AcDbEntity
  8
0
  6
Continuous
 62
     7
370
    15
100
AcDbLine
 10
437.2194213348
 20
413.546277758
 30
0.0
 11
442.719421305
 21
413.546277758
 31
0.0
  0
LINE
  5
1BF
330
1F
100
AcDbEntity
  8
0
  6
Continuous
 62
     7
370
    15
100
AcDbLine
 10
442.719421305
 20
450.4034208025
 30
0.0
 11
442.719421305
 21
413.546277758
 31
0.0
  0
LINE
  5
1C0
330
1F
100
AcDbEntity
  8
0
  6
Continuous
 62
     7
370
    15
100
AcDbLine
 10
437.2194213348
 20
450.4034208025
 30
0.0
 11
442.719421305
 21
450.4034208025
 31
0.0
  0
LINE
  5
1C1
330
1F
100
AcDbEntity
  8
0
  6
Continuous
 62
     7
370
    15
100
AcDbLine
 10
437.2194213348
 20
470.4034315313
 30
0.0
 11
437.2194213348
 21
450.4034208025
 31
0.0
  0
LINE
  5
1C2
330
1F
100
AcDbEntity
  8
0
  6
Continuous
 62
     7
370
    15
100
AcDbLine
 10
437.2194213348
 20
470.4034315313
 30
0.0
 11
442.719421305
 21
470.4034315313
 31
0.0
  0
LINE
  5
1C3
330
1F
100
AcDbEntity
  8
0
  6
Continuous
 62
     7
370
    15
100
AcDbLine
 10
442.719421305
 20
487.3319851126
 30
0.0
 11
442.719421305
 21
470.4034315313
 31
0.0
  0
LINE
  5
1C4
330
1F
100
AcDbEntity
  8
0
  6
Continuous
 62
     7
370
    15
100
AcDbLine
 10
442.719421305
 20
487.3319851126
 30
0.0
 11
447.7194211932
 21
487.3319851126
 31
0.0
  0
LINE
  5
1C5
330
1F
100
AcDbEntity
  8
0
  6
Continuous
 62
     7
370
    15
100
AcDbLine
 10
447.7194211932
 20
487.3319851126
 30
0.0
 11
447.7194211932
 21
486.0819863047
 31
0.0
  0
LINE
  5
1C6
330
1F
100
AcDbEntity
  8
0
  6
Continuous
 62
     7
370
    15
100
AcDbLine
 10
447.7194211932
 20
486.0819863047
 30
0.0
 11
450.1194213072
 21
486.0819863047
 31
0.0
  0
LINE
  5
1C7
330
1F
100
AcDbEntity
  8
0
  6
Continuous
 62
     7
370
    15
100
AcDbLine
 10
450.1194213072
 20
486.0819863047
 30
0.0
 11
450.1194213072
 21
487.3319851126
 31
0.0
  0
LINE
  5
1C8
330
1F
100
AcDbEntity
  8
0
  6
Continuous
 62
     7
370
    15
100
AcDbLine
 10
450.1194213072
 20
487.3319851126
 30
0.0
 11
452.7194210815
 21
487.3319851126
 31
0.0
  0
LINE
  5
1C9
330
1F
100
AcDbEntity
  8
0
  6
Continuous
 62
     7
370
    15
100
AcDbLine
 10
452.7194210815
 20
487.3319851126
 30
0.0
 11
452.7194210815
 21
490.3320060934
 31
0.0
  0
LINE
  5
1CA
330
1F
100
AcDbEntity
  8
0
  6
Continuous
 62
     7
370
    15
100
AcDbLine
 10
452.7194210815
 20
490.3320060934
 30
0.0
 11
450.1194213072
 21
490.3320060934
 31
0.0
  0
LINE
  5
1CB
330
1F
100
AcDbEntity
  8
0
  6
Continuous
 62
     7
370
    15
100
AcDbLine
 10
450.1194213072
 20
490.3320060934
 30
0.0
 11
450.1194213072
 21
491.5820049013
 31
0.0
  0
LINE
  5
1CC
330
1F
100
AcDbEntity
  8
0
  6
Continuous
 62
     7
370
    15
100
AcDbLine
 10
450.1194213072
 20
491.5820049013
 30
0.0
 11
447.7194211932
 21
491.5820049013
 31
0.0
  0
LINE
  5
1CD
330
1F
100
AcDbEntity
  8
0
  6
Continuous
 62
     7
370
    15
100
AcDbLine
 10
447.7194211932
 20
491.5820049013
 30
0.0
 11
447.7194211932
 21
490.3320060934
 31
0.0
  0
LINE
  5
1CE
330
1F
100
AcDbEntity
  8
0
  6
Continuous
 62
     7
370
    15
100
AcDbLine
 10
447.7194211932
 20
490.3320060934
 30
0.0
 11
442.719421305
 21
490.3320060934
 31
0.0
  0
LINE
  5
1CF
330
1F
100
AcDbEntity
  8
0
  6
Continuous
 62
     7
370
    15
100
AcDbLine
 10
442.719421305
 20
507.2605596747
 30
0.0
 11
442.719421305
 21
490.3320060934
 31
0.0
  0
LINE
  5
1D0
330
1F
100
AcDbEntity
  8
0
  6
Continuous
 62
     7
370
    15
100
AcDbLine
 10
437.2194213348
 20
507.2605596747
 30
0.0
 11
442.719421305
 21
507.2605596747
 31
0.0
  0
LINE
  5
1D1
330
1F
100
AcDbEntity
  8
0
  6
Continuous
 62
     7
370
    15
100
AcDbLine
 10
437.2194213348
 20
527.2605704035
 30
0.0
 11
437.2194213348
 21
507.2605596747
 31
0.0
  0
LINE
  5
1D2
330
1F
100
AcDbEntity
  8
0
  6
Continuous
 62
     7
370
    15
100
AcDbLine
 10
437.2194213348
 20
527.2605704035
 30
0.0
 11
442.719421305
 21
527.2605704035
 31
0.0
  0
LINE
  5
1D3
330
1F
100
AcDbEntity
  8
0
  6
Continuous
 62
     7
370
    15
100
AcDbLine
 10
442.719421305
 20
564.1176985468
 30
0.0
 11
442.719421305
 21
527.2605704035
 31
0.0
  0
LINE
  5
1D4
330
1F
100
AcDbEntity
  8
0
  6
Continuous
 62
     7
370
    15
100
AcDbLine
 10
481.1479923802
 20
569.6177171435
 30
0.0
 11
481.1479923802
 21
564.1176985468
 31
0.0
  0
LINE
  5
1D5
330
1F
100
AcDbEntity
  8
0
  6
Continuous
 62
     7
370
    15
100
AcDbLine
 10
481.1479923802
 20
569.6177171435
 30
0.0
 11
501.1479919332
 21
569.6177171435
 31
0.0
  0
LINE
  5
1D6
330
1F
100
AcDbEntity
  8
0
  6
Continuous
 62
     7
370
    15
100
AcDbLine
 10
518.8622762936
 20
564.1176985468
 30
0.0
 11
518.8622762936
 21
559.1177033152
 31
0.0
  0
LINE
  5
1D7
330
1F
100
AcDbEntity
  8
0
  6
Continuous
 62
     7
370
    15
100
AcDbLine
 10
518.8622762936
 20
559.1177033152
 30
0.0
 11
517.6122774857
 21
559.1177033152
 31
0.0
  0
LINE
  5
1D8
330
1F
100
AcDbEntity
  8
0
  6
Continuous
 62
     7
370
    15
100
AcDbLine
 10
517.6122774857
 20
559.1177033152
 30
0.0
 11
517.6122774857
 21
556.717692491
 31
0.0
  0
LINE
  5
1D9
330
1F
100
AcDbEntity
  8
0
  6
Continuous
 62
     7
370
    15
100
AcDbLine
 10
517.6122774857
 20
556.717692491
 30
0.0
 11
518.8622762936
 21
556.717692491
 31
0.0
  0
LINE
  5
1DA
330
1F
100
AcDbEntity
  8
0
  6
Continuous
 62
     7
370
    15
100
AcDbLine
 10
518.8622762936
 20
556.717692491
 30
0.0
 11
518.8622762936
 21
554.1177080835
 31
0.0
  0
LINE
  5
1DB
330
1F
100
AcDbEntity
  8
0
  6
Continuous
 62
     7
370
    15
100
AcDbLine
 10
518.8622762936
 20
554.1177080835
 30
0.0
 11
521.8622749227
 21
554.1177080835
 31
0.0
  0
LINE
  5
1DC
330
1F
100
AcDbEntity
  8
0
  6
Continuous
 62
     7
370
    15
100
AcDbLine
 10
521.8622749227
 20
554.1177080835
 30
0.0
 11
521.8622749227
 21
556.717692491
 31
0.0
  0
LINE
  5
1DD
330
1F
100
AcDbEntity
  8
0
  6
Continuous
 62
     7
370
    15
100
AcDbLine
 10
521.8622749227
 20
556.717692491
 30
0.0
 11
523.1122811812
 21
556.717692491
 31
0.0
  0
LINE
  5
1DE
330
1F
100
AcDbEntity
  8
0
  6
Continuous
 62
     7
370
    15
100
AcDbLine
 10
523.1122811812
 20
556.717692491
 30
0.0
 11
523.1122811812
 21
559.1177033152
 31
0.0
  0
LINE
  5
1DF
330
1F
100
AcDbEntity
  8
0
  6
Continuous
 62
     7
370
    15
100
AcDbLine
 10
523.1122811812
 20
559.1177033152
 30
0.0
 11
521.8622749227
 21
559.1177033152
 31
0.0
  0
LINE
  5
1E0
330
1F
100
AcDbEntity
  8
0
  6
Continuous
 62
     7
370
    15
100
AcDbLine
 10
521.8622749227
 20
559.1177033152
 30
0.0
 11
521.8622749227
 21
564.1176985468
 31
0.0
  0
LINE
  5
1E1
330
1F
100
AcDbEntity
  8
0
  6
Continuous
 62
     7
370
    15
100
AcDbLine
 10
539.5765667337
 20
564.1176985468
 30
0.0
 11
521.8622749227
 21
564.1176985468
 31
0.0
  0
LINE
  5
1E2
330
1F
100
AcDbEntity
  8
0
  6
Continuous
 62
     7
370
    15
100
AcDbLine
 10
539.5765667337
 20
569.6177171435
 30
0.0
 11
539.5765667337
 21
564.1176985468
 31
0.0
  0
LINE
  5
1E3
330
1F
100
AcDbEntity
  8
0
  6
Continuous
 62
     7
370
    15
100
AcDbLine
 10
539.5765667337
 20
569.6177171435
 30
0.0
 11
559.5765625613
 21
569.6177171435
 31
0.0
  0
LINE
  5
1E4
330
1F
100
AcDbEntity
  8
0
  6
Continuous
 62
     7
370
    15
100
AcDbLine
 10
559.5765625613
 20
569.6177171435
 30
0.0
 11
559.5765625613
 21
564.1176985468
 31
0.0
  0
LINE
  5
1E5
330
1F
100
AcDbEntity
  8
0
  6
Continuous
 62
     7
370
    15
100
AcDbLine
 10
598.0051373618
 20
564.1176985468
 30
0.0
 11
559.5765625613
 21
564.1176985468
 31
0.0
  0
LINE
  5
1E6
330
1F
100
AcDbEntity
  8
0
  6
Continuous
 62
     7
370
    15
100
AcDbLine
 10
598.0051373618
 20
569.6177171435
 30
0.0
 11
598.0051373618
 21
564.1176985468
 31
0.0
  0
LINE
  5
1E7
330
1F
100
AcDbEntity
  8
0
  6
Continuous
 62
     7
370
    15
100
AcDbLine
 10
598.0051373618
 20
569.6177171435
 30
0.0
 11
618.0051331895
 21
569.6177171435
 31
0.0
  0
LINE
  5
1E8
330
1F
100
AcDbEntity
  8
0
  6
Continuous
 62
     7
370
    15
100
AcDbLine
 10
618.0051331895
 20
569.6177171435
 30
0.0
 11
618.0051331895
 21
564.1176985468
 31
0.0
  0
LINE
  5
1E9
330
1F
100
AcDbEntity
  8
0
  6
Continuous
 62
     7
370
    15
100
AcDbLine
 10
635.7194250005
 20
564.1176985468
 30
0.0
 11
618.0051331895
 21
564.1176985468
 31
0.0
  0
LINE
  5
1EA
330
1F
100
AcDbEntity
  8
0
  6
Continuous
 62
     7
370
    15
100
AcDbLine
 10
635.7194250005
 20
564.1176985468
 30
0.0
 11
635.7194250005
 21
559.1177033152
 31
0.0
  0
LINE
  5
1EB
330
1F
100
AcDbEntity
  8
0
  6
Continuous
 62
     7
370
    15
100
AcDbLine
 10
635.7194250005
 20
559.1177033152
 30
0.0
 11
634.4694261926
 21
559.1177033152
 31
0.0
  0
LINE
  5
1EC
330
1F
100
AcDbEntity
  8
0
  6
Continuous
 62
     7
370
    15
100
AcDbLine
 10
634.4694261926
 20
559.1177033152
 30
0.0
 11
634.4694261926
 21
556.717692491
 31
0.0
  0
LINE
  5
1ED
330
1F
100
AcDbEntity
  8
0
  6
Continuous
 62
     7
370
    15
100
AcDbLine
 10
634.4694261926
 20
556.717692491
 30
0.0
 11
635.7194250005
 21
556.717692491
 31
0.0
  0
LINE
  5
1EE
330
1F
100
AcDbEntity
  8
0
  6
Continuous
 62
     7
370
    15
100
AcDbLine
 10
635.7194250005
 20
556.717692491
 30
0.0
 11
635.7194250005
 21
554.1177080835
 31
0.0
  0
LINE
  5
1EF
330
1F
100
AcDbEntity
  8
0
  6
Continuous
 62
     7
370
    15
100
AcDbLine
 10
635.7194250005
 20
554.1177080835
 30
0.0
 11
638.719416179
 21
554.1177080835
 31
0.0
  0
LINE
  5
1F0
330
1F
100
AcDbEntity
  8
0
  6
Continuous
 62
     7
370
    15
100
AcDbLine
 10
638.719416179
 20
554.1177080835
 30
0.0
 11
638.719416179
 21
556.717692491
 31
0.0
  0
LINE
  5
1F1
330
1F
100
AcDbEntity
  8
0
  6
Continuous
 62
     7
370
    15
100
AcDbLine
 10
638.719416179
 20
556.717692491
 30
0.0
 11
639.9694149869
 21
556.717692491
 31
0.0
  0
LINE
  5
1F2
330
1F
100
AcDbEntity
  8
0
  6
Continuous
 62
     7
370
    15
100
AcDbLine
 10
639.9694149869
 20
556.717692491
 30
0.0
 11
639.9694149869
 21
559.1177033152
 31
0.0
  0
LINE
  5
1F3
330
1F
100
AcDbEntity
  8
0
  6
Continuous
 62
     7
370
    15
100
AcDbLine
 10
639.9694149869
 20
559.1177033152
 30
0.0
 11
638.719416179
 21
559.1177033152
 31
0.0
  0
LINE
  5
1F4
330
1F
100
AcDbEntity
  8
0
  6
Continuous
 62
     7
370
    15
100
AcDbLine
 10
638.719416179
 20
559.1177033152
 30
0.0
 11
638.719416179
 21
564.1176985468
 31
0.0
  0
LINE
  5
1F5
330
1F
100
AcDbEntity
  8
0
  6
Continuous
 62
     7
370
    15
100
AcDbLine
 10
656.43370799
 20
564.1176985468
 30
0.0
 11
638.719416179
 21
564.1176985468
 31
0.0
  0
LINE
  5
1F6
330
1F
100
AcDbEntity
  8
0
  6
Continuous
 62
     7
370
    15
100
AcDbLine
 10
656.43370799
 20
569.6177171435
 30
0.0
 11
656.43370799
 21
564.1176985468
 31
0.0
  0
LINE
  5
1F7
330
1F
100
AcDbEntity
  8
0
  6
Continuous
 62
     7
370
    15
100
AcDbLine
 10
656.43370799
 20
569.6177171435
 30
0.0
 11
676.4337038177
 21
569.6177171435
 31
0.0
  0
LINE
  5
1F8
330
1F
100
AcDbEntity
  8
0
  6
Continuous
 62
     7
370
    15
100
AcDbLine
 10
676.4337038177
 20
569.6177171435
 30
0.0
 11
676.4337038177
 21
564.1176985468
 31
0.0
  0
LINE
  5
1F9
330
1F
100
AcDbEntity
  8
0
  6
Continuous
 62
     7
370
    15
100
AcDbLine
 10
714.8622786182
 20
564.1176985468
 30
0.0
 11
676.4337038177
 21
564.1176985468
 31
0.0
  0
LINE
  5
1FA
330
1F
100
AcDbEntity
  8
0
  6
Continuous
 62
     7
370
    15
100
AcDbLine
 10
714.8622786182
 20
569.6177171435
 30
0.0
 11
714.8622786182
 21
564.1176985468
 31
0.0
  0
LINE
  5
1FB
330
1F
100
AcDbEntity
  8
0
  6
Continuous
 62
     7
370
    15
100
AcDbLine
 10
714.8622786182
 20
569.6177171435
 30
0.0
 11
734.862289347
 21
569.6177171435
 31
0.0
  0
LINE
  5
1FC
330
1F
100
AcDbEntity
  8
0
  6
Continuous
 62
     7
370
    15
100
AcDbLine
 10
734.862289347
 20
569.6177171435
 30
0.0
 11
734.862289347
 21
564.1176985468
 31
0.0
  0
LINE
  5
1FD
330
1F
100
AcDbEntity
  8
0
  6
Continuous
 62
     7
370
    15
100
AcDbLine
 10
752.5765513557
 20
564.1176985468
 30
0.0
 11
734.862289347
 21
564.1176985468
 31
0.0
  0
LINE
  5
1FE
330
1F
100
AcDbEntity
  8
0
  6
Continuous
 62
     7
370
    15
100
AcDbLine
 10
752.5765513557
 20
564.1176985468
 30
0.0
 11
752.5765513557
 21
559.1177033152
 31
0.0
  0
LINE
  5
1FF
330
1F
100
AcDbEntity
  8
0
  6
Continuous
 62
     7
370
    15
100
AcDbLine
 10
752.5765513557
 20
559.1177033152
 30
0.0
 11
751.3265525478
 21
559.1177033152
 31
0.0
  0
LINE
  5
200
330
1F
100
AcDbEntity
  8
0
  6
Continuous
 62
     7
370
    15
100
AcDbLine
 10
751.3265525478
 20
559.1177033152
 30
0.0
 11
751.3265525478
 21
556.717692491
 31
0.0
  0
LINE
  5
201
330
1F
100
AcDbEntity
  8
0
  6
Continuous
 62
     7
370
    15
100
AcDbLine
 10
751.3265525478
 20
556.717692491
 30
0.0
 11
752.5765513557
 21
556.717692491
 31
0.0
  0
LINE
  5
202
330
1F
100
AcDbEntity
  8
0
  6
Continuous
 62
     7
370
    15
100
AcDbLine
 10
752.5765513557
 20
556.717692491
 30
0.0
 11
752.5765513557
 21
554.1177080835
 31
0.0
  0
LINE
  5
203
330
1F
100
AcDbEntity
  8
0
  6
Continuous
 62
     7
370
    15
100
AcDbLine
 10
752.5765513557
 20
554.1177080835
 30
0.0
 11
755.5765723365
 21
554.1177080835
 31
0.0
  0
LINE
  5
204
330
1F
100
AcDbEntity
  8
0
  6
Continuous
 62
     7
370
    15
100
AcDbLine
 10
755.5765723365
 20
554.1177080835
 30
0.0
 11
755.5765723365
 21
556.717692491
 31
0.0
  0
LINE
  5
205
330
1F
100
AcDbEntity
  8
0
  6
Continuous
 62
     7
370
    15
100
AcDbLine
 10
755.5765723365
 20
556.717692491
 30
0.0
 11
756.8265711444
 21
556.717692491
 31
0.0
  0
LINE
  5
206
330
1F
100
AcDbEntity
  8
0
  6
Continuous
 62
     7
370
    15
100
AcDbLine
 10
756.8265711444
 20
556.717692491
 30
0.0
 11
756.8265711444
 21
559.1177033152
 31
0.0
  0
LINE
  5
207
330
1F
100
AcDbEntity
  8
0
  6
Continuous
 62
     7
370
    15
100
AcDbLine
 10
756.8265711444
 20
559.1177033152
 30
0.0
 11
755.5765723365
 21
559.1177033152
 31
0.0
  0
LINE
  5
208
330
1F
100
AcDbEntity
  8
0
  6
Continuous
 62
     7
370
    15
100
AcDbLine
 10
755.5765723365
 20
559.1177033152
 30
0.0
 11
755.5765723365
 21
564.1176985468
 31
0.0
  0
LINE
  5
209
330
1F
100
AcDbEntity
  8
0
  6
Continuous
 62
     7
370
    15
100
AcDbLine
 10
773.2908641475
 20
564.1176985468
 30
0.0
 11
755.5765723365
 21
564.1176985468
 31
0.0
  0
LINE
  5
20A
330
1F
100
AcDbEntity
  8
0
  6
Continuous
 62
     7
370
    15
100
AcDbLine
 10
773.2908641475
 20
569.6177171435
 30
0.0
 11
773.2908641475
 21
564.1176985468
 31
0.0
  0
LINE
  5
20B
330
1F
100
AcDbEntity
  8
0
  6
Continuous
 62
     7
370
    15
100
AcDbLine
 10
773.2908641475
 20
569.6177171435
 30
0.0
 11
793.290845074
 21
569.6177171435
 31
0.0
  0
LINE
  5
20C
330
1F
100
AcDbEntity
  8
0
  6
Continuous
 62
     7
370
    15
100
AcDbLine
 10
793.290845074
 20
569.6177171435
 30
0.0
 11
793.290845074
 21
564.1176985468
 31
0.0
  0
LINE
  5
20D
330
1F
100
AcDbEntity
  8
0
  6
Continuous
 62
     7
370
    15
100
AcDbLine
 10
831.7194198745
 20
564.1176985468
 30
0.0
 11
793.290845074
 21
564.1176985468
 31
0.0
  0
LINE
  5
20E
330
1F
100
AcDbEntity
  8
0
  6
Continuous
 62
     7
370
    15
100
AcDbLine
 10
831.7194198745
 20
527.2605704035
 30
0.0
 11
831.7194198745
 21
564.1176985468
 31
0.0
  0
LINE
  5
20F
330
1F
100
AcDbEntity
  8
0
  6
Continuous
 62
     7
370
    15
100
AcDbLine
 10
837.2194086688
 20
527.2605704035
 30
0.0
 11
831.7194198745
 21
527.2605704035
 31
0.0
  0
LINE
  5
210
330
1F
100
AcDbEntity
  8
0
  6
Continuous
 62
     7
370
    15
100
AcDbLine
 10
837.2194086688
 20
527.2605704035
 30
0.0
 11
837.2194086688
 21
507.2605596747
 31
0.0
  0
LINE
  5
211
330
1F
100
AcDbEntity
  8
0
  6
Continuous
 62
     7
370
    15
100
AcDbLine
 10
837.2194086688
 20
507.2605596747
 30
0.0
 11
831.7194198745
 21
507.2605596747
 31
0.0
  0
LINE
  5
212
330
1F
100
AcDbEntity
  8
0
  6
Continuous
 62
     7
370
    15
100
AcDbLine
 10
831.7194198745
 20
490.3320060934
 30
0.0
 11
831.7194198745
 21
507.2605596747
 31
0.0
  0
LINE
  5
213
330
1F
100
AcDbEntity
  8
0
  6
Continuous
 62
     7
370
    15
100
AcDbLine
 10
831.7194198745
 20
490.3320060934
 30
0.0
 11
826.7194246429
 21
490.3320060934
 31
0.0
  0
LINE
  5
214
330
1F
100
AcDbEntity
  8
0
  6
Continuous
 62
     7
370
    15
100
AcDbLine
 10
826.7194246429
 20
490.3320060934
 30
0.0
 11
826.7194246429
 21
491.5820049013
 31
0.0
  0
LINE
  5
215
330
1F
100
AcDbEntity
  8
0
  6
Continuous
 62
     7
370
    15
100
AcDbLine
 10
826.7194246429
 20
491.5820049013
 30
0.0
 11
824.3194138187
 21
491.5820049013
 31
0.0
  0
LINE
  5
216
330
1F
100
AcDbEntity
  8
0
  6
Continuous
 62
     7
370
    15
100
AcDbLine
 10
824.3194138187
 20
491.5820049013
 30
0.0
 11
824.3194138187
 21
490.3320060934
 31
0.0
  0
LINE
  5
217
330
1F
100
AcDbEntity
  8
0
  6
Continuous
 62
     7
370
    15
100
AcDbLine
 10
824.3194138187
 20
490.3320060934
 30
0.0
 11
821.7194294112
 21
490.3320060934
 31
0.0
  0
LINE
  5
218
330
1F
100
AcDbEntity
  8
0
  6
Continuous
 62
     7
370
    15
100
AcDbLine
 10
821.7194294112
 20
490.3320060934
 30
0.0
 11
821.7194294112
 21
487.3319851126
 31
0.0
  0
LINE
  5
219
330
1F
100
AcDbEntity
  8
0
  6
Continuous
 62
     7
370
    15
100
AcDbLine
 10
821.7194294112
 20
487.3319851126
 30
0.0
 11
824.3194138187
 21
487.3319851126
 31
0.0
  0
LINE
  5
21A
330
1F
100
AcDbEntity
  8
0
  6
Continuous
 62
     7
370
    15
100
AcDbLine
 10
824.3194138187
 20
487.3319851126
 30
0.0
 11
824.3194138187
 21
486.0819863047
 31
0.0
  0
LINE
  5
21B
330
1F
100
AcDbEntity
  8
0
  6
Continuous
 62
     7
370
    15
100
AcDbLine
 10
824.3194138187
 20
486.0819863047
 30
0.0
 11
826.7194246429
 21
486.0819863047
 31
0.0
  0
LINE
  5
21C
330
1F
100
AcDbEntity
  8
0
  6
Continuous
 62
     7
370
    15
100
AcDbLine
 10
826.7194246429
 20
486.0819863047
 30
0.0
 11
826.7194246429
 21
487.3319851126
 31
0.0
  0
LINE
  5
21D
330
1F
100
AcDbEntity
  8
0
  6
Continuous
 62
     7
370
    15
100
AcDbLine
 10
826.7194246429
 20
487.3319851126
 30
0.0
 11
831.7194198745
 21
487.3319851126
 31
0.0
  0
LINE
  5
21E
330
1F
100
AcDbEntity
  8
0
  6
Continuous
 62
     7
370
    15
100
AcDbLine
 10
831.7194198745
 20
470.4034315313
 30
0.0
 11
831.7194198745
 21
487.3319851126
 31
0.0
  0
LINE
  5
21F
330
1F
100
AcDbEntity
  8
0
  6
Continuous
 62
     7
370
    15
100
AcDbLine
 10
837.2194086688
 20
470.4034315313
 30
0.0
 11
831.7194198745
 21
470.4034315313
 31
0.0
  0
LINE
  5
220
330
1F
100
AcDbEntity
  8
0
  6
Continuous
 62
     7
370
    15
100
AcDbLine
 10
837.2194086688
 20
470.4034315313
 30
0.0
 11
837.2194086688
 21
450.4034208025
 31
0.0
  0
LINE
  5
221
330
1F
100
AcDbEntity
  8
0
  6
Continuous
 62
     7
370
    15
100
AcDbLine
 10
837.2194086688
 20
450.4034208025
 30
0.0
 11
831.7194198745
 21
450.4034208025
 31
0.0
  0
LINE
  5
222
330
1F
100
AcDbEntity
  8
0
  6
Continuous
 62
     7
370
    15
100
AcDbLine
 10
831.7194198745
 20
413.546277758
 30
0.0
 11
831.7194198745
 21
450.4034208025
 31
0.0
  0
LINE
  5
223
330
1F
100
AcDbEntity
  8
0
  6
Continuous
 62
     7
370
    15
100
AcDbLine
 10
837.2194086688
 20
413.546277758
 30
0.0
 11
831.7194198745
 21
413.546277758
 31
0.0
  0
LINE
  5
224
330
1F
100
AcDbEntity
  8
0
  6
Continuous
 62
     7
370
    15
100
AcDbLine
 10
837.2194086688
 20
413.546277758
 30
0.0
 11
837.2194086688
 21
393.5462819304
 31
0.0
  0
LINE
  5
225
330
1F
100
AcDbEntity
  8
0
  6
Continuous
 62
     7
370
    15
100
AcDbLine
 10
837.2194086688
 20
393.5462819304
 30
0.0
 11
831.7194198745
 21
393.5462819304
 31
0.0
  0
LINE
  5
226
330
1F
100
AcDbEntity
  8
0
  6
Continuous
 62
     7
370
    15
100
AcDbLine
 10
831.7194198745
 20
376.617713448
 30
0.0
 11
831.7194198745
 21
393.5462819304
 31
0.0
  0
LINE
  5
227
330
1F
100
AcDbEntity
  8
0
  6
Continuous
 62
     7
370
    15
100
AcDbLine
 10
831.7194198745
 20
376.617713448
 30
0.0
 11
826.7194246429
 21
376.617713448
 31
0.0
  0
LINE
  5
228
330
1F
100
AcDbEntity
  8
0
  6
Continuous
 62
     7
370
    15
100
AcDbLine
 10
826.7194246429
 20
376.617713448
 30
0.0
 11
826.7194246429
 21
377.8677122559
 31
0.0
  0
LINE
  5
229
330
1F
100
AcDbEntity
  8
0
  6
Continuous
 62
     7
370
    15
100
AcDbLine
 10
826.7194246429
 20
377.8677122559
 30
0.0
 11
824.3194138187
 21
377.8677122559
 31
0.0
  0
LINE
  5
22A
330
1F
100
AcDbEntity
  8
0
  6
Continuous
 62
     7
370
    15
100
AcDbLine
 10
824.3194138187
 20
377.8677122559
 30
0.0
 11
824.3194138187
 21
376.617713448
 31
0.0
  0
LINE
  5
22B
330
1F
100
AcDbEntity
  8
0
  6
Continuous
 62
     7
370
    15
100
AcDbLine
 10
824.3194138187
 20
376.617713448
 30
0.0
 11
821.7194294112
 21
376.617713448
 31
0.0
  0
LINE
  5
22C
330
1F
100
AcDbEntity
  8
0
  6
Continuous
 62
     7
370
    15
100
AcDbLine
 10
821.7194294112
 20
376.617713448
 30
0.0
 11
821.7194294112
 21
373.6177073683
 31
0.0
  0
LINE
  5
22D
330
1F
100
AcDbEntity
  8
0
  6
Continuous
 62
     7
370
    15
100
AcDbLine
 10
821.7194294112
 20
373.6177073683
 30
0.0
 11
824.3194138187
 21
373.6177073683
 31
0.0
  0
LINE
  5
22E
330
1F
100
AcDbEntity
  8
0
  6
Continuous
 62
     7
370
    15
100
AcDbLine
 10
824.3194138187
 20
373.6177073683
 30
0.0
 11
824.3194138187
 21
372.3677085604
 31
0.0
  0
LINE
  5
22F
330
1F
100
AcDbEntity
  8
0
  6
Continuous
 62
     7
370
    15
100
AcDbLine
 10
824.3194138187
 20
372.3677085604
 30
0.0
 11
826.7194246429
 21
372.3677085604
 31
0.0
  0
LINE
  5
230
330
1F
100
AcDbEntity
  8
0
  6
Continuous
 62
     7
370
    15
100
AcDbLine
 10
826.7194246429
 20
372.3677085604
 30
0.0
 11
826.7194246429
 21
373.6177073683
 31
0.0
  0
LINE
  5
231
330
1F
100
AcDbEntity
  8
0
  6
Continuous
 62
     7
370
    15
100
AcDbLine
 10
826.7194246429
 20
373.6177073683
 30
0.0
 11
831.7194198745
 21
373.6177073683
 31
0.0
  0
LINE
  5
232
330
1F
100
AcDbEntity
  8
0
  6
Continuous
 62
     7
370
    15
100
AcDbLine
 10
831.7194198745
 20
356.6891388859
 30
0.0
 11
831.7194198745
 21
373.6177073683
 31
0.0
  0
LINE
  5
233
330
1F
100
AcDbEntity
  8
0
  6
Continuous
 62
     7
370
    15
100
AcDbLine
 10
837.2194086688
 20
356.6891388859
 30
0.0
 11
831.7194198745
 21
356.6891388859
 31
0.0
  0
LINE
  5
234
330
1F
100
AcDbEntity
  8
0
  6
Continuous
 62
     7
370
    15
100
AcDbLine
 10
837.2194086688
 20
356.6891388859
 30
0.0
 11
837.2194086688
 21
336.6891430582
 31
0.0
  0
LINE
  5
235
330
1F
100
AcDbEntity
  8
0
  6
Continuous
 62
     7
370
    15
100
AcDbLine
 10
837.2194086688
 20
336.6891430582
 30
0.0
 11
831.7194198745
 21
336.6891430582
 31
0.0
  0
LINE
  5
236
330
1F
100
AcDbEntity
  8
0
  6
Continuous
 62
     7
370
    15
100
AcDbLine
 10
831.7194198745
 20
299.8319925632
 30
0.0
 11
831.7194198745
 21
336.6891430582
 31
0.0
  0
LINE
  5
237
330
1F
100
AcDbEntity
  8
0
  6
Continuous
 62
     7
370
    15
100
AcDbLine
 10
837.2194086688
 20
299.8319925632
 30
0.0
 11
831.7194198745
 21
299.8319925632
 31
0.0
  0
LINE
  5
238
330
1F
100
AcDbEntity
  8
0
  6
Continuous
 62
     7
370
    15
100
AcDbLine
 10
837.2194086688
 20
299.8319925632
 30
0.0
 11
837.2194086688
 21
279.8319967355
 31
0.0
  0
LINE
  5
239
330
1F
100
AcDbEntity
  8
0
  6
Continuous
 62
     7
370
    15
100
AcDbLine
 10
837.2194086688
 20
279.8319967355
 30
0.0
 11
831.7194198745
 21
279.8319967355
 31
0.0
  0
LINE
  5
23A
330
1F
100
AcDbEntity
  8
0
  6
Continuous
 62
     7
370
    15
100
AcDbLine
 10
831.7194198745
 20
262.9034208025
 30
0.0
 11
831.7194198745
 21
279.8319967355
 31
0.0
  0
LINE
  5
23B
330
1F
100
AcDbEntity
  8
0
  6
Continuous
 62
     7
370
    15
100
AcDbLine
 10
831.7194198745
 20
262.9034208025
 30
0.0
 11
826.7194246429
 21
262.9034208025
 31
0.0
  0
LINE
  5
23C
330
1F
100
AcDbEntity
  8
0
  6
Continuous
 62
     7
370
    15
100
AcDbLine
 10
826.7194246429
 20
262.9034208025
 30
0.0
 11
826.7194246429
 21
264.1534196104
 31
0.0
  0
LINE
  5
23D
330
1F
100
AcDbEntity
  8
0
  6
Continuous
 62
     7
370
    15
100
AcDbLine
 10
826.7194246429
 20
264.1534196104
 30
0.0
 11
824.3194138187
 21
264.1534196104
 31
0.0
  0
LINE
  5
23E
330
1F
100
AcDbEntity
  8
0
  6
Continuous
 62
     7
370
    15
100
AcDbLine
 10
824.3194138187
 20
264.1534196104
 30
0.0
 11
824.3194138187
 21
262.9034208025
 31
0.0
  0
LINE
  5
23F
330
1F
100
AcDbEntity
  8
0
  6
Continuous
 62
     7
370
    15
100
AcDbLine
 10
824.3194138187
 20
262.9034208025
 30
0.0
 11
821.7194294112
 21
262.9034208025
 31
0.0
  0
LINE
  5
240
330
1F
100
AcDbEntity
  8
0
  6
Continuous
 62
     7
370
    15
100
AcDbLine
 10
821.7194294112
 20
262.9034208025
 30
0.0
 11
821.7194294112
 21
259.9034221734
 31
0.0
  0
LINE
  5
241
330
1F
100
AcDbEntity
  8
0
  6
Continuous
 62
     7
370
    15
100
AcDbLine
 10
821.7194294112
 20
259.9034221734
 30
0.0
 11
824.3194138187
 21
259.9034221734
 31
0.0
  0
LINE
  5
242
330
1F
100
AcDbEntity
  8
0
  6
Continuous
 62
     7
370
    15
100
AcDbLine
 10
824.3194138187
 20
259.9034221734
 30
0.0
 11
824.3194138187
 21
258.6534233655
 31
0.0
  0
LINE
  5
243
330
1F
100
AcDbEntity
  8
0
  6
Continuous
 62
     7
370
    15
100
AcDbLine
 10
824.3194138187
 20
258.6534233655
 30
0.0
 11
826.7194246429
 21
258.6534233655
 31
0.0
  0
LINE
  5
244
330
1F
100
AcDbEntity
  8
0
  6
Continuous
 62
     7
370
    15
100
AcDbLine
 10
826.7194246429
 20
258.6534233655
 30
0.0
 11
826.7194246429
 21
259.9034221734
 31
0.0
  0
LINE
  5
245
330
1F
100
AcDbEntity
  8
0
  6
Continuous
 62
     7
370
    15
100
AcDbLine
 10
826.7194246429
 20
259.9034221734
 30
0.0
 11
831.7194198745
 21
259.9034221734
 31
0.0
  0
LINE
  5
246
330
1F
100
AcDbEntity
  8
0
  6
Continuous
 62
     7
370
    15
100
AcDbLine
 10
831.7194198745
 20
242.9748499657
 30
0.0
 11
831.7194198745
 21
259.9034221734
 31
0.0
  0
LINE
  5
247
330
1F
100
AcDbEntity
  8
0
  6
Continuous
 62
     7
370
    15
100
AcDbLine
 10
837.2194086688
 20
242.9748499657
 30
0.0
 11
831.7194198745
 21
242.9748499657
 31
0.0
  0
LINE
  5
248
330
1F
100
AcDbEntity
  8
0
  6
Continuous
 62
     7
370
    15
100
AcDbLine
 10
837.2194086688
 20
242.9748499657
 30
0.0
 11
837.2194086688
 21
222.9748504128
 31
0.0
  0
LINE
  5
249
330
1F
100
AcDbEntity
  8
0
  6
Continuous
 62
     7
370
    15
100
AcDbLine
 10
837.2194086688
 20
222.9748504128
 30
0.0
 11
831.7194198745
 21
222.9748504128
 31
0.0
  0
LINE
  5
24A
330
1F
100
AcDbEntity
  8
0
  6
Continuous
 62
     7
370
    15
100
AcDbLine
 10
831.7194198745
 20
186.1177073683
 30
0.0
 11
831.7194198745
 21
222.9748504128
 31
0.0
  0
LINE
  5
24B
330
1F
100
AcDbEntity
  8
0
  6
Continuous
 62
     7
370
    15
100
AcDbLine
 10
793.290845074
 20
186.1177073683
 30
0.0
 11
831.7194198745
 21
186.1177073683
 31
0.0
  0
LINE
  5
24C
330
1F
100
AcDbEntity
  8
0
  6
Continuous
 62
     7
370
    15
100
AcDbLine
 10
793.290845074
 20
180.6177073981
 30
0.0
 11
793.290845074
 21
186.1177073683
 31
0.0
  0
LINE
  5
24D
330
1F
100
AcDbEntity
  8
0
  6
Continuous
 62
     7
370
    15
100
AcDbLine
 10
773.2908641475
 20
180.6177073981
 30
0.0
 11
793.290845074
 21
180.6177073981
 31
0.0
  0
LINE
  5
24E
330
1F
100
AcDbEntity
  8
0
  6
Continuous
 62
     7
370
    15
100
AcDbLine
 10
773.2908641475
 20
180.6177073981
 30
0.0
 11
773.2908641475
 21
186.1177073683
 31
0.0
  0
LINE
  5
24F
330
1F
100
AcDbEntity
  8
0
  6
Continuous
 62
     7
370
    15
100
AcDbLine
 10
755.5765723365
 20
186.1177073683
 30
0.0
 11
773.2908641475
 21
186.1177073683
 31
0.0
  0
LINE
  5
250
330
1F
100
AcDbEntity
  8
0
  6
Continuous
 62
     7
370
    15
100
AcDbLine
 10
755.5765723365
 20
186.1177073683
 30
0.0
 11
755.5765723365
 21
191.1177072565
 31
0.0
  0
LINE
  5
251
330
1F
100
AcDbEntity
  8
0
  6
Continuous
 62
     7
370
    15
100
AcDbLine
 10
755.5765723365
 20
191.1177072565
 30
0.0
 11
756.8265711444
 21
191.1177072565
 31
0.0
  0
LINE
  5
252
330
1F
100
AcDbEntity
  8
0
  6
Continuous
 62
     7
370
    15
100
AcDbLine
 10
756.8265711444
 20
191.1177072565
 30
0.0
 11
756.8265711444
 21
193.5177073705
 31
0.0
  0
LINE
  5
253
330
1F
100
AcDbEntity
  8
0
  6
Continuous
 62
     7
370
    15
100
AcDbLine
 10
756.8265711444
 20
193.5177073705
 30
0.0
 11
755.5765723365
 21
193.5177073705
 31
0.0
  0
LINE
  5
254
330
1F
100
AcDbEntity
  8
0
  6
Continuous
 62
     7
370
    15
100
AcDbLine
 10
755.5765723365
 20
193.5177073705
 30
0.0
 11
755.5765723365
 21
196.1177071448
 31
0.0
  0
LINE
  5
255
330
1F
100
AcDbEntity
  8
0
  6
Continuous
 62
     7
370
    15
100
AcDbLine
 10
755.5765723365
 20
196.1177071448
 30
0.0
 11
752.5765513557
 21
196.1177071448
 31
0.0
  0
LINE
  5
256
330
1F
100
AcDbEntity
  8
0
  6
Continuous
 62
     7
370
    15
100
AcDbLine
 10
752.5765513557
 20
196.1177071448
 30
0.0
 11
752.5765513557
 21
193.5177073705
 31
0.0
  0
LINE
  5
257
330
1F
100
AcDbEntity
  8
0
  6
Continuous
 62
     7
370
    15
100
AcDbLine
 10
752.5765513557
 20
193.5177073705
 30
0.0
 11
751.3265525478
 21
193.5177073705
 31
0.0
  0
LINE
  5
258
330
1F
100
AcDbEntity
  8
0
  6
Continuous
 62
     7
370
    15
100
AcDbLine
 10
751.3265525478
 20
193.5177073705
 30
0.0
 11
751.3265525478
 21
191.1177072565
 31
0.0
  0
LINE
  5
259
330
1F
100
AcDbEntity
  8
0
  6
Continuous
 62
     7
370
    15
100
AcDbLine
 10
751.3265525478
 20
191.1177072565
 30
0.0
 11
752.5765513557
 21
191.1177072565
 31
0.0
  0
LINE
  5
25A
330
1F
100
AcDbEntity
  8
0
  6
Continuous
 62
     7
370
    15
100
AcDbLine
 10
752.5765513557
 20
191.1177072565
 30
0.0
 11
752.5765513557
 21
186.1177073683
 31
0.0
  0
LINE
  5
25B
330
1F
100
AcDbEntity
  8
0
  6
Continuous
 62
     7
370
    15
100
AcDbLine
 10
734.862289347
 20
186.1177073683
 30
0.0
 11
752.5765513557
 21
186.1177073683
 31
0.0
  0
LINE
  5
25C
330
1F
100
AcDbEntity
  8
0
  6
Continuous
 62
     7
370
    15
100
AcDbLine
 10
734.862289347
 20
180.6177073981
 30
0.0
 11
734.862289347
 21
186.1177073683
 31
0.0
  0
LINE
  5
25D
330
1F
100
AcDbEntity
  8
0
  6
Continuous
 62
     7
370
    15
100
AcDbLine
 10
714.8622786182
 20
180.6177073981
 30
0.0
 11
734.862289347
 21
180.6177073981
 31
0.0
  0
LINE
  5
25E
330
1F
100
AcDbEntity
  8
0
  6
Continuous
 62
     7
370
    15
100
AcDbLine
 10
714.8622786182
 20
180.6177073981
 30
0.0
 11
714.8622786182
 21
186.1177073683
 31
0.0
  0
LINE
  5
25F
330
1F
100
AcDbEntity
  8
0
  6
Continuous
 62
     7
370
    15
100
AcDbLine
 10
676.4337038177
 20
186.1177073683
 30
0.0
 11
714.8622786182
 21
186.1177073683
 31
0.0
  0
LINE
  5
260
330
1F
100
AcDbEntity
  8
0
  6
Continuous
 62
     7
370
    15
100
AcDbLine
 10
676.4337038177
 20
180.6177073981
 30
0.0
 11
676.4337038177
 21
186.1177073683
 31
0.0
  0
LINE
  5
261
330
1F
100
AcDbEntity
  8
0
  6
Continuous
 62
     7
370
    15
100
AcDbLine
 10
656.43370799
 20
180.6177073981
 30
0.0
 11
676.4337038177
 21
180.6177073981
 31
0.0
  0
LINE
  5
262
330
1F
100
AcDbEntity
  8
0
  6
Continuous
 62
     7
370
    15
100
AcDbLine
 10
656.43370799
 20
180.6177073981
 30
0.0
 11
656.43370799
 21
186.1177073683
 31
0.0
  0
LINE
  5
263
330
1F
100
AcDbEntity
  8
0
  6
Continuous
 62
     7
370
    15
100
AcDbLine
 10
638.719416179
 20
186.1177073683
 30
0.0
 11
656.43370799
 21
186.1177073683
 31
0.0
  0
LINE
  5
264
330
1F
100
AcDbEntity
  8
0
  6
Continuous
 62
     7
370
    15
100
AcDbLine
 10
638.719416179
 20
186.1177073683
 30
0.0
 11
638.719416179
 21
191.1177072565
 31
0.0
  0
LINE
  5
265
330
1F
100
AcDbEntity
  8
0
  6
Continuous
 62
     7
370
    15
100
AcDbLine
 10
638.719416179
 20
191.1177072565
 30
0.0
 11
639.9694149869
 21
191.1177072565
 31
0.0
  0
LINE
  5
266
330
1F
100
AcDbEntity
  8
0
  6
Continuous
 62
     7
370
    15
100
AcDbLine
 10
639.9694149869
 20
191.1177072565
 30
0.0
 11
639.9694149869
 21
193.5177073705
 31
0.0
  0
LINE
  5
267
330
1F
100
AcDbEntity
  8
0
  6
Continuous
 62
     7
370
    15
100
AcDbLine
 10
639.9694149869
 20
193.5177073705
 30
0.0
 11
638.719416179
 21
193.5177073705
 31
0.0
  0
LINE
  5
268
330
1F
100
AcDbEntity
  8
0
  6
Continuous
 62
     7
370
    15
100
AcDbLine
 10
638.719416179
 20
193.5177073705
 30
0.0
 11
638.719416179
 21
196.1177071448
 31
0.0
  0
LINE
  5
269
330
1F
100
AcDbEntity
  8
0
  6
Continuous
 62
     7
370
    15
100
AcDbLine
 10
638.719416179
 20
196.1177071448
 30
0.0
 11
635.7194250005
 21
196.1177071448
 31
0.0
  0
LINE
  5
26A
330
1F
100
AcDbEntity
  8
0
  6
Continuous
 62
     7
370
    15
100
AcDbLine
 10
635.7194250005
 20
196.1177071448
 30
0.0
 11
635.7194250005
 21
193.5177073705
 31
0.0
  0
LINE
  5
26B
330
1F
100
AcDbEntity
  8
0
  6
Continuous
 62
     7
370
    15
100
AcDbLine
 10
635.7194250005
 20
193.5177073705
 30
0.0
 11
634.4694261926
 21
193.5177073705
 31
0.0
  0
LINE
  5
26C
330
1F
100
AcDbEntity
  8
0
  6
Continuous
 62
     7
370
    15
100
AcDbLine
 10
634.4694261926
 20
193.5177073705
 30
0.0
 11
634.4694261926
 21
191.1177072565
 31
0.0
  0
LINE
  5
26D
330
1F
100
AcDbEntity
  8
0
  6
Continuous
 62
     7
370
    15
100
AcDbLine
 10
634.4694261926
 20
191.1177072565
 30
0.0
 11
635.7194250005
 21
191.1177072565
 31
0.0
  0
LINE
  5
26E
330
1F
100
AcDbEntity
  8
0
  6
Continuous
 62
     7
370
    15
100
AcDbLine
 10
635.7194250005
 20
191.1177072565
 30
0.0
 11
635.7194250005
 21
186.1177073683
 31
0.0
  0
LINE
  5
26F
330
1F
100
AcDbEntity
  8
0
  6
Continuous
 62
     7
370
    15
100
AcDbLine
 10
618.0051331895
 20
186.1177073683
 30
0.0
 11
635.7194250005
 21
186.1177073683
 31
0.0
  0
LINE
  5
270
330
1F
100
AcDbEntity
  8
0
  6
Continuous
 62
     7
370
    15
100
AcDbLine
 10
618.0051331895
 20
180.6177073981
 30
0.0
 11
618.0051331895
 21
186.1177073683
 31
0.0
  0
LINE
  5
271
330
1F
100
AcDbEntity
  8
0
  6
Continuous
 62
     7
370
    15
100
AcDbLine
 10
598.0051373618
 20
180.6177073981
 30
0.0
 11
618.0051331895
 21
180.6177073981
 31
0.0
  0
LINE
  5
272
330
1F
100
AcDbEntity
  8
0
  6
Continuous
 62
     7
370
    15
100
AcDbLine
 10
598.0051373618
 20
180.6177073981
 30
0.0
 11
598.0051373618
 21
186.1177073683
 31
0.0
  0
LINE
  5
273
330
1F
100
AcDbEntity
  8
0
  6
Continuous
 62
     7
370
    15
100
AcDbLine
 10
559.5765625613
 20
186.1177073683
 30
0.0
 11
598.0051373618
 21
186.1177073683
 31
0.0
  0
LINE
  5
274
330
1F
100
AcDbEntity
  8
0
  6
Continuous
 62
     7
370
    15
100
AcDbLine
 10
559.5765625613
 20
180.6177073981
 30
0.0
 11
559.5765625613
 21
186.1177073683
 31
0.0
  0
LINE
  5
275
330
1F
100
AcDbEntity
  8
0
  6
Continuous
 62
     7
370
    15
100
AcDbLine
 10
539.5765667337
 20
180.6177073981
 30
0.0
 11
559.5765625613
 21
180.6177073981
 31
0.0
  0
LINE
  5
276
330
1F
100
AcDbEntity
  8
0
  6
Continuous
 62
     7
370
    15
100
AcDbLine
 10
539.5765667337
 20
180.6177073981
 30
0.0
 11
539.5765667337
 21
186.1177073683
 31
0.0
  0
LINE
  5
277
330
1F
100
AcDbEntity
  8
0
  6
Continuous
 62
     7
370
    15
100
AcDbLine
 10
521.8622749227
 20
186.1177073683
 30
0.0
 11
539.5765667337
 21
186.1177073683
 31
0.0
  0
LINE
  5
278
330
1F
100
AcDbEntity
  8
0
  6
Continuous
 62
     7
370
    15
100
AcDbLine
 10
521.8622749227
 20
186.1177073683
 30
0.0
 11
521.8622749227
 21
191.1177072565
 31
0.0
  0
LINE
  5
279
330
1F
100
AcDbEntity
  8
0
  6
Continuous
 62
     7
370
    15
100
AcDbLine
 10
521.8622749227
 20
191.1177072565
 30
0.0
 11
523.1122811812
 21
191.1177072565
 31
0.0
  0
LINE
  5
27A
330
1F
100
AcDbEntity
  8
0
  6
Continuous
 62
     7
370
    15
100
AcDbLine
 10
523.1122811812
 20
191.1177072565
 30
0.0
 11
523.1122811812
 21
193.5177073705
 31
0.0
  0
LINE
  5
27B
330
1F
100
AcDbEntity
  8
0
  6
Continuous
 62
     7
370
    15
100
AcDbLine
 10
523.1122811812
 20
193.5177073705
 30
0.0
 11
521.8622749227
 21
193.5177073705
 31
0.0
  0
LINE
  5
27C
330
1F
100
AcDbEntity
  8
0
  6
Continuous
 62
     7
370
    15
100
AcDbLine
 10
521.8622749227
 20
193.5177073705
 30
0.0
 11
521.8622749227
 21
196.1177071448
 31
0.0
  0
LINE
  5
27D
330
1F
100
AcDbEntity
  8
0
  6
Continuous
 62
     7
370
    15
100
AcDbLine
 10
521.8622749227
 20
196.1177071448
 30
0.0
 11
518.8622762936
 21
196.1177071448
 31
0.0
  0
LINE
  5
27E
330
1F
100
AcDbEntity
  8
0
  6
Continuous
 62
     7
370
    15
100
AcDbLine
 10
518.8622762936
 20
196.1177071448
 30
0.0
 11
518.8622762936
 21
193.5177073705
 31
0.0
  0
LINE
  5
27F
330
1F
100
AcDbEntity
  8
0
  6
Continuous
 62
     7
370
    15
100
AcDbLine
 10
518.8622762936
 20
193.5177073705
 30
0.0
 11
517.6122774857
 21
193.5177073705
 31
0.0
  0
LINE
  5
280
330
1F
100
AcDbEntity
  8
0
  6
Continuous
 62
     7
370
    15
100
AcDbLine
 10
517.6122774857
 20
193.5177073705
 30
0.0
 11
517.6122774857
 21
191.1177072565
 31
0.0
  0
LINE
  5
281
330
1F
100
AcDbEntity
  8
0
  6
Continuous
 62
     7
370
    15
100
AcDbLine
 10
517.6122774857
 20
191.1177072565
 30
0.0
 11
518.8622762936
 21
191.1177072565
 31
0.0
  0
LINE
  5
282
330
1F
100
AcDbEntity
  8
0
  6
Continuous
 62
     7
370
    15
100
AcDbLine
 10
518.8622762936
 20
191.1177072565
 30
0.0
 11
518.8622762936
 21
186.1177073683
 31
0.0
  0
LINE
  5
283
330
1F
100
AcDbEntity
  8
0
  6
Continuous
 62
     7
370
    15
100
AcDbLine
 10
501.1479919332
 20
186.1177073683
 30
0.0
 11
518.8622762936
 21
186.1177073683
 31
0.0
  0
LINE
  5
284
330
1F
100
AcDbEntity
  8
0
  6
Continuous
 62
     7
370
    15
100
AcDbLine
 10
501.1479919332
 20
180.6177073981
 30
0.0
 11
501.1479919332
 21
186.1177073683
 31
0.0
  0
LINE
  5
285
330
1F
100
AcDbEntity
  8
0
  6
Continuous
 62
     7
370
    15
100
AcDbLine
 10
481.1479923802
 20
180.6177073981
 30
0.0
 11
501.1479919332
 21
180.6177073981
 31
0.0
  0
LINE
  5
286
330
1F
100
AcDbEntity
  8
0
  6
Continuous
 62
     7
370
    15
100
AcDbLine
 10
481.1479923802
 20
180.6177073981
 30
0.0
 11
481.1479923802
 21
186.1177073683
 31
0.0
  0
LINE
  5
287
330
1F
100
AcDbEntity
  8
0
  6
Continuous
 62
     7
370
    15
100
AcDbLine
 10
442.719421305
 20
186.1177073683
 30
0.0
 11
481.1479923802
 21
186.1177073683
 31
0.0
  0
LINE
  5
288
330
1F
100
AcDbEntity
  8
0
  6
Continuous
 62
     7
370
    15
100
AcDbLine
 10
442.719421305
 20
222.9748504128
 30
0.0
 11
442.719421305
 21
186.1177073683
 31
0.0
  0
LINE
  5
289
330
1F
100
AcDbEntity
  8
0
  6
Continuous
 62
     7
370
    15
100
AcDbLine
 10
437.2194213348
 20
222.9748504128
 30
0.0
 11
442.719421305
 21
222.9748504128
 31
0.0
  0
LINE
  5
28A
330
1F
100
AcDbEntity
  8
0
  6
Continuous
 62
     7
370
    15
100
AcDbLine
 10
437.2194213348
 20
242.9748499657
 30
0.0
 11
437.2194213348
 21
222.9748504128
 31
0.0
  0
LINE
  5
28B
330
1F
100
AcDbEntity
  8
0
  6
Continuous
 62
     7
370
    15
100
AcDbLine
 10
437.2194213348
 20
242.9748499657
 30
0.0
 11
442.719421305
 21
242.9748499657
 31
0.0
  0
LINE
  5
28C
330
1F
100
AcDbEntity
  8
0
  6
Continuous
 62
     7
370
    15
100
AcDbLine
 10
442.719421305
 20
259.9034221734
 30
0.0
 11
442.719421305
 21
242.9748499657
 31
0.0
  0
LINE
  5
28D
330
1F
100
AcDbEntity
  8
0
  6
Continuous
 62
     7
370
    15
100
AcDbLine
 10
442.719421305
 20
259.9034221734
 30
0.0
 11
447.7194211932
 21
259.9034221734
 31
0.0
  0
LINE
  5
28E
330
1F
100
AcDbEntity
  8
0
  6
Continuous
 62
     7
370
    15
100
AcDbLine
 10
447.7194211932
 20
259.9034221734
 30
0.0
 11
447.7194211932
 21
258.6534233655
 31
0.0
  0
LINE
  5
28F
330
1F
100
AcDbEntity
  8
0
  6
Continuous
 62
     7
370
    15
100
AcDbLine
 10
809.7194348949
 20
396.6177092756
 30
0.0
 11
809.7194348949
 21
402.1177129711
 31
0.0
  0
LINE
  5
290
330
1F
100
AcDbEntity
  8
0
  6
Continuous
 62
     7
370
    15
100
AcDbLine
 10
809.7194348949
 20
402.1177129711
 30
0.0
 11
785.7194160598
 21
402.1177129711
 31
0.0
  0
LINE
  5
291
330
1F
100
AcDbEntity
  8
0
  6
Continuous
 62
     7
370
    15
100
AcDbLine
 10
785.7194160598
 20
402.1177129711
 30
0.0
 11
785.7194160598
 21
396.6177092756
 31
0.0
  0
LINE
  5
292
330
1F
100
AcDbEntity
  8
0
  6
Continuous
 62
     7
370
    15
100
AcDbLine
 10
785.7194160598
 20
396.6177092756
 30
0.0
 11
809.7194348949
 21
396.6177092756
 31
0.0
  0
LINE
  5
293
330
1F
100
AcDbEntity
  8
0
  6
Continuous
 62
     7
370
    15
100
AcDbLine
 10
809.7194348949
 20
348.1177078451
 30
0.0
 11
809.7194348949
 21
353.6177115406
 31
0.0
  0
LINE
  5
294
330
1F
100
AcDbEntity
  8
0
  6
Continuous
 62
     7
370
    15
100
AcDbLine
 10
809.7194348949
 20
353.6177115406
 30
0.0
 11
785.7194160598
 21
353.6177115406
 31
0.0
  0
LINE
  5
295
330
1F
100
AcDbEntity
  8
0
  6
Continuous
 62
     7
370
    15
100
AcDbLine
 10
785.7194160598
 20
353.6177115406
 30
0.0
 11
785.7194160598
 21
348.1177078451
 31
0.0
  0
LINE
  5
296
330
1F
100
AcDbEntity
  8
0
  6
Continuous
 62
     7
370
    15
100
AcDbLine
 10
785.7194160598
 20
348.1177078451
 30
0.0
 11
809.7194348949
 21
348.1177078451
 31
0.0
  0
CIRCLE
  5
297
330
1F
100
AcDbEntity
  8
0
  6
Continuous
 62
     7
370
    15
100
AcDbCircle
 10
694.119421305
 20
267.3177073683
 30
0.0
 40
1.649999999999864
  0
CIRCLE
  5
298
330
1F
100
AcDbEntity
  8
0
  6
Continuous
 62
     7
370
    15
100
AcDbCircle
 10
776.719421305
 20
267.2177073683
 30
0.0
 40
1.649999999999977
  0
CIRCLE
  5
299
330
1F
100
AcDbEntity
  8
0
  6
Continuous
 62
     7
370
    15
100
AcDbCircle
 10
770.219421305
 20
218.6177073683
 30
0.0
 40
1.649999999999977
  0
CIRCLE
  5
29A
330
1F
100
AcDbEntity
  8
0
  6
Continuous
 62
     7
370
    15
100
AcDbCircle
 10
695.119421305
 20
218.6177073683
 30
0.0
 40
1.649999999999864
  0
CIRCLE
  5
29B
330
1F
100
AcDbEntity
  8
0
  6
Continuous
 62
     7
370
    15
100
AcDbCircle
 10
801.719421305
 20
216.1177073683
 30
0.0
 40
12.49999999999989
  0
CIRCLE
  5
29C
330
1F
100
AcDbEntity
  8
0
  6
Continuous
 62
     7
370
    15
100
AcDbCircle
 10
801.719421305
 20
534.1177073683
 30
0.0
 40
12.5
  0
CIRCLE
  5
29D
330
1F
100
AcDbEntity
  8
0
  6
Continuous
 62
     7
370
    15
100
AcDbCircle
 10
472.719421305
 20
534.1177073683
 30
0.0
 40
12.5
  0
CIRCLE
  5
29E
330
1F
100
AcDbEntity
  8
0
  6
Continuous
 62
     7
370
    15
100
AcDbCircle
 10
472.719421305
 20
216.1177073683
 30
0.0
 40
12.49999999999994
  0
LINE
  5
29F
330
1F
100
AcDbEntity
  8
0
  6
Continuous
 62
     7
370
    15
100
AcDbLine
 10
649.2194151061
 20
475.1177118982
 30
0.0
 11
649.2194151061
 21
479.1177200045
 31
0.0
  0
LINE
  5
2A0
330
1F
100
AcDbEntity
  8
0
  6
Continuous
 62
     7
370
    15
100
AcDbLine
 10
649.2194151061
 20
479.1177200045
 30
0.0
 11
647.2194259542
 21
479.1177200045
 31
0.0
  0
LINE
  5
2A1
330
1F
100
AcDbEntity
  8
0
  6
Continuous
 62
     7
370
    15
100
AcDbLine
 10
647.2194259542
 20
479.1177200045
 30
0.0
 11
647.2194259542
 21
475.1177118982
 31
0.0
  0
LINE
  5
2A2
330
1F
100
AcDbEntity
  8
0
  6
Continuous
 62
     7
370
    15
100
AcDbLine
 10
647.2194259542
 20
475.1177118982
 30
0.0
 11
649.2194151061
 21
475.1177118982
 31
0.0
  0
LINE
  5
2A3
330
1F
100
AcDbEntity
  8
0
  6
Continuous
 62
     7
370
    15
100
AcDbLine
 10
625.2194260734
 20
275.117708918
 30
0.0
 11
625.2194260734
 21
271.1177082624
 31
0.0
  0
LINE
  5
2A4
330
1F
100
AcDbEntity
  8
0
  6
Continuous
 62
     7
370
    15
100
AcDbLine
 10
625.2194260734
 20
271.1177082624
 30
0.0
 11
627.2194152253
 21
271.1177082624
 31
0.0
  0
LINE
  5
2A5
330
1F
100
AcDbEntity
  8
0
  6
Continuous
 62
     7
370
    15
100
AcDbLine
 10
627.2194152253
 20
271.1177082624
 30
0.0
 11
627.2194152253
 21
275.117708918
 31
0.0
  0
LINE
  5
2A6
330
1F
100
AcDbEntity
  8
0
  6
Continuous
 62
     7
370
    15
100
AcDbLine
 10
627.2194152253
 20
275.117708918
 30
0.0
 11
625.2194260734
 21
275.117708918
 31
0.0
  0
LINE
  5
2A7
330
1F
100
AcDbEntity
  8
0
  6
Continuous
 62
     7
370
    15
100
AcDbLine
 10
649.2194151061
 20
377.1177070107
 30
0.0
 11
647.2194259542
 21
377.1177070107
 31
0.0
  0
LINE
  5
2A8
330
1F
100
AcDbEntity
  8
0
  6
Continuous
 62
     7
370
    15
100
AcDbLine
 10
647.2194259542
 20
377.1177070107
 30
0.0
 11
647.2194259542
 21
373.1177138056
 31
0.0
  0
LINE
  5
2A9
330
1F
100
AcDbEntity
  8
0
  6
Continuous
 62
     7
370
    15
100
AcDbLine
 10
647.2194259542
 20
373.1177138056
 30
0.0
 11
649.2194151061
 21
373.1177138056
 31
0.0
  0
LINE
  5
2AA
330
1F
100
AcDbEntity
  8
0
  6
Continuous
 62
     7
370
    15
100
AcDbLine
 10
649.2194151061
 20
373.1177138056
 30
0.0
 11
649.2194151061
 21
377.1177070107
 31
0.0
  0
LINE
  5
2AB
330
1F
100
AcDbEntity
  8
0
  6
Continuous
 62
     7
370
    15
100
AcDbLine
 10
649.2194151061
 20
275.117708918
 30
0.0
 11
647.2194259542
 21
275.117708918
 31
0.0
  0
LINE
  5
2AC
330
1F
100
AcDbEntity
  8
0
  6
Continuous
 62
     7
370
    15
100
AcDbLine
 10
647.2194259542
 20
275.117708918
 30
0.0
 11
647.2194259542
 21
271.1177082624
 31
0.0
  0
LINE
  5
2AD
330
1F
100
AcDbEntity
  8
0
  6
Continuous
 62
     7
370
    15
100
AcDbLine
 10
647.2194259542
 20
271.1177082624
 30
0.0
 11
649.2194151061
 21
271.1177082624
 31
0.0
  0
LINE
  5
2AE
330
1F
100
AcDbEntity
  8
0
  6
Continuous
 62
     7
370
    15
100
AcDbLine
 10
649.2194151061
 20
271.1177082624
 30
0.0
 11
649.2194151061
 21
275.117708918
 31
0.0
  0
LINE
  5
2AF
330
1F
100
AcDbEntity
  8
0
  6
Continuous
 62
     7
370
    15
100
AcDbLine
 10
625.2194260734
 20
377.1177070107
 30
0.0
 11
625.2194260734
 21
373.1177138056
 31
0.0
  0
LINE
  5
2B0
330
1F
100
AcDbEntity
  8
0
  6
Continuous
 62
     7
370
    15
100
AcDbLine
 10
625.2194260734
 20
373.1177138056
 30
0.0
 11
627.2194152253
 21
373.1177138056
 31
0.0
  0
LINE
  5
2B1
330
1F
100
AcDbEntity
  8
0
  6
Continuous
 62
     7
370
    15
100
AcDbLine
 10
627.2194152253
 20
373.1177138056
 30
0.0
 11
627.2194152253
 21
377.1177070107
 31
0.0
  0
LINE
  5
2B2
330
1F
100
AcDbEntity
  8
0
  6
Continuous
 62
     7
370
    15
100
AcDbLine
 10
627.2194152253
 20
377.1177070107
 30
0.0
 11
625.2194260734
 21
377.1177070107
 31
0.0
  0
LINE
  5
2B3
330
1F
100
AcDbEntity
  8
0
  6
Continuous
 62
     7
370
    15
100
AcDbLine
 10
625.2194260734
 20
479.1177200045
 30
0.0
 11
625.2194260734
 21
475.1177118982
 31
0.0
  0
LINE
  5
2B4
330
1F
100
AcDbEntity
  8
0
  6
Continuous
 62
     7
370
    15
100
AcDbLine
 10
625.2194260734
 20
475.1177118982
 30
0.0
 11
627.2194152253
 21
475.1177118982
 31
0.0
  0
LINE
  5
2B5
330
1F
100
AcDbEntity
  8
0
  6
Continuous
 62
     7
370
    15
100
AcDbLine
 10
627.2194152253
 20
475.1177118982
 30
0.0
 11
627.2194152253
 21
479.1177200045
 31
0.0
  0
LINE
  5
2B6
330
1F
100
AcDbEntity
  8
0
  6
Continuous
 62
     7
370
    15
100
AcDbLine
 10
627.2194152253
 20
479.1177200045
 30
0.0
 11
625.2194260734
 21
479.1177200045
 31
0.0
  0
LINE
  5
2B7
330
1F
100
AcDbEntity
  8
0
  6
Continuous
 62
     7
370
    15
100
AcDbLine
 10
766.0765563624
 20
479.1177200045
 30
0.0
 11
764.0765523093
 21
479.1177200045
 31
0.0
  0
LINE
  5
2B8
330
1F
100
AcDbEntity
  8
0
  6
Continuous
 62
     7
370
    15
100
AcDbLine
 10
764.0765523093
 20
479.1177200045
 30
0.0
 11
764.0765523093
 21
475.1177118982
 31
0.0
  0
LINE
  5
2B9
330
1F
100
AcDbEntity
  8
0
  6
Continuous
 62
     7
370
    15
100
AcDbLine
 10
764.0765523093
 20
475.1177118982
 30
0.0
 11
766.0765563624
 21
475.1177118982
 31
0.0
  0
LINE
  5
2BA
330
1F
100
AcDbEntity
  8
0
  6
Continuous
 62
     7
370
    15
100
AcDbLine
 10
766.0765563624
 20
475.1177118982
 30
0.0
 11
766.0765563624
 21
479.1177200045
 31
0.0
  0
LINE
  5
2BB
330
1F
100
AcDbEntity
  8
0
  6
Continuous
 62
     7
370
    15
100
AcDbLine
 10
766.0765563624
 20
377.1177070107
 30
0.0
 11
764.0765523093
 21
377.1177070107
 31
0.0
  0
LINE
  5
2BC
330
1F
100
AcDbEntity
  8
0
  6
Continuous
 62
     7
370
    15
100
AcDbLine
 10
764.0765523093
 20
377.1177070107
 30
0.0
 11
764.0765523093
 21
373.1177138056
 31
0.0
  0
LINE
  5
2BD
330
1F
100
AcDbEntity
  8
0
  6
Continuous
 62
     7
370
    15
100
AcDbLine
 10
764.0765523093
 20
373.1177138056
 30
0.0
 11
766.0765563624
 21
373.1177138056
 31
0.0
  0
LINE
  5
2BE
330
1F
100
AcDbEntity
  8
0
  6
Continuous
 62
     7
370
    15
100
AcDbLine
 10
766.0765563624
 20
373.1177138056
 30
0.0
 11
766.0765563624
 21
377.1177070107
 31
0.0
  0
LINE
  5
2BF
330
1F
100
AcDbEntity
  8
0
  6
Continuous
 62
     7
370
    15
100
AcDbLine
 10
766.0765563624
 20
275.117708918
 30
0.0
 11
764.0765523093
 21
275.117708918
 31
0.0
  0
LINE
  5
2C0
330
1F
100
AcDbEntity
  8
0
  6
Continuous
 62
     7
370
    15
100
AcDbLine
 10
764.0765523093
 20
275.117708918
 30
0.0
 11
764.0765523093
 21
271.1177082624
 31
0.0
  0
LINE
  5
2C1
330
1F
100
AcDbEntity
  8
0
  6
Continuous
 62
     7
370
    15
100
AcDbLine
 10
764.0765523093
 20
271.1177082624
 30
0.0
 11
766.0765563624
 21
271.1177082624
 31
0.0
  0
LINE
  5
2C2
330
1F
100
AcDbEntity
  8
0
  6
Continuous
 62
     7
370
    15
100
AcDbLine
 10
766.0765563624
 20
271.1177082624
 30
0.0
 11
766.0765563624
 21
275.117708918
 31
0.0
  0
LINE
  5
2C3
330
1F
100
AcDbEntity
  8
0
  6
Continuous
 62
     7
370
    15
100
AcDbLine
 10
742.0765673297
 20
275.117708918
 30
0.0
 11
742.0765673297
 21
271.1177082624
 31
0.0
  0
LINE
  5
2C4
330
1F
100
AcDbEntity
  8
0
  6
Continuous
 62
     7
370
    15
100
AcDbLine
 10
742.0765673297
 20
271.1177082624
 30
0.0
 11
744.0765713828
 21
271.1177082624
 31
0.0
  0
LINE
  5
2C5
330
1F
100
AcDbEntity
  8
0
  6
Continuous
 62
     7
370
    15
100
AcDbLine
 10
744.0765713828
 20
271.1177082624
 30
0.0
 11
744.0765713828
 21
275.117708918
 31
0.0
  0
LINE
  5
2C6
330
1F
100
AcDbEntity
  8
0
  6
Continuous
 62
     7
370
    15
100
AcDbLine
 10
744.0765713828
 20
275.117708918
 30
0.0
 11
742.0765673297
 21
275.117708918
 31
0.0
  0
LINE
  5
2C7
330
1F
100
AcDbEntity
  8
0
  6
Continuous
 62
     7
370
    15
100
AcDbLine
 10
742.0765673297
 20
377.1177070107
 30
0.0
 11
742.0765673297
 21
373.1177138056
 31
0.0
  0
LINE
  5
2C8
330
1F
100
AcDbEntity
  8
0
  6
Continuous
 62
     7
370
    15
100
AcDbLine
 10
742.0765673297
 20
373.1177138056
 30
0.0
 11
744.0765713828
 21
373.1177138056
 31
0.0
  0
LINE
  5
2C9
330
1F
100
AcDbEntity
  8
0
  6
Continuous
 62
     7
370
    15
100
AcDbLine
 10
744.0765713828
 20
373.1177138056
 30
0.0
 11
744.0765713828
 21
377.1177070107
 31
0.0
  0
LINE
  5
2CA
330
1F
100
AcDbEntity
  8
0
  6
Continuous
 62
     7
370
    15
100
AcDbLine
 10
744.0765713828
 20
377.1177070107
 30
0.0
 11
742.0765673297
 21
377.1177070107
 31
0.0
  0
LINE
  5
2CB
330
1F
100
AcDbEntity
  8
0
  6
Continuous
 62
     7
370
    15
100
AcDbLine
 10
744.0765713828
 20
479.1177200045
 30
0.0
 11
742.0765673297
 21
479.1177200045
 31
0.0
  0
LINE
  5
2CC
330
1F
100
AcDbEntity
  8
0
  6
Continuous
 62
     7
370
    15
100
AcDbLine
 10
742.0765673297
 20
479.1177200045
 30
0.0
 11
742.0765673297
 21
475.1177118982
 31
0.0
  0
LINE
  5
2CD
330
1F
100
AcDbEntity
  8
0
  6
Continuous
 62
     7
370
    15
100
AcDbLine
 10
742.0765673297
 20
475.1177118982
 30
0.0
 11
744.0765713828
 21
475.1177118982
 31
0.0
  0
LINE
  5
2CE
330
1F
100
AcDbEntity
  8
0
  6
Continuous
 62
     7
370
    15
100
AcDbLine
 10
744.0765713828
 20
475.1177118982
 30
0.0
 11
744.0765713828
 21
479.1177200045
 31
0.0
  0
LINE
  5
2CF
330
1F
100
AcDbEntity
  8
0
  6
Continuous
 62
     7
370
    15
100
AcDbLine
 10
532.3622813004
 20
479.1177200045
 30
0.0
 11
530.3622772472
 21
479.1177200045
 31
0.0
  0
LINE
  5
2D0
330
1F
100
AcDbEntity
  8
0
  6
Continuous
 62
     7
370
    15
100
AcDbLine
 10
530.3622772472
 20
479.1177200045
 30
0.0
 11
530.3622772472
 21
475.1177118982
 31
0.0
  0
LINE
  5
2D1
330
1F
100
AcDbEntity
  8
0
  6
Continuous
 62
     7
370
    15
100
AcDbLine
 10
530.3622772472
 20
475.1177118982
 30
0.0
 11
532.3622813004
 21
475.1177118982
 31
0.0
  0
LINE
  5
2D2
330
1F
100
AcDbEntity
  8
0
  6
Continuous
 62
     7
370
    15
100
AcDbLine
 10
532.3622813004
 20
475.1177118982
 30
0.0
 11
532.3622813004
 21
479.1177200045
 31
0.0
  0
LINE
  5
2D3
330
1F
100
AcDbEntity
  8
0
  6
Continuous
 62
     7
370
    15
100
AcDbLine
 10
532.3622813004
 20
377.1177070107
 30
0.0
 11
530.3622772472
 21
377.1177070107
 31
0.0
  0
LINE
  5
2D4
330
1F
100
AcDbEntity
  8
0
  6
Continuous
 62
     7
370
    15
100
AcDbLine
 10
530.3622772472
 20
377.1177070107
 30
0.0
 11
530.3622772472
 21
373.1177138056
 31
0.0
  0
LINE
  5
2D5
330
1F
100
AcDbEntity
  8
0
  6
Continuous
 62
     7
370
    15
100
AcDbLine
 10
530.3622772472
 20
373.1177138056
 30
0.0
 11
532.3622813004
 21
373.1177138056
 31
0.0
  0
LINE
  5
2D6
330
1F
100
AcDbEntity
  8
0
  6
Continuous
 62
     7
370
    15
100
AcDbLine
 10
532.3622813004
 20
373.1177138056
 30
0.0
 11
532.3622813004
 21
377.1177070107
 31
0.0
  0
LINE
  5
2D7
330
1F
100
AcDbEntity
  8
0
  6
Continuous
 62
     7
370
    15
100
AcDbLine
 10
532.3622813004
 20
275.117708918
 30
0.0
 11
530.3622772472
 21
275.117708918
 31
0.0
  0
LINE
  5
2D8
330
1F
100
AcDbEntity
  8
0
  6
Continuous
 62
     7
370
    15
100
AcDbLine
 10
530.3622772472
 20
275.117708918
 30
0.0
 11
530.3622772472
 21
271.1177082624
 31
0.0
  0
LINE
  5
2D9
330
1F
100
AcDbEntity
  8
0
  6
Continuous
 62
     7
370
    15
100
AcDbLine
 10
530.3622772472
 20
271.1177082624
 30
0.0
 11
532.3622813004
 21
271.1177082624
 31
0.0
  0
LINE
  5
2DA
330
1F
100
AcDbEntity
  8
0
  6
Continuous
 62
     7
370
    15
100
AcDbLine
 10
532.3622813004
 20
271.1177082624
 30
0.0
 11
532.3622813004
 21
275.117708918
 31
0.0
  0
LINE
  5
2DB
330
1F
100
AcDbEntity
  8
0
  6
Continuous
 62
     7
370
    15
100
AcDbLine
 10
508.3622773665
 20
275.117708918
 30
0.0
 11
508.3622773665
 21
271.1177082624
 31
0.0
  0
LINE
  5
2DC
330
1F
100
AcDbEntity
  8
0
  6
Continuous
 62
     7
370
    15
100
AcDbLine
 10
508.3622773665
 20
271.1177082624
 30
0.0
 11
510.3622814196
 21
271.1177082624
 31
0.0
  0
LINE
  5
2DD
330
1F
100
AcDbEntity
  8
0
  6
Continuous
 62
     7
370
    15
100
AcDbLine
 10
510.3622814196
 20
271.1177082624
 30
0.0
 11
510.3622814196
 21
275.117708918
 31
0.0
  0
LINE
  5
2DE
330
1F
100
AcDbEntity
  8
0
  6
Continuous
 62
     7
370
    15
100
AcDbLine
 10
510.3622814196
 20
275.117708918
 30
0.0
 11
508.3622773665
 21
275.117708918
 31
0.0
  0
LINE
  5
2DF
330
1F
100
AcDbEntity
  8
0
  6
Continuous
 62
     7
370
    15
100
AcDbLine
 10
508.3622773665
 20
377.1177070107
 30
0.0
 11
508.3622773665
 21
373.1177138056
 31
0.0
  0
LINE
  5
2E0
330
1F
100
AcDbEntity
  8
0
  6
Continuous
 62
     7
370
    15
100
AcDbLine
 10
508.3622773665
 20
373.1177138056
 30
0.0
 11
510.3622814196
 21
373.1177138056
 31
0.0
  0
LINE
  5
2E1
330
1F
100
AcDbEntity
  8
0
  6
Continuous
 62
     7
370
    15
100
AcDbLine
 10
510.3622814196
 20
373.1177138056
 30
0.0
 11
510.3622814196
 21
377.1177070107
 31
0.0
  0
LINE
  5
2E2
330
1F
100
AcDbEntity
  8
0
  6
Continuous
 62
     7
370
    15
100
AcDbLine
 10
510.3622814196
 20
377.1177070107
 30
0.0
 11
508.3622773665
 21
377.1177070107
 31
0.0
  0
LINE
  5
2E3
330
1F
100
AcDbEntity
  8
0
  6
Continuous
 62
     7
370
    15
100
AcDbLine
 10
510.3622814196
 20
479.1177200045
 30
0.0
 11
508.3622773665
 21
479.1177200045
 31
0.0
  0
LINE
  5
2E4
330
1F
100
AcDbEntity
  8
0
  6
Continuous
 62
     7
370
    15
100
AcDbLine
 10
508.3622773665
 20
479.1177200045
 30
0.0
 11
508.3622773665
 21
475.1177118982
 31
0.0
  0
LINE
  5
2E5
330
1F
100
AcDbEntity
  8
0
  6
Continuous
 62
     7
370
    15
100
AcDbLine
 10
508.3622773665
 20
475.1177118982
 30
0.0
 11
510.3622814196
 21
475.1177118982
 31
0.0
  0
LINE
  5
2E6
330
1F
100
AcDbEntity
  8
0
  6
Continuous
 62
     7
370
    15
100
AcDbLine
 10
510.3622814196
 20
475.1177118982
 30
0.0
 11
510.3622814196
 21
479.1177200045
 31
0.0
  0
CIRCLE
  5
2E7
330
1F
100
AcDbEntity
  8
0
  6
Continuous
 62
     7
370
    15
100
AcDbCircle
 10
797.719421305
 20
344.6177073683
 30
0.0
 40
1.499999999999886
  0
CIRCLE
  5
2E8
330
1F
100
AcDbEntity
  8
0
  6
Continuous
 62
     7
370
    15
100
AcDbCircle
 10
797.719421305
 20
405.6177073683
 30
0.0
 40
1.499999999999886
  0
LINE
  5
2E9
330
1F
100
AcDbEntity
  8
0
  6
Continuous
 62
     7
370
    15
100
AcDbLine
 10
576.7908459085
 20
193.1177075844
 30
0.0
 11
576.7908459085
 21
191.1177072565
 31
0.0
  0
LINE
  5
2EA
330
1F
100
AcDbEntity
  8
0
  6
Continuous
 62
     7
370
    15
100
AcDbLine
 10
576.7908459085
 20
191.1177072565
 30
0.0
 11
580.7908540147
 21
191.1177072565
 31
0.0
  0
LINE
  5
2EB
330
1F
100
AcDbEntity
  8
0
  6
Continuous
 62
     7
370
    15
100
AcDbLine
 10
580.7908540147
 20
191.1177072565
 30
0.0
 11
580.7908540147
 21
193.1177075844
 31
0.0
  0
LINE
  5
2EC
330
1F
100
AcDbEntity
  8
0
  6
Continuous
 62
     7
370
    15
100
AcDbLine
 10
580.7908540147
 20
193.1177075844
 30
0.0
 11
576.7908459085
 21
193.1177075844
 31
0.0
  0
LINE
  5
2ED
330
1F
100
AcDbEntity
  8
0
  6
Continuous
 62
     7
370
    15
100
AcDbLine
 10
576.7908459085
 20
206.1177069213
 30
0.0
 11
580.7908540147
 21
206.1177069213
 31
0.0
  0
LINE
  5
2EE
330
1F
100
AcDbEntity
  8
0
  6
Continuous
 62
     7
370
    15
100
AcDbLine
 10
580.7908540147
 20
206.1177069213
 30
0.0
 11
580.7908540147
 21
208.1177072491
 31
0.0
  0
LINE
  5
2EF
330
1F
100
AcDbEntity
  8
0
  6
Continuous
 62
     7
370
    15
100
AcDbLine
 10
580.7908540147
 20
208.1177072491
 30
0.0
 11
576.7908459085
 21
208.1177072491
 31
0.0
  0
LINE
  5
2F0
330
1F
100
AcDbEntity
  8
0
  6
Continuous
 62
     7
370
    15
100
AcDbLine
 10
576.7908459085
 20
208.1177072491
 30
0.0
 11
576.7908459085
 21
206.1177069213
 31
0.0
  0
LINE
  5
2F1
330
1F
100
AcDbEntity
  8
0
  6
Continuous
 62
     7
370
    15
100
AcDbLine
 10
693.648002066
 20
206.1177069213
 30
0.0
 11
697.6479803699
 21
206.1177069213
 31
0.0
  0
LINE
  5
2F2
330
1F
100
AcDbEntity
  8
0
  6
Continuous
 62
     7
370
    15
100
AcDbLine
 10
697.6479803699
 20
206.1177069213
 30
0.0
 11
697.6479803699
 21
208.1177072491
 31
0.0
  0
LINE
  5
2F3
330
1F
100
AcDbEntity
  8
0
  6
Continuous
 62
     7
370
    15
100
AcDbLine
 10
697.6479803699
 20
208.1177072491
 30
0.0
 11
693.648002066
 21
208.1177072491
 31
0.0
  0
LINE
  5
2F4
330
1F
100
AcDbEntity
  8
0
  6
Continuous
 62
     7
370
    15
100
AcDbLine
 10
693.648002066
 20
208.1177072491
 30
0.0
 11
693.648002066
 21
206.1177069213
 31
0.0
  0
LINE
  5
2F5
330
1F
100
AcDbEntity
  8
0
  6
Continuous
 62
     7
370
    15
100
AcDbLine
 10
693.648002066
 20
191.1177072565
 30
0.0
 11
697.6479803699
 21
191.1177072565
 31
0.0
  0
LINE
  5
2F6
330
1F
100
AcDbEntity
  8
0
  6
Continuous
 62
     7
370
    15
100
AcDbLine
 10
697.6479803699
 20
191.1177072565
 30
0.0
 11
697.6479803699
 21
193.1177075844
 31
0.0
  0
LINE
  5
2F7
330
1F
100
AcDbEntity
  8
0
  6
Continuous
 62
     7
370
    15
100
AcDbLine
 10
697.6479803699
 20
193.1177075844
 30
0.0
 11
693.648002066
 21
193.1177075844
 31
0.0
  0
LINE
  5
2F8
330
1F
100
AcDbEntity
  8
0
  6
Continuous
 62
     7
370
    15
100
AcDbLine
 10
693.648002066
 20
193.1177075844
 30
0.0
 11
693.648002066
 21
191.1177072565
 31
0.0
  0
LINE
  5
2F9
330
1F
100
AcDbEntity
  8
0
  6
Continuous
 62
     7
370
    15
100
AcDbLine
 10
697.6479803699
 20
557.1176992621
 30
0.0
 11
697.6479803699
 21
559.1177033152
 31
0.0
  0
LINE
  5
2FA
330
1F
100
AcDbEntity
  8
0
  6
Continuous
 62
     7
370
    15
100
AcDbLine
 10
697.6479803699
 20
559.1177033152
 30
0.0
 11
693.648002066
 21
559.1177033152
 31
0.0
  0
LINE
  5
2FB
330
1F
100
AcDbEntity
  8
0
  6
Continuous
 62
     7
370
    15
100
AcDbLine
 10
693.648002066
 20
559.1177033152
 30
0.0
 11
693.648002066
 21
557.1176992621
 31
0.0
  0
LINE
  5
2FC
330
1F
100
AcDbEntity
  8
0
  6
Continuous
 62
     7
370
    15
100
AcDbLine
 10
693.648002066
 20
557.1176992621
 30
0.0
 11
697.6479803699
 21
557.1176992621
 31
0.0
  0
LINE
  5
2FD
330
1F
100
AcDbEntity
  8
0
  6
Continuous
 62
     7
370
    15
100
AcDbLine
 10
697.6479803699
 20
542.1177135672
 30
0.0
 11
697.6479803699
 21
544.1177176203
 31
0.0
  0
LINE
  5
2FE
330
1F
100
AcDbEntity
  8
0
  6
Continuous
 62
     7
370
    15
100
AcDbLine
 10
697.6479803699
 20
544.1177176203
 30
0.0
 11
693.648002066
 21
544.1177176203
 31
0.0
  0
LINE
  5
2FF
330
1F
100
AcDbEntity
  8
0
  6
Continuous
 62
     7
370
    15
100
AcDbLine
 10
693.648002066
 20
544.1177176203
 30
0.0
 11
693.648002066
 21
542.1177135672
 31
0.0
  0
LINE
  5
300
330
1F
100
AcDbEntity
  8
0
  6
Continuous
 62
     7
370
    15
100
AcDbLine
 10
693.648002066
 20
542.1177135672
 30
0.0
 11
697.6479803699
 21
542.1177135672
 31
0.0
  0
LINE
  5
301
330
1F
100
AcDbEntity
  8
0
  6
Continuous
 62
     7
370
    15
100
AcDbLine
 10
580.7908540147
 20
544.1177176203
 30
0.0
 11
576.7908459085
 21
544.1177176203
 31
0.0
  0
LINE
  5
302
330
1F
100
AcDbEntity
  8
0
  6
Continuous
 62
     7
370
    15
100
AcDbLine
 10
576.7908459085
 20
544.1177176203
 30
0.0
 11
576.7908459085
 21
542.1177135672
 31
0.0
  0
LINE
  5
303
330
1F
100
AcDbEntity
  8
0
  6
Continuous
 62
     7
370
    15
100
AcDbLine
 10
576.7908459085
 20
542.1177135672
 30
0.0
 11
580.7908540147
 21
542.1177135672
 31
0.0
  0
LINE
  5
304
330
1F
100
AcDbEntity
  8
0
  6
Continuous
 62
     7
370
    15
100
AcDbLine
 10
580.7908540147
 20
542.1177135672
 30
0.0
 11
580.7908540147
 21
544.1177176203
 31
0.0
  0
LINE
  5
305
330
1F
100
AcDbEntity
  8
0
  6
Continuous
 62
     7
370
    15
100
AcDbLine
 10
580.7908540147
 20
559.1177033152
 30
0.0
 11
576.7908459085
 21
559.1177033152
 31
0.0
  0
LINE
  5
306
330
1F
100
AcDbEntity
  8
0
  6
Continuous
 62
     7
370
    15
100
AcDbLine
 10
576.7908459085
 20
559.1177033152
 30
0.0
 11
576.7908459085
 21
557.1176992621
 31
0.0
  0
LINE
  5
307
330
1F
100
AcDbEntity
  8
0
  6
Continuous
 62
     7
370
    15
100
AcDbLine
 10
576.7908459085
 20
557.1176992621
 30
0.0
 11
580.7908540147
 21
557.1176992621
 31
0.0
  0
LINE
  5
308
330
1F
100
AcDbEntity
  8
0
  6
Continuous
 62
     7
370
    15
100
AcDbLine
 10
580.7908540147
 20
557.1176992621
 30
0.0
 11
580.7908540147
 21
559.1177033152
 31
0.0
  0
LINE
  5
309
330
1F
100
AcDbEntity
  8
0
  6
Continuous
 62
     7
370
    15
100
AcDbLine
 10
501.1479919332
 20
569.6177171435
 30
0.0
 11
501.1479919332
 21
564.1176985468
 31
0.0
  0
LINE
  5
30A
330
1F
100
AcDbEntity
  8
0
  6
Continuous
 62
     7
370
    15
100
AcDbLine
 10
518.8622762936
 20
564.1176985468
 30
0.0
 11
501.1479919332
 21
564.1176985468
 31
0.0
  0
LINE
  5
30B
330
1F
100
AcDbEntity
  8
0
  6
Continuous
 62
     7
370
    15
100
AcDbLine
 10
481.1479923802
 20
564.1176985468
 30
0.0
 11
442.719421305
 21
564.1176985468
 31
0.0
  0
ENDSEC
  0
SECTION
  2
OBJECTS
  0
DICTIONARY
  5
C
330
0
100
AcDbDictionary
281
     1
  3
ACAD_GROUP
350
D
  3
ACAD_LAYOUT
350
1A
  3
ACAD_MLEADERSTYLE
350
30D
  3
ACAD_MLINESTYLE
350
17
  3
ACAD_PLOTSETTINGS
350
19
  3
ACAD_PLOTSTYLENAME
350
E
  3
ACAD_TABLESTYLE
350
30C
  3
ACAD_VISUALSTYLE
350
2A
  3
AcDbVariableDictionary
350
30E
  0
DICTIONARY
  5
D
102
{ACAD_REACTORS
330
C
102
}
330
C
100
AcDbDictionary
281
     1
  0
DICTIONARY
  5
1A
102
{ACAD_REACTORS
330
C
102
}
330
C
100
AcDbDictionary
281
     1
  3
Layout1
350
1E
  3
Layout2
350
26
  3
Model
350
22
  0
DICTIONARY
  5
30D
102
{ACAD_REACTORS
330
C
102
}
330
C
100
AcDbDictionary
281
     1
  0
DICTIONARY
  5
17
102
{ACAD_REACTORS
330
C
102
}
330
C
100
AcDbDictionary
281
     1
  3
Standard
350
18
  0
DICTIONARY
  5
19
102
{ACAD_REACTORS
330
C
102
}
330
C
100
AcDbDictionary
281
     1
  0
ACDBDICTIONARYWDFLT
  5
E
102
{ACAD_REACTORS
330
C
102
}
330
C
100
AcDbDictionary
281
     1
  3
Normal
350
F
100
AcDbDictionaryWithDefault
340
F
  0
DICTIONARY
  5
30C
102
{ACAD_REACTORS
330
C
102
}
330
C
100
AcDbDictionary
281
     1
  0
DICTIONARY
  5
2A
102
{ACAD_REACTORS
330
C
102
}
330
C
100
AcDbDictionary
281
     1
  3
2dWireframe
350
2F
  3
3D Hidden
350
31
  3
3dWireframe
350
30
  3
Basic
350
32
  3
Brighten
350
36
  3
ColorChange
350
3A
  3
Conceptual
350
34
  3
Dim
350
35
  3
Facepattern
350
39
  3
Flat
350
2B
  3
FlatWithEdges
350
2C
  3
Gouraud
350
2D
  3
GouraudWithEdges
350
2E
  3
Linepattern
350
38
  3
Realistic
350
33
  3
Thicken
350
37
  0
DICTIONARY
  5
30E
102
{ACAD_REACTORS
330
C
102
}
330
C
100
AcDbDictionary
281
     1
  3
PSOLHEIGHT
350
310
  3
PSOLWIDTH
350
30F
  0
LAYOUT
  5
1E
102
{ACAD_REACTORS
330
1A
102
}
330
1A
100
AcDbPlotSettings
  1

  2
none_device
  4

  6

 40
0.0
 41
0.0
 42
0.0
 43
0.0
 44
0.0
 45
0.0
 46
0.0
 47
0.0
 48
0.0
 49
0.0
140
0.0
141
0.0
142
1.0
143
1.0
 70
   688
 72
     0
 73
     0
 74
     5
  7

 75
    16
147
1.0
148
0.0
149
0.0
100
AcDbLayout
  1
Layout1
 70
     1
 71
     1
 10
0.0
 20
0.0
 11
420.0
 21
297.0
 12
0.0
 22
0.0
 32
0.0
 14
1.0000000000E+20
 24
1.0000000000E+20
 34
1.0000000000E+20
 15
-1.0000000000E+20
 25
-1.0000000000E+20
 35
-1.0000000000E+20
146
0.0
 13
0.0
 23
0.0
 33
0.0
 16
1.0
 26
0.0
 36
0.0
 17
0.0
 27
1.0
 37
0.0
 76
     0
330
1B
  0
LAYOUT
  5
26
102
{ACAD_REACTORS
330
1A
102
}
330
1A
100
AcDbPlotSettings
  1

  2
none_device
  4

  6

 40
0.0
 41
0.0
 42
0.0
 43
0.0
 44
0.0
 45
0.0
 46
0.0
 47
0.0
 48
0.0
 49
0.0
140
0.0
141
0.0
142
1.0
143
1.0
 70
   688
 72
     0
 73
     0
 74
     5
  7

 75
    16
147
1.0
148
0.0
149
0.0
100
AcDbLayout
  1
Layout2
 70
     1
 71
     2
 10
0.0
 20
0.0
 11
0.0
 21
0.0
 12
0.0
 22
0.0
 32
0.0
 14
0.0
 24
0.0
 34
0.0
 15
0.0
 25
0.0
 35
0.0
146
0.0
 13
0.0
 23
0.0
 33
0.0
 16
1.0
 26
0.0
 36
0.0
 17
0.0
 27
1.0
 37
0.0
 76
     0
330
23
  0
LAYOUT
  5
22
102
{ACAD_REACTORS
330
1A
102
}
330
1A
100
AcDbPlotSettings
  1

  2
none_device
  4

  6

 40
0.0
 41
0.0
 42
0.0
 43
0.0
 44
0.0
 45
0.0
 46
0.0
 47
0.0
 48
0.0
 49
0.0
140
0.0
141
0.0
142
1.0
143
1.0
 70
  1712
 72
     0
 73
     0
 74
     0
  7

 75
     0
147
1.0
148
0.0
149
0.0
100
AcDbLayout
  1
Model
 70
     1
 71
     0
 10
0.0
 20
0.0
 11
900.0
 21
600.0
 12
0.0
 22
0.0
 32
0.0
 14
0.0
 24
0.0
 34
0.0
 15
900.0
 25
600.0
 35
0.0
146
0.0
 13
0.0
 23
0.0
 33
0.0
 16
1.0
 26
0.0
 36
0.0
 17
0.0
 27
1.0
 37
0.0
 76
     0
330
1F
331
29
  0
MLINESTYLE
  5
18
102
{ACAD_REACTORS
330
17
102
}
330
17
100
AcDbMlineStyle
  2
Standard
 70
     0
  3

 62
   256
 51
90.0
 52
90.0
 71
     2
 49
0.5
 62
   256
  6
BYLAYER
 49
-0.5
 62
   256
  6
BYLAYER
  0
ACDBPLACEHOLDER
  5
F
102
{ACAD_REACTORS
330
E
102
}
330
E
  0
VISUALSTYLE
  5
2F
102
{ACAD_REACTORS
330
2A
102
}
330
2A
100
AcDbVisualStyle
  2
2dWireframe
 70
     4
 71
     0
 72
     2
 73
     0
 90
        0
 40
-0.6
 41
-30.0
 62
     5
 63
     7
 74
     1
 91
        4
 64
     7
 65
   257
 75
     1
175
     1
 42
1.0
 92
        0
 66
   257
 43
1.0
 76
     1
 77
     6
 78
     2
 67
     7
 79
     5
170
     0
171
     0
290
     0
174
     0
 93
        1
 44
0.0
173
     0
291
     0
 45
0.0
1001
ACAD
1000
AcDbSavedByObjectVersion
1070
     0
  0
VISUALSTYLE
  5
31
102
{ACAD_REACTORS
330
2A
102
}
330
2A
100
AcDbVisualStyle
  2
3D Hidden
 70
     6
 71
     1
 72
     2
 73
     2
 90
        0
 40
-0.6
 41
-30.0
 62
     5
 63
     7
 74
     2
 91
        2
 64
     7
 65
   257
 75
     2
175
     1
 42
40.0
 92
        0
 66
   257
 43
1.0
 76
     1
 77
     6
 78
     2
 67
     7
 79
     3
170
     0
171
     0
290
     0
174
     0
 93
        1
 44
0.0
173
     0
291
     0
 45
0.0
1001
ACAD
1000
AcDbSavedByObjectVersion
1070
     0
  0
VISUALSTYLE
  5
30
102
{ACAD_REACTORS
330
2A
102
}
330
2A
100
AcDbVisualStyle
  2
3dWireframe
 70
     5
 71
     0
 72
     2
 73
     0
 90
        0
 40
-0.6
 41
-30.0
 62
     5
 63
     7
 74
     1
 91
        4
 64
     7
 65
   257
 75
     1
175
     1
 42
1.0
 92
        0
 66
   257
 43
1.0
 76
     1
 77
     6
 78
     2
 67
     7
 79
     5
170
     0
171
     0
290
     0
174
     0
 93
        1
 44
0.0
173
     0
291
     0
 45
0.0
1001
ACAD
1000
AcDbSavedByObjectVersion
1070
     0
  0
VISUALSTYLE
  5
32
102
{ACAD_REACTORS
330
2A
102
}
330
2A
100
AcDbVisualStyle
  2
Basic
 70
     7
 71
     1
 72
     0
 73
     1
 90
        0
 40
-0.6
 41
-30.0
 62
     5
 63
     7
 74
     0
 91
        4
 64
     7
 65
   257
 75
     1
175
     1
 42
1.0
 92
        8
 66
     7
 43
1.0
 76
     1
 77
     6
 78
     2
 67
     7
 79
     5
170
     0
171
     0
290
     0
174
     0
 93
        1
 44
0.0
173
     0
291
     1
 45
0.0
1001
ACAD
1000
AcDbSavedByObjectVersion
1070
     0
  0
VISUALSTYLE
  5
36
102
{ACAD_REACTORS
330
2A
102
}
330
2A
100
AcDbVisualStyle
  2
Brighten
 70
    12
 71
     2
 72
     2
 73
     0
 90
        0
 40
-0.6
 41
-30.0
 62
     5
 63
     7
 74
     1
 91
        4
 64
     7
 65
   257
 75
     1
175
     1
 42
1.0
 92
        8
 66
     7
 43
1.0
 76
     1
 77
     6
 78
     2
 67
     7
 79
     5
170
     0
171
     0
290
     0
174
     0
 93
        1
 44
50.0
173
     0
291
     1
 45
0.0
1001
ACAD
1000
AcDbSavedByObjectVersion
1070
     0
  0
VISUALSTYLE
  5
3A
102
{ACAD_REACTORS
330
2A
102
}
330
2A
100
AcDbVisualStyle
  2
ColorChange
 70
    16
 71
     2
 72
     2
 73
     3
 90
        0
 40
-0.6
 41
-30.0
 62
     5
 63
     8
 74
     1
 91
        4
 64
     7
 65
   257
 75
     1
175
     1
 42
1.0
 92
        8
 66
     8
 43
1.0
 76
     1
 77
     6
 78
     2
 67
     7
 79
     5
170
     0
171
     0
290
     0
174
     0
 93
        1
 44
0.0
173
     0
291
     1
 45
0.0
1001
ACAD
1000
AcDbSavedByObjectVersion
1070
     0
  0
VISUALSTYLE
  5
34
102
{ACAD_REACTORS
330
2A
102
}
330
2A
100
AcDbVisualStyle
  2
Conceptual
 70
     9
 71
     3
 72
     2
 73
     0
 90
        0
 40
-0.6
 41
-30.0
 62
     5
 63
     7
 74
     2
 91
        2
 64
     7
 65
   257
 75
     1
175
     1
 42
40.0
 92
        8
 66
     7
 43
1.0
 76
     1
 77
     6
 78
     2
 67
     7
 79
     3
170
     0
171
     0
290
     0
174
     0
 93
        1
 44
0.0
173
     0
291
     0
 45
0.0
1001
ACAD
1000
AcDbSavedByObjectVersion
1070
     0
  0
VISUALSTYLE
  5
35
102
{ACAD_REACTORS
330
2A
102
}
330
2A
100
AcDbVisualStyle
  2
Dim
 70
    11
 71
     2
 72
     2
 73
     0
 90
        0
 40
-0.6
 41
-30.0
 62
     5
 63
     7
 74
     1
 91
        4
 64
     7
 65
   257
 75
     1
175
     1
 42
1.0
 92
        8
 66
     7
 43
1.0
 76
     1
 77
     6
 78
     2
 67
     7
 79
     5
170
     0
171
     0
290
     0
174
     0
 93
        1
 44
-50.0
173
     0
291
     1
 45
0.0
1001
ACAD
1000
AcDbSavedByObjectVersion
1070
     0
  0
VISUALSTYLE
  5
39
102
{ACAD_REACTORS
330
2A
102
}
330
2A
100
AcDbVisualStyle
  2
Facepattern
 70
    15
 71
     2
 72
     2
 73
     0
 90
        0
 40
-0.6
 41
-30.0
 62
     5
 63
     7
 74
     1
 91
        4
 64
     7
 65
   257
 75
     1
175
     1
 42
1.0
 92
        8
 66
     7
 43
1.0
 76
     1
 77
     6
 78
     2
 67
     7
 79
     5
170
     0
171
     0
290
     0
174
     0
 93
        1
 44
0.0
173
     0
291
     1
 45
0.0
1001
ACAD
1000
AcDbSavedByObjectVersion
1070
     0
  0
VISUALSTYLE
  5
2B
102
{ACAD_REACTORS
330
2A
102
}
330
2A
100
AcDbVisualStyle
  2
Flat
 70
     0
 71
     2
 72
     1
 73
     1
 90
        2
 40
-0.6
 41
30.0
 62
     5
 63
     7
 74
     0
 91
        4
 64
     7
 65
   257
 75
     1
175
     1
 42
1.0
 92
        8
 66
     7
 43
1.0
 76
     1
 77
     6
 78
     2
 67
     7
 79
     5
170
     0
171
     0
290
     0
174
     0
 93
       13
 44
0.0
173
     0
291
     1
 45
0.0
1001
ACAD
1000
AcDbSavedByObjectVersion
1070
     0
  0
VISUALSTYLE
  5
2C
102
{ACAD_REACTORS
330
2A
102
}
330
2A
100
AcDbVisualStyle
  2
FlatWithEdges
 70
     1
 71
     2
 72
     1
 73
     1
 90
        2
 40
-0.6
 41
30.0
 62
     5
 63
     7
 74
     1
 91
        4
 64
     7
 65
   257
 75
     1
175
     1
 42
1.0
 92
        0
 66
   257
 43
1.0
 76
     1
 77
     6
 78
     2
 67
     7
 79
     5
170
     0
171
     0
290
     0
174
     0
 93
       13
 44
0.0
173
     0
291
     1
 45
0.0
1001
ACAD
1000
AcDbSavedByObjectVersion
1070
     0
  0
VISUALSTYLE
  5
2D
102
{ACAD_REACTORS
330
2A
102
}
330
2A
100
AcDbVisualStyle
  2
Gouraud
 70
     2
 71
     2
 72
     2
 73
     1
 90
        2
 40
-0.6
 41
30.0
 62
     5
 63
     7
 74
     0
 91
        4
 64
     7
 65
   257
 75
     1
175
     1
 42
1.0
 92
        0
 66
     7
 43
1.0
 76
     1
 77
     6
 78
     2
 67
     7
 79
     5
170
     0
171
     0
290
     0
174
     0
 93
       13
 44
0.0
173
     0
291
     1
 45
0.0
1001
ACAD
1000
AcDbSavedByObjectVersion
1070
     0
  0
VISUALSTYLE
  5
2E
102
{ACAD_REACTORS
330
2A
102
}
330
2A
100
AcDbVisualStyle
  2
GouraudWithEdges
 70
     3
 71
     2
 72
     2
 73
     1
 90
        2
 40
-0.6
 41
30.0
 62
     5
 63
     7
 74
     1
 91
        4
 64
     7
 65
   257
 75
     1
175
     1
 42
1.0
 92
        0
 66
   257
 43
1.0
 76
     1
 77
     6
 78
     2
 67
     7
 79
     5
170
     0
171
     0
290
     0
174
     0
 93
       13
 44
0.0
173
     0
291
     1
 45
0.0
1001
ACAD
1000
AcDbSavedByObjectVersion
1070
     0
  0
VISUALSTYLE
  5
38
102
{ACAD_REACTORS
330
2A
102
}
330
2A
100
AcDbVisualStyle
  2
Linepattern
 70
    14
 71
     2
 72
     2
 73
     0
 90
        0
 40
-0.6
 41
-30.0
 62
     5
 63
     7
 74
     1
 91
        4
 64
     7
 65
   257
 75
     7
175
     7
 42
1.0
 92
        8
 66
     7
 43
1.0
 76
     1
 77
     6
 78
     2
 67
     7
 79
     5
170
     0
171
     0
290
     0
174
     0
 93
        1
 44
0.0
173
     0
291
     1
 45
0.0
1001
ACAD
1000
AcDbSavedByObjectVersion
1070
     0
  0
VISUALSTYLE
  5
33
102
{ACAD_REACTORS
330
2A
102
}
330
2A
100
AcDbVisualStyle
  2
Realistic
 70
     8
 71
     2
 72
     2
 73
     0
 90
        0
 40
-0.6
 41
-30.0
 62
     5
 63
     7
 74
     1
 91
        0
 64
     7
 65
   257
 75
     1
175
     1
 42
1.0
 92
        8
 66
     8
 43
1.0
 76
     1
 77
     6
 78
     2
 67
     7
 79
     5
170
     0
171
     0
290
     0
174
     0
 93
       13
 44
0.0
173
     0
291
     0
 45
0.0
1001
ACAD
1000
AcDbSavedByObjectVersion
1070
     0
  0
VISUALSTYLE
  5
37
102
{ACAD_REACTORS
330
2A
102
}
330
2A
100
AcDbVisualStyle
  2
Thicken
 70
    13
 71
     2
 72
     2
 73
     0
 90
        0
 40
-0.6
 41
-30.0
 62
     5
 63
     7
 74
     1
 91
        4
 64
     7
 65
   257
 75
     1
175
     1
 42
1.0
 92
       12
 66
     7
 43
1.0
 76
     1
 77
     6
 78
     2
 67
     7
 79
     5
170
     0
171
     0
290
     0
174
     0
 93
        1
 44
0.0
173
     0
291
     1
 45
0.0
1001
ACAD
1000
AcDbSavedByObjectVersion
1070
     0
  0
DICTIONARYVAR
  5
310
102
{ACAD_REACTORS
330
30E
102
}
330
30E
100
DictionaryVariables
280
     0
  1
80.000000
  0
DICTIONARYVAR
  5
30F
102
{ACAD_REACTORS
330
30E
102
}
330
30E
100
DictionaryVariables
280
     0
  1
5.000000
  0
ENDSEC
  0
EOF
